<svg width="1496" height="329" viewBox="0 0 1496 329" fill="none" xmlns="http://www.w3.org/2000/svg">
<g clip-path="url(#clip0_2_239)">
<g clip-path="url(#clip1_2_239)">
<g clip-path="url(#clip2_2_239)">
<g clip-path="url(#clip3_2_239)">
<g clip-path="url(#clip4_2_239)">
<g clip-path="url(#clip5_2_239)">
<path d="M513.909 41.5286H439.731V95.4168H504.527V108.507H439.731V181.158H424.022V28.4384H513.909V41.5286ZM542.707 181.158V8.58484H557.543V181.158H542.707ZM692.808 112.652C692.808 115.998 692.663 119.343 692.372 122.688H605.54C605.831 137.815 609.205 149.596 615.663 158.032C622.15 166.468 631.139 170.686 642.629 170.686C650.454 170.686 657.101 169.158 662.57 166.104C668.039 163.05 672.591 158.177 676.228 151.487C677.246 149.596 678.773 148.65 680.809 148.65C683.136 148.65 686.322 150.032 690.365 152.796C687.194 162.25 681.318 169.697 672.737 175.136C664.126 180.605 654.09 183.34 642.629 183.34C632.012 183.34 622.732 180.823 614.791 175.791C606.878 170.787 600.813 163.588 596.595 154.192C592.377 144.825 590.268 133.742 590.268 120.943C590.268 101.598 595.068 86.4281 604.668 75.4323C614.267 64.4656 627.43 58.9823 644.156 58.9823C659.428 58.9823 671.355 63.7093 679.936 73.1634C688.518 82.6174 692.808 95.7804 692.808 112.652ZM605.977 110.907H677.537C677.537 84.7264 666.192 71.6362 643.502 71.6362C632.448 71.6362 623.721 74.9814 617.321 81.672C610.922 88.3626 607.14 98.1075 605.977 110.907ZM764.107 118.979C772.106 126.833 778.651 133.669 783.742 139.487C788.833 145.305 793.24 151.734 796.963 158.774C800.657 165.842 802.868 173.304 803.596 181.158H787.451C786.578 171.849 783.349 163.195 777.764 155.196C772.15 147.196 764.325 138.324 754.289 128.579C744.253 138.324 736.443 147.196 730.857 155.196C725.243 163.195 722 171.849 721.127 181.158H704.982C705.71 173.304 707.935 165.842 711.658 158.774C715.353 151.734 719.745 145.305 724.836 139.487C729.927 133.669 736.472 126.833 744.471 118.979C733.272 108.216 724.589 98.4711 718.422 89.7443C712.226 81.0175 708.619 71.4907 707.6 61.164H723.745C724.618 69.4545 727.672 77.4104 732.908 85.0318C738.144 92.6824 745.271 100.871 754.289 109.598C763.307 100.871 770.434 92.6824 775.67 85.0318C780.906 77.4104 783.96 69.4545 784.833 61.164H800.977C799.959 71.4907 796.367 81.0175 790.2 89.7443C784.004 98.4711 775.306 108.216 764.107 118.979ZM831.085 181.158V61.164H845.921V181.158H831.085ZM837.63 39.1287C831.085 39.1287 827.812 35.8562 827.812 29.3111V27.3475C827.812 20.8024 831.085 17.5298 837.63 17.5298H839.376C845.921 17.5298 849.193 20.8024 849.193 27.3475V29.3111C849.193 35.8562 845.921 39.1287 839.376 39.1287H837.63ZM940.17 183.34C930.135 183.34 920.899 181.769 912.463 178.627C904.027 175.514 897.336 171.267 892.391 165.886C887.446 160.504 884.973 154.614 884.973 148.214C884.973 145.305 886.02 142.934 888.115 141.102C890.238 139.298 893.045 138.324 896.536 138.178C898.863 148.505 903.809 156.359 911.372 161.741C918.935 167.122 928.68 169.813 940.607 169.813C952.824 169.813 962.671 166.977 970.147 161.304C977.652 155.632 981.405 148.214 981.405 139.051C981.405 133.669 980.052 129.088 977.347 125.306C974.67 121.525 970.278 118.136 964.169 115.139C958.06 112.172 949.624 109.307 938.861 106.543C926.353 103.198 916.535 99.6638 909.408 95.9404C902.281 92.246 897.147 88.028 894.005 83.2865C890.893 78.574 889.337 72.727 889.337 65.7455C889.337 53.528 893.845 43.8848 902.863 36.8161C911.881 29.7765 924.317 26.2567 940.17 26.2567C953.988 26.2567 965.507 29.5001 974.729 35.9871C983.979 42.4449 990.204 51.5645 993.404 63.3457C991.513 65.2365 988.604 66.1819 984.677 66.1819C980.605 66.1819 977.623 64.2184 975.732 60.2913C972.532 53.8916 967.689 48.801 961.202 45.0193C954.744 41.2377 947.734 39.3469 940.17 39.3469C928.68 39.3469 919.953 41.6013 913.99 46.1102C908.027 50.619 905.045 57.1642 905.045 65.7455C905.045 70.109 906.136 73.7742 908.317 76.7414C910.499 79.7376 914.135 82.472 919.226 84.9446C924.317 87.4172 931.516 89.9625 940.825 92.5805C956.388 96.944 968.125 101.089 976.038 105.016C983.979 108.943 989.55 113.379 992.749 118.325C995.949 123.27 997.549 129.742 997.549 137.742C997.549 146.905 995.222 154.948 990.568 161.872C985.913 168.766 979.252 174.06 970.583 177.754C961.944 181.478 951.806 183.34 940.17 183.34ZM1081.54 58.9823C1097.84 58.9823 1110.27 64.3202 1118.85 74.996C1127.43 85.7009 1131.72 101.016 1131.72 120.943C1131.72 133.597 1129.5 144.607 1125.05 153.974C1120.63 163.37 1114.23 170.613 1105.85 175.704C1097.5 180.794 1087.73 183.34 1076.53 183.34C1071 183.34 1065.43 182.801 1059.82 181.725C1054.23 180.62 1049.26 179.194 1044.89 177.449V229.155H1030.06V101.962C1030.06 80.4357 1029.18 67.6364 1027.44 63.5638C1032.09 61.3821 1035.8 60.2913 1038.57 60.2913C1042.78 60.2913 1044.89 64.5093 1044.89 72.9452V73.8179C1049.69 69.0181 1055.25 65.3383 1061.56 62.7784C1067.9 60.2477 1074.56 58.9823 1081.54 58.9823ZM1076.53 171.122C1089.04 171.122 1098.74 166.759 1105.63 158.032C1112.55 149.305 1116.02 136.942 1116.02 120.943C1116.02 87.7808 1104.53 71.1998 1081.54 71.1998C1074.85 71.1998 1068.34 72.727 1062 75.7814C1055.68 78.8358 1049.98 83.1992 1044.89 88.8716V164.577C1053.91 168.94 1064.45 171.122 1076.53 171.122ZM1244.26 151.268C1244.26 157.959 1244.81 163.224 1245.91 167.064C1246.99 170.933 1248.91 174.395 1251.67 177.449C1250.22 178.903 1248.52 180.067 1246.57 180.94C1244.59 181.812 1242.73 182.249 1240.98 182.249C1238.08 182.249 1235.65 180.576 1233.7 177.231C1231.72 173.885 1230.44 169.304 1229.86 163.486C1225.35 169.595 1219.31 174.424 1211.75 177.973C1204.19 181.551 1196.26 183.34 1187.97 183.34C1176.91 183.34 1168.04 180.46 1161.35 174.7C1154.66 168.969 1151.32 161.45 1151.32 152.141C1151.32 138.469 1157.98 127.779 1171.3 120.07C1184.59 112.361 1203.97 107.925 1229.42 106.762V99.7802C1229.42 90.1807 1226.99 83.0101 1222.13 78.2685C1217.25 73.5561 1209.86 71.1998 1199.97 71.1998C1193.57 71.1998 1187.65 72.5379 1182.21 75.2142C1176.74 77.9195 1170.88 82.3992 1164.62 88.6535C1163.75 89.5261 1162.66 89.9625 1161.35 89.9625C1159.9 89.9625 1158.3 89.3371 1156.55 88.0862C1154.81 86.8645 1153.13 85.09 1151.53 82.7629C1158.08 75.0542 1165.54 69.1636 1173.92 65.091C1182.27 61.0185 1191.17 58.9823 1200.62 58.9823C1214.15 58.9823 1224.81 62.6184 1232.61 69.8908C1240.37 77.1631 1244.26 87.1263 1244.26 99.7802V151.268ZM1189.06 171.122C1196.91 171.122 1204.33 168.94 1211.31 164.577C1218.29 160.213 1224.33 154.032 1229.42 146.032V118.979C1187.53 120.725 1166.59 131.706 1166.59 151.923C1166.59 164.722 1174.08 171.122 1189.06 171.122ZM1326.73 183.34C1309.13 183.34 1295.42 177.813 1285.62 166.759C1275.79 155.705 1270.87 140.287 1270.87 120.506C1270.87 107.998 1273.1 97.1185 1277.55 87.8681C1281.97 78.6467 1288.33 71.5198 1296.62 66.4873C1304.91 61.4839 1314.65 58.9823 1325.85 58.9823C1339.23 58.9823 1350.26 62.3566 1358.93 69.1054C1367.57 75.8832 1372.61 85.09 1374.07 96.7258C1372.76 97.3076 1370.98 97.8894 1368.74 98.4711C1366.48 99.0529 1364.61 99.3438 1363.16 99.3438C1361.71 99.3438 1360.66 98.9366 1360.02 98.1221C1359.35 97.3367 1358.65 95.6349 1357.92 93.0169C1356.32 86.1809 1352.69 80.8284 1347.02 76.9595C1341.34 73.1197 1334.29 71.1998 1325.85 71.1998C1318 71.1998 1311.06 73.2361 1305.04 77.3086C1298.99 81.3811 1294.33 87.1554 1291.08 94.6313C1287.79 102.136 1286.15 110.761 1286.15 120.506C1286.15 135.924 1289.83 148.214 1297.18 157.377C1304.52 166.54 1314.36 171.122 1326.73 171.122C1336.18 171.122 1344.25 168.897 1350.94 164.446C1357.63 160.024 1362.65 153.523 1366 144.942C1368.03 144.942 1369.75 145.814 1371.14 147.56C1372.51 149.305 1373.2 151.341 1373.2 153.668C1373.2 158.759 1371.06 163.588 1366.78 168.155C1362.48 172.751 1356.73 176.431 1349.55 179.194C1342.33 181.958 1334.72 183.34 1326.73 183.34ZM1495.81 112.652C1495.81 115.998 1495.66 119.343 1495.37 122.688H1408.54C1408.83 137.815 1412.2 149.596 1418.66 158.032C1425.15 166.468 1434.14 170.686 1445.63 170.686C1453.48 170.686 1460.13 169.158 1465.57 166.104C1471.04 163.05 1475.59 158.177 1479.23 151.487C1480.24 149.596 1481.77 148.65 1483.81 148.65C1486.14 148.65 1489.34 150.032 1493.41 152.796C1490.21 162.25 1484.32 169.697 1475.74 175.136C1467.15 180.605 1457.12 183.34 1445.63 183.34C1435.01 183.34 1425.73 180.823 1417.79 175.791C1409.88 170.787 1403.81 163.588 1399.59 154.192C1395.38 144.825 1393.27 133.742 1393.27 120.943C1393.27 101.598 1398.07 86.4281 1407.67 75.4323C1417.27 64.4656 1430.43 58.9823 1447.16 58.9823C1462.43 58.9823 1474.35 63.7093 1482.94 73.1634C1491.52 82.6174 1495.81 95.7804 1495.81 112.652ZM1408.98 110.907H1480.54C1480.54 84.7264 1469.19 71.6362 1446.5 71.6362C1435.45 71.6362 1426.72 74.9814 1420.32 81.672C1413.92 88.3626 1410.14 98.1075 1408.98 110.907Z" fill="url(#paint0_linear_2_239)"/>
</g>
</g>
<g clip-path="url(#clip6_2_239)">
<g clip-path="url(#clip7_2_239)">
<path d="M628.244 287.577H615.109V297.011H626.43V300.168H615.109V311.924H611.589V284.42H628.244V287.577ZM638.331 312.396C636.517 312.396 635.211 312.033 634.412 311.307C633.614 310.582 633.215 309.36 633.215 307.643V281.227H636.626V306.735C636.626 307.703 636.776 308.363 637.076 308.717C637.381 309.065 637.956 309.239 638.803 309.239C639.48 309.239 640.085 309.167 640.617 309.021V312.142C639.65 312.311 638.888 312.396 638.331 312.396ZM647.112 302.164C647.161 304.389 647.717 306.167 648.781 307.497C649.846 308.828 651.539 309.493 653.861 309.493C655.627 309.493 657.56 308.997 659.66 308.005L660.719 310.836C658.518 311.973 656.135 312.541 653.571 312.541C651.442 312.541 649.628 312.094 648.128 311.199C646.629 310.304 645.492 309.058 644.717 307.461C643.943 305.865 643.556 304.002 643.556 301.873C643.556 299.624 643.96 297.705 644.768 296.118C645.581 294.536 646.677 293.334 648.056 292.512C649.435 291.689 650.983 291.278 652.7 291.278C655.337 291.278 657.405 292.1 658.905 293.745C660.405 295.39 661.155 297.749 661.155 300.821V302.164H647.112ZM652.7 294.326C649.701 294.326 647.911 295.983 647.33 299.297H657.563C657.442 297.604 656.982 296.351 656.184 295.538C655.385 294.73 654.224 294.326 652.7 294.326ZM682.592 311.924H678.492L673.194 304.123L668.114 311.924H664.014L671.09 301.438L664.377 291.858H668.477L673.339 299.043L678.238 291.858H682.266L675.371 301.728L682.592 311.924ZM687.128 288.085V282.606H690.539V288.085H687.128ZM687.128 311.924V291.858H690.539V311.924H687.128ZM706.287 291.278C708.996 291.278 711.154 292.185 712.76 293.999C714.371 295.814 715.177 298.45 715.177 301.91C715.177 305.369 714.371 308.005 712.76 309.82C711.154 311.634 708.996 312.541 706.287 312.541C704.327 312.541 702.392 311.731 700.481 310.11V311.924H697.07V281.227H700.481V293.745C702.416 292.1 704.351 291.278 706.287 291.278ZM705.815 309.384C707.726 309.384 709.177 308.748 710.169 307.476C711.161 306.208 711.657 304.353 711.657 301.91C711.657 299.466 711.161 297.616 710.169 296.358C709.177 295.1 707.726 294.471 705.815 294.471C704.001 294.471 702.223 295.221 700.481 296.721V307.135C702.271 308.634 704.049 309.384 705.815 309.384ZM725.627 312.396C723.813 312.396 722.506 312.033 721.708 311.307C720.91 310.582 720.511 309.36 720.511 307.643V281.227H723.914V306.735C723.914 307.703 724.067 308.363 724.371 308.717C724.671 309.065 725.245 309.239 726.091 309.239C726.769 309.239 727.373 309.167 727.906 309.021V312.142C726.938 312.311 726.178 312.396 725.627 312.396ZM734.401 302.164C734.449 304.389 735.005 306.167 736.07 307.497C737.134 308.828 738.827 309.493 741.15 309.493C742.916 309.493 744.851 308.997 746.955 308.005L748.008 310.836C745.806 311.973 743.424 312.541 740.859 312.541C738.731 312.541 736.916 312.094 735.417 311.199C733.917 310.304 732.78 309.058 732.006 307.461C731.232 305.865 730.845 304.002 730.845 301.873C730.845 299.624 731.251 297.705 732.064 296.118C732.872 294.536 733.965 293.334 735.344 292.512C736.723 291.689 738.271 291.278 739.989 291.278C742.625 291.278 744.694 292.1 746.193 293.745C747.693 295.39 748.443 297.749 748.443 300.821V302.164H734.401ZM739.989 294.326C736.989 294.326 735.199 295.983 734.618 299.297H744.851C744.73 297.604 744.27 296.351 743.472 295.538C742.674 294.73 741.513 294.326 739.989 294.326ZM769.706 312.541C766.199 312.541 763.066 311.888 760.308 310.582V307.243C763.09 308.719 766.223 309.457 769.706 309.457C771.714 309.457 773.183 309.034 774.111 308.187C775.045 307.34 775.512 306.227 775.512 304.849C775.512 303.542 775.081 302.563 774.22 301.91C773.364 301.256 772.101 300.688 770.432 300.204L767.965 299.515C766.562 299.103 765.364 298.632 764.372 298.1C763.381 297.567 762.551 296.798 761.883 295.792C761.22 294.79 760.889 293.479 760.889 291.858C760.889 289.27 761.644 287.299 763.153 285.944C764.668 284.589 766.816 283.912 769.598 283.912C771.218 283.912 772.646 284.062 773.879 284.362C775.113 284.667 776.395 285.121 777.725 285.726V288.992C775.258 287.661 772.549 286.996 769.598 286.996C767.807 286.996 766.501 287.412 765.679 288.244C764.856 289.081 764.445 290.226 764.445 291.677C764.469 293.007 764.873 293.987 765.657 294.616C766.446 295.245 767.674 295.801 769.344 296.285L771.847 296.975C773.323 297.386 774.573 297.862 775.599 298.404C776.63 298.951 777.464 299.737 778.103 300.763C778.746 301.793 779.068 303.131 779.068 304.776C779.044 307.171 778.202 309.065 776.543 310.458C774.888 311.847 772.609 312.541 769.706 312.541ZM793.836 291.278C796.541 291.278 798.698 292.185 800.31 293.999C801.921 295.814 802.726 298.45 802.726 301.91C802.726 305.369 801.921 308.005 800.31 309.82C798.698 311.634 796.541 312.541 793.836 312.541C791.877 312.541 789.939 311.731 788.023 310.11V320.415H784.62V291.858H788.023V293.745C789.959 292.1 791.896 291.278 793.836 291.278ZM793.365 309.384C795.271 309.384 796.72 308.748 797.712 307.476C798.708 306.208 799.206 304.353 799.206 301.91C799.206 299.466 798.708 297.616 797.712 296.358C796.72 295.1 795.271 294.471 793.365 294.471C791.55 294.471 789.77 295.221 788.023 296.721V307.135C789.818 308.634 791.599 309.384 793.365 309.384ZM814.221 291.858C816.35 291.858 817.971 292.214 819.084 292.925C820.196 293.641 820.934 294.597 821.297 295.792C821.66 296.992 821.841 298.499 821.841 300.313V311.924H818.43V309.929C817.511 310.799 816.592 311.428 815.673 311.815C814.754 312.202 813.762 312.396 812.697 312.396C811.44 312.396 810.303 312.123 809.287 311.576C808.271 311.034 807.467 310.248 806.877 309.217C806.282 308.192 805.985 306.977 805.985 305.574C805.985 303.397 806.662 301.709 808.017 300.509C809.371 299.314 811.198 298.716 813.496 298.716C815.31 298.716 816.943 299.116 818.394 299.914C818.37 298.728 818.249 297.785 818.031 297.084C817.814 296.382 817.366 295.843 816.689 295.465C816.011 295.093 815.008 294.906 813.677 294.906H810.992V291.858H814.221ZM813.169 309.457C813.992 309.457 814.858 309.263 815.767 308.876C816.672 308.489 817.56 307.909 818.43 307.135V302.563C817.076 301.885 815.6 301.547 814.004 301.547C812.722 301.547 811.645 301.854 810.774 302.468C809.903 303.088 809.468 304.123 809.468 305.574C809.468 306.929 809.838 307.916 810.578 308.535C811.314 309.15 812.177 309.457 813.169 309.457ZM835.956 312.541C832.836 312.517 830.434 311.549 828.75 309.638C827.071 307.727 826.232 305.139 826.232 301.873C826.232 298.608 827.071 296.031 828.75 294.144C830.434 292.258 832.836 291.302 835.956 291.278C837.045 291.278 837.981 291.355 838.765 291.51C839.553 291.67 840.395 291.931 841.29 292.294V295.596C840.419 295.185 839.59 294.894 838.801 294.725C838.017 294.556 837.154 294.471 836.21 294.471C833.961 294.495 832.328 295.165 831.312 296.481C830.296 297.802 829.788 299.587 829.788 301.837C829.788 304.135 830.296 305.961 831.312 307.316C832.328 308.671 833.936 309.36 836.138 309.384C837.855 309.384 839.73 308.864 841.762 307.824L842.851 310.799C840.649 311.961 838.351 312.541 835.956 312.541ZM849.6 302.164C849.648 304.389 850.204 306.167 851.269 307.497C852.333 308.828 854.027 309.493 856.349 309.493C858.115 309.493 860.05 308.997 862.154 308.005L863.207 310.836C861.005 311.973 858.623 312.541 856.059 312.541C853.93 312.541 852.116 312.094 850.616 311.199C849.116 310.304 847.979 309.058 847.205 307.461C846.431 305.865 846.044 304.002 846.044 301.873C846.044 299.624 846.448 297.705 847.256 296.118C848.068 294.536 849.164 293.334 850.543 292.512C851.922 291.689 853.47 291.278 855.188 291.278C857.824 291.278 859.893 292.1 861.392 293.745C862.892 295.39 863.642 297.749 863.642 300.821V302.164H849.6ZM855.188 294.326C852.188 294.326 850.398 295.983 849.817 299.297H860.05C859.929 297.604 859.469 296.351 858.671 295.538C857.873 294.73 856.712 294.326 855.188 294.326ZM874.593 312.541C873.122 312.541 871.819 312.42 870.682 312.178C869.54 311.936 868.354 311.525 867.126 310.945V307.57C869.424 308.852 871.913 309.493 874.593 309.493C875.948 309.493 876.923 309.22 877.518 308.673C878.108 308.131 878.403 307.413 878.403 306.518C878.403 305.647 878.168 305.006 877.699 304.595C877.225 304.183 876.458 303.833 875.399 303.542L873.04 302.962C871.347 302.551 870.016 301.897 869.049 301.002C868.081 300.107 867.597 298.789 867.597 297.047C867.597 295.233 868.188 293.818 869.368 292.802C870.553 291.786 872.295 291.278 874.593 291.278C875.783 291.278 876.884 291.392 877.895 291.619C878.916 291.851 879.932 292.173 880.943 292.584V295.777C879.956 295.318 878.979 294.96 878.011 294.703C877.044 294.452 875.943 294.326 874.709 294.326C873.422 294.326 872.496 294.573 871.93 295.066C871.364 295.564 871.081 296.189 871.081 296.938C871.081 297.761 871.327 298.385 871.821 298.811C872.319 299.232 873.04 299.563 873.984 299.805L876.378 300.349C877.588 300.64 878.585 301.002 879.368 301.438C880.157 301.873 880.774 302.483 881.219 303.267C881.664 304.055 881.887 305.103 881.887 306.409C881.887 308.368 881.229 309.88 879.913 310.945C878.597 312.009 876.823 312.541 874.593 312.541ZM885.95 317.403L888.128 306.082H891.756L889.107 317.403H885.95ZM913.854 312.541C910.346 312.541 907.214 311.888 904.456 310.582V307.243C907.238 308.719 910.371 309.457 913.854 309.457C915.862 309.457 917.33 309.034 918.259 308.187C919.193 307.34 919.66 306.227 919.66 304.849C919.66 303.542 919.229 302.563 918.368 301.91C917.512 301.256 916.249 300.688 914.58 300.204L912.112 299.515C910.709 299.103 909.512 298.632 908.52 298.1C907.528 297.567 906.698 296.798 906.031 295.792C905.368 294.79 905.037 293.479 905.037 291.858C905.037 289.27 905.791 287.299 907.301 285.944C908.815 284.589 910.963 283.912 913.745 283.912C915.366 283.912 916.793 284.062 918.027 284.362C919.261 284.667 920.543 285.121 921.873 285.726V288.992C919.406 287.661 916.696 286.996 913.745 286.996C911.955 286.996 910.649 287.412 909.826 288.244C909.004 289.081 908.593 290.226 908.593 291.677C908.617 293.007 909.021 293.987 909.805 294.616C910.593 295.245 911.822 295.801 913.491 296.285L915.995 296.975C917.47 297.386 918.721 297.862 919.747 298.404C920.777 298.951 921.612 299.737 922.25 300.763C922.894 301.793 923.216 303.131 923.216 304.776C923.191 307.171 922.35 309.065 920.69 310.458C919.036 311.847 916.757 312.541 913.854 312.541ZM931.082 302.164C931.131 304.389 931.687 306.167 932.751 307.497C933.816 308.828 935.509 309.493 937.831 309.493C939.597 309.493 941.533 308.997 943.637 308.005L944.689 310.836C942.488 311.973 940.105 312.541 937.541 312.541C935.412 312.541 933.598 312.094 932.098 311.199C930.599 310.304 929.462 309.058 928.687 307.461C927.913 305.865 927.526 304.002 927.526 301.873C927.526 299.624 927.933 297.705 928.746 296.118C929.554 294.536 930.647 293.334 932.026 292.512C933.405 291.689 934.953 291.278 936.67 291.278C939.307 291.278 941.375 292.1 942.875 293.745C944.375 295.39 945.125 297.749 945.125 300.821V302.164H931.082ZM936.67 294.326C933.671 294.326 931.881 295.983 931.3 299.297H941.533C941.412 297.604 940.952 296.351 940.154 295.538C939.355 294.73 938.194 294.326 936.67 294.326ZM956.156 291.858C958.284 291.858 959.905 292.214 961.018 292.925C962.131 293.641 962.868 294.597 963.231 295.792C963.594 296.992 963.776 298.499 963.776 300.313V311.924H960.365V309.929C959.445 310.799 958.526 311.428 957.607 311.815C956.688 312.202 955.696 312.396 954.632 312.396C953.374 312.396 952.237 312.123 951.221 311.576C950.205 311.034 949.402 310.248 948.811 309.217C948.216 308.192 947.919 306.977 947.919 305.574C947.919 303.397 948.596 301.709 949.951 300.509C951.305 299.314 953.132 298.716 955.43 298.716C957.244 298.716 958.877 299.116 960.328 299.914C960.304 298.728 960.183 297.785 959.966 297.084C959.748 296.382 959.3 295.843 958.623 295.465C957.946 295.093 956.942 294.906 955.611 294.906H952.926V291.858H956.156ZM955.103 309.457C955.926 309.457 956.792 309.263 957.701 308.876C958.606 308.489 959.494 307.909 960.365 307.135V302.563C959.01 301.885 957.534 301.547 955.938 301.547C954.656 301.547 953.579 301.854 952.708 302.468C951.838 303.088 951.402 304.123 951.402 305.574C951.402 306.929 951.772 307.916 952.513 308.535C953.248 309.15 954.112 309.457 955.103 309.457ZM991.969 291.423C994.413 291.423 996.222 292.076 997.398 293.382C998.568 294.689 999.154 296.842 999.154 299.841V311.924H995.743V299.841C995.743 297.93 995.433 296.58 994.814 295.792C994.2 295.008 993.094 294.616 991.498 294.616C989.611 294.616 987.724 295.523 985.837 297.338C985.934 298.015 985.982 298.849 985.982 299.841V311.924H982.571V299.841C982.571 297.93 982.262 296.58 981.643 295.792C981.028 295.008 979.923 294.616 978.326 294.616C976.488 294.616 974.649 295.439 972.811 297.084V311.924H969.4V291.858H972.811V293.999C974.77 292.282 976.766 291.423 978.798 291.423C980.418 291.423 981.749 291.694 982.789 292.236C983.829 292.783 984.615 293.649 985.148 294.834C987.349 292.56 989.623 291.423 991.969 291.423ZM1010 312.396C1008.19 312.396 1006.88 312.033 1006.08 311.307C1005.29 310.582 1004.89 309.36 1004.89 307.643V281.227H1008.3V306.735C1008.3 307.703 1008.45 308.363 1008.75 308.717C1009.05 309.065 1009.63 309.239 1010.47 309.239C1011.15 309.239 1011.76 309.167 1012.29 309.021V312.142C1011.32 312.311 1010.56 312.396 1010 312.396ZM1018.78 302.164C1018.83 304.389 1019.38 306.167 1020.45 307.497C1021.51 308.828 1023.2 309.493 1025.53 309.493C1027.29 309.493 1029.23 308.997 1031.33 308.005L1032.38 310.836C1030.18 311.973 1027.8 312.541 1025.24 312.541C1023.11 312.541 1021.29 312.094 1019.79 311.199C1018.29 310.304 1017.16 309.058 1016.38 307.461C1015.61 305.865 1015.22 304.002 1015.22 301.873C1015.22 299.624 1015.63 297.705 1016.44 296.118C1017.25 294.536 1018.34 293.334 1019.72 292.512C1021.1 291.689 1022.65 291.278 1024.37 291.278C1027 291.278 1029.07 292.1 1030.57 293.745C1032.07 295.39 1032.82 297.749 1032.82 300.821V302.164H1018.78ZM1024.37 294.326C1021.37 294.326 1019.58 295.983 1018.99 299.297H1029.23C1029.11 297.604 1028.65 296.351 1027.85 295.538C1027.05 294.73 1025.89 294.326 1024.37 294.326ZM1043.78 312.541C1042.3 312.541 1041 312.42 1039.86 312.178C1038.72 311.936 1037.54 311.525 1036.3 310.945V307.57C1038.6 308.852 1041.09 309.493 1043.78 309.493C1045.13 309.493 1046.11 309.22 1046.7 308.673C1047.29 308.131 1047.59 307.413 1047.59 306.518C1047.59 305.647 1047.35 305.006 1046.88 304.595C1046.41 304.183 1045.64 303.833 1044.58 303.542L1042.22 302.962C1040.52 302.551 1039.19 301.897 1038.23 301.002C1037.26 300.107 1036.77 298.789 1036.77 297.047C1036.77 295.233 1037.37 293.818 1038.55 292.802C1039.74 291.786 1041.48 291.278 1043.78 291.278C1044.96 291.278 1046.06 291.392 1047.08 291.619C1048.1 291.851 1049.11 292.173 1050.13 292.584V295.777C1049.14 295.318 1048.16 294.96 1047.19 294.703C1046.22 294.452 1045.12 294.326 1043.89 294.326C1042.6 294.326 1041.68 294.573 1041.11 295.066C1040.54 295.564 1040.26 296.189 1040.26 296.938C1040.26 297.761 1040.51 298.385 1041.01 298.811C1041.5 299.232 1042.22 299.563 1043.16 299.805L1045.56 300.349C1046.77 300.64 1047.76 301.002 1048.55 301.438C1049.34 301.873 1049.95 302.483 1050.4 303.267C1050.85 304.055 1051.07 305.103 1051.07 306.409C1051.07 308.368 1050.41 309.88 1049.1 310.945C1047.78 312.009 1046 312.541 1043.78 312.541ZM1062.43 312.541C1060.95 312.541 1059.65 312.42 1058.51 312.178C1057.37 311.936 1056.19 311.525 1054.95 310.945V307.57C1057.25 308.852 1059.74 309.493 1062.43 309.493C1063.78 309.493 1064.76 309.22 1065.35 308.673C1065.94 308.131 1066.24 307.413 1066.24 306.518C1066.24 305.647 1066 305.006 1065.53 304.595C1065.06 304.183 1064.29 303.833 1063.23 303.542L1060.87 302.962C1059.17 302.551 1057.84 301.897 1056.88 301.002C1055.91 300.107 1055.43 298.789 1055.43 297.047C1055.43 295.233 1056.02 293.818 1057.2 292.802C1058.39 291.786 1060.13 291.278 1062.43 291.278C1063.61 291.278 1064.71 291.392 1065.73 291.619C1066.75 291.851 1067.76 292.173 1068.78 292.584V295.777C1067.79 295.318 1066.81 294.96 1065.84 294.703C1064.87 294.452 1063.77 294.326 1062.54 294.326C1061.26 294.326 1060.33 294.573 1059.76 295.066C1059.19 295.564 1058.91 296.189 1058.91 296.938C1058.91 297.761 1059.16 298.385 1059.65 298.811C1060.15 299.232 1060.87 299.563 1061.81 299.805L1064.21 300.349C1065.42 300.64 1066.41 301.002 1067.2 301.438C1067.98 301.873 1068.6 302.483 1069.05 303.267C1069.5 304.055 1069.72 305.103 1069.72 306.409C1069.72 308.368 1069.06 309.88 1067.74 310.945C1066.42 312.009 1064.65 312.541 1062.43 312.541ZM1099.5 311.924L1092.43 300.277H1087.1V311.924H1083.58V284.42H1093.19C1099.19 284.42 1102.19 287.081 1102.19 292.403C1102.19 294.507 1101.69 296.205 1100.69 297.497C1099.68 298.794 1098.17 299.636 1096.17 300.023L1103.53 311.924H1099.5ZM1087.1 287.504V297.192H1093.19C1096.77 297.192 1098.57 295.596 1098.6 292.403C1098.6 290.709 1098.15 289.471 1097.26 288.687C1096.36 287.898 1095.01 287.504 1093.19 287.504H1087.1ZM1110.9 302.164C1110.95 304.389 1111.5 306.167 1112.57 307.497C1113.63 308.828 1115.33 309.493 1117.65 309.493C1119.41 309.493 1121.35 308.997 1123.45 308.005L1124.51 310.836C1122.3 311.973 1119.92 312.541 1117.36 312.541C1115.23 312.541 1113.41 312.094 1111.91 311.199C1110.41 310.304 1109.28 309.058 1108.5 307.461C1107.73 305.865 1107.34 304.002 1107.34 301.873C1107.34 299.624 1107.75 297.705 1108.56 296.118C1109.37 294.536 1110.46 293.334 1111.84 292.512C1113.22 291.689 1114.77 291.278 1116.49 291.278C1119.12 291.278 1121.19 292.1 1122.69 293.745C1124.19 295.39 1124.94 297.749 1124.94 300.821V302.164H1110.9ZM1116.49 294.326C1113.49 294.326 1111.7 295.983 1111.12 299.297H1121.35C1121.23 297.604 1120.77 296.351 1119.97 295.538C1119.17 294.73 1118.01 294.326 1116.49 294.326ZM1135.9 312.541C1134.42 312.541 1133.12 312.42 1131.98 312.178C1130.84 311.936 1129.66 311.525 1128.42 310.945V307.57C1130.72 308.852 1133.21 309.493 1135.9 309.493C1137.25 309.493 1138.23 309.22 1138.82 308.673C1139.41 308.131 1139.71 307.413 1139.71 306.518C1139.71 305.647 1139.47 305.006 1139 304.595C1138.53 304.183 1137.76 303.833 1136.7 303.542L1134.34 302.962C1132.65 302.551 1131.32 301.897 1130.35 301.002C1129.38 300.107 1128.9 298.789 1128.9 297.047C1128.9 295.233 1129.49 293.818 1130.67 292.802C1131.86 291.786 1133.6 291.278 1135.9 291.278C1137.08 291.278 1138.19 291.392 1139.2 291.619C1140.22 291.851 1141.23 292.173 1142.25 292.584V295.777C1141.26 295.318 1140.28 294.96 1139.31 294.703C1138.34 294.452 1137.24 294.326 1136.01 294.326C1134.73 294.326 1133.8 294.573 1133.23 295.066C1132.66 295.564 1132.38 296.189 1132.38 296.938C1132.38 297.761 1132.63 298.385 1133.12 298.811C1133.62 299.232 1134.34 299.563 1135.28 299.805L1137.68 300.349C1138.89 300.64 1139.88 301.002 1140.67 301.438C1141.46 301.873 1142.07 302.483 1142.52 303.267C1142.97 304.055 1143.19 305.103 1143.19 306.409C1143.19 308.368 1142.53 309.88 1141.21 310.945C1139.9 312.009 1138.12 312.541 1135.9 312.541ZM1150.78 302.164C1150.82 304.389 1151.38 306.167 1152.45 307.497C1153.51 308.828 1155.2 309.493 1157.53 309.493C1159.29 309.493 1161.23 308.997 1163.33 308.005L1164.38 310.836C1162.18 311.973 1159.8 312.541 1157.24 312.541C1155.11 312.541 1153.29 312.094 1151.79 311.199C1150.29 310.304 1149.16 309.058 1148.38 307.461C1147.61 305.865 1147.22 304.002 1147.22 301.873C1147.22 299.624 1147.62 297.705 1148.43 296.118C1149.25 294.536 1150.34 293.334 1151.72 292.512C1153.1 291.689 1154.65 291.278 1156.36 291.278C1159 291.278 1161.07 292.1 1162.57 293.745C1164.07 295.39 1164.82 297.749 1164.82 300.821V302.164H1150.78ZM1156.36 294.326C1153.36 294.326 1151.57 295.983 1150.99 299.297H1161.23C1161.11 297.604 1160.65 296.351 1159.85 295.538C1159.05 294.73 1157.89 294.326 1156.36 294.326ZM1179.14 291.423H1179.98V294.616H1179.14C1177.06 294.616 1175.04 295.451 1173.08 297.12V311.924H1169.67V291.858H1173.08V294.108C1175.07 292.318 1177.09 291.423 1179.14 291.423ZM1197.4 291.858H1200.95L1193.37 312.251H1189.45L1181.79 291.858H1185.35L1191.41 308.477L1197.4 291.858ZM1211.11 291.858C1213.24 291.858 1214.86 292.214 1215.97 292.925C1217.09 293.641 1217.82 294.597 1218.19 295.792C1218.55 296.992 1218.73 298.499 1218.73 300.313V311.924H1215.32V309.929C1214.4 310.799 1213.48 311.428 1212.56 311.815C1211.64 312.202 1210.65 312.396 1209.59 312.396C1208.33 312.396 1207.19 312.123 1206.18 311.576C1205.16 311.034 1204.36 310.248 1203.76 309.217C1203.17 308.192 1202.87 306.977 1202.87 305.574C1202.87 303.397 1203.55 301.709 1204.91 300.509C1206.26 299.314 1208.09 298.716 1210.39 298.716C1212.2 298.716 1213.83 299.116 1215.28 299.914C1215.26 298.728 1215.14 297.785 1214.92 297.084C1214.7 296.382 1214.26 295.843 1213.58 295.465C1212.9 295.093 1211.9 294.906 1210.57 294.906H1207.88V291.858H1211.11ZM1210.06 309.457C1210.88 309.457 1211.75 309.263 1212.65 308.876C1213.56 308.489 1214.45 307.909 1215.32 307.135V302.563C1213.97 301.885 1212.49 301.547 1210.89 301.547C1209.61 301.547 1208.54 301.854 1207.66 302.468C1206.79 303.088 1206.36 304.123 1206.36 305.574C1206.36 306.929 1206.73 307.916 1207.46 308.535C1208.2 309.15 1209.07 309.457 1210.06 309.457ZM1233.1 295.269H1228.46V306.735C1228.46 307.703 1228.61 308.363 1228.91 308.717C1229.21 309.065 1229.77 309.239 1230.6 309.239C1231.32 309.239 1232.1 309.142 1232.92 308.949V312.033C1231.83 312.275 1230.86 312.396 1230.02 312.396C1228.18 312.396 1226.89 312.021 1226.15 311.271C1225.41 310.521 1225.05 309.263 1225.05 307.497V295.269H1222.43V292.112H1225.05V285.218H1228.46V292.112H1233.1V295.269ZM1237.88 288.085V282.606H1241.29V288.085H1237.88ZM1237.88 311.924V291.858H1241.29V311.924H1237.88ZM1256.5 312.541C1254.37 312.541 1252.56 312.077 1251.08 311.148C1249.59 310.214 1248.47 308.942 1247.72 307.331C1246.97 305.724 1246.59 303.917 1246.59 301.91C1246.59 299.902 1246.97 298.092 1247.72 296.481C1248.47 294.875 1249.59 293.605 1251.08 292.671C1252.56 291.742 1254.37 291.278 1256.5 291.278C1258.63 291.278 1260.44 291.742 1261.93 292.671C1263.41 293.605 1264.52 294.875 1265.26 296.481C1266 298.092 1266.37 299.902 1266.37 301.91C1266.37 303.917 1266 305.724 1265.26 307.331C1264.52 308.942 1263.41 310.214 1261.93 311.148C1260.44 312.077 1258.63 312.541 1256.5 312.541ZM1256.5 309.457C1258.51 309.457 1260.06 308.755 1261.16 307.352C1262.26 305.949 1262.81 304.135 1262.81 301.91C1262.81 299.684 1262.26 297.875 1261.16 296.481C1260.06 295.093 1258.51 294.398 1256.5 294.398C1254.49 294.398 1252.93 295.093 1251.82 296.481C1250.7 297.875 1250.15 299.684 1250.15 301.91C1250.15 304.135 1250.7 305.949 1251.82 307.352C1252.93 308.755 1254.49 309.457 1256.5 309.457ZM1281.21 291.423C1283.68 291.423 1285.51 292.076 1286.7 293.382C1287.9 294.689 1288.5 296.842 1288.5 299.841V311.924H1285.09V299.841C1285.09 297.954 1284.77 296.612 1284.13 295.814C1283.49 295.015 1282.36 294.616 1280.74 294.616C1278.85 294.616 1276.96 295.439 1275.08 297.084V311.924H1271.66V291.858H1275.08V293.999C1277.06 292.282 1279.1 291.423 1281.21 291.423ZM1300.95 312.541C1299.47 312.541 1298.17 312.42 1297.03 312.178C1295.89 311.936 1294.71 311.525 1293.47 310.945V307.57C1295.77 308.852 1298.26 309.493 1300.95 309.493C1302.3 309.493 1303.27 309.22 1303.86 308.673C1304.46 308.131 1304.76 307.413 1304.76 306.518C1304.76 305.647 1304.52 305.006 1304.05 304.595C1303.58 304.183 1302.81 303.833 1301.75 303.542L1299.39 302.962C1297.69 302.551 1296.36 301.897 1295.4 301.002C1294.43 300.107 1293.94 298.789 1293.94 297.047C1293.94 295.233 1294.54 293.818 1295.72 292.802C1296.91 291.786 1298.65 291.278 1300.95 291.278C1302.13 291.278 1303.23 291.392 1304.25 291.619C1305.27 291.851 1306.28 292.173 1307.3 292.584V295.777C1306.31 295.318 1305.33 294.96 1304.36 294.703C1303.39 294.452 1302.29 294.326 1301.06 294.326C1299.77 294.326 1298.85 294.573 1298.28 295.066C1297.71 295.564 1297.43 296.189 1297.43 296.938C1297.43 297.761 1297.67 298.385 1298.17 298.811C1298.67 299.232 1299.39 299.563 1300.33 299.805L1302.73 300.349C1303.93 300.64 1304.93 301.002 1305.72 301.438C1306.5 301.873 1307.12 302.483 1307.57 303.267C1308.02 304.055 1308.24 305.103 1308.24 306.409C1308.24 308.368 1307.58 309.88 1306.26 310.945C1304.94 312.009 1303.17 312.541 1300.95 312.541Z" fill="url(#paint1_linear_2_239)"/>
</g>
</g>
</g>
</g>
</g>
<mask id="mask0_2_239" style="mask-type:luminance" maskUnits="userSpaceOnUse" x="0" y="0" width="1496" height="329">
<g clip-path="url(#clip8_2_239)">
<g clip-path="url(#clip9_2_239)">
<g clip-path="url(#clip10_2_239)">
<g clip-path="url(#clip11_2_239)">
<g clip-path="url(#clip12_2_239)">
<g clip-path="url(#clip13_2_239)">
<path d="M513.909 41.5286H439.731V95.4168H504.527V108.507H439.731V181.158H424.022V28.4384H513.909V41.5286ZM542.707 181.158V8.58484H557.543V181.158H542.707ZM692.808 112.652C692.808 115.998 692.663 119.343 692.372 122.688H605.54C605.831 137.815 609.205 149.596 615.663 158.032C622.15 166.468 631.139 170.686 642.629 170.686C650.454 170.686 657.101 169.158 662.57 166.104C668.039 163.05 672.591 158.177 676.228 151.487C677.246 149.596 678.773 148.65 680.809 148.65C683.136 148.65 686.322 150.032 690.365 152.796C687.194 162.25 681.318 169.697 672.737 175.136C664.126 180.605 654.09 183.34 642.629 183.34C632.012 183.34 622.732 180.823 614.791 175.791C606.878 170.787 600.813 163.588 596.595 154.192C592.377 144.825 590.268 133.742 590.268 120.943C590.268 101.598 595.068 86.4281 604.668 75.4323C614.267 64.4656 627.43 58.9823 644.156 58.9823C659.428 58.9823 671.355 63.7093 679.936 73.1634C688.518 82.6174 692.808 95.7804 692.808 112.652ZM605.977 110.907H677.537C677.537 84.7264 666.192 71.6362 643.502 71.6362C632.448 71.6362 623.721 74.9814 617.321 81.672C610.922 88.3626 607.14 98.1075 605.977 110.907ZM764.107 118.979C772.106 126.833 778.651 133.669 783.742 139.487C788.833 145.305 793.24 151.734 796.963 158.774C800.657 165.842 802.868 173.304 803.596 181.158H787.451C786.578 171.849 783.349 163.195 777.764 155.196C772.15 147.196 764.325 138.324 754.289 128.579C744.253 138.324 736.443 147.196 730.857 155.196C725.243 163.195 722 171.849 721.127 181.158H704.982C705.71 173.304 707.935 165.842 711.658 158.774C715.353 151.734 719.745 145.305 724.836 139.487C729.927 133.669 736.472 126.833 744.471 118.979C733.272 108.216 724.589 98.4711 718.422 89.7443C712.226 81.0175 708.619 71.4907 707.6 61.164H723.745C724.618 69.4545 727.672 77.4104 732.908 85.0318C738.144 92.6824 745.271 100.871 754.289 109.598C763.307 100.871 770.434 92.6824 775.67 85.0318C780.906 77.4104 783.96 69.4545 784.833 61.164H800.977C799.959 71.4907 796.367 81.0175 790.2 89.7443C784.004 98.4711 775.306 108.216 764.107 118.979ZM831.085 181.158V61.164H845.921V181.158H831.085ZM837.63 39.1287C831.085 39.1287 827.812 35.8562 827.812 29.3111V27.3475C827.812 20.8024 831.085 17.5298 837.63 17.5298H839.376C845.921 17.5298 849.193 20.8024 849.193 27.3475V29.3111C849.193 35.8562 845.921 39.1287 839.376 39.1287H837.63ZM940.17 183.34C930.135 183.34 920.899 181.769 912.463 178.627C904.027 175.514 897.336 171.267 892.391 165.886C887.446 160.504 884.973 154.614 884.973 148.214C884.973 145.305 886.02 142.934 888.115 141.102C890.238 139.298 893.045 138.324 896.536 138.178C898.863 148.505 903.809 156.359 911.372 161.741C918.935 167.122 928.68 169.813 940.607 169.813C952.824 169.813 962.671 166.977 970.147 161.304C977.652 155.632 981.405 148.214 981.405 139.051C981.405 133.669 980.052 129.088 977.347 125.306C974.67 121.525 970.278 118.136 964.169 115.139C958.06 112.172 949.624 109.307 938.861 106.543C926.353 103.198 916.535 99.6638 909.408 95.9404C902.281 92.246 897.147 88.028 894.005 83.2865C890.893 78.574 889.337 72.727 889.337 65.7455C889.337 53.528 893.845 43.8848 902.863 36.8161C911.881 29.7765 924.317 26.2567 940.17 26.2567C953.988 26.2567 965.507 29.5001 974.729 35.9871C983.979 42.4449 990.204 51.5645 993.404 63.3457C991.513 65.2365 988.604 66.1819 984.677 66.1819C980.605 66.1819 977.623 64.2184 975.732 60.2913C972.532 53.8916 967.689 48.801 961.202 45.0193C954.744 41.2377 947.734 39.3469 940.17 39.3469C928.68 39.3469 919.953 41.6013 913.99 46.1102C908.027 50.619 905.045 57.1642 905.045 65.7455C905.045 70.109 906.136 73.7742 908.317 76.7414C910.499 79.7376 914.135 82.472 919.226 84.9446C924.317 87.4172 931.516 89.9625 940.825 92.5805C956.388 96.944 968.125 101.089 976.038 105.016C983.979 108.943 989.55 113.379 992.749 118.325C995.949 123.27 997.549 129.742 997.549 137.742C997.549 146.905 995.222 154.948 990.568 161.872C985.913 168.766 979.252 174.06 970.583 177.754C961.944 181.478 951.806 183.34 940.17 183.34ZM1081.54 58.9823C1097.84 58.9823 1110.27 64.3202 1118.85 74.996C1127.43 85.7009 1131.72 101.016 1131.72 120.943C1131.72 133.597 1129.5 144.607 1125.05 153.974C1120.63 163.37 1114.23 170.613 1105.85 175.704C1097.5 180.794 1087.73 183.34 1076.53 183.34C1071 183.34 1065.43 182.801 1059.82 181.725C1054.23 180.62 1049.26 179.194 1044.89 177.449V229.155H1030.06V101.962C1030.06 80.4357 1029.18 67.6364 1027.44 63.5638C1032.09 61.3821 1035.8 60.2913 1038.57 60.2913C1042.78 60.2913 1044.89 64.5093 1044.89 72.9452V73.8179C1049.69 69.0181 1055.25 65.3383 1061.56 62.7784C1067.9 60.2477 1074.56 58.9823 1081.54 58.9823ZM1076.53 171.122C1089.04 171.122 1098.74 166.759 1105.63 158.032C1112.55 149.305 1116.02 136.942 1116.02 120.943C1116.02 87.7808 1104.53 71.1998 1081.54 71.1998C1074.85 71.1998 1068.34 72.727 1062 75.7814C1055.68 78.8358 1049.98 83.1992 1044.89 88.8716V164.577C1053.91 168.94 1064.45 171.122 1076.53 171.122ZM1244.26 151.268C1244.26 157.959 1244.81 163.224 1245.91 167.064C1246.99 170.933 1248.91 174.395 1251.67 177.449C1250.22 178.903 1248.52 180.067 1246.57 180.94C1244.59 181.812 1242.73 182.249 1240.98 182.249C1238.08 182.249 1235.65 180.576 1233.7 177.231C1231.72 173.885 1230.44 169.304 1229.86 163.486C1225.35 169.595 1219.31 174.424 1211.75 177.973C1204.19 181.551 1196.26 183.34 1187.97 183.34C1176.91 183.34 1168.04 180.46 1161.35 174.7C1154.66 168.969 1151.32 161.45 1151.32 152.141C1151.32 138.469 1157.98 127.779 1171.3 120.07C1184.59 112.361 1203.97 107.925 1229.42 106.762V99.7802C1229.42 90.1807 1226.99 83.0101 1222.13 78.2685C1217.25 73.5561 1209.86 71.1998 1199.97 71.1998C1193.57 71.1998 1187.65 72.5379 1182.21 75.2142C1176.74 77.9195 1170.88 82.3992 1164.62 88.6535C1163.75 89.5261 1162.66 89.9625 1161.35 89.9625C1159.9 89.9625 1158.3 89.3371 1156.55 88.0862C1154.81 86.8645 1153.13 85.09 1151.53 82.7629C1158.08 75.0542 1165.54 69.1636 1173.92 65.091C1182.27 61.0185 1191.17 58.9823 1200.62 58.9823C1214.15 58.9823 1224.81 62.6184 1232.61 69.8908C1240.37 77.1631 1244.26 87.1263 1244.26 99.7802V151.268ZM1189.06 171.122C1196.91 171.122 1204.33 168.94 1211.31 164.577C1218.29 160.213 1224.33 154.032 1229.42 146.032V118.979C1187.53 120.725 1166.59 131.706 1166.59 151.923C1166.59 164.722 1174.08 171.122 1189.06 171.122ZM1326.73 183.34C1309.13 183.34 1295.42 177.813 1285.62 166.759C1275.79 155.705 1270.87 140.287 1270.87 120.506C1270.87 107.998 1273.1 97.1185 1277.55 87.8681C1281.97 78.6467 1288.33 71.5198 1296.62 66.4873C1304.91 61.4839 1314.65 58.9823 1325.85 58.9823C1339.23 58.9823 1350.26 62.3566 1358.93 69.1054C1367.57 75.8832 1372.61 85.09 1374.07 96.7258C1372.76 97.3076 1370.98 97.8894 1368.74 98.4711C1366.48 99.0529 1364.61 99.3438 1363.16 99.3438C1361.71 99.3438 1360.66 98.9366 1360.02 98.1221C1359.35 97.3367 1358.65 95.6349 1357.92 93.0169C1356.32 86.1809 1352.69 80.8284 1347.02 76.9595C1341.34 73.1197 1334.29 71.1998 1325.85 71.1998C1318 71.1998 1311.06 73.2361 1305.04 77.3086C1298.99 81.3811 1294.33 87.1554 1291.08 94.6313C1287.79 102.136 1286.15 110.761 1286.15 120.506C1286.15 135.924 1289.83 148.214 1297.18 157.377C1304.52 166.54 1314.36 171.122 1326.73 171.122C1336.18 171.122 1344.25 168.897 1350.94 164.446C1357.63 160.024 1362.65 153.523 1366 144.942C1368.03 144.942 1369.75 145.814 1371.14 147.56C1372.51 149.305 1373.2 151.341 1373.2 153.668C1373.2 158.759 1371.06 163.588 1366.78 168.155C1362.48 172.751 1356.73 176.431 1349.55 179.194C1342.33 181.958 1334.72 183.34 1326.73 183.34ZM1495.81 112.652C1495.81 115.998 1495.66 119.343 1495.37 122.688H1408.54C1408.83 137.815 1412.2 149.596 1418.66 158.032C1425.15 166.468 1434.14 170.686 1445.63 170.686C1453.48 170.686 1460.13 169.158 1465.57 166.104C1471.04 163.05 1475.59 158.177 1479.23 151.487C1480.24 149.596 1481.77 148.65 1483.81 148.65C1486.14 148.65 1489.34 150.032 1493.41 152.796C1490.21 162.25 1484.32 169.697 1475.74 175.136C1467.15 180.605 1457.12 183.34 1445.63 183.34C1435.01 183.34 1425.73 180.823 1417.79 175.791C1409.88 170.787 1403.81 163.588 1399.59 154.192C1395.38 144.825 1393.27 133.742 1393.27 120.943C1393.27 101.598 1398.07 86.4281 1407.67 75.4323C1417.27 64.4656 1430.43 58.9823 1447.16 58.9823C1462.43 58.9823 1474.35 63.7093 1482.94 73.1634C1491.52 82.6174 1495.81 95.7804 1495.81 112.652ZM1408.98 110.907H1480.54C1480.54 84.7264 1469.19 71.6362 1446.5 71.6362C1435.45 71.6362 1426.72 74.9814 1420.32 81.672C1413.92 88.3626 1410.14 98.1075 1408.98 110.907Z" fill="black"/>
</g>
</g>
<g clip-path="url(#clip14_2_239)">
<g clip-path="url(#clip15_2_239)">
<path d="M628.244 287.577H615.109V297.011H626.43V300.168H615.109V311.924H611.589V284.42H628.244V287.577ZM638.331 312.396C636.517 312.396 635.211 312.033 634.412 311.307C633.614 310.582 633.215 309.36 633.215 307.643V281.227H636.626V306.735C636.626 307.703 636.776 308.363 637.076 308.717C637.381 309.065 637.956 309.239 638.803 309.239C639.48 309.239 640.085 309.167 640.617 309.021V312.142C639.65 312.311 638.888 312.396 638.331 312.396ZM647.112 302.164C647.161 304.389 647.717 306.167 648.781 307.497C649.846 308.828 651.539 309.493 653.861 309.493C655.627 309.493 657.56 308.997 659.66 308.005L660.719 310.836C658.518 311.973 656.135 312.541 653.571 312.541C651.442 312.541 649.628 312.094 648.128 311.199C646.629 310.304 645.492 309.058 644.717 307.461C643.943 305.865 643.556 304.002 643.556 301.873C643.556 299.624 643.96 297.705 644.768 296.118C645.581 294.536 646.677 293.334 648.056 292.512C649.435 291.689 650.983 291.278 652.7 291.278C655.337 291.278 657.405 292.1 658.905 293.745C660.405 295.39 661.155 297.749 661.155 300.821V302.164H647.112ZM652.7 294.326C649.701 294.326 647.911 295.983 647.33 299.297H657.563C657.442 297.604 656.982 296.351 656.184 295.538C655.385 294.73 654.224 294.326 652.7 294.326ZM682.592 311.924H678.492L673.194 304.123L668.114 311.924H664.014L671.09 301.438L664.377 291.858H668.477L673.339 299.043L678.238 291.858H682.266L675.371 301.728L682.592 311.924ZM687.128 288.085V282.606H690.539V288.085H687.128ZM687.128 311.924V291.858H690.539V311.924H687.128ZM706.287 291.278C708.996 291.278 711.154 292.185 712.76 293.999C714.371 295.814 715.177 298.45 715.177 301.91C715.177 305.369 714.371 308.005 712.76 309.82C711.154 311.634 708.996 312.541 706.287 312.541C704.327 312.541 702.392 311.731 700.481 310.11V311.924H697.07V281.227H700.481V293.745C702.416 292.1 704.351 291.278 706.287 291.278ZM705.815 309.384C707.726 309.384 709.177 308.748 710.169 307.476C711.161 306.208 711.657 304.353 711.657 301.91C711.657 299.466 711.161 297.616 710.169 296.358C709.177 295.1 707.726 294.471 705.815 294.471C704.001 294.471 702.223 295.221 700.481 296.721V307.135C702.271 308.634 704.049 309.384 705.815 309.384ZM725.627 312.396C723.813 312.396 722.506 312.033 721.708 311.307C720.91 310.582 720.511 309.36 720.511 307.643V281.227H723.914V306.735C723.914 307.703 724.067 308.363 724.371 308.717C724.671 309.065 725.245 309.239 726.091 309.239C726.769 309.239 727.373 309.167 727.906 309.021V312.142C726.938 312.311 726.178 312.396 725.627 312.396ZM734.401 302.164C734.449 304.389 735.005 306.167 736.07 307.497C737.134 308.828 738.827 309.493 741.15 309.493C742.916 309.493 744.851 308.997 746.955 308.005L748.008 310.836C745.806 311.973 743.424 312.541 740.859 312.541C738.731 312.541 736.916 312.094 735.417 311.199C733.917 310.304 732.78 309.058 732.006 307.461C731.232 305.865 730.845 304.002 730.845 301.873C730.845 299.624 731.251 297.705 732.064 296.118C732.872 294.536 733.965 293.334 735.344 292.512C736.723 291.689 738.271 291.278 739.989 291.278C742.625 291.278 744.694 292.1 746.193 293.745C747.693 295.39 748.443 297.749 748.443 300.821V302.164H734.401ZM739.989 294.326C736.989 294.326 735.199 295.983 734.618 299.297H744.851C744.73 297.604 744.27 296.351 743.472 295.538C742.674 294.73 741.513 294.326 739.989 294.326ZM769.706 312.541C766.199 312.541 763.066 311.888 760.308 310.582V307.243C763.09 308.719 766.223 309.457 769.706 309.457C771.714 309.457 773.183 309.034 774.111 308.187C775.045 307.34 775.512 306.227 775.512 304.849C775.512 303.542 775.081 302.563 774.22 301.91C773.364 301.256 772.101 300.688 770.432 300.204L767.965 299.515C766.562 299.103 765.364 298.632 764.372 298.1C763.381 297.567 762.551 296.798 761.883 295.792C761.22 294.79 760.889 293.479 760.889 291.858C760.889 289.27 761.644 287.299 763.153 285.944C764.668 284.589 766.816 283.912 769.598 283.912C771.218 283.912 772.646 284.062 773.879 284.362C775.113 284.667 776.395 285.121 777.725 285.726V288.992C775.258 287.661 772.549 286.996 769.598 286.996C767.807 286.996 766.501 287.412 765.679 288.244C764.856 289.081 764.445 290.226 764.445 291.677C764.469 293.007 764.873 293.987 765.657 294.616C766.446 295.245 767.674 295.801 769.344 296.285L771.847 296.975C773.323 297.386 774.573 297.862 775.599 298.404C776.63 298.951 777.464 299.737 778.103 300.763C778.746 301.793 779.068 303.131 779.068 304.776C779.044 307.171 778.202 309.065 776.543 310.458C774.888 311.847 772.609 312.541 769.706 312.541ZM793.836 291.278C796.541 291.278 798.698 292.185 800.31 293.999C801.921 295.814 802.726 298.45 802.726 301.91C802.726 305.369 801.921 308.005 800.31 309.82C798.698 311.634 796.541 312.541 793.836 312.541C791.877 312.541 789.939 311.731 788.023 310.11V320.415H784.62V291.858H788.023V293.745C789.959 292.1 791.896 291.278 793.836 291.278ZM793.365 309.384C795.271 309.384 796.72 308.748 797.712 307.476C798.708 306.208 799.206 304.353 799.206 301.91C799.206 299.466 798.708 297.616 797.712 296.358C796.72 295.1 795.271 294.471 793.365 294.471C791.55 294.471 789.77 295.221 788.023 296.721V307.135C789.818 308.634 791.599 309.384 793.365 309.384ZM814.221 291.858C816.35 291.858 817.971 292.214 819.084 292.925C820.196 293.641 820.934 294.597 821.297 295.792C821.66 296.992 821.841 298.499 821.841 300.313V311.924H818.43V309.929C817.511 310.799 816.592 311.428 815.673 311.815C814.754 312.202 813.762 312.396 812.697 312.396C811.44 312.396 810.303 312.123 809.287 311.576C808.271 311.034 807.467 310.248 806.877 309.217C806.282 308.192 805.985 306.977 805.985 305.574C805.985 303.397 806.662 301.709 808.017 300.509C809.371 299.314 811.198 298.716 813.496 298.716C815.31 298.716 816.943 299.116 818.394 299.914C818.37 298.728 818.249 297.785 818.031 297.084C817.814 296.382 817.366 295.843 816.689 295.465C816.011 295.093 815.008 294.906 813.677 294.906H810.992V291.858H814.221ZM813.169 309.457C813.992 309.457 814.858 309.263 815.767 308.876C816.672 308.489 817.56 307.909 818.43 307.135V302.563C817.076 301.885 815.6 301.547 814.004 301.547C812.722 301.547 811.645 301.854 810.774 302.468C809.903 303.088 809.468 304.123 809.468 305.574C809.468 306.929 809.838 307.916 810.578 308.535C811.314 309.15 812.177 309.457 813.169 309.457ZM835.956 312.541C832.836 312.517 830.434 311.549 828.75 309.638C827.071 307.727 826.232 305.139 826.232 301.873C826.232 298.608 827.071 296.031 828.75 294.144C830.434 292.258 832.836 291.302 835.956 291.278C837.045 291.278 837.981 291.355 838.765 291.51C839.553 291.67 840.395 291.931 841.29 292.294V295.596C840.419 295.185 839.59 294.894 838.801 294.725C838.017 294.556 837.154 294.471 836.21 294.471C833.961 294.495 832.328 295.165 831.312 296.481C830.296 297.802 829.788 299.587 829.788 301.837C829.788 304.135 830.296 305.961 831.312 307.316C832.328 308.671 833.936 309.36 836.138 309.384C837.855 309.384 839.73 308.864 841.762 307.824L842.851 310.799C840.649 311.961 838.351 312.541 835.956 312.541ZM849.6 302.164C849.648 304.389 850.204 306.167 851.269 307.497C852.333 308.828 854.027 309.493 856.349 309.493C858.115 309.493 860.05 308.997 862.154 308.005L863.207 310.836C861.005 311.973 858.623 312.541 856.059 312.541C853.93 312.541 852.116 312.094 850.616 311.199C849.116 310.304 847.979 309.058 847.205 307.461C846.431 305.865 846.044 304.002 846.044 301.873C846.044 299.624 846.448 297.705 847.256 296.118C848.068 294.536 849.164 293.334 850.543 292.512C851.922 291.689 853.47 291.278 855.188 291.278C857.824 291.278 859.893 292.1 861.392 293.745C862.892 295.39 863.642 297.749 863.642 300.821V302.164H849.6ZM855.188 294.326C852.188 294.326 850.398 295.983 849.817 299.297H860.05C859.929 297.604 859.469 296.351 858.671 295.538C857.873 294.73 856.712 294.326 855.188 294.326ZM874.593 312.541C873.122 312.541 871.819 312.42 870.682 312.178C869.54 311.936 868.354 311.525 867.126 310.945V307.57C869.424 308.852 871.913 309.493 874.593 309.493C875.948 309.493 876.923 309.22 877.518 308.673C878.108 308.131 878.403 307.413 878.403 306.518C878.403 305.647 878.168 305.006 877.699 304.595C877.225 304.183 876.458 303.833 875.399 303.542L873.04 302.962C871.347 302.551 870.016 301.897 869.049 301.002C868.081 300.107 867.597 298.789 867.597 297.047C867.597 295.233 868.188 293.818 869.368 292.802C870.553 291.786 872.295 291.278 874.593 291.278C875.783 291.278 876.884 291.392 877.895 291.619C878.916 291.851 879.932 292.173 880.943 292.584V295.777C879.956 295.318 878.979 294.96 878.011 294.703C877.044 294.452 875.943 294.326 874.709 294.326C873.422 294.326 872.496 294.573 871.93 295.066C871.364 295.564 871.081 296.189 871.081 296.938C871.081 297.761 871.327 298.385 871.821 298.811C872.319 299.232 873.04 299.563 873.984 299.805L876.378 300.349C877.588 300.64 878.585 301.002 879.368 301.438C880.157 301.873 880.774 302.483 881.219 303.267C881.664 304.055 881.887 305.103 881.887 306.409C881.887 308.368 881.229 309.88 879.913 310.945C878.597 312.009 876.823 312.541 874.593 312.541ZM885.95 317.403L888.128 306.082H891.756L889.107 317.403H885.95ZM913.854 312.541C910.346 312.541 907.214 311.888 904.456 310.582V307.243C907.238 308.719 910.371 309.457 913.854 309.457C915.862 309.457 917.33 309.034 918.259 308.187C919.193 307.34 919.66 306.227 919.66 304.849C919.66 303.542 919.229 302.563 918.368 301.91C917.512 301.256 916.249 300.688 914.58 300.204L912.112 299.515C910.709 299.103 909.512 298.632 908.52 298.1C907.528 297.567 906.698 296.798 906.031 295.792C905.368 294.79 905.037 293.479 905.037 291.858C905.037 289.27 905.791 287.299 907.301 285.944C908.815 284.589 910.963 283.912 913.745 283.912C915.366 283.912 916.793 284.062 918.027 284.362C919.261 284.667 920.543 285.121 921.873 285.726V288.992C919.406 287.661 916.696 286.996 913.745 286.996C911.955 286.996 910.649 287.412 909.826 288.244C909.004 289.081 908.593 290.226 908.593 291.677C908.617 293.007 909.021 293.987 909.805 294.616C910.593 295.245 911.822 295.801 913.491 296.285L915.995 296.975C917.47 297.386 918.721 297.862 919.747 298.404C920.777 298.951 921.612 299.737 922.25 300.763C922.894 301.793 923.216 303.131 923.216 304.776C923.191 307.171 922.35 309.065 920.69 310.458C919.036 311.847 916.757 312.541 913.854 312.541ZM931.082 302.164C931.131 304.389 931.687 306.167 932.751 307.497C933.816 308.828 935.509 309.493 937.831 309.493C939.597 309.493 941.533 308.997 943.637 308.005L944.689 310.836C942.488 311.973 940.105 312.541 937.541 312.541C935.412 312.541 933.598 312.094 932.098 311.199C930.599 310.304 929.462 309.058 928.687 307.461C927.913 305.865 927.526 304.002 927.526 301.873C927.526 299.624 927.933 297.705 928.746 296.118C929.554 294.536 930.647 293.334 932.026 292.512C933.405 291.689 934.953 291.278 936.67 291.278C939.307 291.278 941.375 292.1 942.875 293.745C944.375 295.39 945.125 297.749 945.125 300.821V302.164H931.082ZM936.67 294.326C933.671 294.326 931.881 295.983 931.3 299.297H941.533C941.412 297.604 940.952 296.351 940.154 295.538C939.355 294.73 938.194 294.326 936.67 294.326ZM956.156 291.858C958.284 291.858 959.905 292.214 961.018 292.925C962.131 293.641 962.868 294.597 963.231 295.792C963.594 296.992 963.776 298.499 963.776 300.313V311.924H960.365V309.929C959.445 310.799 958.526 311.428 957.607 311.815C956.688 312.202 955.696 312.396 954.632 312.396C953.374 312.396 952.237 312.123 951.221 311.576C950.205 311.034 949.402 310.248 948.811 309.217C948.216 308.192 947.919 306.977 947.919 305.574C947.919 303.397 948.596 301.709 949.951 300.509C951.305 299.314 953.132 298.716 955.43 298.716C957.244 298.716 958.877 299.116 960.328 299.914C960.304 298.728 960.183 297.785 959.966 297.084C959.748 296.382 959.3 295.843 958.623 295.465C957.946 295.093 956.942 294.906 955.611 294.906H952.926V291.858H956.156ZM955.103 309.457C955.926 309.457 956.792 309.263 957.701 308.876C958.606 308.489 959.494 307.909 960.365 307.135V302.563C959.01 301.885 957.534 301.547 955.938 301.547C954.656 301.547 953.579 301.854 952.708 302.468C951.838 303.088 951.402 304.123 951.402 305.574C951.402 306.929 951.772 307.916 952.513 308.535C953.248 309.15 954.112 309.457 955.103 309.457ZM991.969 291.423C994.413 291.423 996.222 292.076 997.398 293.382C998.568 294.689 999.154 296.842 999.154 299.841V311.924H995.743V299.841C995.743 297.93 995.433 296.58 994.814 295.792C994.2 295.008 993.094 294.616 991.498 294.616C989.611 294.616 987.724 295.523 985.837 297.338C985.934 298.015 985.982 298.849 985.982 299.841V311.924H982.571V299.841C982.571 297.93 982.262 296.58 981.643 295.792C981.028 295.008 979.923 294.616 978.326 294.616C976.488 294.616 974.649 295.439 972.811 297.084V311.924H969.4V291.858H972.811V293.999C974.77 292.282 976.766 291.423 978.798 291.423C980.418 291.423 981.749 291.694 982.789 292.236C983.829 292.783 984.615 293.649 985.148 294.834C987.349 292.56 989.623 291.423 991.969 291.423ZM1010 312.396C1008.19 312.396 1006.88 312.033 1006.08 311.307C1005.29 310.582 1004.89 309.36 1004.89 307.643V281.227H1008.3V306.735C1008.3 307.703 1008.45 308.363 1008.75 308.717C1009.05 309.065 1009.63 309.239 1010.47 309.239C1011.15 309.239 1011.76 309.167 1012.29 309.021V312.142C1011.32 312.311 1010.56 312.396 1010 312.396ZM1018.78 302.164C1018.83 304.389 1019.38 306.167 1020.45 307.497C1021.51 308.828 1023.2 309.493 1025.53 309.493C1027.29 309.493 1029.23 308.997 1031.33 308.005L1032.38 310.836C1030.18 311.973 1027.8 312.541 1025.24 312.541C1023.11 312.541 1021.29 312.094 1019.79 311.199C1018.29 310.304 1017.16 309.058 1016.38 307.461C1015.61 305.865 1015.22 304.002 1015.22 301.873C1015.22 299.624 1015.63 297.705 1016.44 296.118C1017.25 294.536 1018.34 293.334 1019.72 292.512C1021.1 291.689 1022.65 291.278 1024.37 291.278C1027 291.278 1029.07 292.1 1030.57 293.745C1032.07 295.39 1032.82 297.749 1032.82 300.821V302.164H1018.78ZM1024.37 294.326C1021.37 294.326 1019.58 295.983 1018.99 299.297H1029.23C1029.11 297.604 1028.65 296.351 1027.85 295.538C1027.05 294.73 1025.89 294.326 1024.37 294.326ZM1043.78 312.541C1042.3 312.541 1041 312.42 1039.86 312.178C1038.72 311.936 1037.54 311.525 1036.3 310.945V307.57C1038.6 308.852 1041.09 309.493 1043.78 309.493C1045.13 309.493 1046.11 309.22 1046.7 308.673C1047.29 308.131 1047.59 307.413 1047.59 306.518C1047.59 305.647 1047.35 305.006 1046.88 304.595C1046.41 304.183 1045.64 303.833 1044.58 303.542L1042.22 302.962C1040.52 302.551 1039.19 301.897 1038.23 301.002C1037.26 300.107 1036.77 298.789 1036.77 297.047C1036.77 295.233 1037.37 293.818 1038.55 292.802C1039.74 291.786 1041.48 291.278 1043.78 291.278C1044.96 291.278 1046.06 291.392 1047.08 291.619C1048.1 291.851 1049.11 292.173 1050.13 292.584V295.777C1049.14 295.318 1048.16 294.96 1047.19 294.703C1046.22 294.452 1045.12 294.326 1043.89 294.326C1042.6 294.326 1041.68 294.573 1041.11 295.066C1040.54 295.564 1040.26 296.189 1040.26 296.938C1040.26 297.761 1040.51 298.385 1041.01 298.811C1041.5 299.232 1042.22 299.563 1043.16 299.805L1045.56 300.349C1046.77 300.64 1047.76 301.002 1048.55 301.438C1049.34 301.873 1049.95 302.483 1050.4 303.267C1050.85 304.055 1051.07 305.103 1051.07 306.409C1051.07 308.368 1050.41 309.88 1049.1 310.945C1047.78 312.009 1046 312.541 1043.78 312.541ZM1062.43 312.541C1060.95 312.541 1059.65 312.42 1058.51 312.178C1057.37 311.936 1056.19 311.525 1054.95 310.945V307.57C1057.25 308.852 1059.74 309.493 1062.43 309.493C1063.78 309.493 1064.76 309.22 1065.35 308.673C1065.94 308.131 1066.24 307.413 1066.24 306.518C1066.24 305.647 1066 305.006 1065.53 304.595C1065.06 304.183 1064.29 303.833 1063.23 303.542L1060.87 302.962C1059.17 302.551 1057.84 301.897 1056.88 301.002C1055.91 300.107 1055.43 298.789 1055.43 297.047C1055.43 295.233 1056.02 293.818 1057.2 292.802C1058.39 291.786 1060.13 291.278 1062.43 291.278C1063.61 291.278 1064.71 291.392 1065.73 291.619C1066.75 291.851 1067.76 292.173 1068.78 292.584V295.777C1067.79 295.318 1066.81 294.96 1065.84 294.703C1064.87 294.452 1063.77 294.326 1062.54 294.326C1061.26 294.326 1060.33 294.573 1059.76 295.066C1059.19 295.564 1058.91 296.189 1058.91 296.938C1058.91 297.761 1059.16 298.385 1059.65 298.811C1060.15 299.232 1060.87 299.563 1061.81 299.805L1064.21 300.349C1065.42 300.64 1066.41 301.002 1067.2 301.438C1067.98 301.873 1068.6 302.483 1069.05 303.267C1069.5 304.055 1069.72 305.103 1069.72 306.409C1069.72 308.368 1069.06 309.88 1067.74 310.945C1066.42 312.009 1064.65 312.541 1062.43 312.541ZM1099.5 311.924L1092.43 300.277H1087.1V311.924H1083.58V284.42H1093.19C1099.19 284.42 1102.19 287.081 1102.19 292.403C1102.19 294.507 1101.69 296.205 1100.69 297.497C1099.68 298.794 1098.17 299.636 1096.17 300.023L1103.53 311.924H1099.5ZM1087.1 287.504V297.192H1093.19C1096.77 297.192 1098.57 295.596 1098.6 292.403C1098.6 290.709 1098.15 289.471 1097.26 288.687C1096.36 287.898 1095.01 287.504 1093.19 287.504H1087.1ZM1110.9 302.164C1110.95 304.389 1111.5 306.167 1112.57 307.497C1113.63 308.828 1115.33 309.493 1117.65 309.493C1119.41 309.493 1121.35 308.997 1123.45 308.005L1124.51 310.836C1122.3 311.973 1119.92 312.541 1117.36 312.541C1115.23 312.541 1113.41 312.094 1111.91 311.199C1110.41 310.304 1109.28 309.058 1108.5 307.461C1107.73 305.865 1107.34 304.002 1107.34 301.873C1107.34 299.624 1107.75 297.705 1108.56 296.118C1109.37 294.536 1110.46 293.334 1111.84 292.512C1113.22 291.689 1114.77 291.278 1116.49 291.278C1119.12 291.278 1121.19 292.1 1122.69 293.745C1124.19 295.39 1124.94 297.749 1124.94 300.821V302.164H1110.9ZM1116.49 294.326C1113.49 294.326 1111.7 295.983 1111.12 299.297H1121.35C1121.23 297.604 1120.77 296.351 1119.97 295.538C1119.17 294.73 1118.01 294.326 1116.49 294.326ZM1135.9 312.541C1134.42 312.541 1133.12 312.42 1131.98 312.178C1130.84 311.936 1129.66 311.525 1128.42 310.945V307.57C1130.72 308.852 1133.21 309.493 1135.9 309.493C1137.25 309.493 1138.23 309.22 1138.82 308.673C1139.41 308.131 1139.71 307.413 1139.71 306.518C1139.71 305.647 1139.47 305.006 1139 304.595C1138.53 304.183 1137.76 303.833 1136.7 303.542L1134.34 302.962C1132.65 302.551 1131.32 301.897 1130.35 301.002C1129.38 300.107 1128.9 298.789 1128.9 297.047C1128.9 295.233 1129.49 293.818 1130.67 292.802C1131.86 291.786 1133.6 291.278 1135.9 291.278C1137.08 291.278 1138.19 291.392 1139.2 291.619C1140.22 291.851 1141.23 292.173 1142.25 292.584V295.777C1141.26 295.318 1140.28 294.96 1139.31 294.703C1138.34 294.452 1137.24 294.326 1136.01 294.326C1134.73 294.326 1133.8 294.573 1133.23 295.066C1132.66 295.564 1132.38 296.189 1132.38 296.938C1132.38 297.761 1132.63 298.385 1133.12 298.811C1133.62 299.232 1134.34 299.563 1135.28 299.805L1137.68 300.349C1138.89 300.64 1139.88 301.002 1140.67 301.438C1141.46 301.873 1142.07 302.483 1142.52 303.267C1142.97 304.055 1143.19 305.103 1143.19 306.409C1143.19 308.368 1142.53 309.88 1141.21 310.945C1139.9 312.009 1138.12 312.541 1135.9 312.541ZM1150.78 302.164C1150.82 304.389 1151.38 306.167 1152.45 307.497C1153.51 308.828 1155.2 309.493 1157.53 309.493C1159.29 309.493 1161.23 308.997 1163.33 308.005L1164.38 310.836C1162.18 311.973 1159.8 312.541 1157.24 312.541C1155.11 312.541 1153.29 312.094 1151.79 311.199C1150.29 310.304 1149.16 309.058 1148.38 307.461C1147.61 305.865 1147.22 304.002 1147.22 301.873C1147.22 299.624 1147.62 297.705 1148.43 296.118C1149.25 294.536 1150.34 293.334 1151.72 292.512C1153.1 291.689 1154.65 291.278 1156.36 291.278C1159 291.278 1161.07 292.1 1162.57 293.745C1164.07 295.39 1164.82 297.749 1164.82 300.821V302.164H1150.78ZM1156.36 294.326C1153.36 294.326 1151.57 295.983 1150.99 299.297H1161.23C1161.11 297.604 1160.65 296.351 1159.85 295.538C1159.05 294.73 1157.89 294.326 1156.36 294.326ZM1179.14 291.423H1179.98V294.616H1179.14C1177.06 294.616 1175.04 295.451 1173.08 297.12V311.924H1169.67V291.858H1173.08V294.108C1175.07 292.318 1177.09 291.423 1179.14 291.423ZM1197.4 291.858H1200.95L1193.37 312.251H1189.45L1181.79 291.858H1185.35L1191.41 308.477L1197.4 291.858ZM1211.11 291.858C1213.24 291.858 1214.86 292.214 1215.97 292.925C1217.09 293.641 1217.82 294.597 1218.19 295.792C1218.55 296.992 1218.73 298.499 1218.73 300.313V311.924H1215.32V309.929C1214.4 310.799 1213.48 311.428 1212.56 311.815C1211.64 312.202 1210.65 312.396 1209.59 312.396C1208.33 312.396 1207.19 312.123 1206.18 311.576C1205.16 311.034 1204.36 310.248 1203.76 309.217C1203.17 308.192 1202.87 306.977 1202.87 305.574C1202.87 303.397 1203.55 301.709 1204.91 300.509C1206.26 299.314 1208.09 298.716 1210.39 298.716C1212.2 298.716 1213.83 299.116 1215.28 299.914C1215.26 298.728 1215.14 297.785 1214.92 297.084C1214.7 296.382 1214.26 295.843 1213.58 295.465C1212.9 295.093 1211.9 294.906 1210.57 294.906H1207.88V291.858H1211.11ZM1210.06 309.457C1210.88 309.457 1211.75 309.263 1212.65 308.876C1213.56 308.489 1214.45 307.909 1215.32 307.135V302.563C1213.97 301.885 1212.49 301.547 1210.89 301.547C1209.61 301.547 1208.54 301.854 1207.66 302.468C1206.79 303.088 1206.36 304.123 1206.36 305.574C1206.36 306.929 1206.73 307.916 1207.46 308.535C1208.2 309.15 1209.07 309.457 1210.06 309.457ZM1233.1 295.269H1228.46V306.735C1228.46 307.703 1228.61 308.363 1228.91 308.717C1229.21 309.065 1229.77 309.239 1230.6 309.239C1231.32 309.239 1232.1 309.142 1232.92 308.949V312.033C1231.83 312.275 1230.86 312.396 1230.02 312.396C1228.18 312.396 1226.89 312.021 1226.15 311.271C1225.41 310.521 1225.05 309.263 1225.05 307.497V295.269H1222.43V292.112H1225.05V285.218H1228.46V292.112H1233.1V295.269ZM1237.88 288.085V282.606H1241.29V288.085H1237.88ZM1237.88 311.924V291.858H1241.29V311.924H1237.88ZM1256.5 312.541C1254.37 312.541 1252.56 312.077 1251.08 311.148C1249.59 310.214 1248.47 308.942 1247.72 307.331C1246.97 305.724 1246.59 303.917 1246.59 301.91C1246.59 299.902 1246.97 298.092 1247.72 296.481C1248.47 294.875 1249.59 293.605 1251.08 292.671C1252.56 291.742 1254.37 291.278 1256.5 291.278C1258.63 291.278 1260.44 291.742 1261.93 292.671C1263.41 293.605 1264.52 294.875 1265.26 296.481C1266 298.092 1266.37 299.902 1266.37 301.91C1266.37 303.917 1266 305.724 1265.26 307.331C1264.52 308.942 1263.41 310.214 1261.93 311.148C1260.44 312.077 1258.63 312.541 1256.5 312.541ZM1256.5 309.457C1258.51 309.457 1260.06 308.755 1261.16 307.352C1262.26 305.949 1262.81 304.135 1262.81 301.91C1262.81 299.684 1262.26 297.875 1261.16 296.481C1260.06 295.093 1258.51 294.398 1256.5 294.398C1254.49 294.398 1252.93 295.093 1251.82 296.481C1250.7 297.875 1250.15 299.684 1250.15 301.91C1250.15 304.135 1250.7 305.949 1251.82 307.352C1252.93 308.755 1254.49 309.457 1256.5 309.457ZM1281.21 291.423C1283.68 291.423 1285.51 292.076 1286.7 293.382C1287.9 294.689 1288.5 296.842 1288.5 299.841V311.924H1285.09V299.841C1285.09 297.954 1284.77 296.612 1284.13 295.814C1283.49 295.015 1282.36 294.616 1280.74 294.616C1278.85 294.616 1276.96 295.439 1275.08 297.084V311.924H1271.66V291.858H1275.08V293.999C1277.06 292.282 1279.1 291.423 1281.21 291.423ZM1300.95 312.541C1299.47 312.541 1298.17 312.42 1297.03 312.178C1295.89 311.936 1294.71 311.525 1293.47 310.945V307.57C1295.77 308.852 1298.26 309.493 1300.95 309.493C1302.3 309.493 1303.27 309.22 1303.86 308.673C1304.46 308.131 1304.76 307.413 1304.76 306.518C1304.76 305.647 1304.52 305.006 1304.05 304.595C1303.58 304.183 1302.81 303.833 1301.75 303.542L1299.39 302.962C1297.69 302.551 1296.36 301.897 1295.4 301.002C1294.43 300.107 1293.94 298.789 1293.94 297.047C1293.94 295.233 1294.54 293.818 1295.72 292.802C1296.91 291.786 1298.65 291.278 1300.95 291.278C1302.13 291.278 1303.23 291.392 1304.25 291.619C1305.27 291.851 1306.28 292.173 1307.3 292.584V295.777C1306.31 295.318 1305.33 294.96 1304.36 294.703C1303.39 294.452 1302.29 294.326 1301.06 294.326C1299.77 294.326 1298.85 294.573 1298.28 295.066C1297.71 295.564 1297.43 296.189 1297.43 296.938C1297.43 297.761 1297.67 298.385 1298.17 298.811C1298.67 299.232 1299.39 299.563 1300.33 299.805L1302.73 300.349C1303.93 300.64 1304.93 301.002 1305.72 301.438C1306.5 301.873 1307.12 302.483 1307.57 303.267C1308.02 304.055 1308.24 305.103 1308.24 306.409C1308.24 308.368 1307.58 309.88 1306.26 310.945C1304.94 312.009 1303.17 312.541 1300.95 312.541Z" fill="black"/>
</g>
</g>
</g>
</g>
<g clip-path="url(#clip16_2_239)">
<g clip-path="url(#clip17_2_239)">
<path d="M280.882 4.14202L279.18 0.739197H93.3012L0.148926 164.5L92.8758 328.261H278.755L371.907 164.5L280.882 4.14202ZM114.994 59.4379L15.4616 154.717L94.5772 15.2012L114.994 59.4379ZM274.076 14.7758L301.299 166.627L130.307 61.5646L274.076 14.7758ZM124.352 67.9449L298.746 175.134L124.352 274.241V67.9449ZM300.873 183.641L270.248 314.649L131.583 280.196L300.873 183.641ZM115.845 270.838L15.4616 166.627L115.845 70.0717V270.838ZM114.569 281.897L95.0026 314.649L22.2673 186.193L114.569 281.897ZM122.225 286.151L255.786 319.754H101.808L122.225 286.151ZM310.656 178.537L359.997 167.903L280.031 309.12L310.656 178.537ZM359.147 159.821L310.656 170.455L285.561 29.6632L359.147 159.821ZM122.225 55.1843L100.958 9.24625H263.442L122.225 55.1843Z" fill="white"/>
</g>
</g>
</g>
</g>
</mask>
<g mask="url(#mask0_2_239)">
<path d="M1495.85 0.739197H0.148926V328.261H1495.85V0.739197Z" fill="url(#paint2_linear_2_239)"/>
</g>
</g>
<defs>
<linearGradient id="paint0_linear_2_239" x1="424.022" y1="118.87" x2="1495.81" y2="118.87" gradientUnits="userSpaceOnUse">
<stop stop-color="#849295"/>
<stop offset="1" stop-color="#39575C"/>
</linearGradient>
<linearGradient id="paint1_linear_2_239" x1="611.589" y1="300.821" x2="1308.24" y2="300.821" gradientUnits="userSpaceOnUse">
<stop stop-color="#849295"/>
<stop offset="1" stop-color="#39575C"/>
</linearGradient>
<linearGradient id="paint2_linear_2_239" x1="0.148926" y1="190.047" x2="1487.32" y2="305.502" gradientUnits="userSpaceOnUse">
<stop stop-color="#6EE2F5"/>
<stop offset="1" stop-color="#6454F0"/>
</linearGradient>
<clipPath id="clip0_2_239">
<rect width="1495.7" height="327.522" fill="white" transform="translate(0.148926 0.739197)"/>
</clipPath>
<clipPath id="clip1_2_239">
<rect width="1495.7" height="327.522" fill="white" transform="translate(0.148926 0.739197)"/>
</clipPath>
<clipPath id="clip2_2_239">
<rect width="1071.87" height="311.83" fill="white" transform="translate(423.979 8.58484)"/>
</clipPath>
<clipPath id="clip3_2_239">
<rect width="1071.87" height="311.83" fill="white" transform="translate(423.979 8.58484)"/>
</clipPath>
<clipPath id="clip4_2_239">
<rect width="1071.87" height="220.571" fill="white" transform="translate(423.979 8.58484)"/>
</clipPath>
<clipPath id="clip5_2_239">
<rect width="1071.87" height="220.571" fill="white" transform="translate(423.979 8.58484)"/>
</clipPath>
<clipPath id="clip6_2_239">
<rect width="696.717" height="39.1883" fill="white" transform="translate(611.556 281.227)"/>
</clipPath>
<clipPath id="clip7_2_239">
<rect width="696.717" height="39.1883" fill="white" transform="translate(611.556 281.227)"/>
</clipPath>
<clipPath id="clip8_2_239">
<rect width="1495.7" height="327.522" fill="white" transform="translate(0.148926 0.739197)"/>
</clipPath>
<clipPath id="clip9_2_239">
<rect width="1495.7" height="327.522" fill="white" transform="translate(0.148926 0.739197)"/>
</clipPath>
<clipPath id="clip10_2_239">
<rect width="1071.87" height="311.83" fill="white" transform="translate(423.979 8.58484)"/>
</clipPath>
<clipPath id="clip11_2_239">
<rect width="1071.87" height="311.83" fill="white" transform="translate(423.979 8.58484)"/>
</clipPath>
<clipPath id="clip12_2_239">
<rect width="1071.87" height="220.571" fill="white" transform="translate(423.979 8.58484)"/>
</clipPath>
<clipPath id="clip13_2_239">
<rect width="1071.87" height="220.571" fill="white" transform="translate(423.979 8.58484)"/>
</clipPath>
<clipPath id="clip14_2_239">
<rect width="696.717" height="39.1883" fill="white" transform="translate(611.556 281.227)"/>
</clipPath>
<clipPath id="clip15_2_239">
<rect width="696.717" height="39.1883" fill="white" transform="translate(611.556 281.227)"/>
</clipPath>
<clipPath id="clip16_2_239">
<rect width="371.758" height="327.522" fill="white" transform="translate(0.148926 0.739197)"/>
</clipPath>
<clipPath id="clip17_2_239">
<rect width="371.758" height="327.522" fill="white" transform="translate(0.148926 0.739197)"/>
</clipPath>
</defs>
</svg>
