<svg width="412" height="391" viewBox="0 0 412 391" fill="none" xmlns="http://www.w3.org/2000/svg">
<rect x="0.563599" y="0.587646" width="411" height="390" rx="20" fill="white"/>
<path d="M320.645 143.132L320.994 140.666L217.112 64.2803L102.526 111.033L91.822 234.172L195.704 310.557L310.29 263.805L320.645 143.132ZM206.823 103.674L114.819 112.246L212.303 72.3141L206.823 103.674ZM312.782 145.857L270.017 235.893L214.569 111.071L312.782 145.857ZM208.805 111.937L265.342 239.261L130.038 219.057L208.805 111.937ZM263.283 244.553L196.146 299.994L131.806 225.12L263.283 244.553ZM126.583 213.794L110.272 118.43L203.239 109.546L126.583 213.794ZM121.648 219.012L98.2075 227.978L106.605 131.387L121.648 219.012ZM124.303 224.367L186.115 296.701L100.062 233.425L124.303 224.367ZM270.699 245.923L302.334 260.677L203.725 301.143L270.699 245.923ZM304.945 256.131L273.785 241.726L313.516 158.307L304.945 256.131ZM212.489 104.437L218.143 71.8439L308.95 138.616L212.489 104.437Z" fill="url(#paint0_linear_7_5)"/>
<defs>
<linearGradient id="paint0_linear_7_5" x1="147.308" y1="-99.489" x2="113.339" y2="336.195" gradientUnits="userSpaceOnUse">
<stop/>
<stop offset="1" stop-color="#666666"/>
</linearGradient>
</defs>
</svg>
