<svg width="1354" height="347" viewBox="0 0 1354 347" fill="none" xmlns="http://www.w3.org/2000/svg">
<g clip-path="url(#clip0_3_584)">
<path d="M191.053 2.26494L189.895 0H63.3947L0 109L63.1053 218H189.605L253 109L191.053 2.26494ZM78.1579 39.0701L10.4211 102.488L64.2632 9.62597L78.1579 39.0701ZM186.421 9.34286L204.947 110.416L88.579 40.4857L186.421 9.34286ZM84.5263 44.7325L203.211 116.078L84.5263 182.044V44.7325ZM204.658 121.74L183.816 208.94L89.4474 186.008L204.658 121.74ZM78.7369 179.779L10.4211 110.416L78.7369 46.148V179.779ZM77.8684 187.14L64.5526 208.94L15.0526 123.439L77.8684 187.14ZM83.079 189.971L173.974 212.338H69.1842L83.079 189.971ZM211.316 118.343L244.895 111.265L190.474 205.26L211.316 118.343ZM244.316 105.886L211.316 112.964L194.237 19.2519L244.316 105.886ZM83.079 36.239L68.6053 5.66234H179.184L83.079 36.239Z" fill="url(#paint0_linear_3_584)"/>
</g>
<g clip-path="url(#clip1_3_584)">
<g clip-path="url(#clip2_3_584)">
<g clip-path="url(#clip3_3_584)">
<g clip-path="url(#clip4_3_584)">
<path d="M393.742 75.3418H336.018V113.755H384.813V135.765H336.018V198.68H304.042V53.332H393.742V75.3418ZM412.845 198.68V34.4368H443.575V198.68H412.845ZM570.236 134.104C570.236 136.042 569.89 140.402 569.197 147.185H495.693C496.385 157.706 498.904 165.873 503.251 171.687C507.625 177.501 513.342 180.408 520.402 180.408C523.586 180.408 526.244 179.992 528.375 179.162C530.507 178.331 532.722 176.836 535.02 174.677C537.318 172.545 540.336 169.057 544.073 164.212C544.765 163.104 546.219 162.551 548.433 162.551C550.787 162.551 553.652 163.34 557.03 164.918C560.435 166.523 564.062 168.78 567.91 171.687C558.94 191.066 543.104 200.756 520.402 200.756C502.96 200.756 489.256 195.454 479.289 184.851C469.323 174.275 464.339 159.782 464.339 141.371C464.339 129.328 466.582 118.877 471.067 110.018C475.58 101.158 482.016 94.334 490.377 89.5444C498.766 84.7825 508.705 82.4016 520.194 82.4016C536.114 82.4016 548.433 86.9005 557.154 95.8982C565.875 104.896 570.236 117.631 570.236 134.104ZM496.108 129.743H539.09C539.09 111.194 532.584 101.92 519.572 101.92C512.927 101.92 507.598 104.273 503.583 108.979C499.569 113.686 497.077 120.607 496.108 129.743ZM681.074 198.68H652.419C651.866 190.928 649.692 183.591 645.9 176.67C642.079 169.749 636.916 162.689 630.41 155.491C623.904 162.689 618.754 169.749 614.961 176.67C611.141 183.591 608.954 190.928 608.4 198.68H579.746C580.438 187.467 583.801 177.182 589.837 167.825C595.845 158.495 603.97 148.777 614.214 138.672C607.154 131.612 601.409 125.48 596.98 120.275C592.55 115.098 588.785 109.492 585.684 103.456C582.556 97.4486 580.715 91.1225 580.161 84.478H608.815C608.954 90.8456 610.891 97.0333 614.629 103.041C618.367 109.076 623.627 115.555 630.41 122.476C637.193 115.555 642.453 109.076 646.19 103.041C649.928 97.0333 651.866 90.8456 652.004 84.478H680.658C680.105 91.1225 678.278 97.4486 675.177 103.456C672.048 109.492 668.269 115.098 663.84 120.275C659.41 125.48 653.665 131.612 646.606 138.672C656.849 148.777 664.989 158.495 671.024 167.825C677.032 177.182 680.382 187.467 681.074 198.68ZM698.931 198.68V84.478H729.661V198.68H698.931ZM712.843 63.5064C702.045 63.5064 696.647 58.1077 696.647 47.3105V44.1959C696.647 33.3986 702.045 28 712.843 28H715.75C726.547 28 731.945 33.3986 731.945 44.1959V47.3105C731.945 58.1077 726.547 63.5064 715.75 63.5064H712.843ZM813.133 200.756C796.106 200.756 782.748 197.849 773.058 192.035C763.368 186.221 758.523 178.262 758.523 168.157C758.523 163.312 760.558 159.505 764.628 156.737C768.725 153.968 774.512 152.515 781.987 152.376C782.817 160.543 785.96 166.842 791.414 171.271C796.895 175.701 804.273 177.916 813.548 177.916C830.574 177.916 839.088 171.617 839.088 159.021C839.088 154.037 836.762 149.954 832.111 146.77C827.487 143.586 819.431 140.333 807.942 137.011C791.607 132.443 779.633 126.601 772.02 119.486C764.406 112.343 760.6 103.166 760.6 91.953C760.6 79.3562 765.472 69.4172 775.218 62.136C784.991 54.8824 798.321 51.2556 815.209 51.2556C828.775 51.2556 840.403 54.4671 850.092 60.8901C859.782 67.3408 866.427 76.3108 870.026 87.8002C867.673 90.1535 864.42 92.2299 860.267 94.0294C856.114 95.829 852.446 96.7287 849.262 96.7287C846.77 96.7287 844.832 96.2027 843.448 95.1507C842.064 94.1263 840.61 92.1607 839.088 89.2537C836.319 83.8551 833.135 79.9791 829.536 77.6259C825.937 75.2726 821.161 74.096 815.209 74.096C800.397 74.096 792.992 79.0101 792.992 88.8384C792.992 92.7144 793.753 95.8567 795.276 98.2653C796.798 100.702 799.428 102.916 803.166 104.91C806.903 106.931 812.579 109.187 820.192 111.679C834.035 116.247 844.625 120.427 851.961 124.22C859.298 128.041 864.447 132.166 867.41 136.596C870.4 141.025 871.895 146.493 871.895 152.999C871.895 162.412 869.431 170.718 864.503 177.916C859.602 185.114 852.723 190.72 843.863 194.735C835.004 198.749 824.76 200.756 813.133 200.756ZM950.798 82.4016C965.609 82.4016 976.822 87.205 984.435 96.8118C992.049 106.446 995.856 120.607 995.856 139.295C995.856 151.476 993.641 162.204 989.211 171.479C984.781 180.754 978.552 187.952 970.524 193.074C962.495 198.195 953.22 200.756 942.7 200.756C936.886 200.756 929.757 199.58 921.313 197.226V246.022H890.582V128.082C890.582 116.87 890.125 108.73 889.212 103.664C888.326 98.6252 886.499 94.3063 883.73 90.7072C887.606 88.4924 891.717 86.762 896.064 85.5162C900.438 84.2704 904.563 83.6474 908.439 83.6474C911.346 83.6474 913.699 84.6164 915.499 86.5544C917.299 88.4924 918.683 91.4685 919.652 95.4829C927.957 86.762 938.339 82.4016 950.798 82.4016ZM938.339 180.823C946.922 180.823 953.456 177.293 957.941 170.233C962.453 163.173 964.71 152.861 964.71 139.295C964.71 126.421 963.049 116.967 959.726 110.931C956.404 104.924 951.144 101.92 943.946 101.92C939.516 101.92 935.225 102.958 931.072 105.034C926.919 107.111 923.666 109.672 921.313 112.717V115.416V177.085C926.988 179.577 932.664 180.823 938.339 180.823ZM1106.69 155.698C1106.69 167.049 1107.15 175.217 1108.06 180.2C1108.95 185.183 1110.78 189.474 1113.55 193.074C1110.64 195.15 1106.9 196.839 1102.33 198.14C1097.77 199.469 1093.61 200.133 1089.87 200.133C1086.41 200.133 1083.65 198.887 1081.57 196.396C1079.49 193.904 1077.97 189.959 1077 184.56C1073.26 190.374 1068.83 194.527 1063.71 197.019C1058.59 199.51 1051.95 200.756 1043.78 200.756C1033.67 200.756 1025.51 198.015 1019.28 192.534C1013.05 187.08 1009.93 179.923 1009.93 171.064C1009.93 158.605 1015.17 149.289 1025.63 143.115C1036.07 136.969 1052.85 133.273 1075.96 132.027V121.23C1075.96 115.555 1074.48 111.333 1071.52 108.564C1068.53 105.796 1063.99 104.411 1057.9 104.411C1053.47 104.411 1049.08 105.27 1044.73 106.986C1040.36 108.73 1034.99 111.748 1028.62 116.039C1027.93 116.593 1026.96 116.87 1025.71 116.87C1023.22 116.87 1020.56 115.209 1017.74 111.886C1014.89 108.564 1012.36 104.204 1010.14 98.8051C1015.54 94.0986 1023.13 90.1812 1032.9 87.0527C1042.64 83.952 1052.29 82.4016 1061.84 82.4016C1076.24 82.4016 1087.31 85.7515 1095.07 92.4514C1102.82 99.1789 1106.69 108.772 1106.69 121.23V155.698ZM1054.58 180.823C1058.73 180.823 1062.58 179.369 1066.12 176.462C1069.64 173.555 1072.92 169.057 1075.96 162.966V147.6C1064.47 148.016 1055.79 149.912 1049.92 153.29C1044.03 156.695 1041.08 161.512 1041.08 167.742C1041.08 171.756 1042.33 174.94 1044.82 177.293C1047.31 179.646 1050.56 180.823 1054.58 180.823ZM1183.11 200.756C1144.9 200.756 1125.8 180.823 1125.8 140.956C1125.8 122.684 1130.71 108.357 1140.54 97.9746C1150.37 87.5926 1163.93 82.4016 1181.24 82.4016C1194.8 82.4016 1205.99 85.7515 1214.79 92.4514C1223.57 99.1789 1228.72 108.287 1230.24 119.777C1222.21 124.622 1215.57 127.044 1210.31 127.044C1208.09 127.044 1206.26 126.352 1204.82 124.968C1203.36 123.583 1202.14 121.369 1201.17 118.323C1199.09 112.509 1196.53 108.384 1193.49 105.948C1190.44 103.539 1186.36 102.335 1181.24 102.335C1173.48 102.335 1167.5 105.657 1163.3 112.302C1159.06 118.946 1156.94 128.498 1156.94 140.956C1156.94 154.383 1159.06 164.239 1163.3 170.524C1167.5 176.836 1174.11 179.992 1183.11 179.992C1189.33 179.992 1194.25 177.874 1197.85 173.638C1201.45 169.43 1204.15 162.689 1205.95 153.414C1213.56 153.414 1219.03 154.799 1222.35 157.567C1225.67 160.336 1227.33 164.835 1227.33 171.064C1227.33 176.324 1225.3 181.238 1221.23 185.806C1217.13 190.374 1211.69 194.001 1204.91 196.687C1198.12 199.4 1190.86 200.756 1183.11 200.756ZM1353.58 134.104C1353.58 136.042 1353.23 140.402 1352.54 147.185H1279.03C1279.73 157.706 1282.25 165.873 1286.59 171.687C1290.97 177.501 1296.68 180.408 1303.74 180.408C1306.93 180.408 1309.59 179.992 1311.72 179.162C1313.88 178.331 1316.09 176.836 1318.36 174.677C1320.66 172.545 1323.68 169.057 1327.41 164.212C1328.11 163.104 1329.56 162.551 1331.78 162.551C1334.13 162.551 1336.99 163.34 1340.37 164.918C1343.78 166.523 1347.42 168.78 1351.29 171.687C1342.3 191.066 1326.45 200.756 1303.74 200.756C1286.3 200.756 1272.6 195.454 1262.63 184.851C1252.66 174.275 1247.68 159.782 1247.68 141.371C1247.68 129.328 1249.92 118.877 1254.41 110.018C1258.92 101.158 1265.36 94.334 1273.72 89.5444C1282.11 84.7825 1292.05 82.4016 1303.54 82.4016C1319.46 82.4016 1331.78 86.9005 1340.5 95.8982C1349.22 104.896 1353.58 117.631 1353.58 134.104ZM1279.45 129.743H1322.43C1322.43 111.194 1315.93 101.92 1302.91 101.92C1296.27 101.92 1290.94 104.273 1286.92 108.979C1282.91 113.686 1280.42 120.607 1279.45 129.743Z" fill="url(#paint1_linear_3_584)"/>
</g>
</g>
</g>
</g>
<defs>
<linearGradient id="paint0_linear_3_584" x1="-126.26" y1="-3.08363e-07" x2="107.491" y2="521.251" gradientUnits="userSpaceOnUse">
<stop stop-color="#6EE2F5"/>
<stop offset="1" stop-color="#6454F0"/>
</linearGradient>
<linearGradient id="paint1_linear_3_584" x1="304.042" y1="137.011" x2="1353.58" y2="137.011" gradientUnits="userSpaceOnUse">
<stop stop-color="#989898"/>
<stop offset="1" stop-color="#4B4B4B"/>
</linearGradient>
<clipPath id="clip0_3_584">
<rect width="253" height="218" fill="white"/>
</clipPath>
<clipPath id="clip1_3_584">
<rect width="1049.62" height="315.503" fill="white" transform="translate(304 31)"/>
</clipPath>
<clipPath id="clip2_3_584">
<rect width="1049.62" height="315.503" fill="white" transform="translate(304 31)"/>
</clipPath>
<clipPath id="clip3_3_584">
<rect width="1049.62" height="218.022" fill="white" transform="translate(304 28)"/>
</clipPath>
<clipPath id="clip4_3_584">
<rect width="1049.62" height="218.022" fill="white" transform="translate(304 28)"/>
</clipPath>
</defs>
</svg>
