<svg width="379" height="365" viewBox="0 0 379 365" fill="none" xmlns="http://www.w3.org/2000/svg">
<rect width="379" height="365" rx="50" fill="white"/>
<rect width="379" height="365" rx="50" stroke="black"/>
<path d="M317.417 128.816L317.862 126.02L203.695 42.0707L74.74 97.5636L59.9533 237.006L174.121 320.955L303.076 265.462L317.417 128.816ZM191.304 86.8389L88.4309 98.6508L198.143 51.2631L191.304 86.8389ZM308.578 132.077L258.776 234.84L199.777 95.0217L308.578 132.077ZM193.325 96.1334L253.482 238.756L102.951 219.038L193.325 96.1334ZM251.061 244.785L174.859 309.004L104.784 225.852L251.061 244.785ZM99.2166 213.169L83.2135 105.746L187.168 93.5584L99.2166 213.169ZM93.5881 219.181L67.2224 229.857L78.822 120.477L93.5881 219.181ZM96.4273 225.173L163.74 305.513L69.1664 235.972L96.4273 225.173ZM259.306 246.162L294.27 262.111L183.29 310.128L259.306 246.162ZM297.288 256.912L262.846 241.347L309.11 146.134L297.288 256.912ZM197.609 87.5705L204.67 50.5968L304.469 123.98L197.609 87.5705Z" fill="url(#paint0_linear_7_5)" stroke="url(#paint1_linear_7_5)" stroke-width="10"/>
<defs>
<linearGradient id="paint0_linear_7_5" x1="129.573" y1="-141.443" x2="100.704" y2="352.95" gradientUnits="userSpaceOnUse">
<stop/>
<stop offset="1" stop-color="#666666"/>
</linearGradient>
<linearGradient id="paint1_linear_7_5" x1="260.648" y1="83.9494" x2="117.168" y2="279.076" gradientUnits="userSpaceOnUse">
<stop/>
<stop offset="1" stop-color="#666666"/>
</linearGradient>
</defs>
</svg>
