<svg width="1500" height="343" viewBox="0 0 1500 343" fill="none" xmlns="http://www.w3.org/2000/svg">
<g clip-path="url(#clip0_3_347)">
<g clip-path="url(#clip1_3_347)">
<g clip-path="url(#clip2_3_347)">
<g clip-path="url(#clip3_3_347)">
<g clip-path="url(#clip4_3_347)">
<g clip-path="url(#clip5_3_347)">
<path d="M530.629 63.9282H472.534V102.588H521.643V124.739H472.534V188.058H440.353V41.7771H530.629V63.9282ZM549.854 188.058V22.7606H580.782V188.058H549.854ZM708.255 123.067C708.255 125.018 707.907 129.406 707.211 136.233H633.234C633.931 146.821 636.466 155.04 640.841 160.891C645.243 166.743 650.997 169.668 658.102 169.668C661.306 169.668 663.981 169.25 666.127 168.414C668.272 167.579 670.501 166.074 672.814 163.901C675.126 161.755 678.163 158.244 681.925 153.368C682.621 152.254 684.084 151.697 686.313 151.697C688.682 151.697 691.565 152.491 694.965 154.079C698.392 155.695 702.042 157.966 705.915 160.891C696.887 180.396 680.95 190.148 658.102 190.148C640.548 190.148 626.756 184.812 616.725 174.14C606.695 163.497 601.679 148.91 601.679 130.381C601.679 118.261 603.936 107.743 608.45 98.8266C612.992 89.9105 619.47 83.0422 627.885 78.2219C636.327 73.4295 646.33 71.0333 657.893 71.0333C673.914 71.0333 686.313 75.561 695.09 84.6165C703.867 93.672 708.255 106.489 708.255 123.067ZM633.652 118.679H676.91C676.91 100.011 670.362 90.6767 657.266 90.6767C650.579 90.6767 645.215 93.045 641.175 97.7818C637.135 102.518 634.627 109.484 633.652 118.679ZM819.805 188.058H790.967C790.409 180.256 788.222 172.873 784.405 165.907C780.56 158.941 775.363 151.836 768.816 144.592C762.268 151.836 757.085 158.941 753.268 165.907C749.423 172.873 747.222 180.256 746.665 188.058H717.826C718.523 176.773 721.908 166.422 727.982 157.005C734.029 147.615 742.206 137.835 752.516 127.665C745.411 120.56 739.629 114.388 735.171 109.15C730.713 103.939 726.924 98.2972 723.803 92.2231C720.654 86.1768 718.802 79.8101 718.244 73.123H747.082C747.222 79.5315 749.172 85.7589 752.934 91.8051C756.695 97.8793 761.989 104.399 768.816 111.365C775.642 104.399 780.936 97.8793 784.698 91.8051C788.459 85.7589 790.409 79.5315 790.549 73.123H819.387C818.83 79.8101 816.991 86.1768 813.87 92.2231C810.722 98.2972 806.918 103.939 802.46 109.15C798.002 114.388 792.221 120.56 785.115 127.665C795.425 137.835 803.617 147.615 809.691 157.005C815.737 166.422 819.108 176.773 819.805 188.058ZM837.777 188.058V73.123H868.705V188.058H837.777ZM851.778 52.0168C840.911 52.0168 835.478 46.5835 835.478 35.7169V32.5823C835.478 21.7157 840.911 16.2825 851.778 16.2825H854.703C865.57 16.2825 871.003 21.7157 871.003 32.5823V35.7169C871.003 46.5835 865.57 52.0168 854.703 52.0168H851.778ZM952.711 190.148C935.576 190.148 922.132 187.222 912.38 181.371C902.628 175.52 897.752 167.509 897.752 157.339C897.752 152.463 899.8 148.632 903.895 145.845C908.019 143.059 913.843 141.596 921.366 141.457C922.201 149.677 925.364 156.015 930.853 160.474C936.37 164.932 943.795 167.161 953.129 167.161C970.265 167.161 978.833 160.822 978.833 148.144C978.833 143.129 976.493 139.019 971.812 135.815C967.158 132.611 959.05 129.337 947.487 125.993C931.048 121.396 918.997 115.517 911.335 108.356C903.673 101.167 899.841 91.9305 899.841 80.646C899.841 67.9683 904.745 57.9655 914.553 50.6375C924.389 43.3374 937.805 39.6874 954.801 39.6874C968.454 39.6874 980.157 42.9195 989.909 49.3837C999.661 55.8758 1006.35 64.9034 1009.97 76.4666C1007.6 78.8349 1004.33 80.9246 1000.15 82.7357C995.969 84.5468 992.277 85.4524 989.073 85.4524C986.565 85.4524 984.615 84.923 983.221 83.8642C981.828 82.8333 980.366 80.855 978.833 77.9294C976.047 72.4961 972.842 68.5953 969.22 66.2269C965.598 63.8585 960.792 62.6744 954.801 62.6744C939.894 62.6744 932.441 67.6201 932.441 77.5114C932.441 81.4122 933.207 84.5747 934.74 86.9988C936.272 89.4507 938.919 91.6798 942.681 93.6859C946.442 95.7199 952.154 97.9907 959.817 100.498C973.748 105.096 984.406 109.303 991.789 113.12C999.173 116.965 1004.36 121.117 1007.34 125.575C1010.35 130.033 1011.85 135.536 1011.85 142.084C1011.85 151.557 1009.37 159.916 1004.41 167.161C999.48 174.405 992.556 180.047 983.639 184.087C974.723 188.128 964.414 190.148 952.711 190.148ZM1091.26 71.0333C1106.17 71.0333 1117.45 75.8675 1125.11 85.536C1132.78 95.2323 1136.61 109.484 1136.61 128.292C1136.61 140.551 1134.38 151.348 1129.92 160.682C1125.46 170.017 1119.19 177.261 1111.11 182.416C1103.03 187.57 1093.7 190.148 1083.11 190.148C1077.26 190.148 1070.08 188.963 1061.59 186.595V235.704H1030.66V117.007C1030.66 105.723 1030.2 97.531 1029.28 92.4321C1028.39 87.361 1026.55 83.0144 1023.76 79.3922C1027.66 77.1631 1031.8 75.4217 1036.18 74.1679C1040.58 72.914 1044.73 72.2871 1048.63 72.2871C1051.56 72.2871 1053.92 73.2623 1055.73 75.2127C1057.55 77.1631 1058.94 80.1584 1059.91 84.1985C1068.27 75.4217 1078.72 71.0333 1091.26 71.0333ZM1078.72 170.086C1087.36 170.086 1093.94 166.534 1098.45 159.429C1102.99 152.324 1105.26 141.945 1105.26 128.292C1105.26 115.335 1103.59 105.82 1100.25 99.7461C1096.9 93.6998 1091.61 90.6767 1084.36 90.6767C1079.91 90.6767 1075.59 91.7216 1071.41 93.8113C1067.23 95.901 1063.95 98.4783 1061.59 101.543V104.26V166.325C1067.3 168.832 1073.01 170.086 1078.72 170.086ZM1248.16 144.801C1248.16 156.224 1248.62 164.444 1249.54 169.459C1250.43 174.475 1252.27 178.793 1255.05 182.416C1252.13 184.505 1248.37 186.205 1243.77 187.515C1239.17 188.852 1234.99 189.521 1231.23 189.521C1227.75 189.521 1224.96 188.267 1222.87 185.759C1220.78 183.252 1219.25 179.281 1218.27 173.848C1214.51 179.699 1210.05 183.878 1204.9 186.386C1199.74 188.894 1193.06 190.148 1184.84 190.148C1174.67 190.148 1166.45 187.389 1160.18 181.872C1153.91 176.383 1150.78 169.181 1150.78 160.265C1150.78 147.726 1156.04 138.35 1166.57 132.137C1177.08 125.951 1193.96 122.232 1217.23 120.978V110.111C1217.23 104.399 1215.74 100.15 1212.76 97.3638C1209.75 94.5775 1205.18 93.1844 1199.05 93.1844C1194.59 93.1844 1190.17 94.0481 1185.8 95.7756C1181.4 97.531 1175.99 100.568 1169.58 104.887C1168.89 105.444 1167.91 105.723 1166.66 105.723C1164.15 105.723 1161.48 104.051 1158.63 100.707C1155.76 97.3638 1153.21 92.9754 1150.98 87.5421C1156.42 82.8054 1164.05 78.8628 1173.89 75.7143C1183.7 72.5936 1193.41 71.0333 1203.02 71.0333C1217.51 71.0333 1228.65 74.4047 1236.45 81.1475C1244.26 87.9183 1248.16 97.5728 1248.16 110.111V144.801ZM1195.7 170.086C1199.88 170.086 1203.76 168.623 1207.32 165.698C1210.86 162.772 1214.16 158.244 1217.23 152.115V136.651C1205.67 137.069 1196.93 138.977 1191.02 142.376C1185.09 145.804 1182.12 150.652 1182.12 156.921C1182.12 160.961 1183.38 164.165 1185.88 166.534C1188.39 168.902 1191.66 170.086 1195.7 170.086ZM1325.06 190.148C1286.61 190.148 1267.38 170.086 1267.38 129.964C1267.38 111.574 1272.33 97.1548 1282.22 86.7062C1292.11 76.2576 1305.76 71.0333 1323.18 71.0333C1336.83 71.0333 1348.09 74.4047 1356.95 81.1475C1365.78 87.9183 1370.96 97.0852 1372.5 108.648C1364.42 113.524 1357.73 115.962 1352.43 115.962C1350.21 115.962 1348.37 115.266 1346.92 113.873C1345.44 112.479 1344.21 110.25 1343.24 107.186C1341.15 101.334 1338.57 97.1827 1335.51 94.7308C1332.44 92.3067 1328.33 91.0946 1323.18 91.0946C1315.38 91.0946 1309.36 94.4382 1305.12 101.125C1300.86 107.812 1298.73 117.425 1298.73 129.964C1298.73 143.477 1300.86 153.396 1305.12 159.721C1309.36 166.074 1316 169.25 1325.06 169.25C1331.33 169.25 1336.27 167.119 1339.9 162.856C1343.52 158.621 1346.23 151.836 1348.05 142.502C1355.71 142.502 1361.21 143.895 1364.55 146.681C1367.9 149.468 1369.57 153.995 1369.57 160.265C1369.57 165.559 1367.52 170.504 1363.43 175.102C1359.3 179.699 1353.83 183.349 1347 186.052C1340.17 188.782 1332.86 190.148 1325.06 190.148ZM1496.63 123.067C1496.63 125.018 1496.28 129.406 1495.58 136.233H1421.6C1422.3 146.821 1424.84 155.04 1429.21 160.891C1433.61 166.743 1439.37 169.668 1446.47 169.668C1449.68 169.668 1452.35 169.25 1454.5 168.414C1456.67 167.579 1458.9 166.074 1461.18 163.901C1463.5 161.755 1466.53 158.244 1470.29 153.368C1470.99 152.254 1472.45 151.697 1474.68 151.697C1477.05 151.697 1479.94 152.491 1483.33 154.079C1486.76 155.695 1490.43 157.966 1494.33 160.891C1485.27 180.396 1469.32 190.148 1446.47 190.148C1428.92 190.148 1415.13 184.812 1405.1 174.14C1395.06 163.497 1390.05 148.91 1390.05 130.381C1390.05 118.261 1392.31 107.743 1396.82 98.8266C1401.36 89.9105 1407.84 83.0422 1416.25 78.2219C1424.7 73.4295 1434.7 71.0333 1446.26 71.0333C1462.28 71.0333 1474.68 75.561 1483.46 84.6165C1492.24 93.672 1496.63 106.489 1496.63 123.067ZM1422.02 118.679H1465.28C1465.28 100.011 1458.73 90.6767 1445.64 90.6767C1438.95 90.6767 1433.59 93.045 1429.55 97.7818C1425.5 102.518 1423 109.484 1422.02 118.679Z" fill="url(#paint0_linear_3_347)"/>
</g>
</g>
<g clip-path="url(#clip6_3_347)">
<g clip-path="url(#clip7_3_347)">
<path d="M641.754 294.695H629.987V301.989H640.034V306.152H629.987V316.612H625.204V290.532H641.754V294.695ZM651.422 317.06C649.542 317.06 648.165 316.665 647.294 315.876C646.422 315.082 645.986 313.86 645.986 312.208V287.504H650.597V310.694C650.597 311.52 650.734 312.093 651.01 312.415C651.285 312.736 651.778 312.896 652.489 312.896C653.2 312.896 653.831 312.827 654.381 312.69V316.681C653.303 316.933 652.317 317.06 651.422 317.06ZM661.635 308.045C662.006 311.531 663.935 313.275 667.422 313.275C668.316 313.275 669.188 313.16 670.037 312.931C670.885 312.701 671.837 312.334 672.893 311.83L674.131 315.477C673.026 316.096 671.899 316.539 670.752 316.805C669.606 317.066 668.312 317.197 666.871 317.197C664.738 317.197 662.914 316.766 661.401 315.903C659.887 315.046 658.744 313.848 657.974 312.311C657.203 310.774 656.818 308.985 656.818 306.944C656.818 304.811 657.219 302.98 658.022 301.452C658.825 299.929 659.914 298.778 661.29 297.998C662.667 297.218 664.206 296.828 665.908 296.828C668.592 296.828 670.695 297.624 672.218 299.216C673.746 300.812 674.519 303.148 674.537 306.221V308.045H661.635ZM665.908 300.75C663.66 300.75 662.293 301.989 661.807 304.466H669.693C669.578 303.182 669.211 302.241 668.592 301.645C667.968 301.049 667.073 300.75 665.908 300.75ZM695.629 316.612H690.193L686.064 310.212L682.141 316.612H676.705L683.277 306.565L677.049 297.379H682.485L686.201 303.193L689.952 297.379H695.319L688.919 306.841L695.629 316.612ZM699.31 294.041V288.846H703.921V294.041H699.31ZM699.31 316.612V297.379H703.921V316.612H699.31ZM719.404 296.828C721.102 296.828 722.609 297.207 723.925 297.963C725.247 298.72 726.274 299.86 727.008 301.384C727.742 302.911 728.109 304.788 728.109 307.013C728.109 309.238 727.742 311.112 727.008 312.635C726.274 314.162 725.247 315.305 723.925 316.062C722.609 316.819 721.102 317.197 719.404 317.197C717.569 317.197 715.78 316.498 714.037 315.098V316.612H709.426V287.504H714.037V298.892C715.757 297.516 717.546 296.828 719.404 296.828ZM718.544 313.034C720.104 313.034 721.285 312.522 722.088 311.499C722.891 310.481 723.292 308.985 723.292 307.013C723.292 305.04 722.891 303.537 722.088 302.505C721.285 301.473 720.104 300.957 718.544 300.957C717.053 300.957 715.551 301.542 714.037 302.712V311.279C715.505 312.449 717.007 313.034 718.544 313.034ZM737.847 317.06C735.966 317.06 734.589 316.665 733.718 315.876C732.846 315.082 732.41 313.86 732.41 312.208V287.504H737.021V310.694C737.021 311.52 737.159 312.093 737.434 312.415C737.709 312.736 738.202 312.896 738.913 312.896C739.624 312.896 740.255 312.827 740.806 312.69V316.681C739.728 316.933 738.741 317.06 737.847 317.06ZM748.059 308.045C748.426 311.531 750.353 313.275 753.839 313.275C754.734 313.275 755.605 313.16 756.454 312.931C757.303 312.701 758.255 312.334 759.31 311.83L760.549 315.477C759.448 316.096 758.324 316.539 757.177 316.805C756.03 317.066 754.734 317.197 753.289 317.197C751.155 317.197 749.332 316.766 747.818 315.903C746.304 315.046 745.164 313.848 744.398 312.311C743.627 310.774 743.242 308.985 743.242 306.944C743.242 304.811 743.643 302.98 744.446 301.452C745.249 299.929 746.338 298.778 747.715 297.998C749.091 297.218 750.628 296.828 752.325 296.828C755.009 296.828 757.115 297.624 758.642 299.216C760.166 300.812 760.939 303.148 760.961 306.221V308.045H748.059ZM752.325 300.75C750.077 300.75 748.712 301.989 748.231 304.466H756.11C755.995 303.182 755.628 302.241 755.009 301.645C754.39 301.049 753.495 300.75 752.325 300.75ZM781.055 317.197C777.592 317.197 774.506 316.555 771.8 315.27V310.935C774.575 312.38 777.66 313.103 781.055 313.103C782.684 313.103 783.877 312.793 784.634 312.174C785.391 311.554 785.781 310.729 785.804 309.696C785.804 308.687 785.453 307.93 784.751 307.425C784.053 306.921 782.948 306.462 781.434 306.049L779.094 305.395C777.764 305.028 776.605 304.586 775.619 304.067C774.633 303.554 773.807 302.797 773.142 301.796C772.476 300.801 772.144 299.512 772.144 297.929C772.144 295.36 772.912 293.403 774.449 292.059C775.986 290.72 778.154 290.05 780.952 290.05C782.627 290.05 784.099 290.203 785.37 290.511C786.645 290.823 787.948 291.288 789.279 291.908V296.105C786.778 294.798 784.003 294.144 780.952 294.144C778.245 294.144 776.892 295.28 776.892 297.551C776.915 298.56 777.229 299.305 777.835 299.787C778.445 300.269 779.496 300.705 780.987 301.095L783.361 301.748C784.806 302.138 786.033 302.608 787.042 303.159C788.051 303.709 788.889 304.494 789.554 305.512C790.219 306.535 790.552 307.861 790.552 309.49C790.529 311.875 789.673 313.756 787.985 315.133C786.301 316.509 783.991 317.197 781.055 317.197ZM805.106 296.828C806.803 296.828 808.31 297.207 809.627 297.963C810.948 298.72 811.976 299.86 812.71 301.384C813.444 302.911 813.811 304.788 813.811 307.013C813.811 309.238 813.444 311.112 812.71 312.635C811.976 314.162 810.948 315.305 809.627 316.062C808.31 316.819 806.803 317.197 805.106 317.197C803.271 317.197 801.482 316.498 799.738 315.098V324.664H795.128V297.379H799.738V298.892C801.459 297.516 803.248 296.828 805.106 296.828ZM804.246 313.034C805.806 313.034 806.987 312.522 807.79 311.499C808.593 310.481 808.994 308.985 808.994 307.013C808.994 305.04 808.593 303.537 807.79 302.505C806.987 301.473 805.806 300.957 804.246 300.957C802.755 300.957 801.252 301.542 799.738 302.712V311.279C801.207 312.449 802.709 313.034 804.246 313.034ZM824.814 297.379C827.085 297.379 828.813 297.716 829.996 298.39C831.175 299.069 831.96 299.975 832.35 301.108C832.74 302.246 832.935 303.675 832.935 305.395V316.612H828.324V314.857C827.475 315.637 826.645 316.199 825.833 316.543C825.016 316.887 824.126 317.06 823.163 317.06C821.144 317.06 819.523 316.479 818.298 315.319C817.068 314.162 816.454 312.575 816.454 310.557C816.454 308.492 817.091 306.891 818.367 305.753C819.637 304.62 821.385 304.054 823.61 304.054C825.422 304.054 826.994 304.409 828.324 305.12C828.301 304.249 828.193 303.549 828.001 303.021C827.803 302.494 827.418 302.085 826.845 301.796C826.271 301.512 825.422 301.37 824.298 301.37H821.064V297.379H824.814ZM823.989 313.378C825.388 313.378 826.833 312.736 828.324 311.451V308.423C827.108 307.804 825.858 307.494 824.574 307.494C823.564 307.494 822.739 307.728 822.096 308.196C821.454 308.669 821.133 309.433 821.133 310.488C821.133 311.52 821.404 312.259 821.945 312.704C822.482 313.153 823.163 313.378 823.989 313.378ZM846.319 317.197C843.222 317.174 840.855 316.261 839.217 314.458C837.575 312.66 836.754 310.155 836.754 306.944C836.754 303.778 837.575 301.306 839.217 299.526C840.855 297.75 843.222 296.851 846.319 296.828C847.42 296.828 848.367 296.897 849.161 297.034C849.95 297.172 850.769 297.413 851.618 297.757V302.058C850.769 301.645 849.973 301.358 849.23 301.198C848.482 301.037 847.661 300.957 846.766 300.957C843.28 300.98 841.536 302.964 841.536 306.909C841.536 310.992 843.245 313.034 846.663 313.034C848.315 313.034 850.001 312.541 851.721 311.554L853.063 315.408C850.998 316.601 848.75 317.197 846.319 317.197ZM860.357 308.045C860.724 311.531 862.651 313.275 866.138 313.275C867.032 313.275 867.904 313.16 868.753 312.931C869.601 312.701 870.553 312.334 871.608 311.83L872.847 315.477C871.746 316.096 870.622 316.539 869.475 316.805C868.328 317.066 867.032 317.197 865.587 317.197C863.454 317.197 861.63 316.766 860.116 315.903C858.602 315.046 857.46 313.848 856.689 312.311C855.923 310.774 855.54 308.985 855.54 306.944C855.54 304.811 855.942 302.98 856.744 301.452C857.547 299.929 858.637 298.778 860.013 297.998C861.389 297.218 862.926 296.828 864.624 296.828C867.307 296.828 869.411 297.624 870.934 299.216C872.462 300.812 873.237 303.148 873.26 306.221V308.045H860.357ZM864.624 300.75C862.376 300.75 861.011 301.989 860.529 304.466H868.409C868.294 303.182 867.927 302.241 867.307 301.645C866.688 301.049 865.794 300.75 864.624 300.75ZM883.823 317.197C882.332 317.197 881.002 317.071 879.832 316.819C878.662 316.566 877.446 316.142 876.185 315.546V311.313C877.4 312.002 878.632 312.499 879.88 312.807C881.132 313.119 882.447 313.275 883.823 313.275C885.773 313.275 886.748 312.575 886.748 311.176C886.748 310.579 886.58 310.137 886.245 309.848C885.915 309.563 885.394 309.329 884.683 309.146L881.862 308.527C880.096 308.137 878.758 307.499 877.85 306.613C876.946 305.733 876.494 304.466 876.494 302.815C876.494 298.824 878.983 296.828 883.961 296.828C886.14 296.828 888.33 297.241 890.532 298.067V302.127C889.684 301.714 888.709 301.381 887.608 301.129C886.507 300.877 885.36 300.75 884.167 300.75C882.171 300.75 881.174 301.347 881.174 302.54C881.174 303.09 881.339 303.492 881.669 303.744C882.004 303.996 882.504 304.203 883.169 304.363L885.956 304.983C887.814 305.418 889.191 306.072 890.085 306.944C890.98 307.815 891.427 309.157 891.427 310.969C891.427 313.011 890.739 314.559 889.363 315.614C887.986 316.67 886.14 317.197 883.823 317.197ZM894.31 321.808L896.375 310.729H901.192L898.474 321.808H894.31ZM921.664 317.197C918.2 317.197 915.115 316.555 912.409 315.27V310.935C915.184 312.38 918.269 313.103 921.664 313.103C923.293 313.103 924.486 312.793 925.242 312.174C925.999 311.554 926.389 310.729 926.412 309.696C926.412 308.687 926.061 307.93 925.359 307.425C924.662 306.921 923.557 306.462 922.043 306.049L919.703 305.395C918.372 305.028 917.214 304.586 916.228 304.067C915.241 303.554 914.416 302.797 913.75 301.796C913.085 300.801 912.753 299.512 912.753 297.929C912.753 295.36 913.521 293.403 915.058 292.059C916.595 290.72 918.762 290.05 921.561 290.05C923.235 290.05 924.708 290.203 925.979 290.511C927.254 290.823 928.557 291.288 929.887 291.908V296.105C927.387 294.798 924.612 294.144 921.561 294.144C918.854 294.144 917.501 295.28 917.501 297.551C917.524 298.56 917.838 299.305 918.444 299.787C919.054 300.269 920.104 300.705 921.595 301.095L923.969 301.748C925.414 302.138 926.642 302.608 927.651 303.159C928.66 303.709 929.497 304.494 930.163 305.512C930.828 306.535 931.161 307.861 931.161 309.49C931.138 311.875 930.282 313.756 928.594 315.133C926.91 316.509 924.6 317.197 921.664 317.197ZM939.384 308.045C939.751 311.531 941.678 313.275 945.164 313.275C946.059 313.275 946.931 313.16 947.779 312.931C948.628 312.701 949.58 312.334 950.635 311.83L951.874 315.477C950.773 316.096 949.649 316.539 948.502 316.805C947.355 317.066 946.059 317.197 944.614 317.197C942.481 317.197 940.657 316.766 939.143 315.903C937.629 315.046 936.487 313.848 935.716 312.311C934.95 310.774 934.567 308.985 934.567 306.944C934.567 304.811 934.968 302.98 935.771 301.452C936.574 299.929 937.663 298.778 939.04 297.998C940.416 297.218 941.953 296.828 943.65 296.828C946.334 296.828 948.438 297.624 949.961 299.216C951.488 300.812 952.264 303.148 952.287 306.221V308.045H939.384ZM943.65 300.75C941.402 300.75 940.038 301.989 939.556 304.466H947.435C947.32 303.182 946.953 302.241 946.334 301.645C945.715 301.049 944.82 300.75 943.65 300.75ZM962.98 297.379C965.251 297.379 966.978 297.716 968.162 298.39C969.341 299.069 970.126 299.975 970.516 301.108C970.906 302.246 971.1 303.675 971.1 305.395V316.612H966.49V314.857C965.641 315.637 964.811 316.199 963.999 316.543C963.182 316.887 962.292 317.06 961.329 317.06C959.31 317.06 957.689 316.479 956.464 315.319C955.234 314.162 954.619 312.575 954.619 310.557C954.619 308.492 955.257 306.891 956.532 305.753C957.803 304.62 959.551 304.054 961.776 304.054C963.588 304.054 965.159 304.409 966.49 305.12C966.467 304.249 966.359 303.549 966.166 303.021C965.969 302.494 965.584 302.085 965.01 301.796C964.437 301.512 963.588 301.37 962.464 301.37H959.23V297.379H962.98ZM962.155 313.378C963.554 313.378 964.999 312.736 966.49 311.451V308.423C965.274 307.804 964.024 307.494 962.74 307.494C961.73 307.494 960.904 307.728 960.262 308.196C959.62 308.669 959.299 309.433 959.299 310.488C959.299 311.52 959.569 312.259 960.111 312.704C960.648 313.153 961.329 313.378 962.155 313.378ZM998.592 296.966C1000.98 296.966 1002.76 297.601 1003.93 298.872C1005.09 300.147 1005.68 302.196 1005.68 305.017V316.612H1001.07V305.017C1001.07 303.664 1000.82 302.67 1000.31 302.037C999.808 301.409 998.936 301.095 997.697 301.095C996.206 301.095 994.669 301.806 993.087 303.228C993.156 303.778 993.19 304.375 993.19 305.017V316.612H988.579V305.017C988.579 303.664 988.327 302.67 987.822 302.037C987.318 301.409 986.446 301.095 985.207 301.095C983.716 301.095 982.214 301.76 980.7 303.09V316.612H976.09V297.379H980.7V299.133C982.42 297.688 984.221 296.966 986.102 296.966C987.616 296.966 988.884 297.211 989.907 297.702C990.926 298.197 991.699 298.973 992.227 300.028C993.259 298.996 994.286 298.227 995.309 297.723C996.328 297.218 997.422 296.966 998.592 296.966ZM1016.17 317.06C1014.29 317.06 1012.92 316.665 1012.05 315.876C1011.17 315.082 1010.74 313.86 1010.74 312.208V287.504H1015.35V310.694C1015.35 311.52 1015.49 312.093 1015.76 312.415C1016.04 312.736 1016.53 312.896 1017.24 312.896C1017.95 312.896 1018.58 312.827 1019.13 312.69V316.681C1018.05 316.933 1017.07 317.06 1016.17 317.06ZM1026.39 308.045C1026.76 311.531 1028.69 313.275 1032.17 313.275C1033.07 313.275 1033.94 313.16 1034.79 312.931C1035.64 312.701 1036.59 312.334 1037.64 311.83L1038.88 315.477C1037.78 316.096 1036.65 316.539 1035.5 316.805C1034.36 317.066 1033.06 317.197 1031.62 317.197C1029.49 317.197 1027.67 316.766 1026.15 315.903C1024.64 315.046 1023.5 313.848 1022.73 312.311C1021.95 310.774 1021.57 308.985 1021.57 306.944C1021.57 304.811 1021.97 302.98 1022.77 301.452C1023.58 299.929 1024.67 298.778 1026.04 297.998C1027.42 297.218 1028.96 296.828 1030.66 296.828C1033.34 296.828 1035.45 297.624 1036.97 299.216C1038.5 300.812 1039.27 303.148 1039.29 306.221V308.045H1026.39ZM1030.66 300.75C1028.41 300.75 1027.04 301.989 1026.56 304.466H1034.44C1034.33 303.182 1033.96 302.241 1033.34 301.645C1032.72 301.049 1031.82 300.75 1030.66 300.75ZM1049.85 317.197C1048.36 317.197 1047.03 317.071 1045.86 316.819C1044.69 316.566 1043.48 316.142 1042.21 315.546V311.313C1043.43 312.002 1044.66 312.499 1045.92 312.807C1047.16 313.119 1048.48 313.275 1049.85 313.275C1051.8 313.275 1052.78 312.575 1052.78 311.176C1052.78 310.579 1052.61 310.137 1052.28 309.848C1051.95 309.563 1051.42 309.329 1050.71 309.146L1047.89 308.527C1046.12 308.137 1044.79 307.499 1043.89 306.613C1042.98 305.733 1042.52 304.466 1042.52 302.815C1042.52 298.824 1045.01 296.828 1049.99 296.828C1052.17 296.828 1054.36 297.241 1056.56 298.067V302.127C1055.71 301.714 1054.74 301.381 1053.64 301.129C1052.54 300.877 1051.39 300.75 1050.2 300.75C1048.2 300.75 1047.2 301.347 1047.2 302.54C1047.2 303.09 1047.37 303.492 1047.7 303.744C1048.04 303.996 1048.53 304.203 1049.2 304.363L1051.99 304.983C1053.84 305.418 1055.22 306.072 1056.11 306.944C1057.01 307.815 1057.46 309.157 1057.46 310.969C1057.46 313.011 1056.77 314.559 1055.39 315.614C1054.02 316.67 1052.17 317.197 1049.85 317.197ZM1068.4 317.197C1066.91 317.197 1065.58 317.071 1064.41 316.819C1063.24 316.566 1062.02 316.142 1060.76 315.546V311.313C1061.97 312.002 1063.21 312.499 1064.46 312.807C1065.71 313.119 1067.02 313.275 1068.4 313.275C1070.35 313.275 1071.32 312.575 1071.32 311.176C1071.32 310.579 1071.16 310.137 1070.83 309.848C1070.49 309.563 1069.97 309.329 1069.26 309.146L1066.44 308.527C1064.67 308.137 1063.33 307.499 1062.42 306.613C1061.52 305.733 1061.07 304.466 1061.07 302.815C1061.07 298.824 1063.56 296.828 1068.54 296.828C1070.71 296.828 1072.9 297.241 1075.11 298.067V302.127C1074.26 301.714 1073.28 301.381 1072.18 301.129C1071.08 300.877 1069.93 300.75 1068.74 300.75C1066.75 300.75 1065.75 301.347 1065.75 302.54C1065.75 303.09 1065.91 303.492 1066.24 303.744C1066.58 303.996 1067.08 304.203 1067.74 304.363L1070.53 304.983C1072.39 305.418 1073.76 306.072 1074.66 306.944C1075.55 307.815 1076 309.157 1076 310.969C1076 313.011 1075.31 314.559 1073.94 315.614C1072.56 316.67 1070.71 317.197 1068.4 317.197ZM1103.28 316.612L1097.15 306.393H1093.16V316.612H1088.38V290.532H1098.26C1104.4 290.532 1107.48 293.181 1107.48 298.48C1107.48 300.452 1107.02 302.069 1106.1 303.331C1105.18 304.593 1103.82 305.464 1102.01 305.946L1108.61 316.612H1103.28ZM1093.16 294.626V302.299H1098.26C1101.17 302.299 1102.63 300.991 1102.63 298.376C1102.63 297.069 1102.27 296.117 1101.55 295.521C1100.82 294.924 1099.72 294.626 1098.26 294.626H1093.16ZM1116.49 308.045C1116.86 311.531 1118.79 313.275 1122.27 313.275C1123.17 313.275 1124.04 313.16 1124.89 312.931C1125.74 312.701 1126.69 312.334 1127.74 311.83L1128.98 315.477C1127.88 316.096 1126.76 316.539 1125.61 316.805C1124.46 317.066 1123.17 317.197 1121.72 317.197C1119.59 317.197 1117.76 316.766 1116.25 315.903C1114.74 315.046 1113.6 313.848 1112.83 312.311C1112.06 310.774 1111.67 308.985 1111.67 306.944C1111.67 304.811 1112.08 302.98 1112.88 301.452C1113.68 299.929 1114.77 298.778 1116.15 297.998C1117.52 297.218 1119.06 296.828 1120.76 296.828C1123.44 296.828 1125.55 297.624 1127.08 299.216C1128.6 300.812 1129.37 303.148 1129.39 306.221V308.045H1116.49ZM1120.76 300.75C1118.51 300.75 1117.15 301.989 1116.66 304.466H1124.54C1124.43 303.182 1124.06 302.241 1123.44 301.645C1122.82 301.049 1121.93 300.75 1120.76 300.75ZM1139.96 317.197C1138.47 317.197 1137.14 317.071 1135.97 316.819C1134.8 316.566 1133.58 316.142 1132.32 315.546V311.313C1133.53 312.002 1134.77 312.499 1136.01 312.807C1137.27 313.119 1138.58 313.275 1139.96 313.275C1141.91 313.275 1142.88 312.575 1142.88 311.176C1142.88 310.579 1142.71 310.137 1142.38 309.848C1142.05 309.563 1141.53 309.329 1140.82 309.146L1138 308.527C1136.23 308.137 1134.89 307.499 1133.98 306.613C1133.08 305.733 1132.63 304.466 1132.63 302.815C1132.63 298.824 1135.12 296.828 1140.1 296.828C1142.27 296.828 1144.46 297.241 1146.67 298.067V302.127C1145.82 301.714 1144.84 301.381 1143.74 301.129C1142.64 300.877 1141.49 300.75 1140.3 300.75C1138.31 300.75 1137.31 301.347 1137.31 302.54C1137.31 303.09 1137.47 303.492 1137.8 303.744C1138.14 303.996 1138.64 304.203 1139.3 304.363L1142.09 304.983C1143.95 305.418 1145.33 306.072 1146.22 306.944C1147.11 307.815 1147.56 309.157 1147.56 310.969C1147.56 313.011 1146.87 314.559 1145.5 315.614C1144.12 316.67 1142.27 317.197 1139.96 317.197ZM1155.58 308.045C1155.95 311.531 1157.87 313.275 1161.36 313.275C1162.25 313.275 1163.13 313.16 1163.97 312.931C1164.82 312.701 1165.77 312.334 1166.83 311.83L1168.07 315.477C1166.97 316.096 1165.84 316.539 1164.7 316.805C1163.55 317.066 1162.25 317.197 1160.81 317.197C1158.68 317.197 1156.85 316.766 1155.34 315.903C1153.82 315.046 1152.68 313.848 1151.91 312.311C1151.14 310.774 1150.76 308.985 1150.76 306.944C1150.76 304.811 1151.16 302.98 1151.97 301.452C1152.77 299.929 1153.86 298.778 1155.23 297.998C1156.61 297.218 1158.15 296.828 1159.85 296.828C1162.53 296.828 1164.63 297.624 1166.16 299.216C1167.68 300.812 1168.46 303.148 1168.48 306.221V308.045H1155.58ZM1159.85 300.75C1157.6 300.75 1156.23 301.989 1155.75 304.466H1163.63C1163.52 303.182 1163.15 302.241 1162.53 301.645C1161.91 301.049 1161.01 300.75 1159.85 300.75ZM1182.62 296.966H1183.41V301.095H1182.62C1180.73 301.095 1178.89 301.806 1177.08 303.228V316.612H1172.47V297.379H1177.08V299.305C1178.84 297.746 1180.69 296.966 1182.62 296.966ZM1199.72 297.379H1204.46L1197.69 316.922H1191.91L1185.13 297.379H1189.88L1194.8 312.518L1199.72 297.379ZM1214.61 297.379C1216.89 297.379 1218.61 297.716 1219.79 298.39C1220.97 299.069 1221.76 299.975 1222.15 301.108C1222.54 302.246 1222.73 303.675 1222.73 305.395V316.612H1218.12V314.857C1217.28 315.637 1216.44 316.199 1215.63 316.543C1214.81 316.887 1213.93 317.06 1212.96 317.06C1210.94 317.06 1209.32 316.479 1208.09 315.319C1206.87 314.162 1206.25 312.575 1206.25 310.557C1206.25 308.492 1206.89 306.891 1208.16 305.753C1209.44 304.62 1211.19 304.054 1213.41 304.054C1215.22 304.054 1216.79 304.409 1218.12 305.12C1218.1 304.249 1217.99 303.549 1217.79 303.021C1217.6 302.494 1217.22 302.085 1216.64 301.796C1216.07 301.512 1215.22 301.37 1214.1 301.37H1210.86V297.379H1214.61ZM1213.79 313.378C1215.19 313.378 1216.63 312.736 1218.12 311.451V308.423C1216.91 307.804 1215.66 307.494 1214.37 307.494C1213.36 307.494 1212.54 307.728 1211.9 308.196C1211.25 308.669 1210.93 309.433 1210.93 310.488C1210.93 311.52 1211.2 312.259 1211.74 312.704C1212.28 313.153 1212.96 313.378 1213.79 313.378ZM1237.7 301.989H1233.3V310.694C1233.3 311.52 1233.44 312.093 1233.71 312.415C1233.99 312.736 1234.49 312.896 1235.22 312.896C1235.96 312.896 1236.66 312.804 1237.32 312.621V316.647C1236.02 316.922 1234.94 317.06 1234.09 317.06C1232.19 317.06 1230.81 316.658 1229.96 315.855C1229.11 315.052 1228.69 313.814 1228.69 312.139V301.989H1226.14V297.826H1228.69V291.288H1233.3V297.826H1237.7V301.989ZM1241.69 294.041V288.846H1246.3V294.041H1241.69ZM1241.69 316.612V297.379H1246.3V316.612H1241.69ZM1260.54 317.197C1258.41 317.197 1256.6 316.75 1255.11 315.855C1253.61 314.961 1252.5 313.738 1251.75 312.187C1251.01 310.641 1250.63 308.905 1250.63 306.978C1250.63 305.074 1251.01 303.354 1251.75 301.817C1252.5 300.28 1253.61 299.065 1255.11 298.17C1256.6 297.275 1258.41 296.828 1260.54 296.828C1262.65 296.828 1264.45 297.275 1265.93 298.17C1267.41 299.065 1268.52 300.28 1269.27 301.817C1270.01 303.354 1270.38 305.074 1270.38 306.978C1270.38 308.905 1270.01 310.641 1269.27 312.187C1268.52 313.738 1267.41 314.961 1265.93 315.855C1264.45 316.75 1262.65 317.197 1260.54 317.197ZM1260.54 313.171C1262.17 313.171 1263.42 312.614 1264.29 311.499C1265.16 310.389 1265.6 308.882 1265.6 306.978C1265.6 305.074 1265.16 303.572 1264.29 302.471C1263.42 301.37 1262.17 300.819 1260.54 300.819C1258.89 300.819 1257.62 301.37 1256.74 302.471C1255.86 303.572 1255.41 305.074 1255.41 306.978C1255.41 308.882 1255.86 310.389 1256.74 311.499C1257.62 312.614 1258.89 313.171 1260.54 313.171ZM1284.94 296.966C1287.41 296.966 1289.25 297.596 1290.46 298.858C1291.66 300.12 1292.26 302.173 1292.26 305.017V316.612H1287.65V305.017C1287.65 303.664 1287.38 302.67 1286.84 302.037C1286.31 301.409 1285.37 301.095 1284.04 301.095C1282.48 301.095 1280.91 301.771 1279.33 303.125V316.612H1274.72V297.379H1279.33V299.168C1281.07 297.7 1282.94 296.966 1284.94 296.966ZM1304.17 317.197C1302.68 317.197 1301.35 317.071 1300.18 316.819C1299.01 316.566 1297.79 316.142 1296.53 315.546V311.313C1297.75 312.002 1298.98 312.499 1300.23 312.807C1301.48 313.119 1302.79 313.275 1304.17 313.275C1306.12 313.275 1307.09 312.575 1307.09 311.176C1307.09 310.579 1306.93 310.137 1306.59 309.848C1306.26 309.563 1305.74 309.329 1305.03 309.146L1302.21 308.527C1300.44 308.137 1299.11 307.499 1298.2 306.613C1297.29 305.733 1296.84 304.466 1296.84 302.815C1296.84 298.824 1299.33 296.828 1304.31 296.828C1306.49 296.828 1308.68 297.241 1310.88 298.067V302.127C1310.03 301.714 1309.06 301.381 1307.95 301.129C1306.85 300.877 1305.71 300.75 1304.51 300.75C1302.52 300.75 1301.52 301.347 1301.52 302.54C1301.52 303.09 1301.69 303.492 1302.02 303.744C1302.35 303.996 1302.85 304.203 1303.52 304.363L1306.3 304.983C1308.16 305.418 1309.54 306.072 1310.43 306.944C1311.33 307.815 1311.77 309.157 1311.77 310.969C1311.77 313.011 1311.09 314.559 1309.71 315.614C1308.33 316.67 1306.49 317.197 1304.17 317.197Z" fill="url(#paint1_linear_3_347)"/>
</g>
</g>
</g>
</g>
</g>
<mask id="mask0_3_347" style="mask-type:luminance" maskUnits="userSpaceOnUse" x="1" y="0" width="1496" height="341">
<g clip-path="url(#clip8_3_347)">
<g clip-path="url(#clip9_3_347)">
<g clip-path="url(#clip10_3_347)">
<g clip-path="url(#clip11_3_347)">
<g clip-path="url(#clip12_3_347)">
<g clip-path="url(#clip13_3_347)">
<path d="M530.629 63.9282H472.534V102.588H521.643V124.739H472.534V188.058H440.353V41.7771H530.629V63.9282ZM549.854 188.058V22.7606H580.782V188.058H549.854ZM708.255 123.067C708.255 125.018 707.907 129.406 707.211 136.233H633.234C633.931 146.821 636.466 155.04 640.841 160.891C645.243 166.743 650.997 169.668 658.102 169.668C661.306 169.668 663.981 169.25 666.127 168.414C668.272 167.579 670.501 166.074 672.814 163.901C675.126 161.755 678.163 158.244 681.925 153.368C682.621 152.254 684.084 151.697 686.313 151.697C688.682 151.697 691.565 152.491 694.965 154.079C698.392 155.695 702.042 157.966 705.915 160.891C696.887 180.396 680.95 190.148 658.102 190.148C640.548 190.148 626.756 184.812 616.725 174.14C606.695 163.497 601.679 148.91 601.679 130.381C601.679 118.261 603.936 107.743 608.45 98.8266C612.992 89.9105 619.47 83.0422 627.885 78.2219C636.327 73.4295 646.33 71.0333 657.893 71.0333C673.914 71.0333 686.313 75.561 695.09 84.6165C703.867 93.672 708.255 106.489 708.255 123.067ZM633.652 118.679H676.91C676.91 100.011 670.362 90.6767 657.266 90.6767C650.579 90.6767 645.215 93.045 641.175 97.7818C637.135 102.518 634.627 109.484 633.652 118.679ZM819.805 188.058H790.967C790.409 180.256 788.222 172.873 784.405 165.907C780.56 158.941 775.363 151.836 768.816 144.592C762.268 151.836 757.085 158.941 753.268 165.907C749.423 172.873 747.222 180.256 746.665 188.058H717.826C718.523 176.773 721.908 166.422 727.982 157.005C734.029 147.615 742.206 137.835 752.516 127.665C745.411 120.56 739.629 114.388 735.171 109.15C730.713 103.939 726.924 98.2972 723.803 92.2231C720.654 86.1768 718.802 79.8101 718.244 73.123H747.082C747.222 79.5315 749.172 85.7589 752.934 91.8051C756.695 97.8793 761.989 104.399 768.816 111.365C775.642 104.399 780.936 97.8793 784.698 91.8051C788.459 85.7589 790.409 79.5315 790.549 73.123H819.387C818.83 79.8101 816.991 86.1768 813.87 92.2231C810.722 98.2972 806.918 103.939 802.46 109.15C798.002 114.388 792.221 120.56 785.115 127.665C795.425 137.835 803.617 147.615 809.691 157.005C815.737 166.422 819.108 176.773 819.805 188.058ZM837.777 188.058V73.123H868.705V188.058H837.777ZM851.778 52.0168C840.911 52.0168 835.478 46.5835 835.478 35.7169V32.5823C835.478 21.7157 840.911 16.2825 851.778 16.2825H854.703C865.57 16.2825 871.003 21.7157 871.003 32.5823V35.7169C871.003 46.5835 865.57 52.0168 854.703 52.0168H851.778ZM952.711 190.148C935.576 190.148 922.132 187.222 912.38 181.371C902.628 175.52 897.752 167.509 897.752 157.339C897.752 152.463 899.8 148.632 903.895 145.845C908.019 143.059 913.843 141.596 921.366 141.457C922.201 149.677 925.364 156.015 930.853 160.474C936.37 164.932 943.795 167.161 953.129 167.161C970.265 167.161 978.833 160.822 978.833 148.144C978.833 143.129 976.493 139.019 971.812 135.815C967.158 132.611 959.05 129.337 947.487 125.993C931.048 121.396 918.997 115.517 911.335 108.356C903.673 101.167 899.841 91.9305 899.841 80.646C899.841 67.9683 904.745 57.9655 914.553 50.6375C924.389 43.3374 937.805 39.6874 954.801 39.6874C968.454 39.6874 980.157 42.9195 989.909 49.3837C999.661 55.8758 1006.35 64.9034 1009.97 76.4666C1007.6 78.8349 1004.33 80.9246 1000.15 82.7357C995.969 84.5468 992.277 85.4524 989.073 85.4524C986.565 85.4524 984.615 84.923 983.221 83.8642C981.828 82.8333 980.366 80.855 978.833 77.9294C976.047 72.4961 972.842 68.5953 969.22 66.2269C965.598 63.8585 960.792 62.6744 954.801 62.6744C939.894 62.6744 932.441 67.6201 932.441 77.5114C932.441 81.4122 933.207 84.5747 934.74 86.9988C936.272 89.4507 938.919 91.6798 942.681 93.6859C946.442 95.7199 952.154 97.9907 959.817 100.498C973.748 105.096 984.406 109.303 991.789 113.12C999.173 116.965 1004.36 121.117 1007.34 125.575C1010.35 130.033 1011.85 135.536 1011.85 142.084C1011.85 151.557 1009.37 159.916 1004.41 167.161C999.48 174.405 992.556 180.047 983.639 184.087C974.723 188.128 964.414 190.148 952.711 190.148ZM1091.26 71.0333C1106.17 71.0333 1117.45 75.8675 1125.11 85.536C1132.78 95.2323 1136.61 109.484 1136.61 128.292C1136.61 140.551 1134.38 151.348 1129.92 160.682C1125.46 170.017 1119.19 177.261 1111.11 182.416C1103.03 187.57 1093.7 190.148 1083.11 190.148C1077.26 190.148 1070.08 188.963 1061.59 186.595V235.704H1030.66V117.007C1030.66 105.723 1030.2 97.531 1029.28 92.4321C1028.39 87.361 1026.55 83.0144 1023.76 79.3922C1027.66 77.1631 1031.8 75.4217 1036.18 74.1679C1040.58 72.914 1044.73 72.2871 1048.63 72.2871C1051.56 72.2871 1053.92 73.2623 1055.73 75.2127C1057.55 77.1631 1058.94 80.1584 1059.91 84.1985C1068.27 75.4217 1078.72 71.0333 1091.26 71.0333ZM1078.72 170.086C1087.36 170.086 1093.94 166.534 1098.45 159.429C1102.99 152.324 1105.26 141.945 1105.26 128.292C1105.26 115.335 1103.59 105.82 1100.25 99.7461C1096.9 93.6998 1091.61 90.6767 1084.36 90.6767C1079.91 90.6767 1075.59 91.7216 1071.41 93.8113C1067.23 95.901 1063.95 98.4783 1061.59 101.543V104.26V166.325C1067.3 168.832 1073.01 170.086 1078.72 170.086ZM1248.16 144.801C1248.16 156.224 1248.62 164.444 1249.54 169.459C1250.43 174.475 1252.27 178.793 1255.05 182.416C1252.13 184.505 1248.37 186.205 1243.77 187.515C1239.17 188.852 1234.99 189.521 1231.23 189.521C1227.75 189.521 1224.96 188.267 1222.87 185.759C1220.78 183.252 1219.25 179.281 1218.27 173.848C1214.51 179.699 1210.05 183.878 1204.9 186.386C1199.74 188.894 1193.06 190.148 1184.84 190.148C1174.67 190.148 1166.45 187.389 1160.18 181.872C1153.91 176.383 1150.78 169.181 1150.78 160.265C1150.78 147.726 1156.04 138.35 1166.57 132.137C1177.08 125.951 1193.96 122.232 1217.23 120.978V110.111C1217.23 104.399 1215.74 100.15 1212.76 97.3638C1209.75 94.5775 1205.18 93.1844 1199.05 93.1844C1194.59 93.1844 1190.17 94.0481 1185.8 95.7756C1181.4 97.531 1175.99 100.568 1169.58 104.887C1168.89 105.444 1167.91 105.723 1166.66 105.723C1164.15 105.723 1161.48 104.051 1158.63 100.707C1155.76 97.3638 1153.21 92.9754 1150.98 87.5421C1156.42 82.8054 1164.05 78.8628 1173.89 75.7143C1183.7 72.5936 1193.41 71.0333 1203.02 71.0333C1217.51 71.0333 1228.65 74.4047 1236.45 81.1475C1244.26 87.9183 1248.16 97.5728 1248.16 110.111V144.801ZM1195.7 170.086C1199.88 170.086 1203.76 168.623 1207.32 165.698C1210.86 162.772 1214.16 158.244 1217.23 152.115V136.651C1205.67 137.069 1196.93 138.977 1191.02 142.376C1185.09 145.804 1182.12 150.652 1182.12 156.921C1182.12 160.961 1183.38 164.165 1185.88 166.534C1188.39 168.902 1191.66 170.086 1195.7 170.086ZM1325.06 190.148C1286.61 190.148 1267.38 170.086 1267.38 129.964C1267.38 111.574 1272.33 97.1548 1282.22 86.7062C1292.11 76.2576 1305.76 71.0333 1323.18 71.0333C1336.83 71.0333 1348.09 74.4047 1356.95 81.1475C1365.78 87.9183 1370.96 97.0852 1372.5 108.648C1364.42 113.524 1357.73 115.962 1352.43 115.962C1350.21 115.962 1348.37 115.266 1346.92 113.873C1345.44 112.479 1344.21 110.25 1343.24 107.186C1341.15 101.334 1338.57 97.1827 1335.51 94.7308C1332.44 92.3067 1328.33 91.0946 1323.18 91.0946C1315.38 91.0946 1309.36 94.4382 1305.12 101.125C1300.86 107.812 1298.73 117.425 1298.73 129.964C1298.73 143.477 1300.86 153.396 1305.12 159.721C1309.36 166.074 1316 169.25 1325.06 169.25C1331.33 169.25 1336.27 167.119 1339.9 162.856C1343.52 158.621 1346.23 151.836 1348.05 142.502C1355.71 142.502 1361.21 143.895 1364.55 146.681C1367.9 149.468 1369.57 153.995 1369.57 160.265C1369.57 165.559 1367.52 170.504 1363.43 175.102C1359.3 179.699 1353.83 183.349 1347 186.052C1340.17 188.782 1332.86 190.148 1325.06 190.148ZM1496.63 123.067C1496.63 125.018 1496.28 129.406 1495.58 136.233H1421.6C1422.3 146.821 1424.84 155.04 1429.21 160.891C1433.61 166.743 1439.37 169.668 1446.47 169.668C1449.68 169.668 1452.35 169.25 1454.5 168.414C1456.67 167.579 1458.9 166.074 1461.18 163.901C1463.5 161.755 1466.53 158.244 1470.29 153.368C1470.99 152.254 1472.45 151.697 1474.68 151.697C1477.05 151.697 1479.94 152.491 1483.33 154.079C1486.76 155.695 1490.43 157.966 1494.33 160.891C1485.27 180.396 1469.32 190.148 1446.47 190.148C1428.92 190.148 1415.13 184.812 1405.1 174.14C1395.06 163.497 1390.05 148.91 1390.05 130.381C1390.05 118.261 1392.31 107.743 1396.82 98.8266C1401.36 89.9105 1407.84 83.0422 1416.25 78.2219C1424.7 73.4295 1434.7 71.0333 1446.26 71.0333C1462.28 71.0333 1474.68 75.561 1483.46 84.6165C1492.24 93.672 1496.63 106.489 1496.63 123.067ZM1422.02 118.679H1465.28C1465.28 100.011 1458.73 90.6767 1445.64 90.6767C1438.95 90.6767 1433.59 93.045 1429.55 97.7818C1425.5 102.518 1423 109.484 1422.02 118.679Z" fill="black"/>
</g>
</g>
<g clip-path="url(#clip14_3_347)">
<g clip-path="url(#clip15_3_347)">
<path d="M641.754 294.695H629.987V301.989H640.034V306.152H629.987V316.612H625.204V290.532H641.754V294.695ZM651.422 317.06C649.542 317.06 648.165 316.665 647.294 315.876C646.422 315.082 645.986 313.86 645.986 312.208V287.504H650.597V310.694C650.597 311.52 650.734 312.093 651.01 312.415C651.285 312.736 651.778 312.896 652.489 312.896C653.2 312.896 653.831 312.827 654.381 312.69V316.681C653.303 316.933 652.317 317.06 651.422 317.06ZM661.635 308.045C662.006 311.531 663.935 313.275 667.422 313.275C668.316 313.275 669.188 313.16 670.037 312.931C670.885 312.701 671.837 312.334 672.893 311.83L674.131 315.477C673.026 316.096 671.899 316.539 670.752 316.805C669.606 317.066 668.312 317.197 666.871 317.197C664.738 317.197 662.914 316.766 661.401 315.903C659.887 315.046 658.744 313.848 657.974 312.311C657.203 310.774 656.818 308.985 656.818 306.944C656.818 304.811 657.219 302.98 658.022 301.452C658.825 299.929 659.914 298.778 661.29 297.998C662.667 297.218 664.206 296.828 665.908 296.828C668.592 296.828 670.695 297.624 672.218 299.216C673.746 300.812 674.519 303.148 674.537 306.221V308.045H661.635ZM665.908 300.75C663.66 300.75 662.293 301.989 661.807 304.466H669.693C669.578 303.182 669.211 302.241 668.592 301.645C667.968 301.049 667.073 300.75 665.908 300.75ZM695.629 316.612H690.193L686.064 310.212L682.141 316.612H676.705L683.277 306.565L677.049 297.379H682.485L686.201 303.193L689.952 297.379H695.319L688.919 306.841L695.629 316.612ZM699.31 294.041V288.846H703.921V294.041H699.31ZM699.31 316.612V297.379H703.921V316.612H699.31ZM719.404 296.828C721.102 296.828 722.609 297.207 723.925 297.963C725.247 298.72 726.274 299.86 727.008 301.384C727.742 302.911 728.109 304.788 728.109 307.013C728.109 309.238 727.742 311.112 727.008 312.635C726.274 314.162 725.247 315.305 723.925 316.062C722.609 316.819 721.102 317.197 719.404 317.197C717.569 317.197 715.78 316.498 714.037 315.098V316.612H709.426V287.504H714.037V298.892C715.757 297.516 717.546 296.828 719.404 296.828ZM718.544 313.034C720.104 313.034 721.285 312.522 722.088 311.499C722.891 310.481 723.292 308.985 723.292 307.013C723.292 305.04 722.891 303.537 722.088 302.505C721.285 301.473 720.104 300.957 718.544 300.957C717.053 300.957 715.551 301.542 714.037 302.712V311.279C715.505 312.449 717.007 313.034 718.544 313.034ZM737.847 317.06C735.966 317.06 734.589 316.665 733.718 315.876C732.846 315.082 732.41 313.86 732.41 312.208V287.504H737.021V310.694C737.021 311.52 737.159 312.093 737.434 312.415C737.709 312.736 738.202 312.896 738.913 312.896C739.624 312.896 740.255 312.827 740.806 312.69V316.681C739.728 316.933 738.741 317.06 737.847 317.06ZM748.059 308.045C748.426 311.531 750.353 313.275 753.839 313.275C754.734 313.275 755.605 313.16 756.454 312.931C757.303 312.701 758.255 312.334 759.31 311.83L760.549 315.477C759.448 316.096 758.324 316.539 757.177 316.805C756.03 317.066 754.734 317.197 753.289 317.197C751.155 317.197 749.332 316.766 747.818 315.903C746.304 315.046 745.164 313.848 744.398 312.311C743.627 310.774 743.242 308.985 743.242 306.944C743.242 304.811 743.643 302.98 744.446 301.452C745.249 299.929 746.338 298.778 747.715 297.998C749.091 297.218 750.628 296.828 752.325 296.828C755.009 296.828 757.115 297.624 758.642 299.216C760.166 300.812 760.939 303.148 760.961 306.221V308.045H748.059ZM752.325 300.75C750.077 300.75 748.712 301.989 748.231 304.466H756.11C755.995 303.182 755.628 302.241 755.009 301.645C754.39 301.049 753.495 300.75 752.325 300.75ZM781.055 317.197C777.592 317.197 774.506 316.555 771.8 315.27V310.935C774.575 312.38 777.66 313.103 781.055 313.103C782.684 313.103 783.877 312.793 784.634 312.174C785.391 311.554 785.781 310.729 785.804 309.696C785.804 308.687 785.453 307.93 784.751 307.425C784.053 306.921 782.948 306.462 781.434 306.049L779.094 305.395C777.764 305.028 776.605 304.586 775.619 304.067C774.633 303.554 773.807 302.797 773.142 301.796C772.476 300.801 772.144 299.512 772.144 297.929C772.144 295.36 772.912 293.403 774.449 292.059C775.986 290.72 778.154 290.05 780.952 290.05C782.627 290.05 784.099 290.203 785.37 290.511C786.645 290.823 787.948 291.288 789.279 291.908V296.105C786.778 294.798 784.003 294.144 780.952 294.144C778.245 294.144 776.892 295.28 776.892 297.551C776.915 298.56 777.229 299.305 777.835 299.787C778.445 300.269 779.496 300.705 780.987 301.095L783.361 301.748C784.806 302.138 786.033 302.608 787.042 303.159C788.051 303.709 788.889 304.494 789.554 305.512C790.219 306.535 790.552 307.861 790.552 309.49C790.529 311.875 789.673 313.756 787.985 315.133C786.301 316.509 783.991 317.197 781.055 317.197ZM805.106 296.828C806.803 296.828 808.31 297.207 809.627 297.963C810.948 298.72 811.976 299.86 812.71 301.384C813.444 302.911 813.811 304.788 813.811 307.013C813.811 309.238 813.444 311.112 812.71 312.635C811.976 314.162 810.948 315.305 809.627 316.062C808.31 316.819 806.803 317.197 805.106 317.197C803.271 317.197 801.482 316.498 799.738 315.098V324.664H795.128V297.379H799.738V298.892C801.459 297.516 803.248 296.828 805.106 296.828ZM804.246 313.034C805.806 313.034 806.987 312.522 807.79 311.499C808.593 310.481 808.994 308.985 808.994 307.013C808.994 305.04 808.593 303.537 807.79 302.505C806.987 301.473 805.806 300.957 804.246 300.957C802.755 300.957 801.252 301.542 799.738 302.712V311.279C801.207 312.449 802.709 313.034 804.246 313.034ZM824.814 297.379C827.085 297.379 828.813 297.716 829.996 298.39C831.175 299.069 831.96 299.975 832.35 301.108C832.74 302.246 832.935 303.675 832.935 305.395V316.612H828.324V314.857C827.475 315.637 826.645 316.199 825.833 316.543C825.016 316.887 824.126 317.06 823.163 317.06C821.144 317.06 819.523 316.479 818.298 315.319C817.068 314.162 816.454 312.575 816.454 310.557C816.454 308.492 817.091 306.891 818.367 305.753C819.637 304.62 821.385 304.054 823.61 304.054C825.422 304.054 826.994 304.409 828.324 305.12C828.301 304.249 828.193 303.549 828.001 303.021C827.803 302.494 827.418 302.085 826.845 301.796C826.271 301.512 825.422 301.37 824.298 301.37H821.064V297.379H824.814ZM823.989 313.378C825.388 313.378 826.833 312.736 828.324 311.451V308.423C827.108 307.804 825.858 307.494 824.574 307.494C823.564 307.494 822.739 307.728 822.096 308.196C821.454 308.669 821.133 309.433 821.133 310.488C821.133 311.52 821.404 312.259 821.945 312.704C822.482 313.153 823.163 313.378 823.989 313.378ZM846.319 317.197C843.222 317.174 840.855 316.261 839.217 314.458C837.575 312.66 836.754 310.155 836.754 306.944C836.754 303.778 837.575 301.306 839.217 299.526C840.855 297.75 843.222 296.851 846.319 296.828C847.42 296.828 848.367 296.897 849.161 297.034C849.95 297.172 850.769 297.413 851.618 297.757V302.058C850.769 301.645 849.973 301.358 849.23 301.198C848.482 301.037 847.661 300.957 846.766 300.957C843.28 300.98 841.536 302.964 841.536 306.909C841.536 310.992 843.245 313.034 846.663 313.034C848.315 313.034 850.001 312.541 851.721 311.554L853.063 315.408C850.998 316.601 848.75 317.197 846.319 317.197ZM860.357 308.045C860.724 311.531 862.651 313.275 866.138 313.275C867.032 313.275 867.904 313.16 868.753 312.931C869.601 312.701 870.553 312.334 871.608 311.83L872.847 315.477C871.746 316.096 870.622 316.539 869.475 316.805C868.328 317.066 867.032 317.197 865.587 317.197C863.454 317.197 861.63 316.766 860.116 315.903C858.602 315.046 857.46 313.848 856.689 312.311C855.923 310.774 855.54 308.985 855.54 306.944C855.54 304.811 855.942 302.98 856.744 301.452C857.547 299.929 858.637 298.778 860.013 297.998C861.389 297.218 862.926 296.828 864.624 296.828C867.307 296.828 869.411 297.624 870.934 299.216C872.462 300.812 873.237 303.148 873.26 306.221V308.045H860.357ZM864.624 300.75C862.376 300.75 861.011 301.989 860.529 304.466H868.409C868.294 303.182 867.927 302.241 867.307 301.645C866.688 301.049 865.794 300.75 864.624 300.75ZM883.823 317.197C882.332 317.197 881.002 317.071 879.832 316.819C878.662 316.566 877.446 316.142 876.185 315.546V311.313C877.4 312.002 878.632 312.499 879.88 312.807C881.132 313.119 882.447 313.275 883.823 313.275C885.773 313.275 886.748 312.575 886.748 311.176C886.748 310.579 886.58 310.137 886.245 309.848C885.915 309.563 885.394 309.329 884.683 309.146L881.862 308.527C880.096 308.137 878.758 307.499 877.85 306.613C876.946 305.733 876.494 304.466 876.494 302.815C876.494 298.824 878.983 296.828 883.961 296.828C886.14 296.828 888.33 297.241 890.532 298.067V302.127C889.684 301.714 888.709 301.381 887.608 301.129C886.507 300.877 885.36 300.75 884.167 300.75C882.171 300.75 881.174 301.347 881.174 302.54C881.174 303.09 881.339 303.492 881.669 303.744C882.004 303.996 882.504 304.203 883.169 304.363L885.956 304.983C887.814 305.418 889.191 306.072 890.085 306.944C890.98 307.815 891.427 309.157 891.427 310.969C891.427 313.011 890.739 314.559 889.363 315.614C887.986 316.67 886.14 317.197 883.823 317.197ZM894.31 321.808L896.375 310.729H901.192L898.474 321.808H894.31ZM921.664 317.197C918.2 317.197 915.115 316.555 912.409 315.27V310.935C915.184 312.38 918.269 313.103 921.664 313.103C923.293 313.103 924.486 312.793 925.242 312.174C925.999 311.554 926.389 310.729 926.412 309.696C926.412 308.687 926.061 307.93 925.359 307.425C924.662 306.921 923.557 306.462 922.043 306.049L919.703 305.395C918.372 305.028 917.214 304.586 916.228 304.067C915.241 303.554 914.416 302.797 913.75 301.796C913.085 300.801 912.753 299.512 912.753 297.929C912.753 295.36 913.521 293.403 915.058 292.059C916.595 290.72 918.762 290.05 921.561 290.05C923.235 290.05 924.708 290.203 925.979 290.511C927.254 290.823 928.557 291.288 929.887 291.908V296.105C927.387 294.798 924.612 294.144 921.561 294.144C918.854 294.144 917.501 295.28 917.501 297.551C917.524 298.56 917.838 299.305 918.444 299.787C919.054 300.269 920.104 300.705 921.595 301.095L923.969 301.748C925.414 302.138 926.642 302.608 927.651 303.159C928.66 303.709 929.497 304.494 930.163 305.512C930.828 306.535 931.161 307.861 931.161 309.49C931.138 311.875 930.282 313.756 928.594 315.133C926.91 316.509 924.6 317.197 921.664 317.197ZM939.384 308.045C939.751 311.531 941.678 313.275 945.164 313.275C946.059 313.275 946.931 313.16 947.779 312.931C948.628 312.701 949.58 312.334 950.635 311.83L951.874 315.477C950.773 316.096 949.649 316.539 948.502 316.805C947.355 317.066 946.059 317.197 944.614 317.197C942.481 317.197 940.657 316.766 939.143 315.903C937.629 315.046 936.487 313.848 935.716 312.311C934.95 310.774 934.567 308.985 934.567 306.944C934.567 304.811 934.968 302.98 935.771 301.452C936.574 299.929 937.663 298.778 939.04 297.998C940.416 297.218 941.953 296.828 943.65 296.828C946.334 296.828 948.438 297.624 949.961 299.216C951.488 300.812 952.264 303.148 952.287 306.221V308.045H939.384ZM943.65 300.75C941.402 300.75 940.038 301.989 939.556 304.466H947.435C947.32 303.182 946.953 302.241 946.334 301.645C945.715 301.049 944.82 300.75 943.65 300.75ZM962.98 297.379C965.251 297.379 966.978 297.716 968.162 298.39C969.341 299.069 970.126 299.975 970.516 301.108C970.906 302.246 971.1 303.675 971.1 305.395V316.612H966.49V314.857C965.641 315.637 964.811 316.199 963.999 316.543C963.182 316.887 962.292 317.06 961.329 317.06C959.31 317.06 957.689 316.479 956.464 315.319C955.234 314.162 954.619 312.575 954.619 310.557C954.619 308.492 955.257 306.891 956.532 305.753C957.803 304.62 959.551 304.054 961.776 304.054C963.588 304.054 965.159 304.409 966.49 305.12C966.467 304.249 966.359 303.549 966.166 303.021C965.969 302.494 965.584 302.085 965.01 301.796C964.437 301.512 963.588 301.37 962.464 301.37H959.23V297.379H962.98ZM962.155 313.378C963.554 313.378 964.999 312.736 966.49 311.451V308.423C965.274 307.804 964.024 307.494 962.74 307.494C961.73 307.494 960.904 307.728 960.262 308.196C959.62 308.669 959.299 309.433 959.299 310.488C959.299 311.52 959.569 312.259 960.111 312.704C960.648 313.153 961.329 313.378 962.155 313.378ZM998.592 296.966C1000.98 296.966 1002.76 297.601 1003.93 298.872C1005.09 300.147 1005.68 302.196 1005.68 305.017V316.612H1001.07V305.017C1001.07 303.664 1000.82 302.67 1000.31 302.037C999.808 301.409 998.936 301.095 997.697 301.095C996.206 301.095 994.669 301.806 993.087 303.228C993.156 303.778 993.19 304.375 993.19 305.017V316.612H988.579V305.017C988.579 303.664 988.327 302.67 987.822 302.037C987.318 301.409 986.446 301.095 985.207 301.095C983.716 301.095 982.214 301.76 980.7 303.09V316.612H976.09V297.379H980.7V299.133C982.42 297.688 984.221 296.966 986.102 296.966C987.616 296.966 988.884 297.211 989.907 297.702C990.926 298.197 991.699 298.973 992.227 300.028C993.259 298.996 994.286 298.227 995.309 297.723C996.328 297.218 997.422 296.966 998.592 296.966ZM1016.17 317.06C1014.29 317.06 1012.92 316.665 1012.05 315.876C1011.17 315.082 1010.74 313.86 1010.74 312.208V287.504H1015.35V310.694C1015.35 311.52 1015.49 312.093 1015.76 312.415C1016.04 312.736 1016.53 312.896 1017.24 312.896C1017.95 312.896 1018.58 312.827 1019.13 312.69V316.681C1018.05 316.933 1017.07 317.06 1016.17 317.06ZM1026.39 308.045C1026.76 311.531 1028.69 313.275 1032.17 313.275C1033.07 313.275 1033.94 313.16 1034.79 312.931C1035.64 312.701 1036.59 312.334 1037.64 311.83L1038.88 315.477C1037.78 316.096 1036.65 316.539 1035.5 316.805C1034.36 317.066 1033.06 317.197 1031.62 317.197C1029.49 317.197 1027.67 316.766 1026.15 315.903C1024.64 315.046 1023.5 313.848 1022.73 312.311C1021.95 310.774 1021.57 308.985 1021.57 306.944C1021.57 304.811 1021.97 302.98 1022.77 301.452C1023.58 299.929 1024.67 298.778 1026.04 297.998C1027.42 297.218 1028.96 296.828 1030.66 296.828C1033.34 296.828 1035.45 297.624 1036.97 299.216C1038.5 300.812 1039.27 303.148 1039.29 306.221V308.045H1026.39ZM1030.66 300.75C1028.41 300.75 1027.04 301.989 1026.56 304.466H1034.44C1034.33 303.182 1033.96 302.241 1033.34 301.645C1032.72 301.049 1031.82 300.75 1030.66 300.75ZM1049.85 317.197C1048.36 317.197 1047.03 317.071 1045.86 316.819C1044.69 316.566 1043.48 316.142 1042.21 315.546V311.313C1043.43 312.002 1044.66 312.499 1045.92 312.807C1047.16 313.119 1048.48 313.275 1049.85 313.275C1051.8 313.275 1052.78 312.575 1052.78 311.176C1052.78 310.579 1052.61 310.137 1052.28 309.848C1051.95 309.563 1051.42 309.329 1050.71 309.146L1047.89 308.527C1046.12 308.137 1044.79 307.499 1043.89 306.613C1042.98 305.733 1042.52 304.466 1042.52 302.815C1042.52 298.824 1045.01 296.828 1049.99 296.828C1052.17 296.828 1054.36 297.241 1056.56 298.067V302.127C1055.71 301.714 1054.74 301.381 1053.64 301.129C1052.54 300.877 1051.39 300.75 1050.2 300.75C1048.2 300.75 1047.2 301.347 1047.2 302.54C1047.2 303.09 1047.37 303.492 1047.7 303.744C1048.04 303.996 1048.53 304.203 1049.2 304.363L1051.99 304.983C1053.84 305.418 1055.22 306.072 1056.11 306.944C1057.01 307.815 1057.46 309.157 1057.46 310.969C1057.46 313.011 1056.77 314.559 1055.39 315.614C1054.02 316.67 1052.17 317.197 1049.85 317.197ZM1068.4 317.197C1066.91 317.197 1065.58 317.071 1064.41 316.819C1063.24 316.566 1062.02 316.142 1060.76 315.546V311.313C1061.97 312.002 1063.21 312.499 1064.46 312.807C1065.71 313.119 1067.02 313.275 1068.4 313.275C1070.35 313.275 1071.32 312.575 1071.32 311.176C1071.32 310.579 1071.16 310.137 1070.83 309.848C1070.49 309.563 1069.97 309.329 1069.26 309.146L1066.44 308.527C1064.67 308.137 1063.33 307.499 1062.42 306.613C1061.52 305.733 1061.07 304.466 1061.07 302.815C1061.07 298.824 1063.56 296.828 1068.54 296.828C1070.71 296.828 1072.9 297.241 1075.11 298.067V302.127C1074.26 301.714 1073.28 301.381 1072.18 301.129C1071.08 300.877 1069.93 300.75 1068.74 300.75C1066.75 300.75 1065.75 301.347 1065.75 302.54C1065.75 303.09 1065.91 303.492 1066.24 303.744C1066.58 303.996 1067.08 304.203 1067.74 304.363L1070.53 304.983C1072.39 305.418 1073.76 306.072 1074.66 306.944C1075.55 307.815 1076 309.157 1076 310.969C1076 313.011 1075.31 314.559 1073.94 315.614C1072.56 316.67 1070.71 317.197 1068.4 317.197ZM1103.28 316.612L1097.15 306.393H1093.16V316.612H1088.38V290.532H1098.26C1104.4 290.532 1107.48 293.181 1107.48 298.48C1107.48 300.452 1107.02 302.069 1106.1 303.331C1105.18 304.593 1103.82 305.464 1102.01 305.946L1108.61 316.612H1103.28ZM1093.16 294.626V302.299H1098.26C1101.17 302.299 1102.63 300.991 1102.63 298.376C1102.63 297.069 1102.27 296.117 1101.55 295.521C1100.82 294.924 1099.72 294.626 1098.26 294.626H1093.16ZM1116.49 308.045C1116.86 311.531 1118.79 313.275 1122.27 313.275C1123.17 313.275 1124.04 313.16 1124.89 312.931C1125.74 312.701 1126.69 312.334 1127.74 311.83L1128.98 315.477C1127.88 316.096 1126.76 316.539 1125.61 316.805C1124.46 317.066 1123.17 317.197 1121.72 317.197C1119.59 317.197 1117.76 316.766 1116.25 315.903C1114.74 315.046 1113.6 313.848 1112.83 312.311C1112.06 310.774 1111.67 308.985 1111.67 306.944C1111.67 304.811 1112.08 302.98 1112.88 301.452C1113.68 299.929 1114.77 298.778 1116.15 297.998C1117.52 297.218 1119.06 296.828 1120.76 296.828C1123.44 296.828 1125.55 297.624 1127.08 299.216C1128.6 300.812 1129.37 303.148 1129.39 306.221V308.045H1116.49ZM1120.76 300.75C1118.51 300.75 1117.15 301.989 1116.66 304.466H1124.54C1124.43 303.182 1124.06 302.241 1123.44 301.645C1122.82 301.049 1121.93 300.75 1120.76 300.75ZM1139.96 317.197C1138.47 317.197 1137.14 317.071 1135.97 316.819C1134.8 316.566 1133.58 316.142 1132.32 315.546V311.313C1133.53 312.002 1134.77 312.499 1136.01 312.807C1137.27 313.119 1138.58 313.275 1139.96 313.275C1141.91 313.275 1142.88 312.575 1142.88 311.176C1142.88 310.579 1142.71 310.137 1142.38 309.848C1142.05 309.563 1141.53 309.329 1140.82 309.146L1138 308.527C1136.23 308.137 1134.89 307.499 1133.98 306.613C1133.08 305.733 1132.63 304.466 1132.63 302.815C1132.63 298.824 1135.12 296.828 1140.1 296.828C1142.27 296.828 1144.46 297.241 1146.67 298.067V302.127C1145.82 301.714 1144.84 301.381 1143.74 301.129C1142.64 300.877 1141.49 300.75 1140.3 300.75C1138.31 300.75 1137.31 301.347 1137.31 302.54C1137.31 303.09 1137.47 303.492 1137.8 303.744C1138.14 303.996 1138.64 304.203 1139.3 304.363L1142.09 304.983C1143.95 305.418 1145.33 306.072 1146.22 306.944C1147.11 307.815 1147.56 309.157 1147.56 310.969C1147.56 313.011 1146.87 314.559 1145.5 315.614C1144.12 316.67 1142.27 317.197 1139.96 317.197ZM1155.58 308.045C1155.95 311.531 1157.87 313.275 1161.36 313.275C1162.25 313.275 1163.13 313.16 1163.97 312.931C1164.82 312.701 1165.77 312.334 1166.83 311.83L1168.07 315.477C1166.97 316.096 1165.84 316.539 1164.7 316.805C1163.55 317.066 1162.25 317.197 1160.81 317.197C1158.68 317.197 1156.85 316.766 1155.34 315.903C1153.82 315.046 1152.68 313.848 1151.91 312.311C1151.14 310.774 1150.76 308.985 1150.76 306.944C1150.76 304.811 1151.16 302.98 1151.97 301.452C1152.77 299.929 1153.86 298.778 1155.23 297.998C1156.61 297.218 1158.15 296.828 1159.85 296.828C1162.53 296.828 1164.63 297.624 1166.16 299.216C1167.68 300.812 1168.46 303.148 1168.48 306.221V308.045H1155.58ZM1159.85 300.75C1157.6 300.75 1156.23 301.989 1155.75 304.466H1163.63C1163.52 303.182 1163.15 302.241 1162.53 301.645C1161.91 301.049 1161.01 300.75 1159.85 300.75ZM1182.62 296.966H1183.41V301.095H1182.62C1180.73 301.095 1178.89 301.806 1177.08 303.228V316.612H1172.47V297.379H1177.08V299.305C1178.84 297.746 1180.69 296.966 1182.62 296.966ZM1199.72 297.379H1204.46L1197.69 316.922H1191.91L1185.13 297.379H1189.88L1194.8 312.518L1199.72 297.379ZM1214.61 297.379C1216.89 297.379 1218.61 297.716 1219.79 298.39C1220.97 299.069 1221.76 299.975 1222.15 301.108C1222.54 302.246 1222.73 303.675 1222.73 305.395V316.612H1218.12V314.857C1217.28 315.637 1216.44 316.199 1215.63 316.543C1214.81 316.887 1213.93 317.06 1212.96 317.06C1210.94 317.06 1209.32 316.479 1208.09 315.319C1206.87 314.162 1206.25 312.575 1206.25 310.557C1206.25 308.492 1206.89 306.891 1208.16 305.753C1209.44 304.62 1211.19 304.054 1213.41 304.054C1215.22 304.054 1216.79 304.409 1218.12 305.12C1218.1 304.249 1217.99 303.549 1217.79 303.021C1217.6 302.494 1217.22 302.085 1216.64 301.796C1216.07 301.512 1215.22 301.37 1214.1 301.37H1210.86V297.379H1214.61ZM1213.79 313.378C1215.19 313.378 1216.63 312.736 1218.12 311.451V308.423C1216.91 307.804 1215.66 307.494 1214.37 307.494C1213.36 307.494 1212.54 307.728 1211.9 308.196C1211.25 308.669 1210.93 309.433 1210.93 310.488C1210.93 311.52 1211.2 312.259 1211.74 312.704C1212.28 313.153 1212.96 313.378 1213.79 313.378ZM1237.7 301.989H1233.3V310.694C1233.3 311.52 1233.44 312.093 1233.71 312.415C1233.99 312.736 1234.49 312.896 1235.22 312.896C1235.96 312.896 1236.66 312.804 1237.32 312.621V316.647C1236.02 316.922 1234.94 317.06 1234.09 317.06C1232.19 317.06 1230.81 316.658 1229.96 315.855C1229.11 315.052 1228.69 313.814 1228.69 312.139V301.989H1226.14V297.826H1228.69V291.288H1233.3V297.826H1237.7V301.989ZM1241.69 294.041V288.846H1246.3V294.041H1241.69ZM1241.69 316.612V297.379H1246.3V316.612H1241.69ZM1260.54 317.197C1258.41 317.197 1256.6 316.75 1255.11 315.855C1253.61 314.961 1252.5 313.738 1251.75 312.187C1251.01 310.641 1250.63 308.905 1250.63 306.978C1250.63 305.074 1251.01 303.354 1251.75 301.817C1252.5 300.28 1253.61 299.065 1255.11 298.17C1256.6 297.275 1258.41 296.828 1260.54 296.828C1262.65 296.828 1264.45 297.275 1265.93 298.17C1267.41 299.065 1268.52 300.28 1269.27 301.817C1270.01 303.354 1270.38 305.074 1270.38 306.978C1270.38 308.905 1270.01 310.641 1269.27 312.187C1268.52 313.738 1267.41 314.961 1265.93 315.855C1264.45 316.75 1262.65 317.197 1260.54 317.197ZM1260.54 313.171C1262.17 313.171 1263.42 312.614 1264.29 311.499C1265.16 310.389 1265.6 308.882 1265.6 306.978C1265.6 305.074 1265.16 303.572 1264.29 302.471C1263.42 301.37 1262.17 300.819 1260.54 300.819C1258.89 300.819 1257.62 301.37 1256.74 302.471C1255.86 303.572 1255.41 305.074 1255.41 306.978C1255.41 308.882 1255.86 310.389 1256.74 311.499C1257.62 312.614 1258.89 313.171 1260.54 313.171ZM1284.94 296.966C1287.41 296.966 1289.25 297.596 1290.46 298.858C1291.66 300.12 1292.26 302.173 1292.26 305.017V316.612H1287.65V305.017C1287.65 303.664 1287.38 302.67 1286.84 302.037C1286.31 301.409 1285.37 301.095 1284.04 301.095C1282.48 301.095 1280.91 301.771 1279.33 303.125V316.612H1274.72V297.379H1279.33V299.168C1281.07 297.7 1282.94 296.966 1284.94 296.966ZM1304.17 317.197C1302.68 317.197 1301.35 317.071 1300.18 316.819C1299.01 316.566 1297.79 316.142 1296.53 315.546V311.313C1297.75 312.002 1298.98 312.499 1300.23 312.807C1301.48 313.119 1302.79 313.275 1304.17 313.275C1306.12 313.275 1307.09 312.575 1307.09 311.176C1307.09 310.579 1306.93 310.137 1306.59 309.848C1306.26 309.563 1305.74 309.329 1305.03 309.146L1302.21 308.527C1300.44 308.137 1299.11 307.499 1298.2 306.613C1297.29 305.733 1296.84 304.466 1296.84 302.815C1296.84 298.824 1299.33 296.828 1304.31 296.828C1306.49 296.828 1308.68 297.241 1310.88 298.067V302.127C1310.03 301.714 1309.06 301.381 1307.95 301.129C1306.85 300.877 1305.71 300.75 1304.51 300.75C1302.52 300.75 1301.52 301.347 1301.52 302.54C1301.52 303.09 1301.69 303.492 1302.02 303.744C1302.35 303.996 1302.85 304.203 1303.52 304.363L1306.3 304.983C1308.16 305.418 1309.54 306.072 1310.43 306.944C1311.33 307.815 1311.77 309.157 1311.77 310.969C1311.77 313.011 1311.09 314.559 1309.71 315.614C1308.33 316.67 1306.49 317.197 1304.17 317.197Z" fill="black"/>
</g>
</g>
</g>
</g>
<g clip-path="url(#clip16_3_347)">
<g clip-path="url(#clip17_3_347)">
<path d="M293.754 3.5423L291.983 0H98.4851L1.51465 170.473L98.0423 340.946H291.54L388.511 170.473L293.754 3.5423ZM121.067 61.1046L17.455 160.289L99.8134 15.0548L121.067 61.1046ZM286.67 14.612L315.008 172.687L137.008 63.3186L286.67 14.612ZM130.809 69.9604L312.351 181.543L130.809 284.712V69.9604ZM314.565 190.399L282.685 326.777L138.336 290.911L314.565 190.399ZM121.953 281.17L17.455 172.687L121.953 72.1743V281.17ZM120.624 292.682L100.256 326.777L24.5396 193.055L120.624 292.682ZM128.595 297.11L267.63 332.09H107.341L128.595 297.11ZM324.749 185.085L376.113 174.015L292.869 321.021L324.749 185.085ZM375.227 165.602L324.749 176.672L298.625 30.1095L375.227 165.602ZM128.595 56.6768L106.455 8.85575H275.6L128.595 56.6768Z" fill="white"/>
</g>
</g>
</g>
</g>
</mask>
<g mask="url(#mask0_3_347)">
<path d="M1496.67 0H1.51465V340.946H1496.67V0Z" fill="url(#paint2_linear_3_347)"/>
</g>
</g>
<defs>
<linearGradient id="paint0_linear_3_347" x1="440.353" y1="125.993" x2="1496.63" y2="125.993" gradientUnits="userSpaceOnUse">
<stop stop-color="#989898"/>
<stop offset="1" stop-color="#4B4B4B"/>
</linearGradient>
<linearGradient id="paint1_linear_3_347" x1="625.204" y1="306.084" x2="1311.77" y2="306.084" gradientUnits="userSpaceOnUse">
<stop stop-color="#989898"/>
<stop offset="1" stop-color="#4B4B4B"/>
</linearGradient>
<linearGradient id="paint2_linear_3_347" x1="1.51465" y1="197.067" x2="1488.83" y2="307.947" gradientUnits="userSpaceOnUse">
<stop stop-color="#6EE2F5"/>
<stop offset="1" stop-color="#6454F0"/>
</linearGradient>
<clipPath id="clip0_3_347">
<rect width="1495.15" height="340.946" fill="white" transform="translate(1.51465)"/>
</clipPath>
<clipPath id="clip1_3_347">
<rect width="1495.15" height="340.946" fill="white" transform="translate(1.51465)"/>
</clipPath>
<clipPath id="clip2_3_347">
<rect width="1056.36" height="308.381" fill="white" transform="translate(440.311 16.2825)"/>
</clipPath>
<clipPath id="clip3_3_347">
<rect width="1056.36" height="308.381" fill="white" transform="translate(440.311 16.2825)"/>
</clipPath>
<clipPath id="clip4_3_347">
<rect width="1056.36" height="219.421" fill="white" transform="translate(440.311 16.2825)"/>
</clipPath>
<clipPath id="clip5_3_347">
<rect width="1056.36" height="219.421" fill="white" transform="translate(440.311 16.2825)"/>
</clipPath>
<clipPath id="clip6_3_347">
<rect width="686.632" height="37.1599" fill="white" transform="translate(625.173 287.504)"/>
</clipPath>
<clipPath id="clip7_3_347">
<rect width="686.632" height="37.1599" fill="white" transform="translate(625.173 287.504)"/>
</clipPath>
<clipPath id="clip8_3_347">
<rect width="1495.15" height="340.946" fill="white" transform="translate(1.51465)"/>
</clipPath>
<clipPath id="clip9_3_347">
<rect width="1495.15" height="340.946" fill="white" transform="translate(1.51465)"/>
</clipPath>
<clipPath id="clip10_3_347">
<rect width="1056.36" height="308.381" fill="white" transform="translate(440.311 16.2825)"/>
</clipPath>
<clipPath id="clip11_3_347">
<rect width="1056.36" height="308.381" fill="white" transform="translate(440.311 16.2825)"/>
</clipPath>
<clipPath id="clip12_3_347">
<rect width="1056.36" height="219.421" fill="white" transform="translate(440.311 16.2825)"/>
</clipPath>
<clipPath id="clip13_3_347">
<rect width="1056.36" height="219.421" fill="white" transform="translate(440.311 16.2825)"/>
</clipPath>
<clipPath id="clip14_3_347">
<rect width="686.632" height="37.1599" fill="white" transform="translate(625.173 287.504)"/>
</clipPath>
<clipPath id="clip15_3_347">
<rect width="686.632" height="37.1599" fill="white" transform="translate(625.173 287.504)"/>
</clipPath>
<clipPath id="clip16_3_347">
<rect width="386.996" height="340.946" fill="white" transform="translate(1.51465)"/>
</clipPath>
<clipPath id="clip17_3_347">
<rect width="386.996" height="340.946" fill="white" transform="translate(1.51465)"/>
</clipPath>
</defs>
</svg>
