<svg width="1500" height="351" viewBox="0 0 1500 351" fill="none" xmlns="http://www.w3.org/2000/svg">
<g clip-path="url(#clip0_3_402)">
<g clip-path="url(#clip1_3_402)">
<g clip-path="url(#clip2_3_402)">
<g clip-path="url(#clip3_3_402)">
<g clip-path="url(#clip4_3_402)">
<g clip-path="url(#clip5_3_402)">
<path d="M537.725 64.0004H480.001V102.414H528.796V124.424H480.001V187.338H448.024V41.9906H537.725V64.0004ZM556.828 187.338V23.0954H587.558V187.338H556.828ZM714.219 122.762C714.219 124.7 713.873 129.061 713.18 135.844H639.676C640.368 146.364 642.887 154.531 647.234 160.345C651.608 166.159 657.325 169.066 664.385 169.066C667.569 169.066 670.227 168.651 672.358 167.82C674.49 166.99 676.705 165.495 679.003 163.335C681.301 161.203 684.318 157.715 688.056 152.87C688.748 151.763 690.202 151.209 692.416 151.209C694.77 151.209 697.635 151.998 701.013 153.576C704.418 155.182 708.045 157.438 711.893 160.345C702.923 179.725 687.087 189.415 664.385 189.415C646.943 189.415 633.239 184.113 623.272 173.51C613.306 162.934 608.322 148.441 608.322 130.03C608.322 117.987 610.565 107.536 615.05 98.6763C619.563 89.817 625.999 82.9925 634.36 78.203C642.749 73.4411 652.688 71.0602 664.177 71.0602C680.096 71.0602 692.416 75.559 701.137 84.5568C709.858 93.5545 714.219 106.29 714.219 122.762ZM640.091 118.402H683.073C683.073 99.8529 676.567 90.5783 663.554 90.5783C656.91 90.5783 651.581 92.9316 647.566 97.6381C643.552 102.345 641.06 109.266 640.091 118.402ZM825.057 187.338H796.402C795.849 179.587 793.675 172.25 789.882 165.329C786.062 158.407 780.899 151.348 774.393 144.149C767.886 151.348 762.737 158.407 758.944 165.329C755.124 172.25 752.936 179.587 752.383 187.338H723.728C724.421 176.126 727.784 165.841 733.82 156.483C739.827 147.153 747.953 137.436 758.197 127.331C751.137 120.271 745.392 114.138 740.963 108.934C736.533 103.757 732.768 98.1502 729.667 92.1148C726.539 86.1071 724.697 79.781 724.144 73.1366H752.798C752.936 79.5042 754.874 85.6918 758.612 91.6996C762.349 97.7349 767.61 104.213 774.393 111.135C781.175 104.213 786.436 97.7349 790.173 91.6996C793.911 85.6918 795.849 79.5042 795.987 73.1366H824.641C824.088 79.781 822.26 86.1071 819.16 92.1148C816.031 98.1502 812.252 103.757 807.823 108.934C803.393 114.138 797.648 120.271 790.588 127.331C800.832 137.436 808.971 147.153 815.007 156.483C821.015 165.841 824.364 176.126 825.057 187.338ZM842.914 187.338V73.1366H873.644V187.338H842.914ZM856.826 52.165C846.028 52.165 840.63 46.7663 840.63 35.9691V32.8545C840.63 22.0572 846.028 16.6586 856.826 16.6586H859.732C870.53 16.6586 875.928 22.0572 875.928 32.8545V35.9691C875.928 46.7663 870.53 52.165 859.732 52.165H856.826ZM957.116 189.415C940.089 189.415 926.731 186.508 917.041 180.694C907.351 174.88 902.506 166.921 902.506 156.815C902.506 151.97 904.541 148.164 908.611 145.395C912.708 142.627 918.495 141.173 925.97 141.035C926.8 149.202 929.942 155.5 935.396 159.93C940.878 164.36 948.256 166.574 957.531 166.574C974.557 166.574 983.07 160.276 983.07 147.679C983.07 142.696 980.745 138.612 976.094 135.428C971.47 132.245 963.414 128.992 951.925 125.669C935.59 121.101 923.616 115.26 916.003 108.145C908.389 101.002 904.583 91.8241 904.583 80.6116C904.583 68.0148 909.455 58.0758 919.201 50.7945C928.973 43.541 942.304 39.9142 959.192 39.9142C972.758 39.9142 984.386 43.1257 994.075 49.5487C1003.77 55.9994 1010.41 64.9694 1014.01 76.4588C1011.66 78.812 1008.4 80.8884 1004.25 82.688C1000.1 84.4875 996.429 85.3873 993.245 85.3873C990.753 85.3873 988.815 84.8613 987.431 83.8092C986.047 82.7849 984.593 80.8192 983.07 77.9123C980.302 72.5136 977.118 68.6377 973.519 66.2845C969.92 63.9312 965.144 62.7546 959.192 62.7546C944.38 62.7546 936.974 67.6687 936.974 77.497C936.974 81.3729 937.736 84.5152 939.258 86.9238C940.781 89.3601 943.411 91.575 947.149 93.5683C950.886 95.5893 956.562 97.8457 964.175 100.337C978.018 104.905 988.608 109.086 995.944 112.879C1003.28 116.699 1008.43 120.824 1011.39 125.254C1014.38 129.684 1015.88 135.152 1015.88 141.658C1015.88 151.071 1013.41 159.376 1008.49 166.574C1003.59 173.773 996.705 179.379 987.846 183.393C978.987 187.408 968.743 189.415 957.116 189.415ZM1094.78 71.0602C1109.59 71.0602 1120.8 75.8636 1128.42 85.4704C1136.03 95.1048 1139.84 109.266 1139.84 127.953C1139.84 140.135 1137.62 150.863 1133.19 160.138C1128.76 169.412 1122.54 176.61 1114.51 181.732C1106.48 186.854 1097.2 189.415 1086.68 189.415C1080.87 189.415 1073.74 188.238 1065.3 185.885V234.68H1034.57V116.741C1034.57 105.528 1034.11 97.3889 1033.19 92.3225C1032.31 87.2838 1030.48 82.9648 1027.71 79.3658C1031.59 77.1509 1035.7 75.4206 1040.05 74.1748C1044.42 72.9289 1048.55 72.306 1052.42 72.306C1055.33 72.306 1057.68 73.275 1059.48 75.213C1061.28 77.1509 1062.67 80.1271 1063.63 84.1415C1071.94 75.4206 1082.32 71.0602 1094.78 71.0602ZM1082.32 169.481C1090.9 169.481 1097.44 165.952 1101.92 158.892C1106.44 151.832 1108.69 141.519 1108.69 127.953C1108.69 115.08 1107.03 105.625 1103.71 99.5899C1100.39 93.5822 1095.13 90.5783 1087.93 90.5783C1083.5 90.5783 1079.21 91.6165 1075.05 93.6929C1070.9 95.7693 1067.65 98.3302 1065.3 101.376V104.075V165.744C1070.97 168.236 1076.65 169.481 1082.32 169.481ZM1250.68 144.357C1250.68 155.708 1251.13 163.875 1252.05 168.858C1252.93 173.842 1254.76 178.133 1257.53 181.732C1254.62 183.809 1250.88 185.497 1246.32 186.799C1241.75 188.127 1237.6 188.792 1233.86 188.792C1230.4 188.792 1227.63 187.546 1225.55 185.054C1223.48 182.563 1221.95 178.618 1220.98 173.219C1217.25 179.033 1212.82 183.186 1207.7 185.677C1202.57 188.169 1195.93 189.415 1187.76 189.415C1177.66 189.415 1169.49 186.674 1163.26 181.192C1157.03 175.738 1153.92 168.582 1153.92 159.722C1153.92 147.264 1159.15 137.948 1169.61 131.774C1180.05 125.628 1196.83 121.932 1219.95 120.686V109.889C1219.95 104.213 1218.46 99.9913 1215.5 97.2228C1212.51 94.4542 1207.97 93.07 1201.88 93.07C1197.45 93.07 1193.06 93.9282 1188.72 95.6447C1184.34 97.3889 1178.97 100.407 1172.6 104.698C1171.91 105.252 1170.94 105.528 1169.7 105.528C1167.21 105.528 1164.55 103.867 1161.72 100.545C1158.87 97.2228 1156.34 92.8623 1154.12 87.4637C1159.52 82.7572 1167.11 78.8397 1176.88 75.7113C1186.63 72.6105 1196.27 71.0602 1205.83 71.0602C1220.22 71.0602 1231.3 74.4101 1239.05 81.1099C1246.8 87.8375 1250.68 97.4304 1250.68 109.889V144.357ZM1198.56 169.481C1202.71 169.481 1206.56 168.028 1210.1 165.121C1213.62 162.214 1216.9 157.715 1219.95 151.624V136.259C1208.46 136.674 1199.78 138.571 1193.91 141.948C1188.01 145.354 1185.06 150.171 1185.06 156.4C1185.06 160.414 1186.31 163.598 1188.8 165.952C1191.29 168.305 1194.54 169.481 1198.56 169.481ZM1327.09 189.415C1288.88 189.415 1269.78 169.481 1269.78 129.615C1269.78 111.342 1274.69 97.0151 1284.52 86.6331C1294.35 76.2512 1307.92 71.0602 1325.22 71.0602C1338.79 71.0602 1349.97 74.4101 1358.77 81.1099C1367.55 87.8375 1372.7 96.9459 1374.22 108.435C1366.19 113.28 1359.55 115.703 1354.29 115.703C1352.07 115.703 1350.25 115.011 1348.81 113.626C1347.34 112.242 1346.12 110.027 1345.15 106.982C1343.08 101.168 1340.52 97.0428 1337.47 94.6065C1334.42 92.1979 1330.34 90.9936 1325.22 90.9936C1317.47 90.9936 1311.49 94.3158 1307.28 100.96C1303.04 107.605 1300.93 117.156 1300.93 129.615C1300.93 143.042 1303.04 152.898 1307.28 159.182C1311.49 165.495 1318.09 168.651 1327.09 168.651C1333.32 168.651 1338.23 166.533 1341.83 162.297C1345.43 158.089 1348.13 151.348 1349.93 142.073C1357.54 142.073 1363.01 143.457 1366.33 146.226C1369.65 148.994 1371.32 153.493 1371.32 159.722C1371.32 164.983 1369.28 169.897 1365.21 174.465C1361.11 179.033 1355.67 182.66 1348.89 185.345C1342.11 188.058 1334.84 189.415 1327.09 189.415ZM1497.56 122.762C1497.56 124.7 1497.21 129.061 1496.52 135.844H1423.02C1423.71 146.364 1426.23 154.531 1430.58 160.345C1434.95 166.159 1440.67 169.066 1447.73 169.066C1450.91 169.066 1453.57 168.651 1455.7 167.82C1457.86 166.99 1460.07 165.495 1462.34 163.335C1464.64 161.203 1467.66 157.715 1471.4 152.87C1472.09 151.763 1473.54 151.209 1475.76 151.209C1478.11 151.209 1480.98 151.998 1484.35 153.576C1487.76 155.182 1491.4 157.438 1495.28 160.345C1486.28 179.725 1470.43 189.415 1447.73 189.415C1430.28 189.415 1416.58 184.113 1406.61 173.51C1396.65 162.934 1391.66 148.441 1391.66 130.03C1391.66 117.987 1393.91 107.536 1398.39 98.6763C1402.9 89.817 1409.34 82.9925 1417.7 78.203C1426.09 73.4411 1436.03 71.0602 1447.52 71.0602C1463.44 71.0602 1475.76 75.559 1484.48 84.5568C1493.2 93.5545 1497.56 106.29 1497.56 122.762ZM1423.43 118.402H1466.41C1466.41 99.8529 1459.91 90.5783 1446.9 90.5783C1440.25 90.5783 1434.92 92.9316 1430.91 97.6381C1426.89 102.345 1424.4 109.266 1423.43 118.402Z" fill="url(#paint0_linear_3_402)"/>
</g>
</g>
<g clip-path="url(#clip6_3_402)">
<g clip-path="url(#clip7_3_402)">
<path d="M568.227 295.054H553.657V304.086H566.097V309.241H553.657V322.192H547.735V289.899H568.227V295.054ZM580.199 322.746C577.87 322.746 576.166 322.258 575.086 321.281C574.007 320.298 573.467 318.784 573.467 316.739V286.15H579.176V314.865C579.176 315.887 579.347 316.597 579.688 316.995C580.028 317.392 580.639 317.591 581.52 317.591C582.4 317.591 583.181 317.506 583.863 317.336V322.278C582.528 322.59 581.306 322.746 580.199 322.746ZM592.843 311.584C593.304 315.901 595.692 318.06 600.009 318.06C601.117 318.06 602.196 317.918 603.247 317.634C604.298 317.35 605.477 316.895 606.783 316.271L608.317 320.786C606.948 321.553 605.553 322.102 604.133 322.431C602.713 322.755 601.111 322.917 599.328 322.917C596.686 322.917 594.428 322.383 592.554 321.315C590.679 320.253 589.265 318.77 588.31 316.867C587.356 314.964 586.879 312.749 586.879 310.221C586.879 307.579 587.376 305.313 588.37 303.421C589.364 301.535 590.713 300.11 592.417 299.144C594.122 298.178 596.027 297.696 598.135 297.696C601.458 297.696 604.062 298.681 605.948 300.652C607.84 302.629 608.797 305.52 608.82 309.326V311.584H592.843ZM598.135 302.552C595.351 302.552 593.659 304.086 593.056 307.153H602.821C602.679 305.563 602.225 304.398 601.458 303.66C600.685 302.922 599.578 302.552 598.135 302.552ZM634.936 322.192H628.204L623.092 314.268L618.235 322.192H611.504L619.641 309.752L611.93 298.377H618.661L623.262 305.577L627.906 298.377H634.552L626.628 310.093L634.936 322.192ZM639.494 294.245V287.812H645.203V294.245H639.494ZM639.494 322.192V298.377H645.203V322.192H639.494ZM664.374 297.696C666.476 297.696 668.342 298.164 669.972 299.101C671.608 300.039 672.881 301.45 673.79 303.336C674.699 305.228 675.153 307.551 675.153 310.306C675.153 313.061 674.699 315.382 673.79 317.267C672.881 319.159 671.608 320.573 669.972 321.511C668.342 322.448 666.476 322.917 664.374 322.917C662.102 322.917 659.887 322.05 657.728 320.318V322.192H652.019V286.15H657.728V300.252C659.858 298.548 662.074 297.696 664.374 297.696ZM663.309 317.762C665.241 317.762 666.703 317.128 667.697 315.862C668.692 314.601 669.189 312.749 669.189 310.306C669.189 307.864 668.692 306.003 667.697 304.725C666.703 303.447 665.241 302.808 663.309 302.808C661.463 302.808 659.603 303.532 657.728 304.981V315.589C659.546 317.037 661.406 317.762 663.309 317.762ZM687.21 322.746C684.881 322.746 683.177 322.258 682.097 321.281C681.018 320.298 680.478 318.784 680.478 316.739V286.15H686.187V314.865C686.187 315.887 686.358 316.597 686.699 316.995C687.039 317.392 687.65 317.591 688.53 317.591C689.411 317.591 690.192 317.506 690.874 317.336V322.278C689.539 322.59 688.317 322.746 687.21 322.746ZM699.854 311.584C700.309 315.901 702.695 318.06 707.012 318.06C708.119 318.06 709.199 317.918 710.25 317.634C711.301 317.35 712.479 316.895 713.786 316.271L715.319 320.786C713.956 321.553 712.564 322.102 711.144 322.431C709.724 322.755 708.119 322.917 706.33 322.917C703.689 322.917 701.431 322.383 699.556 321.315C697.682 320.253 696.27 318.77 695.321 316.867C694.367 314.964 693.89 312.749 693.89 310.221C693.89 307.579 694.387 305.313 695.381 303.421C696.375 301.535 697.724 300.11 699.428 299.144C701.133 298.178 703.035 297.696 705.137 297.696C708.46 297.696 711.068 298.681 712.959 300.652C714.845 302.629 715.802 305.52 715.831 309.326V311.584H699.854ZM705.137 302.552C702.354 302.552 700.664 304.086 700.067 307.153H709.824C709.682 305.563 709.227 304.398 708.46 303.66C707.693 302.922 706.586 302.552 705.137 302.552ZM740.711 322.917C736.422 322.917 732.602 322.121 729.251 320.531V315.163C732.687 316.952 736.507 317.847 740.711 317.847C742.728 317.847 744.204 317.463 745.142 316.697C746.079 315.93 746.562 314.907 746.59 313.629C746.59 312.379 746.156 311.442 745.287 310.817C744.423 310.192 743.054 309.624 741.18 309.113L738.283 308.304C736.635 307.849 735.201 307.301 733.98 306.659C732.758 306.023 731.736 305.086 730.912 303.847C730.089 302.615 729.677 301.019 729.677 299.059C729.677 295.878 730.628 293.455 732.531 291.791C734.434 290.132 737.118 289.303 740.583 289.303C742.657 289.303 744.48 289.493 746.053 289.874C747.633 290.26 749.246 290.836 750.893 291.603V296.801C747.797 295.182 744.361 294.372 740.583 294.372C737.232 294.372 735.556 295.778 735.556 298.59C735.584 299.84 735.973 300.763 736.723 301.359C737.479 301.956 738.78 302.495 740.626 302.978L743.565 303.788C745.355 304.271 746.874 304.853 748.124 305.535C749.374 306.216 750.41 307.188 751.234 308.449C752.058 309.715 752.469 311.357 752.469 313.374C752.441 316.327 751.382 318.656 749.291 320.36C747.207 322.065 744.346 322.917 740.711 322.917ZM770.491 297.696C772.592 297.696 774.458 298.164 776.089 299.101C777.725 300.039 778.997 301.45 779.906 303.336C780.815 305.228 781.269 307.551 781.269 310.306C781.269 313.061 780.815 315.382 779.906 317.267C778.997 319.159 777.725 320.573 776.089 321.511C774.458 322.448 772.592 322.917 770.491 322.917C768.218 322.917 766.003 322.05 763.845 320.318V332.162H758.136V298.377H763.845V300.252C765.975 298.548 768.19 297.696 770.491 297.696ZM769.426 317.762C771.357 317.762 772.82 317.128 773.814 315.862C774.808 314.601 775.305 312.749 775.305 310.306C775.305 307.864 774.808 306.003 773.814 304.725C772.82 303.447 771.357 302.808 769.426 302.808C767.579 302.808 765.719 303.532 763.845 304.981V315.589C765.662 317.037 767.523 317.762 769.426 317.762ZM794.894 298.377C797.706 298.377 799.844 298.795 801.31 299.63C802.77 300.47 803.741 301.592 804.224 302.995C804.707 304.404 804.948 306.174 804.948 308.304V322.192H799.239V320.02C798.189 320.985 797.16 321.681 796.155 322.107C795.144 322.533 794.042 322.746 792.849 322.746C790.349 322.746 788.341 322.028 786.825 320.591C785.302 319.159 784.541 317.194 784.541 314.694C784.541 312.138 785.331 310.156 786.91 308.747C788.483 307.344 790.648 306.642 793.403 306.642C795.646 306.642 797.592 307.082 799.239 307.963C799.211 306.884 799.077 306.017 798.839 305.364C798.595 304.711 798.118 304.205 797.407 303.847C796.697 303.495 795.646 303.319 794.255 303.319H790.25V298.377H794.894ZM793.871 318.188C795.604 318.188 797.393 317.392 799.239 315.802V312.053C797.734 311.286 796.186 310.903 794.596 310.903C793.346 310.903 792.323 311.192 791.528 311.772C790.733 312.357 790.335 313.303 790.335 314.609C790.335 315.887 790.67 316.802 791.341 317.353C792.005 317.909 792.849 318.188 793.871 318.188ZM821.521 322.917C817.687 322.888 814.755 321.758 812.728 319.525C810.694 317.299 809.677 314.197 809.677 310.221C809.677 306.301 810.694 303.24 812.728 301.036C814.755 298.837 817.687 297.724 821.521 297.696C822.884 297.696 824.057 297.781 825.04 297.951C826.017 298.122 827.031 298.42 828.082 298.846V304.171C827.031 303.66 826.045 303.305 825.125 303.106C824.199 302.907 823.182 302.808 822.075 302.808C817.758 302.836 815.599 305.293 815.599 310.178C815.599 315.234 817.715 317.762 821.947 317.762C823.992 317.762 826.079 317.151 828.21 315.93L829.871 320.701C827.315 322.178 824.532 322.917 821.521 322.917ZM838.903 311.584C839.357 315.901 841.743 318.06 846.06 318.06C847.168 318.06 848.247 317.918 849.298 317.634C850.349 317.35 851.528 316.895 852.834 316.271L854.368 320.786C853.005 321.553 851.613 322.102 850.193 322.431C848.773 322.755 847.168 322.917 845.379 322.917C842.737 322.917 840.479 322.383 838.605 321.315C836.73 320.253 835.316 318.77 834.362 316.867C833.413 314.964 832.939 312.749 832.939 310.221C832.939 307.579 833.436 305.313 834.43 303.421C835.424 301.535 836.773 300.11 838.477 299.144C840.181 298.178 842.084 297.696 844.186 297.696C847.509 297.696 850.113 298.681 851.999 300.652C853.891 302.629 854.851 305.52 854.879 309.326V311.584H838.903ZM844.186 302.552C841.402 302.552 839.712 304.086 839.116 307.153H848.872C848.73 305.563 848.276 304.398 847.509 303.66C846.742 302.922 845.634 302.552 844.186 302.552ZM867.958 322.917C866.112 322.917 864.465 322.76 863.017 322.448C861.568 322.136 860.063 321.61 858.501 320.872V315.631C860.006 316.484 861.531 317.1 863.076 317.48C864.627 317.867 866.254 318.06 867.958 318.06C870.373 318.06 871.58 317.194 871.58 315.461C871.58 314.723 871.372 314.174 870.958 313.817C870.549 313.464 869.904 313.175 869.024 312.947L865.53 312.181C863.343 311.698 861.687 310.908 860.563 309.812C859.444 308.721 858.884 307.153 858.884 305.108C858.884 300.167 861.966 297.696 868.129 297.696C870.827 297.696 873.54 298.207 876.266 299.229V304.256C875.215 303.745 874.008 303.333 872.645 303.021C871.282 302.709 869.861 302.552 868.385 302.552C865.914 302.552 864.678 303.291 864.678 304.768C864.678 305.449 864.883 305.946 865.292 306.259C865.706 306.571 866.325 306.827 867.149 307.026L870.6 307.792C872.9 308.332 874.605 309.142 875.712 310.221C876.82 311.3 877.374 312.962 877.374 315.205C877.374 317.733 876.522 319.65 874.818 320.957C873.113 322.263 870.827 322.917 867.958 322.917ZM880.944 328.626L883.5 314.907H889.465L886.099 328.626H880.944ZM914.814 322.917C910.525 322.917 906.705 322.121 903.353 320.531V315.163C906.79 316.952 910.61 317.847 914.814 317.847C916.83 317.847 918.307 317.463 919.244 316.697C920.182 315.93 920.664 314.907 920.693 313.629C920.693 312.379 920.258 311.442 919.389 310.817C918.526 310.192 917.157 309.624 915.282 309.113L912.385 308.304C910.738 307.849 909.304 307.301 908.082 306.659C906.861 306.023 905.838 305.086 905.015 303.847C904.191 302.615 903.779 301.019 903.779 299.059C903.779 295.878 904.731 293.455 906.634 291.791C908.537 290.132 911.221 289.303 914.686 289.303C916.759 289.303 918.583 289.493 920.156 289.874C921.735 290.26 923.348 290.836 924.996 291.603V296.801C921.9 295.182 918.463 294.372 914.686 294.372C911.334 294.372 909.659 295.778 909.659 298.59C909.687 299.84 910.076 300.763 910.826 301.359C911.581 301.956 912.882 302.495 914.728 302.978L917.668 303.788C919.457 304.271 920.977 304.853 922.227 305.535C923.476 306.216 924.513 307.188 925.337 308.449C926.16 309.715 926.572 311.357 926.572 313.374C926.544 316.327 925.484 318.656 923.394 320.36C921.309 322.065 918.449 322.917 914.814 322.917ZM936.754 311.584C937.209 315.901 939.594 318.06 943.912 318.06C945.019 318.06 946.099 317.918 947.149 317.634C948.2 317.35 949.379 316.895 950.686 316.271L952.219 320.786C950.856 321.553 949.464 322.102 948.044 322.431C946.624 322.755 945.019 322.917 943.23 322.917C940.589 322.917 938.331 322.383 936.456 321.315C934.581 320.253 933.167 318.77 932.213 316.867C931.264 314.964 930.79 312.749 930.79 310.221C930.79 307.579 931.287 305.313 932.281 303.421C933.275 301.535 934.624 300.11 936.328 299.144C938.032 298.178 939.935 297.696 942.037 297.696C945.36 297.696 947.965 298.681 949.851 300.652C951.742 302.629 952.702 305.52 952.731 309.326V311.584H936.754ZM942.037 302.552C939.254 302.552 937.564 304.086 936.967 307.153H946.723C946.581 305.563 946.127 304.398 945.36 303.66C944.593 302.922 943.486 302.552 942.037 302.552ZM965.972 298.377C968.783 298.377 970.922 298.795 972.388 299.63C973.848 300.47 974.819 301.592 975.302 302.995C975.785 304.404 976.026 306.174 976.026 308.304V322.192H970.317V320.02C969.266 320.985 968.238 321.681 967.233 322.107C966.222 322.533 965.12 322.746 963.927 322.746C961.427 322.746 959.419 322.028 957.903 320.591C956.38 319.159 955.619 317.194 955.619 314.694C955.619 312.138 956.409 310.156 957.988 308.747C959.561 307.344 961.725 306.642 964.48 306.642C966.724 306.642 968.67 307.082 970.317 307.963C970.289 306.884 970.155 306.017 969.917 305.364C969.672 304.711 969.195 304.205 968.485 303.847C967.775 303.495 966.724 303.319 965.333 303.319H961.328V298.377H965.972ZM964.949 318.188C966.682 318.188 968.471 317.392 970.317 315.802V312.053C968.812 311.286 967.264 310.903 965.673 310.903C964.424 310.903 963.401 311.192 962.606 311.772C961.811 312.357 961.413 313.303 961.413 314.609C961.413 315.887 961.748 316.802 962.418 317.353C963.083 317.909 963.927 318.188 964.949 318.188ZM1010.07 297.866C1013.02 297.866 1015.22 298.653 1016.67 300.226C1018.12 301.805 1018.84 304.342 1018.84 307.835V322.192H1013.13V307.835C1013.13 306.159 1012.82 304.93 1012.2 304.146C1011.57 303.367 1010.49 302.978 1008.96 302.978C1007.11 302.978 1005.21 303.859 1003.25 305.62C1003.33 306.301 1003.38 307.04 1003.38 307.835V322.192H997.668V307.835C997.668 306.159 997.356 304.93 996.731 304.146C996.106 303.367 995.027 302.978 993.493 302.978C991.647 302.978 989.787 303.802 987.912 305.449V322.192H982.203V298.377H987.912V300.55C990.042 298.761 992.272 297.866 994.601 297.866C996.476 297.866 998.046 298.17 999.313 298.778C1000.57 299.391 1001.53 300.351 1002.18 301.658C1003.46 300.38 1004.73 299.428 1006 298.803C1007.26 298.178 1008.62 297.866 1010.07 297.866ZM1031.84 322.746C1029.51 322.746 1027.8 322.258 1026.72 321.281C1025.64 320.298 1025.1 318.784 1025.1 316.739V286.15H1030.81V314.865C1030.81 315.887 1030.98 316.597 1031.33 316.995C1031.67 317.392 1032.28 317.591 1033.16 317.591C1034.04 317.591 1034.82 317.506 1035.5 317.336V322.278C1034.17 322.59 1032.94 322.746 1031.84 322.746ZM1044.48 311.584C1044.94 315.901 1047.33 318.06 1051.65 318.06C1052.75 318.06 1053.83 317.918 1054.88 317.634C1055.94 317.35 1057.11 316.895 1058.42 316.271L1059.95 320.786C1058.59 321.553 1057.19 322.102 1055.77 322.431C1054.35 322.755 1052.75 322.917 1050.97 322.917C1048.32 322.917 1046.07 322.383 1044.19 321.315C1042.32 320.253 1040.9 318.77 1039.95 316.867C1038.99 314.964 1038.52 312.749 1038.52 310.221C1038.52 307.579 1039.01 305.313 1040.01 303.421C1041 301.535 1042.35 300.11 1044.05 299.144C1045.76 298.178 1047.66 297.696 1049.77 297.696C1053.1 297.696 1055.7 298.681 1057.59 300.652C1059.48 302.629 1060.43 305.52 1060.46 309.326V311.584H1044.48ZM1049.77 302.552C1046.99 302.552 1045.3 304.086 1044.69 307.153H1054.46C1054.32 305.563 1053.86 304.398 1053.1 303.66C1052.32 302.922 1051.22 302.552 1049.77 302.552ZM1073.54 322.917C1071.69 322.917 1070.04 322.76 1068.59 322.448C1067.15 322.136 1065.64 321.61 1064.08 320.872V315.631C1065.58 316.484 1067.11 317.1 1068.66 317.48C1070.21 317.867 1071.83 318.06 1073.54 318.06C1075.95 318.06 1077.16 317.194 1077.16 315.461C1077.16 314.723 1076.95 314.174 1076.54 313.817C1076.13 313.464 1075.48 313.175 1074.6 312.947L1071.11 312.181C1068.92 311.698 1067.27 310.908 1066.15 309.812C1065.02 308.721 1064.46 307.153 1064.46 305.108C1064.46 300.167 1067.54 297.696 1073.71 297.696C1076.4 297.696 1079.12 298.207 1081.84 299.229V304.256C1080.79 303.745 1079.59 303.333 1078.22 303.021C1076.86 302.709 1075.44 302.552 1073.96 302.552C1071.49 302.552 1070.26 303.291 1070.26 304.768C1070.26 305.449 1070.46 305.946 1070.88 306.259C1071.29 306.571 1071.9 306.827 1072.73 307.026L1076.18 307.792C1078.48 308.332 1080.18 309.142 1081.29 310.221C1082.4 311.3 1082.95 312.962 1082.95 315.205C1082.95 317.733 1082.1 319.65 1080.4 320.957C1078.69 322.263 1076.4 322.917 1073.54 322.917ZM1096.5 322.917C1094.65 322.917 1093.01 322.76 1091.56 322.448C1090.11 322.136 1088.6 321.61 1087.04 320.872V315.631C1088.55 316.484 1090.07 317.1 1091.63 317.48C1093.17 317.867 1094.8 318.06 1096.5 318.06C1098.91 318.06 1100.12 317.194 1100.12 315.461C1100.12 314.723 1099.92 314.174 1099.51 313.817C1099.09 313.464 1098.45 313.175 1097.56 312.947L1094.07 312.181C1091.88 311.698 1090.23 310.908 1089.1 309.812C1087.98 308.721 1087.43 307.153 1087.43 305.108C1087.43 300.167 1090.51 297.696 1096.67 297.696C1099.37 297.696 1102.08 298.207 1104.81 299.229V304.256C1103.76 303.745 1102.55 303.333 1101.19 303.021C1099.82 302.709 1098.4 302.552 1096.93 302.552C1094.45 302.552 1093.22 303.291 1093.22 304.768C1093.22 305.449 1093.42 305.946 1093.83 306.259C1094.25 306.571 1094.87 306.827 1095.69 307.026L1099.14 307.792C1101.44 308.332 1103.15 309.142 1104.25 310.221C1105.36 311.3 1105.91 312.962 1105.91 315.205C1105.91 317.733 1105.06 319.65 1103.36 320.957C1101.65 322.263 1099.37 322.917 1096.5 322.917ZM1139.69 322.192L1132.11 309.539H1127.17V322.192H1121.24V289.899H1133.47C1141.08 289.899 1144.89 293.18 1144.89 299.74C1144.89 302.183 1144.32 304.185 1143.18 305.748C1142.05 307.31 1140.36 308.389 1138.11 308.985L1146.29 322.192H1139.69ZM1127.17 294.969V304.469H1133.47C1137.08 304.469 1138.88 302.851 1138.88 299.613C1138.88 297.994 1138.44 296.815 1137.54 296.077C1136.65 295.338 1135.29 294.969 1133.47 294.969H1127.17ZM1156.05 311.584C1156.5 315.901 1158.89 318.06 1163.21 318.06C1164.32 318.06 1165.39 317.918 1166.45 317.634C1167.5 317.35 1168.68 316.895 1169.98 316.271L1171.52 320.786C1170.15 321.553 1168.76 322.102 1167.34 322.431C1165.92 322.755 1164.32 322.917 1162.53 322.917C1159.88 322.917 1157.63 322.383 1155.75 321.315C1153.88 320.253 1152.47 318.77 1151.52 316.867C1150.56 314.964 1150.09 312.749 1150.09 310.221C1150.09 307.579 1150.58 305.313 1151.58 303.421C1152.57 301.535 1153.92 300.11 1155.62 299.144C1157.33 298.178 1159.23 297.696 1161.33 297.696C1164.66 297.696 1167.26 298.681 1169.16 300.652C1171.04 302.629 1172 305.52 1172.03 309.326V311.584H1156.05ZM1161.33 302.552C1158.55 302.552 1156.86 304.086 1156.26 307.153H1166.02C1165.88 305.563 1165.42 304.398 1164.66 303.66C1163.89 302.922 1162.78 302.552 1161.33 302.552ZM1185.11 322.917C1183.26 322.917 1181.61 322.76 1180.16 322.448C1178.72 322.136 1177.21 321.61 1175.65 320.872V315.631C1177.15 316.484 1178.68 317.1 1180.22 317.48C1181.77 317.867 1183.4 318.06 1185.11 318.06C1187.52 318.06 1188.73 317.194 1188.73 315.461C1188.73 314.723 1188.52 314.174 1188.11 313.817C1187.7 313.464 1187.05 313.175 1186.17 312.947L1182.68 312.181C1180.49 311.698 1178.83 310.908 1177.71 309.812C1176.59 308.721 1176.03 307.153 1176.03 305.108C1176.03 300.167 1179.11 297.696 1185.28 297.696C1187.97 297.696 1190.69 298.207 1193.41 299.229V304.256C1192.36 303.745 1191.16 303.333 1189.79 303.021C1188.43 302.709 1187.01 302.552 1185.53 302.552C1183.06 302.552 1181.83 303.291 1181.83 304.768C1181.83 305.449 1182.03 305.946 1182.44 306.259C1182.85 306.571 1183.47 306.827 1184.3 307.026L1187.75 307.792C1190.05 308.332 1191.75 309.142 1192.86 310.221C1193.97 311.3 1194.52 312.962 1194.52 315.205C1194.52 317.733 1193.67 319.65 1191.96 320.957C1190.26 322.263 1187.97 322.917 1185.11 322.917ZM1204.45 311.584C1204.9 315.901 1207.29 318.06 1211.61 318.06C1212.71 318.06 1213.79 317.918 1214.84 317.634C1215.89 317.35 1217.07 316.895 1218.38 316.271L1219.91 320.786C1218.55 321.553 1217.16 322.102 1215.74 322.431C1214.32 322.755 1212.71 322.917 1210.92 322.917C1208.28 322.917 1206.02 322.383 1204.15 321.315C1202.28 320.253 1200.86 318.77 1199.91 316.867C1198.96 314.964 1198.48 312.749 1198.48 310.221C1198.48 307.579 1198.98 305.313 1199.97 303.421C1200.97 301.535 1202.32 300.11 1204.02 299.144C1205.73 298.178 1207.63 297.696 1209.73 297.696C1213.05 297.696 1215.66 298.681 1217.54 300.652C1219.44 302.629 1220.4 305.52 1220.42 309.326V311.584H1204.45ZM1209.73 302.552C1206.95 302.552 1205.26 304.086 1204.66 307.153H1214.42C1214.27 305.563 1213.82 304.398 1213.05 303.66C1212.29 302.922 1211.18 302.552 1209.73 302.552ZM1237.93 297.866H1238.91V302.978H1237.93C1235.6 302.978 1233.31 303.859 1231.07 305.62V322.192H1225.36V298.377H1231.07V300.763C1233.25 298.832 1235.54 297.866 1237.93 297.866ZM1259.1 298.377H1264.98L1256.59 322.576H1249.43L1241.04 298.377H1246.91L1253.01 317.123L1259.1 298.377ZM1277.55 298.377C1280.36 298.377 1282.49 298.795 1283.95 299.63C1285.42 300.47 1286.39 301.592 1286.88 302.995C1287.36 304.404 1287.6 306.174 1287.6 308.304V322.192H1281.89V320.02C1280.84 320.985 1279.81 321.681 1278.8 322.107C1277.79 322.533 1276.69 322.746 1275.5 322.746C1273 322.746 1270.99 322.028 1269.47 320.591C1267.95 319.159 1267.19 317.194 1267.19 314.694C1267.19 312.138 1267.98 310.156 1269.55 308.747C1271.13 307.344 1273.3 306.642 1276.06 306.642C1278.3 306.642 1280.24 307.082 1281.89 307.963C1281.86 306.884 1281.73 306.017 1281.48 305.364C1281.24 304.711 1280.77 304.205 1280.06 303.847C1279.35 303.495 1278.3 303.319 1276.91 303.319H1272.9V298.377H1277.55ZM1276.52 318.188C1278.26 318.188 1280.05 317.392 1281.89 315.802V312.053C1280.39 311.286 1278.84 310.903 1277.25 310.903C1276 310.903 1274.98 311.192 1274.18 311.772C1273.39 312.357 1272.99 313.303 1272.99 314.609C1272.99 315.887 1273.32 316.802 1273.98 317.353C1274.66 317.909 1275.5 318.188 1276.52 318.188ZM1306.13 304.086H1300.68V314.865C1300.68 315.887 1300.85 316.597 1301.19 316.995C1301.53 317.392 1302.16 317.591 1303.07 317.591C1303.97 317.591 1304.84 317.478 1305.66 317.25V322.235C1304.05 322.576 1302.71 322.746 1301.66 322.746C1299.3 322.746 1297.6 322.249 1296.55 321.255C1295.5 320.261 1294.97 318.727 1294.97 316.654V304.086H1291.82V298.931H1294.97V290.836H1300.68V298.931H1306.13V304.086ZM1311.07 294.245V287.812H1316.78V294.245H1311.07ZM1311.07 322.192V298.377H1316.78V322.192H1311.07ZM1334.41 322.917C1331.77 322.917 1329.53 322.363 1327.68 321.255C1325.84 320.147 1324.45 318.634 1323.53 316.714C1322.61 314.799 1322.14 312.649 1322.14 310.263C1322.14 307.906 1322.61 305.776 1323.53 303.873C1324.45 301.97 1325.84 300.465 1327.68 299.357C1329.53 298.249 1331.77 297.696 1334.41 297.696C1337.03 297.696 1339.25 298.249 1341.09 299.357C1342.91 300.465 1344.29 301.97 1345.22 303.873C1346.14 305.776 1346.6 307.906 1346.6 310.263C1346.6 312.649 1346.14 314.799 1345.22 316.714C1344.29 318.634 1342.91 320.147 1341.09 321.255C1339.25 322.363 1337.03 322.917 1334.41 322.917ZM1334.41 317.932C1336.43 317.932 1337.98 317.242 1339.06 315.862C1340.14 314.487 1340.68 312.621 1340.68 310.263C1340.68 307.906 1340.14 306.046 1339.06 304.682C1337.98 303.319 1336.43 302.637 1334.41 302.637C1332.37 302.637 1330.8 303.319 1329.71 304.682C1328.61 306.046 1328.07 307.906 1328.07 310.263C1328.07 312.621 1328.61 314.487 1329.71 315.862C1330.8 317.242 1332.37 317.932 1334.41 317.932ZM1364.62 297.866C1367.69 297.866 1369.96 298.647 1371.45 300.209C1372.95 301.771 1373.69 304.313 1373.69 307.835V322.192H1367.98V307.835C1367.98 306.159 1367.65 304.93 1366.98 304.146C1366.31 303.367 1365.16 302.978 1363.51 302.978C1361.58 302.978 1359.63 303.816 1357.67 305.492V322.192H1351.97V298.377H1357.67V300.593C1359.83 298.775 1362.15 297.866 1364.62 297.866ZM1388.43 322.917C1386.59 322.917 1384.94 322.76 1383.49 322.448C1382.04 322.136 1380.54 321.61 1378.98 320.872V315.631C1380.48 316.484 1382.01 317.1 1383.55 317.48C1385.1 317.867 1386.73 318.06 1388.43 318.06C1390.85 318.06 1392.06 317.194 1392.06 315.461C1392.06 314.723 1391.85 314.174 1391.43 313.817C1391.02 313.464 1390.38 313.175 1389.5 312.947L1386.01 312.181C1383.82 311.698 1382.16 310.908 1381.04 309.812C1379.92 308.721 1379.36 307.153 1379.36 305.108C1379.36 300.167 1382.44 297.696 1388.6 297.696C1391.3 297.696 1394.02 298.207 1396.74 299.229V304.256C1395.69 303.745 1394.48 303.333 1393.12 303.021C1391.76 302.709 1390.34 302.552 1388.86 302.552C1386.39 302.552 1385.15 303.291 1385.15 304.768C1385.15 305.449 1385.36 305.946 1385.77 306.259C1386.18 306.571 1386.8 306.827 1387.62 307.026L1391.08 307.792C1393.38 308.332 1395.08 309.142 1396.19 310.221C1397.3 311.3 1397.85 312.962 1397.85 315.205C1397.85 317.733 1397 319.65 1395.29 320.957C1393.59 322.263 1391.3 322.917 1388.43 322.917Z" fill="url(#paint1_linear_3_402)"/>
</g>
</g>
</g>
</g>
</g>
<mask id="mask0_3_402" style="mask-type:luminance" maskUnits="userSpaceOnUse" x="0" y="0" width="1498" height="349">
<g clip-path="url(#clip8_3_402)">
<g clip-path="url(#clip9_3_402)">
<g clip-path="url(#clip10_3_402)">
<g clip-path="url(#clip11_3_402)">
<g clip-path="url(#clip12_3_402)">
<g clip-path="url(#clip13_3_402)">
<path d="M537.725 64.0004H480.001V102.414H528.796V124.424H480.001V187.338H448.024V41.9906H537.725V64.0004ZM556.828 187.338V23.0954H587.558V187.338H556.828ZM714.219 122.762C714.219 124.7 713.873 129.061 713.18 135.844H639.676C640.368 146.364 642.887 154.531 647.234 160.345C651.608 166.159 657.325 169.066 664.385 169.066C667.569 169.066 670.227 168.651 672.358 167.82C674.49 166.99 676.705 165.495 679.003 163.335C681.301 161.203 684.318 157.715 688.056 152.87C688.748 151.763 690.202 151.209 692.416 151.209C694.77 151.209 697.635 151.998 701.013 153.576C704.418 155.182 708.045 157.438 711.893 160.345C702.923 179.725 687.087 189.415 664.385 189.415C646.943 189.415 633.239 184.113 623.272 173.51C613.306 162.934 608.322 148.441 608.322 130.03C608.322 117.987 610.565 107.536 615.05 98.6763C619.563 89.817 625.999 82.9925 634.36 78.203C642.749 73.4411 652.688 71.0602 664.177 71.0602C680.096 71.0602 692.416 75.559 701.137 84.5568C709.858 93.5545 714.219 106.29 714.219 122.762ZM640.091 118.402H683.073C683.073 99.8529 676.567 90.5783 663.554 90.5783C656.91 90.5783 651.581 92.9316 647.566 97.6381C643.552 102.345 641.06 109.266 640.091 118.402ZM825.057 187.338H796.402C795.849 179.587 793.675 172.25 789.882 165.329C786.062 158.407 780.899 151.348 774.393 144.149C767.886 151.348 762.737 158.407 758.944 165.329C755.124 172.25 752.936 179.587 752.383 187.338H723.728C724.421 176.126 727.784 165.841 733.82 156.483C739.827 147.153 747.953 137.436 758.197 127.331C751.137 120.271 745.392 114.138 740.963 108.934C736.533 103.757 732.768 98.1502 729.667 92.1148C726.539 86.1071 724.697 79.781 724.144 73.1366H752.798C752.936 79.5042 754.874 85.6918 758.612 91.6996C762.349 97.7349 767.61 104.213 774.393 111.135C781.175 104.213 786.436 97.7349 790.173 91.6996C793.911 85.6918 795.849 79.5042 795.987 73.1366H824.641C824.088 79.781 822.26 86.1071 819.16 92.1148C816.031 98.1502 812.252 103.757 807.823 108.934C803.393 114.138 797.648 120.271 790.588 127.331C800.832 137.436 808.971 147.153 815.007 156.483C821.015 165.841 824.364 176.126 825.057 187.338ZM842.914 187.338V73.1366H873.644V187.338H842.914ZM856.826 52.165C846.028 52.165 840.63 46.7663 840.63 35.9691V32.8545C840.63 22.0572 846.028 16.6586 856.826 16.6586H859.732C870.53 16.6586 875.928 22.0572 875.928 32.8545V35.9691C875.928 46.7663 870.53 52.165 859.732 52.165H856.826ZM957.116 189.415C940.089 189.415 926.731 186.508 917.041 180.694C907.351 174.88 902.506 166.921 902.506 156.815C902.506 151.97 904.541 148.164 908.611 145.395C912.708 142.627 918.495 141.173 925.97 141.035C926.8 149.202 929.942 155.5 935.396 159.93C940.878 164.36 948.256 166.574 957.531 166.574C974.557 166.574 983.07 160.276 983.07 147.679C983.07 142.696 980.745 138.612 976.094 135.428C971.47 132.245 963.414 128.992 951.925 125.669C935.59 121.101 923.616 115.26 916.003 108.145C908.389 101.002 904.583 91.8241 904.583 80.6116C904.583 68.0148 909.455 58.0758 919.201 50.7945C928.973 43.541 942.304 39.9142 959.192 39.9142C972.758 39.9142 984.386 43.1257 994.075 49.5487C1003.77 55.9994 1010.41 64.9694 1014.01 76.4588C1011.66 78.812 1008.4 80.8884 1004.25 82.688C1000.1 84.4875 996.429 85.3873 993.245 85.3873C990.753 85.3873 988.815 84.8613 987.431 83.8092C986.047 82.7849 984.593 80.8192 983.07 77.9123C980.302 72.5136 977.118 68.6377 973.519 66.2845C969.92 63.9312 965.144 62.7546 959.192 62.7546C944.38 62.7546 936.974 67.6687 936.974 77.497C936.974 81.3729 937.736 84.5152 939.258 86.9238C940.781 89.3601 943.411 91.575 947.149 93.5683C950.886 95.5893 956.562 97.8457 964.175 100.337C978.018 104.905 988.608 109.086 995.944 112.879C1003.28 116.699 1008.43 120.824 1011.39 125.254C1014.38 129.684 1015.88 135.152 1015.88 141.658C1015.88 151.071 1013.41 159.376 1008.49 166.574C1003.59 173.773 996.705 179.379 987.846 183.393C978.987 187.408 968.743 189.415 957.116 189.415ZM1094.78 71.0602C1109.59 71.0602 1120.8 75.8636 1128.42 85.4704C1136.03 95.1048 1139.84 109.266 1139.84 127.953C1139.84 140.135 1137.62 150.863 1133.19 160.138C1128.76 169.412 1122.54 176.61 1114.51 181.732C1106.48 186.854 1097.2 189.415 1086.68 189.415C1080.87 189.415 1073.74 188.238 1065.3 185.885V234.68H1034.57V116.741C1034.57 105.528 1034.11 97.3889 1033.19 92.3225C1032.31 87.2838 1030.48 82.9648 1027.71 79.3658C1031.59 77.1509 1035.7 75.4206 1040.05 74.1748C1044.42 72.9289 1048.55 72.306 1052.42 72.306C1055.33 72.306 1057.68 73.275 1059.48 75.213C1061.28 77.1509 1062.67 80.1271 1063.63 84.1415C1071.94 75.4206 1082.32 71.0602 1094.78 71.0602ZM1082.32 169.481C1090.9 169.481 1097.44 165.952 1101.92 158.892C1106.44 151.832 1108.69 141.519 1108.69 127.953C1108.69 115.08 1107.03 105.625 1103.71 99.5899C1100.39 93.5822 1095.13 90.5783 1087.93 90.5783C1083.5 90.5783 1079.21 91.6165 1075.05 93.6929C1070.9 95.7693 1067.65 98.3302 1065.3 101.376V104.075V165.744C1070.97 168.236 1076.65 169.481 1082.32 169.481ZM1250.68 144.357C1250.68 155.708 1251.13 163.875 1252.05 168.858C1252.93 173.842 1254.76 178.133 1257.53 181.732C1254.62 183.809 1250.88 185.497 1246.32 186.799C1241.75 188.127 1237.6 188.792 1233.86 188.792C1230.4 188.792 1227.63 187.546 1225.55 185.054C1223.48 182.563 1221.95 178.618 1220.98 173.219C1217.25 179.033 1212.82 183.186 1207.7 185.677C1202.57 188.169 1195.93 189.415 1187.76 189.415C1177.66 189.415 1169.49 186.674 1163.26 181.192C1157.03 175.738 1153.92 168.582 1153.92 159.722C1153.92 147.264 1159.15 137.948 1169.61 131.774C1180.05 125.628 1196.83 121.932 1219.95 120.686V109.889C1219.95 104.213 1218.46 99.9913 1215.5 97.2228C1212.51 94.4542 1207.97 93.07 1201.88 93.07C1197.45 93.07 1193.06 93.9282 1188.72 95.6447C1184.34 97.3889 1178.97 100.407 1172.6 104.698C1171.91 105.252 1170.94 105.528 1169.7 105.528C1167.21 105.528 1164.55 103.867 1161.72 100.545C1158.87 97.2228 1156.34 92.8623 1154.12 87.4637C1159.52 82.7572 1167.11 78.8397 1176.88 75.7113C1186.63 72.6105 1196.27 71.0602 1205.83 71.0602C1220.22 71.0602 1231.3 74.4101 1239.05 81.1099C1246.8 87.8375 1250.68 97.4304 1250.68 109.889V144.357ZM1198.56 169.481C1202.71 169.481 1206.56 168.028 1210.1 165.121C1213.62 162.214 1216.9 157.715 1219.95 151.624V136.259C1208.46 136.674 1199.78 138.571 1193.91 141.948C1188.01 145.354 1185.06 150.171 1185.06 156.4C1185.06 160.414 1186.31 163.598 1188.8 165.952C1191.29 168.305 1194.54 169.481 1198.56 169.481ZM1327.09 189.415C1288.88 189.415 1269.78 169.481 1269.78 129.615C1269.78 111.342 1274.69 97.0151 1284.52 86.6331C1294.35 76.2512 1307.92 71.0602 1325.22 71.0602C1338.79 71.0602 1349.97 74.4101 1358.77 81.1099C1367.55 87.8375 1372.7 96.9459 1374.22 108.435C1366.19 113.28 1359.55 115.703 1354.29 115.703C1352.07 115.703 1350.25 115.011 1348.81 113.626C1347.34 112.242 1346.12 110.027 1345.15 106.982C1343.08 101.168 1340.52 97.0428 1337.47 94.6065C1334.42 92.1979 1330.34 90.9936 1325.22 90.9936C1317.47 90.9936 1311.49 94.3158 1307.28 100.96C1303.04 107.605 1300.93 117.156 1300.93 129.615C1300.93 143.042 1303.04 152.898 1307.28 159.182C1311.49 165.495 1318.09 168.651 1327.09 168.651C1333.32 168.651 1338.23 166.533 1341.83 162.297C1345.43 158.089 1348.13 151.348 1349.93 142.073C1357.54 142.073 1363.01 143.457 1366.33 146.226C1369.65 148.994 1371.32 153.493 1371.32 159.722C1371.32 164.983 1369.28 169.897 1365.21 174.465C1361.11 179.033 1355.67 182.66 1348.89 185.345C1342.11 188.058 1334.84 189.415 1327.09 189.415ZM1497.56 122.762C1497.56 124.7 1497.21 129.061 1496.52 135.844H1423.02C1423.71 146.364 1426.23 154.531 1430.58 160.345C1434.95 166.159 1440.67 169.066 1447.73 169.066C1450.91 169.066 1453.57 168.651 1455.7 167.82C1457.86 166.99 1460.07 165.495 1462.34 163.335C1464.64 161.203 1467.66 157.715 1471.4 152.87C1472.09 151.763 1473.54 151.209 1475.76 151.209C1478.11 151.209 1480.98 151.998 1484.35 153.576C1487.76 155.182 1491.4 157.438 1495.28 160.345C1486.28 179.725 1470.43 189.415 1447.73 189.415C1430.28 189.415 1416.58 184.113 1406.61 173.51C1396.65 162.934 1391.66 148.441 1391.66 130.03C1391.66 117.987 1393.91 107.536 1398.39 98.6763C1402.9 89.817 1409.34 82.9925 1417.7 78.203C1426.09 73.4411 1436.03 71.0602 1447.52 71.0602C1463.44 71.0602 1475.76 75.559 1484.48 84.5568C1493.2 93.5545 1497.56 106.29 1497.56 122.762ZM1423.43 118.402H1466.41C1466.41 99.8529 1459.91 90.5783 1446.9 90.5783C1440.25 90.5783 1434.92 92.9316 1430.91 97.6381C1426.89 102.345 1424.4 109.266 1423.43 118.402Z" fill="black"/>
</g>
</g>
<g clip-path="url(#clip14_3_402)">
<g clip-path="url(#clip15_3_402)">
<path d="M568.227 295.054H553.657V304.086H566.097V309.241H553.657V322.192H547.735V289.899H568.227V295.054ZM580.199 322.746C577.87 322.746 576.166 322.258 575.086 321.281C574.007 320.298 573.467 318.784 573.467 316.739V286.15H579.176V314.865C579.176 315.887 579.347 316.597 579.688 316.995C580.028 317.392 580.639 317.591 581.52 317.591C582.4 317.591 583.181 317.506 583.863 317.336V322.278C582.528 322.59 581.306 322.746 580.199 322.746ZM592.843 311.584C593.304 315.901 595.692 318.06 600.009 318.06C601.117 318.06 602.196 317.918 603.247 317.634C604.298 317.35 605.477 316.895 606.783 316.271L608.317 320.786C606.948 321.553 605.553 322.102 604.133 322.431C602.713 322.755 601.111 322.917 599.328 322.917C596.686 322.917 594.428 322.383 592.554 321.315C590.679 320.253 589.265 318.77 588.31 316.867C587.356 314.964 586.879 312.749 586.879 310.221C586.879 307.579 587.376 305.313 588.37 303.421C589.364 301.535 590.713 300.11 592.417 299.144C594.122 298.178 596.027 297.696 598.135 297.696C601.458 297.696 604.062 298.681 605.948 300.652C607.84 302.629 608.797 305.52 608.82 309.326V311.584H592.843ZM598.135 302.552C595.351 302.552 593.659 304.086 593.056 307.153H602.821C602.679 305.563 602.225 304.398 601.458 303.66C600.685 302.922 599.578 302.552 598.135 302.552ZM634.936 322.192H628.204L623.092 314.268L618.235 322.192H611.504L619.641 309.752L611.93 298.377H618.661L623.262 305.577L627.906 298.377H634.552L626.628 310.093L634.936 322.192ZM639.494 294.245V287.812H645.203V294.245H639.494ZM639.494 322.192V298.377H645.203V322.192H639.494ZM664.374 297.696C666.476 297.696 668.342 298.164 669.972 299.101C671.608 300.039 672.881 301.45 673.79 303.336C674.699 305.228 675.153 307.551 675.153 310.306C675.153 313.061 674.699 315.382 673.79 317.267C672.881 319.159 671.608 320.573 669.972 321.511C668.342 322.448 666.476 322.917 664.374 322.917C662.102 322.917 659.887 322.05 657.728 320.318V322.192H652.019V286.15H657.728V300.252C659.858 298.548 662.074 297.696 664.374 297.696ZM663.309 317.762C665.241 317.762 666.703 317.128 667.697 315.862C668.692 314.601 669.189 312.749 669.189 310.306C669.189 307.864 668.692 306.003 667.697 304.725C666.703 303.447 665.241 302.808 663.309 302.808C661.463 302.808 659.603 303.532 657.728 304.981V315.589C659.546 317.037 661.406 317.762 663.309 317.762ZM687.21 322.746C684.881 322.746 683.177 322.258 682.097 321.281C681.018 320.298 680.478 318.784 680.478 316.739V286.15H686.187V314.865C686.187 315.887 686.358 316.597 686.699 316.995C687.039 317.392 687.65 317.591 688.53 317.591C689.411 317.591 690.192 317.506 690.874 317.336V322.278C689.539 322.59 688.317 322.746 687.21 322.746ZM699.854 311.584C700.309 315.901 702.695 318.06 707.012 318.06C708.119 318.06 709.199 317.918 710.25 317.634C711.301 317.35 712.479 316.895 713.786 316.271L715.319 320.786C713.956 321.553 712.564 322.102 711.144 322.431C709.724 322.755 708.119 322.917 706.33 322.917C703.689 322.917 701.431 322.383 699.556 321.315C697.682 320.253 696.27 318.77 695.321 316.867C694.367 314.964 693.89 312.749 693.89 310.221C693.89 307.579 694.387 305.313 695.381 303.421C696.375 301.535 697.724 300.11 699.428 299.144C701.133 298.178 703.035 297.696 705.137 297.696C708.46 297.696 711.068 298.681 712.959 300.652C714.845 302.629 715.802 305.52 715.831 309.326V311.584H699.854ZM705.137 302.552C702.354 302.552 700.664 304.086 700.067 307.153H709.824C709.682 305.563 709.227 304.398 708.46 303.66C707.693 302.922 706.586 302.552 705.137 302.552ZM740.711 322.917C736.422 322.917 732.602 322.121 729.251 320.531V315.163C732.687 316.952 736.507 317.847 740.711 317.847C742.728 317.847 744.204 317.463 745.142 316.697C746.079 315.93 746.562 314.907 746.59 313.629C746.59 312.379 746.156 311.442 745.287 310.817C744.423 310.192 743.054 309.624 741.18 309.113L738.283 308.304C736.635 307.849 735.201 307.301 733.98 306.659C732.758 306.023 731.736 305.086 730.912 303.847C730.089 302.615 729.677 301.019 729.677 299.059C729.677 295.878 730.628 293.455 732.531 291.791C734.434 290.132 737.118 289.303 740.583 289.303C742.657 289.303 744.48 289.493 746.053 289.874C747.633 290.26 749.246 290.836 750.893 291.603V296.801C747.797 295.182 744.361 294.372 740.583 294.372C737.232 294.372 735.556 295.778 735.556 298.59C735.584 299.84 735.973 300.763 736.723 301.359C737.479 301.956 738.78 302.495 740.626 302.978L743.565 303.788C745.355 304.271 746.874 304.853 748.124 305.535C749.374 306.216 750.41 307.188 751.234 308.449C752.058 309.715 752.469 311.357 752.469 313.374C752.441 316.327 751.382 318.656 749.291 320.36C747.207 322.065 744.346 322.917 740.711 322.917ZM770.491 297.696C772.592 297.696 774.458 298.164 776.089 299.101C777.725 300.039 778.997 301.45 779.906 303.336C780.815 305.228 781.269 307.551 781.269 310.306C781.269 313.061 780.815 315.382 779.906 317.267C778.997 319.159 777.725 320.573 776.089 321.511C774.458 322.448 772.592 322.917 770.491 322.917C768.218 322.917 766.003 322.05 763.845 320.318V332.162H758.136V298.377H763.845V300.252C765.975 298.548 768.19 297.696 770.491 297.696ZM769.426 317.762C771.357 317.762 772.82 317.128 773.814 315.862C774.808 314.601 775.305 312.749 775.305 310.306C775.305 307.864 774.808 306.003 773.814 304.725C772.82 303.447 771.357 302.808 769.426 302.808C767.579 302.808 765.719 303.532 763.845 304.981V315.589C765.662 317.037 767.523 317.762 769.426 317.762ZM794.894 298.377C797.706 298.377 799.844 298.795 801.31 299.63C802.77 300.47 803.741 301.592 804.224 302.995C804.707 304.404 804.948 306.174 804.948 308.304V322.192H799.239V320.02C798.189 320.985 797.16 321.681 796.155 322.107C795.144 322.533 794.042 322.746 792.849 322.746C790.349 322.746 788.341 322.028 786.825 320.591C785.302 319.159 784.541 317.194 784.541 314.694C784.541 312.138 785.331 310.156 786.91 308.747C788.483 307.344 790.648 306.642 793.403 306.642C795.646 306.642 797.592 307.082 799.239 307.963C799.211 306.884 799.077 306.017 798.839 305.364C798.595 304.711 798.118 304.205 797.407 303.847C796.697 303.495 795.646 303.319 794.255 303.319H790.25V298.377H794.894ZM793.871 318.188C795.604 318.188 797.393 317.392 799.239 315.802V312.053C797.734 311.286 796.186 310.903 794.596 310.903C793.346 310.903 792.323 311.192 791.528 311.772C790.733 312.357 790.335 313.303 790.335 314.609C790.335 315.887 790.67 316.802 791.341 317.353C792.005 317.909 792.849 318.188 793.871 318.188ZM821.521 322.917C817.687 322.888 814.755 321.758 812.728 319.525C810.694 317.299 809.677 314.197 809.677 310.221C809.677 306.301 810.694 303.24 812.728 301.036C814.755 298.837 817.687 297.724 821.521 297.696C822.884 297.696 824.057 297.781 825.04 297.951C826.017 298.122 827.031 298.42 828.082 298.846V304.171C827.031 303.66 826.045 303.305 825.125 303.106C824.199 302.907 823.182 302.808 822.075 302.808C817.758 302.836 815.599 305.293 815.599 310.178C815.599 315.234 817.715 317.762 821.947 317.762C823.992 317.762 826.079 317.151 828.21 315.93L829.871 320.701C827.315 322.178 824.532 322.917 821.521 322.917ZM838.903 311.584C839.357 315.901 841.743 318.06 846.06 318.06C847.168 318.06 848.247 317.918 849.298 317.634C850.349 317.35 851.528 316.895 852.834 316.271L854.368 320.786C853.005 321.553 851.613 322.102 850.193 322.431C848.773 322.755 847.168 322.917 845.379 322.917C842.737 322.917 840.479 322.383 838.605 321.315C836.73 320.253 835.316 318.77 834.362 316.867C833.413 314.964 832.939 312.749 832.939 310.221C832.939 307.579 833.436 305.313 834.43 303.421C835.424 301.535 836.773 300.11 838.477 299.144C840.181 298.178 842.084 297.696 844.186 297.696C847.509 297.696 850.113 298.681 851.999 300.652C853.891 302.629 854.851 305.52 854.879 309.326V311.584H838.903ZM844.186 302.552C841.402 302.552 839.712 304.086 839.116 307.153H848.872C848.73 305.563 848.276 304.398 847.509 303.66C846.742 302.922 845.634 302.552 844.186 302.552ZM867.958 322.917C866.112 322.917 864.465 322.76 863.017 322.448C861.568 322.136 860.063 321.61 858.501 320.872V315.631C860.006 316.484 861.531 317.1 863.076 317.48C864.627 317.867 866.254 318.06 867.958 318.06C870.373 318.06 871.58 317.194 871.58 315.461C871.58 314.723 871.372 314.174 870.958 313.817C870.549 313.464 869.904 313.175 869.024 312.947L865.53 312.181C863.343 311.698 861.687 310.908 860.563 309.812C859.444 308.721 858.884 307.153 858.884 305.108C858.884 300.167 861.966 297.696 868.129 297.696C870.827 297.696 873.54 298.207 876.266 299.229V304.256C875.215 303.745 874.008 303.333 872.645 303.021C871.282 302.709 869.861 302.552 868.385 302.552C865.914 302.552 864.678 303.291 864.678 304.768C864.678 305.449 864.883 305.946 865.292 306.259C865.706 306.571 866.325 306.827 867.149 307.026L870.6 307.792C872.9 308.332 874.605 309.142 875.712 310.221C876.82 311.3 877.374 312.962 877.374 315.205C877.374 317.733 876.522 319.65 874.818 320.957C873.113 322.263 870.827 322.917 867.958 322.917ZM880.944 328.626L883.5 314.907H889.465L886.099 328.626H880.944ZM914.814 322.917C910.525 322.917 906.705 322.121 903.353 320.531V315.163C906.79 316.952 910.61 317.847 914.814 317.847C916.83 317.847 918.307 317.463 919.244 316.697C920.182 315.93 920.664 314.907 920.693 313.629C920.693 312.379 920.258 311.442 919.389 310.817C918.526 310.192 917.157 309.624 915.282 309.113L912.385 308.304C910.738 307.849 909.304 307.301 908.082 306.659C906.861 306.023 905.838 305.086 905.015 303.847C904.191 302.615 903.779 301.019 903.779 299.059C903.779 295.878 904.731 293.455 906.634 291.791C908.537 290.132 911.221 289.303 914.686 289.303C916.759 289.303 918.583 289.493 920.156 289.874C921.735 290.26 923.348 290.836 924.996 291.603V296.801C921.9 295.182 918.463 294.372 914.686 294.372C911.334 294.372 909.659 295.778 909.659 298.59C909.687 299.84 910.076 300.763 910.826 301.359C911.581 301.956 912.882 302.495 914.728 302.978L917.668 303.788C919.457 304.271 920.977 304.853 922.227 305.535C923.476 306.216 924.513 307.188 925.337 308.449C926.16 309.715 926.572 311.357 926.572 313.374C926.544 316.327 925.484 318.656 923.394 320.36C921.309 322.065 918.449 322.917 914.814 322.917ZM936.754 311.584C937.209 315.901 939.594 318.06 943.912 318.06C945.019 318.06 946.099 317.918 947.149 317.634C948.2 317.35 949.379 316.895 950.686 316.271L952.219 320.786C950.856 321.553 949.464 322.102 948.044 322.431C946.624 322.755 945.019 322.917 943.23 322.917C940.589 322.917 938.331 322.383 936.456 321.315C934.581 320.253 933.167 318.77 932.213 316.867C931.264 314.964 930.79 312.749 930.79 310.221C930.79 307.579 931.287 305.313 932.281 303.421C933.275 301.535 934.624 300.11 936.328 299.144C938.032 298.178 939.935 297.696 942.037 297.696C945.36 297.696 947.965 298.681 949.851 300.652C951.742 302.629 952.702 305.52 952.731 309.326V311.584H936.754ZM942.037 302.552C939.254 302.552 937.564 304.086 936.967 307.153H946.723C946.581 305.563 946.127 304.398 945.36 303.66C944.593 302.922 943.486 302.552 942.037 302.552ZM965.972 298.377C968.783 298.377 970.922 298.795 972.388 299.63C973.848 300.47 974.819 301.592 975.302 302.995C975.785 304.404 976.026 306.174 976.026 308.304V322.192H970.317V320.02C969.266 320.985 968.238 321.681 967.233 322.107C966.222 322.533 965.12 322.746 963.927 322.746C961.427 322.746 959.419 322.028 957.903 320.591C956.38 319.159 955.619 317.194 955.619 314.694C955.619 312.138 956.409 310.156 957.988 308.747C959.561 307.344 961.725 306.642 964.48 306.642C966.724 306.642 968.67 307.082 970.317 307.963C970.289 306.884 970.155 306.017 969.917 305.364C969.672 304.711 969.195 304.205 968.485 303.847C967.775 303.495 966.724 303.319 965.333 303.319H961.328V298.377H965.972ZM964.949 318.188C966.682 318.188 968.471 317.392 970.317 315.802V312.053C968.812 311.286 967.264 310.903 965.673 310.903C964.424 310.903 963.401 311.192 962.606 311.772C961.811 312.357 961.413 313.303 961.413 314.609C961.413 315.887 961.748 316.802 962.418 317.353C963.083 317.909 963.927 318.188 964.949 318.188ZM1010.07 297.866C1013.02 297.866 1015.22 298.653 1016.67 300.226C1018.12 301.805 1018.84 304.342 1018.84 307.835V322.192H1013.13V307.835C1013.13 306.159 1012.82 304.93 1012.2 304.146C1011.57 303.367 1010.49 302.978 1008.96 302.978C1007.11 302.978 1005.21 303.859 1003.25 305.62C1003.33 306.301 1003.38 307.04 1003.38 307.835V322.192H997.668V307.835C997.668 306.159 997.356 304.93 996.731 304.146C996.106 303.367 995.027 302.978 993.493 302.978C991.647 302.978 989.787 303.802 987.912 305.449V322.192H982.203V298.377H987.912V300.55C990.042 298.761 992.272 297.866 994.601 297.866C996.476 297.866 998.046 298.17 999.313 298.778C1000.57 299.391 1001.53 300.351 1002.18 301.658C1003.46 300.38 1004.73 299.428 1006 298.803C1007.26 298.178 1008.62 297.866 1010.07 297.866ZM1031.84 322.746C1029.51 322.746 1027.8 322.258 1026.72 321.281C1025.64 320.298 1025.1 318.784 1025.1 316.739V286.15H1030.81V314.865C1030.81 315.887 1030.98 316.597 1031.33 316.995C1031.67 317.392 1032.28 317.591 1033.16 317.591C1034.04 317.591 1034.82 317.506 1035.5 317.336V322.278C1034.17 322.59 1032.94 322.746 1031.84 322.746ZM1044.48 311.584C1044.94 315.901 1047.33 318.06 1051.65 318.06C1052.75 318.06 1053.83 317.918 1054.88 317.634C1055.94 317.35 1057.11 316.895 1058.42 316.271L1059.95 320.786C1058.59 321.553 1057.19 322.102 1055.77 322.431C1054.35 322.755 1052.75 322.917 1050.97 322.917C1048.32 322.917 1046.07 322.383 1044.19 321.315C1042.32 320.253 1040.9 318.77 1039.95 316.867C1038.99 314.964 1038.52 312.749 1038.52 310.221C1038.52 307.579 1039.01 305.313 1040.01 303.421C1041 301.535 1042.35 300.11 1044.05 299.144C1045.76 298.178 1047.66 297.696 1049.77 297.696C1053.1 297.696 1055.7 298.681 1057.59 300.652C1059.48 302.629 1060.43 305.52 1060.46 309.326V311.584H1044.48ZM1049.77 302.552C1046.99 302.552 1045.3 304.086 1044.69 307.153H1054.46C1054.32 305.563 1053.86 304.398 1053.1 303.66C1052.32 302.922 1051.22 302.552 1049.77 302.552ZM1073.54 322.917C1071.69 322.917 1070.04 322.76 1068.59 322.448C1067.15 322.136 1065.64 321.61 1064.08 320.872V315.631C1065.58 316.484 1067.11 317.1 1068.66 317.48C1070.21 317.867 1071.83 318.06 1073.54 318.06C1075.95 318.06 1077.16 317.194 1077.16 315.461C1077.16 314.723 1076.95 314.174 1076.54 313.817C1076.13 313.464 1075.48 313.175 1074.6 312.947L1071.11 312.181C1068.92 311.698 1067.27 310.908 1066.15 309.812C1065.02 308.721 1064.46 307.153 1064.46 305.108C1064.46 300.167 1067.54 297.696 1073.71 297.696C1076.4 297.696 1079.12 298.207 1081.84 299.229V304.256C1080.79 303.745 1079.59 303.333 1078.22 303.021C1076.86 302.709 1075.44 302.552 1073.96 302.552C1071.49 302.552 1070.26 303.291 1070.26 304.768C1070.26 305.449 1070.46 305.946 1070.88 306.259C1071.29 306.571 1071.9 306.827 1072.73 307.026L1076.18 307.792C1078.48 308.332 1080.18 309.142 1081.29 310.221C1082.4 311.3 1082.95 312.962 1082.95 315.205C1082.95 317.733 1082.1 319.65 1080.4 320.957C1078.69 322.263 1076.4 322.917 1073.54 322.917ZM1096.5 322.917C1094.65 322.917 1093.01 322.76 1091.56 322.448C1090.11 322.136 1088.6 321.61 1087.04 320.872V315.631C1088.55 316.484 1090.07 317.1 1091.63 317.48C1093.17 317.867 1094.8 318.06 1096.5 318.06C1098.91 318.06 1100.12 317.194 1100.12 315.461C1100.12 314.723 1099.92 314.174 1099.51 313.817C1099.09 313.464 1098.45 313.175 1097.56 312.947L1094.07 312.181C1091.88 311.698 1090.23 310.908 1089.1 309.812C1087.98 308.721 1087.43 307.153 1087.43 305.108C1087.43 300.167 1090.51 297.696 1096.67 297.696C1099.37 297.696 1102.08 298.207 1104.81 299.229V304.256C1103.76 303.745 1102.55 303.333 1101.19 303.021C1099.82 302.709 1098.4 302.552 1096.93 302.552C1094.45 302.552 1093.22 303.291 1093.22 304.768C1093.22 305.449 1093.42 305.946 1093.83 306.259C1094.25 306.571 1094.87 306.827 1095.69 307.026L1099.14 307.792C1101.44 308.332 1103.15 309.142 1104.25 310.221C1105.36 311.3 1105.91 312.962 1105.91 315.205C1105.91 317.733 1105.06 319.65 1103.36 320.957C1101.65 322.263 1099.37 322.917 1096.5 322.917ZM1139.69 322.192L1132.11 309.539H1127.17V322.192H1121.24V289.899H1133.47C1141.08 289.899 1144.89 293.18 1144.89 299.74C1144.89 302.183 1144.32 304.185 1143.18 305.748C1142.05 307.31 1140.36 308.389 1138.11 308.985L1146.29 322.192H1139.69ZM1127.17 294.969V304.469H1133.47C1137.08 304.469 1138.88 302.851 1138.88 299.613C1138.88 297.994 1138.44 296.815 1137.54 296.077C1136.65 295.338 1135.29 294.969 1133.47 294.969H1127.17ZM1156.05 311.584C1156.5 315.901 1158.89 318.06 1163.21 318.06C1164.32 318.06 1165.39 317.918 1166.45 317.634C1167.5 317.35 1168.68 316.895 1169.98 316.271L1171.52 320.786C1170.15 321.553 1168.76 322.102 1167.34 322.431C1165.92 322.755 1164.32 322.917 1162.53 322.917C1159.88 322.917 1157.63 322.383 1155.75 321.315C1153.88 320.253 1152.47 318.77 1151.52 316.867C1150.56 314.964 1150.09 312.749 1150.09 310.221C1150.09 307.579 1150.58 305.313 1151.58 303.421C1152.57 301.535 1153.92 300.11 1155.62 299.144C1157.33 298.178 1159.23 297.696 1161.33 297.696C1164.66 297.696 1167.26 298.681 1169.16 300.652C1171.04 302.629 1172 305.52 1172.03 309.326V311.584H1156.05ZM1161.33 302.552C1158.55 302.552 1156.86 304.086 1156.26 307.153H1166.02C1165.88 305.563 1165.42 304.398 1164.66 303.66C1163.89 302.922 1162.78 302.552 1161.33 302.552ZM1185.11 322.917C1183.26 322.917 1181.61 322.76 1180.16 322.448C1178.72 322.136 1177.21 321.61 1175.65 320.872V315.631C1177.15 316.484 1178.68 317.1 1180.22 317.48C1181.77 317.867 1183.4 318.06 1185.11 318.06C1187.52 318.06 1188.73 317.194 1188.73 315.461C1188.73 314.723 1188.52 314.174 1188.11 313.817C1187.7 313.464 1187.05 313.175 1186.17 312.947L1182.68 312.181C1180.49 311.698 1178.83 310.908 1177.71 309.812C1176.59 308.721 1176.03 307.153 1176.03 305.108C1176.03 300.167 1179.11 297.696 1185.28 297.696C1187.97 297.696 1190.69 298.207 1193.41 299.229V304.256C1192.36 303.745 1191.16 303.333 1189.79 303.021C1188.43 302.709 1187.01 302.552 1185.53 302.552C1183.06 302.552 1181.83 303.291 1181.83 304.768C1181.83 305.449 1182.03 305.946 1182.44 306.259C1182.85 306.571 1183.47 306.827 1184.3 307.026L1187.75 307.792C1190.05 308.332 1191.75 309.142 1192.86 310.221C1193.97 311.3 1194.52 312.962 1194.52 315.205C1194.52 317.733 1193.67 319.65 1191.96 320.957C1190.26 322.263 1187.97 322.917 1185.11 322.917ZM1204.45 311.584C1204.9 315.901 1207.29 318.06 1211.61 318.06C1212.71 318.06 1213.79 317.918 1214.84 317.634C1215.89 317.35 1217.07 316.895 1218.38 316.271L1219.91 320.786C1218.55 321.553 1217.16 322.102 1215.74 322.431C1214.32 322.755 1212.71 322.917 1210.92 322.917C1208.28 322.917 1206.02 322.383 1204.15 321.315C1202.28 320.253 1200.86 318.77 1199.91 316.867C1198.96 314.964 1198.48 312.749 1198.48 310.221C1198.48 307.579 1198.98 305.313 1199.97 303.421C1200.97 301.535 1202.32 300.11 1204.02 299.144C1205.73 298.178 1207.63 297.696 1209.73 297.696C1213.05 297.696 1215.66 298.681 1217.54 300.652C1219.44 302.629 1220.4 305.52 1220.42 309.326V311.584H1204.45ZM1209.73 302.552C1206.95 302.552 1205.26 304.086 1204.66 307.153H1214.42C1214.27 305.563 1213.82 304.398 1213.05 303.66C1212.29 302.922 1211.18 302.552 1209.73 302.552ZM1237.93 297.866H1238.91V302.978H1237.93C1235.6 302.978 1233.31 303.859 1231.07 305.62V322.192H1225.36V298.377H1231.07V300.763C1233.25 298.832 1235.54 297.866 1237.93 297.866ZM1259.1 298.377H1264.98L1256.59 322.576H1249.43L1241.04 298.377H1246.91L1253.01 317.123L1259.1 298.377ZM1277.55 298.377C1280.36 298.377 1282.49 298.795 1283.95 299.63C1285.42 300.47 1286.39 301.592 1286.88 302.995C1287.36 304.404 1287.6 306.174 1287.6 308.304V322.192H1281.89V320.02C1280.84 320.985 1279.81 321.681 1278.8 322.107C1277.79 322.533 1276.69 322.746 1275.5 322.746C1273 322.746 1270.99 322.028 1269.47 320.591C1267.95 319.159 1267.19 317.194 1267.19 314.694C1267.19 312.138 1267.98 310.156 1269.55 308.747C1271.13 307.344 1273.3 306.642 1276.06 306.642C1278.3 306.642 1280.24 307.082 1281.89 307.963C1281.86 306.884 1281.73 306.017 1281.48 305.364C1281.24 304.711 1280.77 304.205 1280.06 303.847C1279.35 303.495 1278.3 303.319 1276.91 303.319H1272.9V298.377H1277.55ZM1276.52 318.188C1278.26 318.188 1280.05 317.392 1281.89 315.802V312.053C1280.39 311.286 1278.84 310.903 1277.25 310.903C1276 310.903 1274.98 311.192 1274.18 311.772C1273.39 312.357 1272.99 313.303 1272.99 314.609C1272.99 315.887 1273.32 316.802 1273.98 317.353C1274.66 317.909 1275.5 318.188 1276.52 318.188ZM1306.13 304.086H1300.68V314.865C1300.68 315.887 1300.85 316.597 1301.19 316.995C1301.53 317.392 1302.16 317.591 1303.07 317.591C1303.97 317.591 1304.84 317.478 1305.66 317.25V322.235C1304.05 322.576 1302.71 322.746 1301.66 322.746C1299.3 322.746 1297.6 322.249 1296.55 321.255C1295.5 320.261 1294.97 318.727 1294.97 316.654V304.086H1291.82V298.931H1294.97V290.836H1300.68V298.931H1306.13V304.086ZM1311.07 294.245V287.812H1316.78V294.245H1311.07ZM1311.07 322.192V298.377H1316.78V322.192H1311.07ZM1334.41 322.917C1331.77 322.917 1329.53 322.363 1327.68 321.255C1325.84 320.147 1324.45 318.634 1323.53 316.714C1322.61 314.799 1322.14 312.649 1322.14 310.263C1322.14 307.906 1322.61 305.776 1323.53 303.873C1324.45 301.97 1325.84 300.465 1327.68 299.357C1329.53 298.249 1331.77 297.696 1334.41 297.696C1337.03 297.696 1339.25 298.249 1341.09 299.357C1342.91 300.465 1344.29 301.97 1345.22 303.873C1346.14 305.776 1346.6 307.906 1346.6 310.263C1346.6 312.649 1346.14 314.799 1345.22 316.714C1344.29 318.634 1342.91 320.147 1341.09 321.255C1339.25 322.363 1337.03 322.917 1334.41 322.917ZM1334.41 317.932C1336.43 317.932 1337.98 317.242 1339.06 315.862C1340.14 314.487 1340.68 312.621 1340.68 310.263C1340.68 307.906 1340.14 306.046 1339.06 304.682C1337.98 303.319 1336.43 302.637 1334.41 302.637C1332.37 302.637 1330.8 303.319 1329.71 304.682C1328.61 306.046 1328.07 307.906 1328.07 310.263C1328.07 312.621 1328.61 314.487 1329.71 315.862C1330.8 317.242 1332.37 317.932 1334.41 317.932ZM1364.62 297.866C1367.69 297.866 1369.96 298.647 1371.45 300.209C1372.95 301.771 1373.69 304.313 1373.69 307.835V322.192H1367.98V307.835C1367.98 306.159 1367.65 304.93 1366.98 304.146C1366.31 303.367 1365.16 302.978 1363.51 302.978C1361.58 302.978 1359.63 303.816 1357.67 305.492V322.192H1351.97V298.377H1357.67V300.593C1359.83 298.775 1362.15 297.866 1364.62 297.866ZM1388.43 322.917C1386.59 322.917 1384.94 322.76 1383.49 322.448C1382.04 322.136 1380.54 321.61 1378.98 320.872V315.631C1380.48 316.484 1382.01 317.1 1383.55 317.48C1385.1 317.867 1386.73 318.06 1388.43 318.06C1390.85 318.06 1392.06 317.194 1392.06 315.461C1392.06 314.723 1391.85 314.174 1391.43 313.817C1391.02 313.464 1390.38 313.175 1389.5 312.947L1386.01 312.181C1383.82 311.698 1382.16 310.908 1381.04 309.812C1379.92 308.721 1379.36 307.153 1379.36 305.108C1379.36 300.167 1382.44 297.696 1388.6 297.696C1391.3 297.696 1394.02 298.207 1396.74 299.229V304.256C1395.69 303.745 1394.48 303.333 1393.12 303.021C1391.76 302.709 1390.34 302.552 1388.86 302.552C1386.39 302.552 1385.15 303.291 1385.15 304.768C1385.15 305.449 1385.36 305.946 1385.77 306.259C1386.18 306.571 1386.8 306.827 1387.62 307.026L1391.08 307.792C1393.38 308.332 1395.08 309.142 1396.19 310.221C1397.3 311.3 1397.85 312.962 1397.85 315.205C1397.85 317.733 1397 319.65 1395.29 320.957C1393.59 322.263 1391.3 322.917 1388.43 322.917Z" fill="black"/>
</g>
</g>
</g>
</g>
<g clip-path="url(#clip16_3_402)">
<g clip-path="url(#clip17_3_402)">
<path d="M299.568 3.62411L297.756 0H99.7897L0.579834 174.41L99.3367 348.82H297.303L396.513 174.41L299.568 3.62411ZM122.893 62.5158L16.8883 163.991L101.149 15.4024L122.893 62.5158ZM292.32 14.9494L321.313 176.675L139.202 64.7809L292.32 14.9494ZM132.86 71.5761L318.595 185.735L132.86 291.287V71.5761ZM320.86 194.796L288.243 334.324L140.561 297.63L320.86 194.796ZM123.799 287.663L16.8883 176.675L123.799 73.8411V287.663ZM122.44 299.442L101.602 334.324L24.1365 197.514L122.44 299.442ZM130.595 303.972L272.841 339.76H108.85L130.595 303.972ZM331.279 189.359L383.829 178.034L298.662 328.434L331.279 189.359ZM382.923 169.427L331.279 180.752L304.552 30.8049L382.923 169.427ZM130.595 57.9857L107.944 9.06026H280.995L130.595 57.9857Z" fill="white"/>
</g>
</g>
</g>
</g>
</mask>
<g mask="url(#mask0_3_402)">
<path d="M1497.6 0H0.579834V348.82H1497.6V0Z" fill="url(#paint2_linear_3_402)"/>
</g>
</g>
<defs>
<linearGradient id="paint0_linear_3_402" x1="448.024" y1="125.669" x2="1497.56" y2="125.669" gradientUnits="userSpaceOnUse">
<stop stop-color="#989898"/>
<stop offset="1" stop-color="#4B4B4B"/>
</linearGradient>
<linearGradient id="paint1_linear_3_402" x1="547.735" y1="309.156" x2="1397.85" y2="309.156" gradientUnits="userSpaceOnUse">
<stop stop-color="#989898"/>
<stop offset="1" stop-color="#4B4B4B"/>
</linearGradient>
<linearGradient id="paint2_linear_3_402" x1="0.579834" y1="201.618" x2="1490.11" y2="310.291" gradientUnits="userSpaceOnUse">
<stop stop-color="#6EE2F5"/>
<stop offset="1" stop-color="#6454F0"/>
</linearGradient>
<clipPath id="clip0_3_402">
<rect width="1497.02" height="348.82" fill="white" transform="translate(0.579834)"/>
</clipPath>
<clipPath id="clip1_3_402">
<rect width="1497.02" height="348.82" fill="white" transform="translate(0.579834)"/>
</clipPath>
<clipPath id="clip2_3_402">
<rect width="1049.62" height="315.503" fill="white" transform="translate(447.983 16.6586)"/>
</clipPath>
<clipPath id="clip3_3_402">
<rect width="1049.62" height="315.503" fill="white" transform="translate(447.983 16.6586)"/>
</clipPath>
<clipPath id="clip4_3_402">
<rect width="1049.62" height="218.022" fill="white" transform="translate(447.983 16.6586)"/>
</clipPath>
<clipPath id="clip5_3_402">
<rect width="1049.62" height="218.022" fill="white" transform="translate(447.983 16.6586)"/>
</clipPath>
<clipPath id="clip6_3_402">
<rect width="850.191" height="46.0116" fill="white" transform="translate(547.697 286.15)"/>
</clipPath>
<clipPath id="clip7_3_402">
<rect width="850.191" height="46.0116" fill="white" transform="translate(547.697 286.15)"/>
</clipPath>
<clipPath id="clip8_3_402">
<rect width="1497.02" height="348.82" fill="white" transform="translate(0.579834)"/>
</clipPath>
<clipPath id="clip9_3_402">
<rect width="1497.02" height="348.82" fill="white" transform="translate(0.579834)"/>
</clipPath>
<clipPath id="clip10_3_402">
<rect width="1049.62" height="315.503" fill="white" transform="translate(447.983 16.6586)"/>
</clipPath>
<clipPath id="clip11_3_402">
<rect width="1049.62" height="315.503" fill="white" transform="translate(447.983 16.6586)"/>
</clipPath>
<clipPath id="clip12_3_402">
<rect width="1049.62" height="218.022" fill="white" transform="translate(447.983 16.6586)"/>
</clipPath>
<clipPath id="clip13_3_402">
<rect width="1049.62" height="218.022" fill="white" transform="translate(447.983 16.6586)"/>
</clipPath>
<clipPath id="clip14_3_402">
<rect width="850.191" height="46.0116" fill="white" transform="translate(547.697 286.15)"/>
</clipPath>
<clipPath id="clip15_3_402">
<rect width="850.191" height="46.0116" fill="white" transform="translate(547.697 286.15)"/>
</clipPath>
<clipPath id="clip16_3_402">
<rect width="395.933" height="348.82" fill="white" transform="translate(0.579834)"/>
</clipPath>
<clipPath id="clip17_3_402">
<rect width="395.933" height="348.82" fill="white" transform="translate(0.579834)"/>
</clipPath>
</defs>
</svg>
