<svg width="1500" height="321" viewBox="0 0 1500 321" fill="none" xmlns="http://www.w3.org/2000/svg">
<g clip-path="url(#clip0_1_128)">
<g clip-path="url(#clip1_1_128)">
<g clip-path="url(#clip2_1_128)">
<g clip-path="url(#clip3_1_128)">
<g clip-path="url(#clip4_1_128)">
<g clip-path="url(#clip5_1_128)">
<g clip-path="url(#clip6_1_128)">
<path d="M504.432 91.6766V120.218H452.686V179.159H416.718V22.7584H512.09V51.3003H452.686V91.6766H504.432ZM568.013 15.1008V179.159H534.134V15.1008H568.013ZM689.374 144.119V172.429C681.299 177.689 669 180.319 652.479 180.319C633.141 180.319 618.089 174.703 607.322 163.472C596.555 152.272 591.172 137.854 591.172 120.218C591.172 101.5 596.4 86.8345 606.858 76.2222C617.285 65.6408 630.171 60.3501 645.517 60.3501C661.266 60.3501 673.703 64.9447 682.831 74.1338C691.989 83.3538 696.568 97.091 696.568 115.345C696.568 118.904 695.933 125.014 694.665 133.677H625.515C627.835 140.175 631.857 145.202 637.581 148.76C643.336 152.318 650.236 154.097 658.28 154.097C670.161 154.097 680.526 150.771 689.374 144.119ZM646.863 86.1074C641.449 86.1074 636.653 88.0721 632.476 92.0014C628.299 95.9617 625.53 101.809 624.169 109.544H665.009V106.76C663.895 92.9915 657.847 86.1074 646.863 86.1074ZM768.224 143.887L747.108 179.159H710.444L752.445 120.218L712.997 61.5104H750.588L769.616 96.5496L790.733 61.5104H827.86L785.628 120.45L824.844 179.159H787.948L768.224 143.887ZM877.751 61.5104V179.159H843.872V61.5104H877.751ZM874.734 13.4765C878.601 17.3439 880.535 21.9849 880.535 27.3993C880.535 32.8138 878.601 37.4548 874.734 41.3222C870.867 45.1897 866.226 47.1234 860.811 47.1234C855.397 47.1234 850.756 45.1897 846.888 41.3222C843.021 37.4548 841.087 32.8138 841.087 27.3993C841.087 21.9849 843.021 17.3439 846.888 13.4765C850.756 9.60902 855.397 7.67529 860.811 7.67529C866.226 7.67529 870.867 9.60902 874.734 13.4765ZM1005.14 133.677C1005.14 147.755 999.962 159.156 989.598 167.881C979.233 176.637 965.465 181.015 948.293 181.015C929.884 181.015 914.878 177.766 903.276 171.269V135.302C917.353 145.512 932.359 150.617 948.293 150.617C953.708 150.617 958.194 149.178 961.752 146.301C965.31 143.454 967.089 139.71 967.089 135.069C967.089 133.523 966.857 132.053 966.393 130.661C965.929 129.268 965.078 127.953 963.84 126.716C962.603 125.478 961.396 124.426 960.22 123.56C959.076 122.725 957.374 121.719 955.115 120.543C952.888 119.399 951 118.439 949.453 117.666C947.906 116.892 945.617 115.81 942.585 114.417C939.584 113.025 937.155 111.942 935.298 111.169C925.243 106.528 917.152 100.804 911.026 93.997C904.931 87.1903 901.884 78.1405 901.884 66.8475C901.884 53.3887 906.834 42.5134 916.735 34.2216C926.635 25.9607 940.326 21.8302 957.807 21.8302C973.432 21.8302 986.89 24.4601 998.183 29.7198V63.1347C985.653 55.8639 972.658 52.2285 959.199 52.2285C953.166 52.2285 948.556 53.4661 945.369 55.9412C942.213 58.4164 940.636 61.5877 940.636 65.4552C940.636 69.3226 942.569 72.7569 946.437 75.7581C950.304 78.7902 956.105 82.0079 963.84 85.4113C968.636 87.5771 972.612 89.4644 975.768 91.0733C978.954 92.7131 982.59 94.9562 986.674 97.8026C990.789 100.68 994.037 103.697 996.42 106.852C998.833 110.039 1000.89 113.953 1002.59 118.594C1004.29 123.235 1005.14 128.263 1005.14 133.677ZM1059.91 161.755V222.552H1026.03V61.5104H1059.91V79.6101C1068.11 66.6154 1079.94 60.1181 1095.41 60.1181C1110.57 60.1181 1122.75 65.4861 1131.94 76.2222C1141.16 86.9892 1145.77 101.577 1145.77 119.986C1145.77 137.467 1141.31 151.932 1132.4 163.379C1123.52 174.827 1111.19 180.551 1095.41 180.551C1079.48 180.551 1067.64 174.286 1059.91 161.755ZM1059.91 119.058C1059.91 129.114 1062.38 137.158 1067.33 143.191C1072.28 149.224 1078.63 152.241 1086.36 152.241C1093.79 152.241 1099.82 149.41 1104.46 143.748C1109.1 138.117 1111.42 130.429 1111.42 120.683C1111.42 110.008 1109.06 101.933 1104.32 96.4568C1099.62 90.9495 1093.63 88.1959 1086.36 88.1959C1079.25 88.1959 1073.06 90.9031 1067.8 96.3175C1062.54 101.732 1059.91 109.312 1059.91 119.058ZM1210.92 155.954C1215.72 155.954 1219.43 154.484 1222.06 151.545C1224.69 148.606 1226.01 144.583 1226.01 139.478V130.893H1215.1C1209.38 130.893 1204.97 132.13 1201.87 134.605C1198.78 137.081 1197.23 140.252 1197.23 144.119C1197.23 152.009 1201.8 155.954 1210.92 155.954ZM1227.63 179.159V164.772C1222.68 174.827 1212.94 179.855 1198.39 179.855C1186.95 179.855 1178.02 176.606 1171.62 170.109C1165.18 163.611 1161.96 155.49 1161.96 145.744C1161.96 134.451 1166.11 125.664 1174.4 119.383C1182.66 113.133 1194.91 110.008 1211.16 110.008H1226.01V101.887C1226.01 91.986 1219.43 87.0356 1206.28 87.0356C1193.6 87.0356 1181.84 90.5937 1171.01 97.7098V67.3116C1180.29 62.0518 1193.68 59.4219 1211.16 59.4219C1227.86 59.4219 1240.32 63.0109 1248.52 70.189C1256.72 77.3979 1260.82 88.5826 1260.82 103.743V179.159H1227.63ZM1375.45 145.28V173.589C1366.32 178.54 1355.34 181.015 1342.5 181.015C1324.86 181.015 1310.32 175.399 1298.87 164.168C1287.42 152.968 1281.7 138.473 1281.7 120.683C1282.01 103.047 1287.73 88.4588 1298.87 76.9183C1310.01 65.4088 1325.25 59.654 1344.58 59.654C1356.5 59.654 1366.78 61.8971 1375.45 66.3834V95.3893C1367.25 90.2843 1358.12 87.7318 1348.06 87.7318C1338.63 87.7318 1330.97 90.5473 1325.09 96.1783C1319.21 101.84 1316.2 110.008 1316.04 120.683C1316.66 131.047 1319.76 139.092 1325.32 144.816C1330.89 150.539 1338.24 153.401 1347.37 153.401C1357.11 153.401 1366.47 150.694 1375.45 145.28ZM1488.69 144.119V172.429C1480.64 177.689 1468.34 180.319 1451.79 180.319C1432.45 180.319 1417.4 174.703 1406.63 163.472C1395.9 152.272 1390.53 137.854 1390.53 120.218C1390.53 101.5 1395.74 86.8345 1406.17 76.2222C1416.63 65.6408 1429.51 60.3501 1444.83 60.3501C1460.61 60.3501 1473.06 64.9447 1482.19 74.1338C1491.32 83.3538 1495.88 97.091 1495.88 115.345C1495.88 118.904 1495.26 125.014 1494.02 133.677H1424.87C1427.19 140.175 1431.22 145.202 1436.94 148.76C1442.66 152.318 1449.55 154.097 1457.59 154.097C1469.5 154.097 1479.87 150.771 1488.69 144.119ZM1446.22 86.1074C1440.81 86.1074 1436.01 88.0721 1431.83 92.0014C1427.66 95.9617 1424.87 101.809 1423.48 109.544H1464.32V106.76C1463.24 92.9915 1457.2 86.1074 1446.22 86.1074Z" fill="url(#paint0_linear_1_128)"/>
</g>
</g>
<g clip-path="url(#clip7_1_128)">
<g clip-path="url(#clip8_1_128)">
<path d="M622.344 279.672H609.118V289.171H620.517V292.35H609.118V304.187H605.574V276.494H622.344V279.672ZM632.501 304.662C630.674 304.662 629.359 304.297 628.555 303.566C627.751 302.836 627.349 301.606 627.349 299.876V273.279H630.783V298.963C630.783 299.937 630.934 300.602 631.237 300.958C631.543 301.308 632.123 301.484 632.976 301.484C633.658 301.484 634.267 301.411 634.802 301.265V304.407C633.828 304.577 633.061 304.662 632.501 304.662ZM641.342 294.359C641.391 296.6 641.951 298.391 643.023 299.73C644.095 301.07 645.8 301.74 648.138 301.74C649.916 301.74 651.862 301.24 653.976 300.242L655.043 303.091C652.826 304.236 650.427 304.809 647.845 304.809C645.702 304.809 643.875 304.358 642.365 303.457C640.855 302.556 639.71 301.301 638.931 299.694C638.151 298.086 637.762 296.211 637.762 294.067C637.762 291.802 638.168 289.87 638.982 288.273C639.8 286.68 640.904 285.469 642.292 284.641C643.68 283.813 645.239 283.399 646.969 283.399C649.624 283.399 651.706 284.227 653.216 285.883C654.726 287.54 655.481 289.914 655.481 293.008V294.359H641.342ZM646.969 286.468C643.948 286.468 642.146 288.136 641.561 291.473H651.864C651.743 289.768 651.28 288.506 650.476 287.688C649.672 286.875 648.503 286.468 646.969 286.468ZM677.066 304.187H672.938L667.604 296.332L662.489 304.187H658.36L665.485 293.629L658.726 283.983H662.854L667.75 291.217L672.682 283.983H676.738L669.796 293.921L677.066 304.187ZM681.633 280.184V274.667H685.068V280.184H681.633ZM681.633 304.187V283.983H685.068V304.187H681.633ZM700.924 283.399C703.652 283.399 705.825 284.312 707.442 286.139C709.064 287.966 709.875 290.621 709.875 294.104C709.875 297.587 709.064 300.242 707.442 302.068C705.825 303.895 703.652 304.809 700.924 304.809C698.951 304.809 697.003 303.993 695.078 302.361V304.187H691.644V273.279H695.078V285.883C697.027 284.227 698.975 283.399 700.924 283.399ZM700.449 301.63C702.373 301.63 703.835 300.989 704.833 299.708C705.832 298.432 706.331 296.564 706.331 294.104C706.331 291.644 705.832 289.78 704.833 288.514C703.835 287.247 702.373 286.614 700.449 286.614C698.622 286.614 696.832 287.369 695.078 288.879V299.365C696.881 300.875 698.671 301.63 700.449 301.63ZM720.397 304.662C718.571 304.662 717.255 304.297 716.452 303.566C715.648 302.836 715.246 301.606 715.246 299.876V273.279H718.673V298.963C718.673 299.937 718.826 300.602 719.133 300.958C719.435 301.308 720.013 301.484 720.865 301.484C721.547 301.484 722.156 301.411 722.692 301.265V304.407C721.717 304.577 720.953 304.662 720.397 304.662ZM729.232 294.359C729.28 296.6 729.841 298.391 730.912 299.73C731.984 301.07 733.689 301.74 736.027 301.74C737.805 301.74 739.754 301.24 741.873 300.242L742.932 303.091C740.716 304.236 738.317 304.809 735.735 304.809C733.591 304.809 731.765 304.358 730.255 303.457C728.744 302.556 727.6 301.301 726.82 299.694C726.041 298.086 725.651 296.211 725.651 294.067C725.651 291.802 726.06 289.87 726.879 288.273C727.692 286.68 728.793 285.469 730.182 284.641C731.57 283.813 733.129 283.399 734.858 283.399C737.513 283.399 739.595 284.227 741.106 285.883C742.616 287.54 743.371 289.914 743.371 293.008V294.359H729.232ZM734.858 286.468C731.838 286.468 730.035 288.136 729.451 291.473H739.754C739.632 289.768 739.169 288.506 738.365 287.688C737.562 286.875 736.393 286.468 734.858 286.468ZM764.78 304.809C761.249 304.809 758.095 304.151 755.318 302.836V299.474C758.119 300.96 761.273 301.703 764.78 301.703C766.802 301.703 768.281 301.277 769.216 300.424C770.156 299.572 770.626 298.451 770.626 297.063C770.626 295.748 770.193 294.761 769.325 294.104C768.463 293.446 767.192 292.874 765.511 292.387L763.027 291.692C761.614 291.278 760.408 290.803 759.41 290.267C758.411 289.732 757.576 288.957 756.903 287.944C756.236 286.935 755.902 285.615 755.902 283.983C755.902 281.377 756.662 279.392 758.182 278.028C759.707 276.664 761.87 275.982 764.671 275.982C766.303 275.982 767.74 276.133 768.982 276.435C770.224 276.742 771.515 277.2 772.855 277.809V281.097C770.37 279.757 767.642 279.088 764.671 279.088C762.868 279.088 761.553 279.507 760.725 280.344C759.897 281.187 759.483 282.339 759.483 283.801C759.507 285.14 759.914 286.127 760.703 286.76C761.497 287.393 762.734 287.954 764.415 288.441L766.936 289.135C768.422 289.549 769.681 290.029 770.714 290.574C771.751 291.125 772.592 291.916 773.235 292.949C773.883 293.987 774.207 295.334 774.207 296.99C774.182 299.401 773.335 301.308 771.664 302.711C769.998 304.11 767.703 304.809 764.78 304.809ZM789.076 283.399C791.8 283.399 793.972 284.312 795.594 286.139C797.217 287.966 798.028 290.621 798.028 294.104C798.028 297.587 797.217 300.242 795.594 302.068C793.972 303.895 791.8 304.809 789.076 304.809C787.104 304.809 785.153 303.993 783.224 302.361V312.737H779.797V283.983H783.224V285.883C785.172 284.227 787.123 283.399 789.076 283.399ZM788.602 301.63C790.521 301.63 791.98 300.989 792.978 299.708C793.982 298.432 794.484 296.564 794.484 294.104C794.484 291.644 793.982 289.78 792.978 288.514C791.98 287.247 790.521 286.614 788.602 286.614C786.775 286.614 784.982 287.369 783.224 288.879V299.365C785.031 300.875 786.823 301.63 788.602 301.63ZM809.602 283.983C811.745 283.983 813.377 284.341 814.498 285.058C815.618 285.779 816.361 286.741 816.726 287.944C817.092 289.152 817.274 290.669 817.274 292.496V304.187H813.84V302.178C812.915 303.055 811.989 303.688 811.063 304.078C810.138 304.468 809.139 304.662 808.068 304.662C806.801 304.662 805.656 304.387 804.633 303.837C803.61 303.291 802.802 302.5 802.207 301.462C801.608 300.429 801.309 299.206 801.309 297.794C801.309 295.602 801.99 293.902 803.354 292.693C804.718 291.49 806.557 290.889 808.871 290.889C810.698 290.889 812.342 291.29 813.804 292.094C813.779 290.901 813.657 289.951 813.438 289.245C813.219 288.538 812.768 287.995 812.086 287.615C811.404 287.24 810.394 287.052 809.054 287.052H806.35V283.983H809.602ZM808.543 301.703C809.371 301.703 810.243 301.508 811.158 301.118C812.069 300.729 812.963 300.144 813.84 299.365V294.761C812.476 294.079 810.99 293.738 809.383 293.738C808.092 293.738 807.008 294.048 806.131 294.666C805.254 295.29 804.816 296.332 804.816 297.794C804.816 299.158 805.189 300.152 805.934 300.775C806.674 301.394 807.544 301.703 808.543 301.703ZM831.487 304.809C828.345 304.784 825.926 303.81 824.231 301.886C822.54 299.962 821.695 297.355 821.695 294.067C821.695 290.779 822.54 288.185 824.231 286.285C825.926 284.385 828.345 283.423 831.487 283.399C832.583 283.399 833.525 283.477 834.315 283.633C835.109 283.793 835.956 284.056 836.857 284.422V287.747C835.981 287.332 835.145 287.04 834.351 286.87C833.562 286.699 832.692 286.614 831.742 286.614C829.477 286.638 827.833 287.313 826.81 288.638C825.787 289.968 825.276 291.765 825.276 294.031C825.276 296.345 825.787 298.183 826.81 299.547C827.833 300.911 829.453 301.606 831.669 301.63C833.399 301.63 835.286 301.106 837.332 300.059L838.428 303.055C836.212 304.224 833.898 304.809 831.487 304.809ZM845.224 294.359C845.273 296.6 845.833 298.391 846.905 299.73C847.976 301.07 849.681 301.74 852.02 301.74C853.798 301.74 855.746 301.24 857.865 300.242L858.925 303.091C856.708 304.236 854.309 304.809 851.727 304.809C849.584 304.809 847.757 304.358 846.247 303.457C844.737 302.556 843.592 301.301 842.813 299.694C842.033 298.086 841.644 296.211 841.644 294.067C841.644 291.802 842.05 289.87 842.864 288.273C843.682 286.68 844.786 285.469 846.174 284.641C847.562 283.813 849.121 283.399 850.85 283.399C853.505 283.399 855.588 284.227 857.098 285.883C858.608 287.54 859.363 289.914 859.363 293.008V294.359H845.224ZM850.85 286.468C847.83 286.468 846.028 288.136 845.443 291.473H855.746C855.624 289.768 855.162 288.506 854.358 287.688C853.554 286.875 852.385 286.468 850.85 286.468ZM870.39 304.809C868.909 304.809 867.596 304.687 866.451 304.443C865.301 304.2 864.108 303.786 862.871 303.201V299.803C865.184 301.094 867.691 301.74 870.39 301.74C871.754 301.74 872.735 301.464 873.334 300.914C873.929 300.368 874.226 299.645 874.226 298.744C874.226 297.867 873.989 297.221 873.517 296.807C873.04 296.393 872.267 296.04 871.201 295.748L868.826 295.163C867.121 294.749 865.781 294.092 864.807 293.19C863.833 292.289 863.346 290.962 863.346 289.208C863.346 287.381 863.94 285.956 865.128 284.933C866.322 283.91 868.076 283.399 870.39 283.399C871.588 283.399 872.696 283.513 873.714 283.742C874.742 283.976 875.765 284.3 876.783 284.714V287.929C875.789 287.466 874.805 287.106 873.831 286.848C872.857 286.594 871.749 286.468 870.506 286.468C869.211 286.468 868.278 286.716 867.708 287.213C867.138 287.715 866.853 288.343 866.853 289.098C866.853 289.927 867.101 290.555 867.598 290.984C868.1 291.407 868.826 291.741 869.776 291.985L872.187 292.533C873.405 292.825 874.408 293.19 875.198 293.629C875.992 294.067 876.613 294.681 877.061 295.47C877.509 296.264 877.733 297.319 877.733 298.634C877.733 300.607 877.071 302.129 875.746 303.201C874.421 304.273 872.635 304.809 870.39 304.809ZM881.825 309.704L884.017 298.305H887.671L885.004 309.704H881.825ZM909.921 304.809C906.389 304.809 903.235 304.151 900.458 302.836V299.474C903.259 300.96 906.413 301.703 909.921 301.703C911.942 301.703 913.421 301.277 914.356 300.424C915.296 299.572 915.766 298.451 915.766 297.063C915.766 295.748 915.333 294.761 914.466 294.104C913.604 293.446 912.332 292.874 910.651 292.387L908.167 291.692C906.754 291.278 905.549 290.803 904.55 290.267C903.551 289.732 902.716 288.957 902.044 287.944C901.376 286.935 901.043 285.615 901.043 283.983C901.043 281.377 901.803 279.392 903.322 278.028C904.847 276.664 907.01 275.982 909.811 275.982C911.443 275.982 912.88 276.133 914.122 276.435C915.365 276.742 916.655 277.2 917.995 277.809V281.097C915.511 279.757 912.783 279.088 909.811 279.088C908.009 279.088 906.693 279.507 905.865 280.344C905.037 281.187 904.623 282.339 904.623 283.801C904.647 285.14 905.054 286.127 905.843 286.76C906.637 287.393 907.875 287.954 909.555 288.441L912.076 289.135C913.562 289.549 914.821 290.029 915.854 290.574C916.892 291.125 917.732 291.916 918.375 292.949C919.023 293.987 919.347 295.334 919.347 296.99C919.323 299.401 918.475 301.308 916.804 302.711C915.138 304.11 912.844 304.809 909.921 304.809ZM927.268 294.359C927.316 296.6 927.877 298.391 928.948 299.73C930.02 301.07 931.725 301.74 934.063 301.74C935.841 301.74 937.79 301.24 939.909 300.242L940.968 303.091C938.752 304.236 936.353 304.809 933.771 304.809C931.628 304.809 929.801 304.358 928.291 303.457C926.781 302.556 925.636 301.301 924.856 299.694C924.077 298.086 923.687 296.211 923.687 294.067C923.687 291.802 924.096 289.87 924.915 288.273C925.728 286.68 926.829 285.469 928.218 284.641C929.606 283.813 931.165 283.399 932.894 283.399C935.549 283.399 937.632 284.227 939.142 285.883C940.652 287.54 941.407 289.914 941.407 293.008V294.359H927.268ZM932.894 286.468C929.874 286.468 928.072 288.136 927.487 291.473H937.79C937.668 289.768 937.205 288.506 936.402 287.688C935.598 286.875 934.429 286.468 932.894 286.468ZM952.514 283.983C954.657 283.983 956.289 284.341 957.409 285.058C958.53 285.779 959.273 286.741 959.638 287.944C960.003 289.152 960.186 290.669 960.186 292.496V304.187H956.752V302.178C955.826 303.055 954.901 303.688 953.975 304.078C953.05 304.468 952.051 304.662 950.979 304.662C949.713 304.662 948.568 304.387 947.545 303.837C946.522 303.291 945.713 302.5 945.119 301.462C944.52 300.429 944.22 299.206 944.22 297.794C944.22 295.602 944.902 293.902 946.266 292.693C947.63 291.49 949.469 290.889 951.783 290.889C953.61 290.889 955.254 291.29 956.715 292.094C956.691 290.901 956.569 289.951 956.35 289.245C956.131 288.538 955.68 287.995 954.998 287.615C954.316 287.24 953.305 287.052 951.966 287.052H949.262V283.983H952.514ZM951.454 301.703C952.282 301.703 953.154 301.508 954.07 301.118C954.981 300.729 955.875 300.144 956.752 299.365V294.761C955.388 294.079 953.902 293.738 952.294 293.738C951.004 293.738 949.92 294.048 949.043 294.666C948.166 295.29 947.728 296.332 947.728 297.794C947.728 299.158 948.1 300.152 948.846 300.775C949.586 301.394 950.456 301.703 951.454 301.703ZM988.574 283.545C991.034 283.545 992.856 284.203 994.04 285.518C995.219 286.833 995.808 289.001 995.808 292.021V304.187H992.374V292.021C992.374 290.097 992.062 288.738 991.438 287.944C990.82 287.155 989.707 286.76 988.099 286.76C986.199 286.76 984.299 287.673 982.4 289.5C982.497 290.182 982.546 291.023 982.546 292.021V304.187H979.111V292.021C979.111 290.097 978.8 288.738 978.176 287.944C977.557 287.155 976.444 286.76 974.837 286.76C972.986 286.76 971.135 287.588 969.283 289.245V304.187H965.849V283.983H969.283V286.139C971.256 284.41 973.266 283.545 975.312 283.545C976.944 283.545 978.283 283.818 979.331 284.363C980.378 284.914 981.17 285.786 981.705 286.979C983.922 284.69 986.211 283.545 988.574 283.545ZM1006.73 304.662C1004.91 304.662 1003.59 304.297 1002.79 303.566C1001.98 302.836 1001.58 301.606 1001.58 299.876V273.279H1005.01V298.963C1005.01 299.937 1005.17 300.602 1005.47 300.958C1005.77 301.308 1006.35 301.484 1007.21 301.484C1007.89 301.484 1008.5 301.411 1009.03 301.265V304.407C1008.06 304.577 1007.29 304.662 1006.73 304.662ZM1015.57 294.359C1015.62 296.6 1016.18 298.391 1017.25 299.73C1018.32 301.07 1020.02 301.74 1022.36 301.74C1024.14 301.74 1026.09 301.24 1028.21 300.242L1029.27 303.091C1027.05 304.236 1024.65 304.809 1022.07 304.809C1019.93 304.809 1018.1 304.358 1016.59 303.457C1015.08 302.556 1013.93 301.301 1013.16 299.694C1012.38 298.086 1011.99 296.211 1011.99 294.067C1011.99 291.802 1012.4 289.87 1013.21 288.273C1014.03 286.68 1015.13 285.469 1016.52 284.641C1017.9 283.813 1019.46 283.399 1021.19 283.399C1023.85 283.399 1025.93 284.227 1027.44 285.883C1028.95 287.54 1029.71 289.914 1029.71 293.008V294.359H1015.57ZM1021.19 286.468C1018.17 286.468 1016.37 288.136 1015.79 291.473H1026.09C1025.97 289.768 1025.5 288.506 1024.7 287.688C1023.9 286.875 1022.73 286.468 1021.19 286.468ZM1040.74 304.809C1039.25 304.809 1037.94 304.687 1036.79 304.443C1035.65 304.2 1034.46 303.786 1033.21 303.201V299.803C1035.53 301.094 1038.04 301.74 1040.74 301.74C1042.1 301.74 1043.08 301.464 1043.68 300.914C1044.28 300.368 1044.58 299.645 1044.58 298.744C1044.58 297.867 1044.34 297.221 1043.87 296.807C1043.39 296.393 1042.61 296.04 1041.54 295.748L1039.17 295.163C1037.46 294.749 1036.12 294.092 1035.15 293.19C1034.18 292.289 1033.69 290.962 1033.69 289.208C1033.69 287.381 1034.28 285.956 1035.48 284.933C1036.67 283.91 1038.43 283.399 1040.74 283.399C1041.93 283.399 1043.04 283.513 1044.06 283.742C1045.09 283.976 1046.11 284.3 1047.13 284.714V287.929C1046.13 287.466 1045.15 287.106 1044.17 286.848C1043.2 286.594 1042.09 286.468 1040.85 286.468C1039.56 286.468 1038.63 286.716 1038.06 287.213C1037.48 287.715 1037.2 288.343 1037.2 289.098C1037.2 289.927 1037.45 290.555 1037.95 290.984C1038.44 291.407 1039.17 291.741 1040.12 291.985L1042.53 292.533C1043.75 292.825 1044.75 293.19 1045.55 293.629C1046.34 294.067 1046.96 294.681 1047.41 295.47C1047.86 296.264 1048.08 297.319 1048.08 298.634C1048.08 300.607 1047.42 302.129 1046.1 303.201C1044.77 304.273 1042.98 304.809 1040.74 304.809ZM1059.52 304.809C1058.03 304.809 1056.72 304.687 1055.57 304.443C1054.43 304.2 1053.23 303.786 1051.99 303.201V299.803C1054.31 301.094 1056.81 301.74 1059.52 301.74C1060.88 301.74 1061.86 301.464 1062.46 300.914C1063.05 300.368 1063.35 299.645 1063.35 298.744C1063.35 297.867 1063.12 297.221 1062.64 296.807C1062.17 296.393 1061.39 296.04 1060.32 295.748L1057.95 295.163C1056.24 294.749 1054.9 294.092 1053.93 293.19C1052.95 292.289 1052.47 290.962 1052.47 289.208C1052.47 287.381 1053.06 285.956 1054.26 284.933C1055.45 283.91 1057.2 283.399 1059.52 283.399C1060.71 283.399 1061.82 283.513 1062.84 283.742C1063.87 283.976 1064.89 284.3 1065.91 284.714V287.929C1064.91 287.466 1063.93 287.106 1062.95 286.848C1061.98 286.594 1060.87 286.468 1059.63 286.468C1058.34 286.468 1057.4 286.716 1056.83 287.213C1056.26 287.715 1055.97 288.343 1055.97 289.098C1055.97 289.927 1056.22 290.555 1056.72 290.984C1057.22 291.407 1057.95 291.741 1058.9 291.985L1061.31 292.533C1062.53 292.825 1063.53 293.19 1064.32 293.629C1065.11 294.067 1065.73 294.681 1066.18 295.47C1066.64 296.264 1066.86 297.319 1066.86 298.634C1066.86 300.607 1066.2 302.129 1064.87 303.201C1063.54 304.273 1061.76 304.809 1059.52 304.809ZM1096.85 304.187L1089.73 292.46H1084.36V304.187H1080.81V276.494H1090.49C1096.53 276.494 1099.55 279.173 1099.55 284.531C1099.55 286.65 1099.05 288.36 1098.04 289.661C1097.03 290.967 1095.51 291.814 1093.49 292.204L1100.91 304.187H1096.85ZM1084.36 279.599V289.354H1090.49C1094.1 289.354 1095.91 287.747 1095.94 284.531C1095.94 282.826 1095.49 281.579 1094.59 280.79C1093.68 279.996 1092.32 279.599 1090.49 279.599H1084.36ZM1108.32 294.359C1108.37 296.6 1108.93 298.391 1110 299.73C1111.07 301.07 1112.78 301.74 1115.12 301.74C1116.9 301.74 1118.84 301.24 1120.96 300.242L1122.02 303.091C1119.81 304.236 1117.41 304.809 1114.83 304.809C1112.68 304.809 1110.86 304.358 1109.35 303.457C1107.84 302.556 1106.69 301.301 1105.91 299.694C1105.13 298.086 1104.74 296.211 1104.74 294.067C1104.74 291.802 1105.15 289.87 1105.97 288.273C1106.78 286.68 1107.88 285.469 1109.27 284.641C1110.66 283.813 1112.22 283.399 1113.95 283.399C1116.6 283.399 1118.69 284.227 1120.2 285.883C1121.71 287.54 1122.46 289.914 1122.46 293.008V294.359H1108.32ZM1113.95 286.468C1110.93 286.468 1109.13 288.136 1108.54 291.473H1118.84C1118.72 289.768 1118.26 288.506 1117.46 287.688C1116.65 286.875 1115.48 286.468 1113.95 286.468ZM1133.5 304.809C1132.01 304.809 1130.69 304.687 1129.55 304.443C1128.4 304.2 1127.21 303.786 1125.97 303.201V299.803C1128.28 301.094 1130.79 301.74 1133.5 301.74C1134.86 301.74 1135.84 301.464 1136.43 300.914C1137.03 300.368 1137.33 299.645 1137.33 298.744C1137.33 297.867 1137.09 297.221 1136.62 296.807C1136.14 296.393 1135.37 296.04 1134.3 295.748L1131.92 295.163C1130.22 294.749 1128.88 294.092 1127.91 293.19C1126.93 292.289 1126.44 290.962 1126.44 289.208C1126.44 287.381 1127.04 285.956 1128.23 284.933C1129.43 283.91 1131.18 283.399 1133.5 283.399C1134.69 283.399 1135.8 283.513 1136.82 283.742C1137.84 283.976 1138.87 284.3 1139.89 284.714V287.929C1138.89 287.466 1137.9 287.106 1136.93 286.848C1135.96 286.594 1134.85 286.468 1133.6 286.468C1132.31 286.468 1131.38 286.716 1130.81 287.213C1130.24 287.715 1129.95 288.343 1129.95 289.098C1129.95 289.927 1130.2 290.555 1130.7 290.984C1131.2 291.407 1131.92 291.741 1132.87 291.985L1135.29 292.533C1136.5 292.825 1137.51 293.19 1138.3 293.629C1139.09 294.067 1139.71 294.681 1140.16 295.47C1140.61 296.264 1140.84 297.319 1140.84 298.634C1140.84 300.607 1140.17 302.129 1138.84 303.201C1137.52 304.273 1135.74 304.809 1133.5 304.809ZM1148.47 294.359C1148.52 296.6 1149.08 298.391 1150.16 299.73C1151.23 301.07 1152.93 301.74 1155.27 301.74C1157.05 301.74 1159 301.24 1161.12 300.242L1162.18 303.091C1159.96 304.236 1157.56 304.809 1154.98 304.809C1152.83 304.809 1151.01 304.358 1149.5 303.457C1147.99 302.556 1146.84 301.301 1146.06 299.694C1145.28 298.086 1144.89 296.211 1144.89 294.067C1144.89 291.802 1145.3 289.87 1146.11 288.273C1146.93 286.68 1148.04 285.469 1149.42 284.641C1150.81 283.813 1152.37 283.399 1154.1 283.399C1156.76 283.399 1158.84 284.227 1160.35 285.883C1161.86 287.54 1162.61 289.914 1162.61 293.008V294.359H1148.47ZM1154.1 286.468C1151.08 286.468 1149.28 288.136 1148.69 291.473H1159C1158.87 289.768 1158.41 288.506 1157.61 287.688C1156.8 286.875 1155.64 286.468 1154.1 286.468ZM1177.04 283.545H1177.88V286.76H1177.04C1174.94 286.76 1172.91 287.6 1170.94 289.281V304.187H1167.5V283.983H1170.94V286.249C1172.93 284.446 1174.97 283.545 1177.04 283.545ZM1195.42 283.983H1199L1191.36 304.516H1187.41L1179.71 283.983H1183.29L1189.39 300.717L1195.42 283.983ZM1209.23 283.983C1211.37 283.983 1213 284.341 1214.12 285.058C1215.24 285.779 1215.98 286.741 1216.35 287.944C1216.72 289.152 1216.9 290.669 1216.9 292.496V304.187H1213.46V302.178C1212.54 303.055 1211.61 303.688 1210.69 304.078C1209.76 304.468 1208.76 304.662 1207.69 304.662C1206.42 304.662 1205.28 304.387 1204.26 303.837C1203.23 303.291 1202.42 302.5 1201.82 301.462C1201.23 300.429 1200.93 299.206 1200.93 297.794C1200.93 295.602 1201.61 293.902 1202.98 292.693C1204.34 291.49 1206.18 290.889 1208.49 290.889C1210.32 290.889 1211.97 291.29 1213.43 292.094C1213.4 290.901 1213.28 289.951 1213.06 289.245C1212.84 288.538 1212.39 287.995 1211.71 287.615C1211.03 287.24 1210.02 287.052 1208.68 287.052H1205.97V283.983H1209.23ZM1208.17 301.703C1208.99 301.703 1209.86 301.508 1210.77 301.118C1211.69 300.729 1212.59 300.144 1213.46 299.365V294.761C1212.1 294.079 1210.61 293.738 1209.01 293.738C1207.72 293.738 1206.63 294.048 1205.75 294.666C1204.88 295.29 1204.44 296.332 1204.44 297.794C1204.44 299.158 1204.81 300.152 1205.55 300.775C1206.3 301.394 1207.17 301.703 1208.17 301.703ZM1231.37 287.418H1226.69V298.963C1226.69 299.937 1226.84 300.602 1227.14 300.958C1227.45 301.308 1228.02 301.484 1228.85 301.484C1229.58 301.484 1230.36 301.386 1231.18 301.192V304.297C1230.09 304.541 1229.11 304.662 1228.26 304.662C1226.41 304.662 1225.11 304.285 1224.37 303.53C1223.63 302.775 1223.26 301.508 1223.26 299.73V287.418H1220.62V284.239H1223.26V277.297H1226.69V284.239H1231.37V287.418ZM1236.18 280.184V274.667H1239.62V280.184H1236.18ZM1236.18 304.187V283.983H1239.62V304.187H1236.18ZM1254.92 304.809C1252.78 304.809 1250.96 304.341 1249.47 303.406C1247.97 302.465 1246.84 301.184 1246.08 299.562C1245.33 297.945 1244.95 296.125 1244.95 294.104C1244.95 292.082 1245.33 290.26 1246.08 288.638C1246.84 287.021 1247.97 285.742 1249.47 284.802C1250.96 283.867 1252.78 283.399 1254.92 283.399C1257.07 283.399 1258.89 283.867 1260.39 284.802C1261.89 285.742 1263.01 287.021 1263.75 288.638C1264.49 290.26 1264.86 292.082 1264.86 294.104C1264.86 296.125 1264.49 297.945 1263.75 299.562C1263.01 301.184 1261.89 302.465 1260.39 303.406C1258.89 304.341 1257.07 304.809 1254.92 304.809ZM1254.92 301.703C1256.95 301.703 1258.51 300.997 1259.62 299.584C1260.73 298.171 1261.28 296.345 1261.28 294.104C1261.28 291.863 1260.73 290.041 1259.62 288.638C1258.51 287.24 1256.95 286.541 1254.92 286.541C1252.9 286.541 1251.33 287.24 1250.21 288.638C1249.09 290.041 1248.53 291.863 1248.53 294.104C1248.53 296.345 1249.09 298.171 1250.21 299.584C1251.33 300.997 1252.9 301.703 1254.92 301.703ZM1279.8 283.545C1282.29 283.545 1284.13 284.203 1285.34 285.518C1286.54 286.833 1287.15 289.001 1287.15 292.021V304.187H1283.71V292.021C1283.71 290.121 1283.39 288.77 1282.74 287.966C1282.1 287.162 1280.96 286.76 1279.33 286.76C1277.43 286.76 1275.53 287.588 1273.63 289.245V304.187H1270.2V283.983H1273.63V286.139C1275.63 284.41 1277.69 283.545 1279.8 283.545ZM1299.68 304.809C1298.19 304.809 1296.88 304.687 1295.73 304.443C1294.59 304.2 1293.4 303.786 1292.15 303.201V299.803C1294.47 301.094 1296.98 301.74 1299.68 301.74C1301.04 301.74 1302.02 301.464 1302.62 300.914C1303.22 300.368 1303.52 299.645 1303.52 298.744C1303.52 297.867 1303.28 297.221 1302.8 296.807C1302.33 296.393 1301.56 296.04 1300.48 295.748L1298.11 295.163C1296.4 294.749 1295.06 294.092 1294.09 293.19C1293.12 292.289 1292.63 290.962 1292.63 289.208C1292.63 287.381 1293.23 285.956 1294.42 284.933C1295.61 283.91 1297.37 283.399 1299.68 283.399C1300.87 283.399 1301.98 283.513 1303 283.742C1304.03 283.976 1305.05 284.3 1306.07 284.714V287.929C1305.07 287.466 1304.09 287.106 1303.11 286.848C1302.14 286.594 1301.03 286.468 1299.79 286.468C1298.5 286.468 1297.57 286.716 1296.99 287.213C1296.42 287.715 1296.14 288.343 1296.14 289.098C1296.14 289.927 1296.38 290.555 1296.88 290.984C1297.38 291.407 1298.11 291.741 1299.06 291.985L1301.47 292.533C1302.69 292.825 1303.69 293.19 1304.48 293.629C1305.27 294.067 1305.9 294.681 1306.34 295.47C1306.8 296.264 1307.02 297.319 1307.02 298.634C1307.02 300.607 1306.36 302.129 1305.03 303.201C1303.7 304.273 1301.92 304.809 1299.68 304.809Z" fill="url(#paint1_linear_1_128)"/>
</g>
</g>
</g>
</g>
</g>
<mask id="mask0_1_128" style="mask-type:luminance" maskUnits="userSpaceOnUse" x="2" y="0" width="1494" height="321">
<g clip-path="url(#clip9_1_128)">
<g clip-path="url(#clip10_1_128)">
<g clip-path="url(#clip11_1_128)">
<g clip-path="url(#clip12_1_128)">
<g clip-path="url(#clip13_1_128)">
<g clip-path="url(#clip14_1_128)">
<path d="M504.432 91.6766V120.218H452.686V179.159H416.718V22.7584H512.09V51.3003H452.686V91.6766H504.432ZM568.013 15.1008V179.159H534.134V15.1008H568.013ZM689.374 144.119V172.429C681.299 177.689 669 180.319 652.479 180.319C633.141 180.319 618.089 174.703 607.322 163.472C596.555 152.272 591.172 137.854 591.172 120.218C591.172 101.5 596.4 86.8345 606.858 76.2222C617.285 65.6408 630.171 60.3501 645.517 60.3501C661.266 60.3501 673.703 64.9447 682.831 74.1338C691.989 83.3538 696.568 97.091 696.568 115.345C696.568 118.904 695.933 125.014 694.665 133.677H625.515C627.835 140.175 631.857 145.202 637.581 148.76C643.336 152.318 650.236 154.097 658.28 154.097C670.161 154.097 680.526 150.771 689.374 144.119ZM646.863 86.1074C641.449 86.1074 636.653 88.0721 632.476 92.0014C628.299 95.9617 625.53 101.809 624.169 109.544H665.009V106.76C663.895 92.9915 657.847 86.1074 646.863 86.1074ZM768.224 143.887L747.108 179.159H710.444L752.445 120.218L712.997 61.5104H750.588L769.616 96.5496L790.733 61.5104H827.86L785.628 120.45L824.844 179.159H787.948L768.224 143.887ZM877.751 61.5104V179.159H843.872V61.5104H877.751ZM874.734 13.4765C878.601 17.3439 880.535 21.9849 880.535 27.3993C880.535 32.8138 878.601 37.4548 874.734 41.3222C870.867 45.1897 866.226 47.1234 860.811 47.1234C855.397 47.1234 850.756 45.1897 846.888 41.3222C843.021 37.4548 841.087 32.8138 841.087 27.3993C841.087 21.9849 843.021 17.3439 846.888 13.4765C850.756 9.60902 855.397 7.67529 860.811 7.67529C866.226 7.67529 870.867 9.60902 874.734 13.4765ZM1005.14 133.677C1005.14 147.755 999.962 159.156 989.598 167.881C979.233 176.637 965.465 181.015 948.293 181.015C929.884 181.015 914.878 177.766 903.276 171.269V135.302C917.353 145.512 932.359 150.617 948.293 150.617C953.708 150.617 958.194 149.178 961.752 146.301C965.31 143.454 967.089 139.71 967.089 135.069C967.089 133.523 966.857 132.053 966.393 130.661C965.929 129.268 965.078 127.953 963.84 126.716C962.603 125.478 961.396 124.426 960.22 123.56C959.076 122.725 957.374 121.719 955.115 120.543C952.888 119.399 951 118.439 949.453 117.666C947.906 116.892 945.617 115.81 942.585 114.417C939.584 113.025 937.155 111.942 935.298 111.169C925.243 106.528 917.152 100.804 911.026 93.997C904.931 87.1903 901.884 78.1405 901.884 66.8475C901.884 53.3887 906.834 42.5134 916.735 34.2216C926.635 25.9607 940.326 21.8302 957.807 21.8302C973.432 21.8302 986.89 24.4601 998.183 29.7198V63.1347C985.653 55.8639 972.658 52.2285 959.199 52.2285C953.166 52.2285 948.556 53.4661 945.369 55.9412C942.213 58.4164 940.636 61.5877 940.636 65.4552C940.636 69.3226 942.569 72.7569 946.437 75.7581C950.304 78.7902 956.105 82.0079 963.84 85.4113C968.636 87.5771 972.612 89.4644 975.768 91.0733C978.954 92.7131 982.59 94.9562 986.674 97.8026C990.789 100.68 994.037 103.697 996.42 106.852C998.833 110.039 1000.89 113.953 1002.59 118.594C1004.29 123.235 1005.14 128.263 1005.14 133.677ZM1059.91 161.755V222.552H1026.03V61.5104H1059.91V79.6101C1068.11 66.6154 1079.94 60.1181 1095.41 60.1181C1110.57 60.1181 1122.75 65.4861 1131.94 76.2222C1141.16 86.9892 1145.77 101.577 1145.77 119.986C1145.77 137.467 1141.31 151.932 1132.4 163.379C1123.52 174.827 1111.19 180.551 1095.41 180.551C1079.48 180.551 1067.64 174.286 1059.91 161.755ZM1059.91 119.058C1059.91 129.114 1062.38 137.158 1067.33 143.191C1072.28 149.224 1078.63 152.241 1086.36 152.241C1093.79 152.241 1099.82 149.41 1104.46 143.748C1109.1 138.117 1111.42 130.429 1111.42 120.683C1111.42 110.008 1109.06 101.933 1104.32 96.4568C1099.62 90.9495 1093.63 88.1959 1086.36 88.1959C1079.25 88.1959 1073.06 90.9031 1067.8 96.3175C1062.54 101.732 1059.91 109.312 1059.91 119.058ZM1210.92 155.954C1215.72 155.954 1219.43 154.484 1222.06 151.545C1224.69 148.606 1226.01 144.583 1226.01 139.478V130.893H1215.1C1209.38 130.893 1204.97 132.13 1201.87 134.605C1198.78 137.081 1197.23 140.252 1197.23 144.119C1197.23 152.009 1201.8 155.954 1210.92 155.954ZM1227.63 179.159V164.772C1222.68 174.827 1212.94 179.855 1198.39 179.855C1186.95 179.855 1178.02 176.606 1171.62 170.109C1165.18 163.611 1161.96 155.49 1161.96 145.744C1161.96 134.451 1166.11 125.664 1174.4 119.383C1182.66 113.133 1194.91 110.008 1211.16 110.008H1226.01V101.887C1226.01 91.986 1219.43 87.0356 1206.28 87.0356C1193.6 87.0356 1181.84 90.5937 1171.01 97.7098V67.3116C1180.29 62.0518 1193.68 59.4219 1211.16 59.4219C1227.86 59.4219 1240.32 63.0109 1248.52 70.189C1256.72 77.3979 1260.82 88.5826 1260.82 103.743V179.159H1227.63ZM1375.45 145.28V173.589C1366.32 178.54 1355.34 181.015 1342.5 181.015C1324.86 181.015 1310.32 175.399 1298.87 164.168C1287.42 152.968 1281.7 138.473 1281.7 120.683C1282.01 103.047 1287.73 88.4588 1298.87 76.9183C1310.01 65.4088 1325.25 59.654 1344.58 59.654C1356.5 59.654 1366.78 61.8971 1375.45 66.3834V95.3893C1367.25 90.2843 1358.12 87.7318 1348.06 87.7318C1338.63 87.7318 1330.97 90.5473 1325.09 96.1783C1319.21 101.84 1316.2 110.008 1316.04 120.683C1316.66 131.047 1319.76 139.092 1325.32 144.816C1330.89 150.539 1338.24 153.401 1347.37 153.401C1357.11 153.401 1366.47 150.694 1375.45 145.28ZM1488.69 144.119V172.429C1480.64 177.689 1468.34 180.319 1451.79 180.319C1432.45 180.319 1417.4 174.703 1406.63 163.472C1395.9 152.272 1390.53 137.854 1390.53 120.218C1390.53 101.5 1395.74 86.8345 1406.17 76.2222C1416.63 65.6408 1429.51 60.3501 1444.83 60.3501C1460.61 60.3501 1473.06 64.9447 1482.19 74.1338C1491.32 83.3538 1495.88 97.091 1495.88 115.345C1495.88 118.904 1495.26 125.014 1494.02 133.677H1424.87C1427.19 140.175 1431.22 145.202 1436.94 148.76C1442.66 152.318 1449.55 154.097 1457.59 154.097C1469.5 154.097 1479.87 150.771 1488.69 144.119ZM1446.22 86.1074C1440.81 86.1074 1436.01 88.0721 1431.83 92.0014C1427.66 95.9617 1424.87 101.809 1423.48 109.544H1464.32V106.76C1463.24 92.9915 1457.2 86.1074 1446.22 86.1074Z" fill="black"/>
</g>
</g>
<g clip-path="url(#clip15_1_128)">
<g clip-path="url(#clip16_1_128)">
<path d="M622.344 279.672H609.118V289.171H620.517V292.35H609.118V304.187H605.574V276.494H622.344V279.672ZM632.501 304.662C630.674 304.662 629.359 304.297 628.555 303.566C627.751 302.836 627.349 301.606 627.349 299.876V273.279H630.783V298.963C630.783 299.937 630.934 300.602 631.237 300.958C631.543 301.308 632.123 301.484 632.976 301.484C633.658 301.484 634.267 301.411 634.802 301.265V304.407C633.828 304.577 633.061 304.662 632.501 304.662ZM641.342 294.359C641.391 296.6 641.951 298.391 643.023 299.73C644.095 301.07 645.8 301.74 648.138 301.74C649.916 301.74 651.862 301.24 653.976 300.242L655.043 303.091C652.826 304.236 650.427 304.809 647.845 304.809C645.702 304.809 643.875 304.358 642.365 303.457C640.855 302.556 639.71 301.301 638.931 299.694C638.151 298.086 637.762 296.211 637.762 294.067C637.762 291.802 638.168 289.87 638.982 288.273C639.8 286.68 640.904 285.469 642.292 284.641C643.68 283.813 645.239 283.399 646.969 283.399C649.624 283.399 651.706 284.227 653.216 285.883C654.726 287.54 655.481 289.914 655.481 293.008V294.359H641.342ZM646.969 286.468C643.948 286.468 642.146 288.136 641.561 291.473H651.864C651.743 289.768 651.28 288.506 650.476 287.688C649.672 286.875 648.503 286.468 646.969 286.468ZM677.066 304.187H672.938L667.604 296.332L662.489 304.187H658.36L665.485 293.629L658.726 283.983H662.854L667.75 291.217L672.682 283.983H676.738L669.796 293.921L677.066 304.187ZM681.633 280.184V274.667H685.068V280.184H681.633ZM681.633 304.187V283.983H685.068V304.187H681.633ZM700.924 283.399C703.652 283.399 705.825 284.312 707.442 286.139C709.064 287.966 709.875 290.621 709.875 294.104C709.875 297.587 709.064 300.242 707.442 302.068C705.825 303.895 703.652 304.809 700.924 304.809C698.951 304.809 697.003 303.993 695.078 302.361V304.187H691.644V273.279H695.078V285.883C697.027 284.227 698.975 283.399 700.924 283.399ZM700.449 301.63C702.373 301.63 703.835 300.989 704.833 299.708C705.832 298.432 706.331 296.564 706.331 294.104C706.331 291.644 705.832 289.78 704.833 288.514C703.835 287.247 702.373 286.614 700.449 286.614C698.622 286.614 696.832 287.369 695.078 288.879V299.365C696.881 300.875 698.671 301.63 700.449 301.63ZM720.397 304.662C718.571 304.662 717.255 304.297 716.452 303.566C715.648 302.836 715.246 301.606 715.246 299.876V273.279H718.673V298.963C718.673 299.937 718.826 300.602 719.133 300.958C719.435 301.308 720.013 301.484 720.865 301.484C721.547 301.484 722.156 301.411 722.692 301.265V304.407C721.717 304.577 720.953 304.662 720.397 304.662ZM729.232 294.359C729.28 296.6 729.841 298.391 730.912 299.73C731.984 301.07 733.689 301.74 736.027 301.74C737.805 301.74 739.754 301.24 741.873 300.242L742.932 303.091C740.716 304.236 738.317 304.809 735.735 304.809C733.591 304.809 731.765 304.358 730.255 303.457C728.744 302.556 727.6 301.301 726.82 299.694C726.041 298.086 725.651 296.211 725.651 294.067C725.651 291.802 726.06 289.87 726.879 288.273C727.692 286.68 728.793 285.469 730.182 284.641C731.57 283.813 733.129 283.399 734.858 283.399C737.513 283.399 739.595 284.227 741.106 285.883C742.616 287.54 743.371 289.914 743.371 293.008V294.359H729.232ZM734.858 286.468C731.838 286.468 730.035 288.136 729.451 291.473H739.754C739.632 289.768 739.169 288.506 738.365 287.688C737.562 286.875 736.393 286.468 734.858 286.468ZM764.78 304.809C761.249 304.809 758.095 304.151 755.318 302.836V299.474C758.119 300.96 761.273 301.703 764.78 301.703C766.802 301.703 768.281 301.277 769.216 300.424C770.156 299.572 770.626 298.451 770.626 297.063C770.626 295.748 770.193 294.761 769.325 294.104C768.463 293.446 767.192 292.874 765.511 292.387L763.027 291.692C761.614 291.278 760.408 290.803 759.41 290.267C758.411 289.732 757.576 288.957 756.903 287.944C756.236 286.935 755.902 285.615 755.902 283.983C755.902 281.377 756.662 279.392 758.182 278.028C759.707 276.664 761.87 275.982 764.671 275.982C766.303 275.982 767.74 276.133 768.982 276.435C770.224 276.742 771.515 277.2 772.855 277.809V281.097C770.37 279.757 767.642 279.088 764.671 279.088C762.868 279.088 761.553 279.507 760.725 280.344C759.897 281.187 759.483 282.339 759.483 283.801C759.507 285.14 759.914 286.127 760.703 286.76C761.497 287.393 762.734 287.954 764.415 288.441L766.936 289.135C768.422 289.549 769.681 290.029 770.714 290.574C771.751 291.125 772.592 291.916 773.235 292.949C773.883 293.987 774.207 295.334 774.207 296.99C774.182 299.401 773.335 301.308 771.664 302.711C769.998 304.11 767.703 304.809 764.78 304.809ZM789.076 283.399C791.8 283.399 793.972 284.312 795.594 286.139C797.217 287.966 798.028 290.621 798.028 294.104C798.028 297.587 797.217 300.242 795.594 302.068C793.972 303.895 791.8 304.809 789.076 304.809C787.104 304.809 785.153 303.993 783.224 302.361V312.737H779.797V283.983H783.224V285.883C785.172 284.227 787.123 283.399 789.076 283.399ZM788.602 301.63C790.521 301.63 791.98 300.989 792.978 299.708C793.982 298.432 794.484 296.564 794.484 294.104C794.484 291.644 793.982 289.78 792.978 288.514C791.98 287.247 790.521 286.614 788.602 286.614C786.775 286.614 784.982 287.369 783.224 288.879V299.365C785.031 300.875 786.823 301.63 788.602 301.63ZM809.602 283.983C811.745 283.983 813.377 284.341 814.498 285.058C815.618 285.779 816.361 286.741 816.726 287.944C817.092 289.152 817.274 290.669 817.274 292.496V304.187H813.84V302.178C812.915 303.055 811.989 303.688 811.063 304.078C810.138 304.468 809.139 304.662 808.068 304.662C806.801 304.662 805.656 304.387 804.633 303.837C803.61 303.291 802.802 302.5 802.207 301.462C801.608 300.429 801.309 299.206 801.309 297.794C801.309 295.602 801.99 293.902 803.354 292.693C804.718 291.49 806.557 290.889 808.871 290.889C810.698 290.889 812.342 291.29 813.804 292.094C813.779 290.901 813.657 289.951 813.438 289.245C813.219 288.538 812.768 287.995 812.086 287.615C811.404 287.24 810.394 287.052 809.054 287.052H806.35V283.983H809.602ZM808.543 301.703C809.371 301.703 810.243 301.508 811.158 301.118C812.069 300.729 812.963 300.144 813.84 299.365V294.761C812.476 294.079 810.99 293.738 809.383 293.738C808.092 293.738 807.008 294.048 806.131 294.666C805.254 295.29 804.816 296.332 804.816 297.794C804.816 299.158 805.189 300.152 805.934 300.775C806.674 301.394 807.544 301.703 808.543 301.703ZM831.487 304.809C828.345 304.784 825.926 303.81 824.231 301.886C822.54 299.962 821.695 297.355 821.695 294.067C821.695 290.779 822.54 288.185 824.231 286.285C825.926 284.385 828.345 283.423 831.487 283.399C832.583 283.399 833.525 283.477 834.315 283.633C835.109 283.793 835.956 284.056 836.857 284.422V287.747C835.981 287.332 835.145 287.04 834.351 286.87C833.562 286.699 832.692 286.614 831.742 286.614C829.477 286.638 827.833 287.313 826.81 288.638C825.787 289.968 825.276 291.765 825.276 294.031C825.276 296.345 825.787 298.183 826.81 299.547C827.833 300.911 829.453 301.606 831.669 301.63C833.399 301.63 835.286 301.106 837.332 300.059L838.428 303.055C836.212 304.224 833.898 304.809 831.487 304.809ZM845.224 294.359C845.273 296.6 845.833 298.391 846.905 299.73C847.976 301.07 849.681 301.74 852.02 301.74C853.798 301.74 855.746 301.24 857.865 300.242L858.925 303.091C856.708 304.236 854.309 304.809 851.727 304.809C849.584 304.809 847.757 304.358 846.247 303.457C844.737 302.556 843.592 301.301 842.813 299.694C842.033 298.086 841.644 296.211 841.644 294.067C841.644 291.802 842.05 289.87 842.864 288.273C843.682 286.68 844.786 285.469 846.174 284.641C847.562 283.813 849.121 283.399 850.85 283.399C853.505 283.399 855.588 284.227 857.098 285.883C858.608 287.54 859.363 289.914 859.363 293.008V294.359H845.224ZM850.85 286.468C847.83 286.468 846.028 288.136 845.443 291.473H855.746C855.624 289.768 855.162 288.506 854.358 287.688C853.554 286.875 852.385 286.468 850.85 286.468ZM870.39 304.809C868.909 304.809 867.596 304.687 866.451 304.443C865.301 304.2 864.108 303.786 862.871 303.201V299.803C865.184 301.094 867.691 301.74 870.39 301.74C871.754 301.74 872.735 301.464 873.334 300.914C873.929 300.368 874.226 299.645 874.226 298.744C874.226 297.867 873.989 297.221 873.517 296.807C873.04 296.393 872.267 296.04 871.201 295.748L868.826 295.163C867.121 294.749 865.781 294.092 864.807 293.19C863.833 292.289 863.346 290.962 863.346 289.208C863.346 287.381 863.94 285.956 865.128 284.933C866.322 283.91 868.076 283.399 870.39 283.399C871.588 283.399 872.696 283.513 873.714 283.742C874.742 283.976 875.765 284.3 876.783 284.714V287.929C875.789 287.466 874.805 287.106 873.831 286.848C872.857 286.594 871.749 286.468 870.506 286.468C869.211 286.468 868.278 286.716 867.708 287.213C867.138 287.715 866.853 288.343 866.853 289.098C866.853 289.927 867.101 290.555 867.598 290.984C868.1 291.407 868.826 291.741 869.776 291.985L872.187 292.533C873.405 292.825 874.408 293.19 875.198 293.629C875.992 294.067 876.613 294.681 877.061 295.47C877.509 296.264 877.733 297.319 877.733 298.634C877.733 300.607 877.071 302.129 875.746 303.201C874.421 304.273 872.635 304.809 870.39 304.809ZM881.825 309.704L884.017 298.305H887.671L885.004 309.704H881.825ZM909.921 304.809C906.389 304.809 903.235 304.151 900.458 302.836V299.474C903.259 300.96 906.413 301.703 909.921 301.703C911.942 301.703 913.421 301.277 914.356 300.424C915.296 299.572 915.766 298.451 915.766 297.063C915.766 295.748 915.333 294.761 914.466 294.104C913.604 293.446 912.332 292.874 910.651 292.387L908.167 291.692C906.754 291.278 905.549 290.803 904.55 290.267C903.551 289.732 902.716 288.957 902.044 287.944C901.376 286.935 901.043 285.615 901.043 283.983C901.043 281.377 901.803 279.392 903.322 278.028C904.847 276.664 907.01 275.982 909.811 275.982C911.443 275.982 912.88 276.133 914.122 276.435C915.365 276.742 916.655 277.2 917.995 277.809V281.097C915.511 279.757 912.783 279.088 909.811 279.088C908.009 279.088 906.693 279.507 905.865 280.344C905.037 281.187 904.623 282.339 904.623 283.801C904.647 285.14 905.054 286.127 905.843 286.76C906.637 287.393 907.875 287.954 909.555 288.441L912.076 289.135C913.562 289.549 914.821 290.029 915.854 290.574C916.892 291.125 917.732 291.916 918.375 292.949C919.023 293.987 919.347 295.334 919.347 296.99C919.323 299.401 918.475 301.308 916.804 302.711C915.138 304.11 912.844 304.809 909.921 304.809ZM927.268 294.359C927.316 296.6 927.877 298.391 928.948 299.73C930.02 301.07 931.725 301.74 934.063 301.74C935.841 301.74 937.79 301.24 939.909 300.242L940.968 303.091C938.752 304.236 936.353 304.809 933.771 304.809C931.628 304.809 929.801 304.358 928.291 303.457C926.781 302.556 925.636 301.301 924.856 299.694C924.077 298.086 923.687 296.211 923.687 294.067C923.687 291.802 924.096 289.87 924.915 288.273C925.728 286.68 926.829 285.469 928.218 284.641C929.606 283.813 931.165 283.399 932.894 283.399C935.549 283.399 937.632 284.227 939.142 285.883C940.652 287.54 941.407 289.914 941.407 293.008V294.359H927.268ZM932.894 286.468C929.874 286.468 928.072 288.136 927.487 291.473H937.79C937.668 289.768 937.205 288.506 936.402 287.688C935.598 286.875 934.429 286.468 932.894 286.468ZM952.514 283.983C954.657 283.983 956.289 284.341 957.409 285.058C958.53 285.779 959.273 286.741 959.638 287.944C960.003 289.152 960.186 290.669 960.186 292.496V304.187H956.752V302.178C955.826 303.055 954.901 303.688 953.975 304.078C953.05 304.468 952.051 304.662 950.979 304.662C949.713 304.662 948.568 304.387 947.545 303.837C946.522 303.291 945.713 302.5 945.119 301.462C944.52 300.429 944.22 299.206 944.22 297.794C944.22 295.602 944.902 293.902 946.266 292.693C947.63 291.49 949.469 290.889 951.783 290.889C953.61 290.889 955.254 291.29 956.715 292.094C956.691 290.901 956.569 289.951 956.35 289.245C956.131 288.538 955.68 287.995 954.998 287.615C954.316 287.24 953.305 287.052 951.966 287.052H949.262V283.983H952.514ZM951.454 301.703C952.282 301.703 953.154 301.508 954.07 301.118C954.981 300.729 955.875 300.144 956.752 299.365V294.761C955.388 294.079 953.902 293.738 952.294 293.738C951.004 293.738 949.92 294.048 949.043 294.666C948.166 295.29 947.728 296.332 947.728 297.794C947.728 299.158 948.1 300.152 948.846 300.775C949.586 301.394 950.456 301.703 951.454 301.703ZM988.574 283.545C991.034 283.545 992.856 284.203 994.04 285.518C995.219 286.833 995.808 289.001 995.808 292.021V304.187H992.374V292.021C992.374 290.097 992.062 288.738 991.438 287.944C990.82 287.155 989.707 286.76 988.099 286.76C986.199 286.76 984.299 287.673 982.4 289.5C982.497 290.182 982.546 291.023 982.546 292.021V304.187H979.111V292.021C979.111 290.097 978.8 288.738 978.176 287.944C977.557 287.155 976.444 286.76 974.837 286.76C972.986 286.76 971.135 287.588 969.283 289.245V304.187H965.849V283.983H969.283V286.139C971.256 284.41 973.266 283.545 975.312 283.545C976.944 283.545 978.283 283.818 979.331 284.363C980.378 284.914 981.17 285.786 981.705 286.979C983.922 284.69 986.211 283.545 988.574 283.545ZM1006.73 304.662C1004.91 304.662 1003.59 304.297 1002.79 303.566C1001.98 302.836 1001.58 301.606 1001.58 299.876V273.279H1005.01V298.963C1005.01 299.937 1005.17 300.602 1005.47 300.958C1005.77 301.308 1006.35 301.484 1007.21 301.484C1007.89 301.484 1008.5 301.411 1009.03 301.265V304.407C1008.06 304.577 1007.29 304.662 1006.73 304.662ZM1015.57 294.359C1015.62 296.6 1016.18 298.391 1017.25 299.73C1018.32 301.07 1020.02 301.74 1022.36 301.74C1024.14 301.74 1026.09 301.24 1028.21 300.242L1029.27 303.091C1027.05 304.236 1024.65 304.809 1022.07 304.809C1019.93 304.809 1018.1 304.358 1016.59 303.457C1015.08 302.556 1013.93 301.301 1013.16 299.694C1012.38 298.086 1011.99 296.211 1011.99 294.067C1011.99 291.802 1012.4 289.87 1013.21 288.273C1014.03 286.68 1015.13 285.469 1016.52 284.641C1017.9 283.813 1019.46 283.399 1021.19 283.399C1023.85 283.399 1025.93 284.227 1027.44 285.883C1028.95 287.54 1029.71 289.914 1029.71 293.008V294.359H1015.57ZM1021.19 286.468C1018.17 286.468 1016.37 288.136 1015.79 291.473H1026.09C1025.97 289.768 1025.5 288.506 1024.7 287.688C1023.9 286.875 1022.73 286.468 1021.19 286.468ZM1040.74 304.809C1039.25 304.809 1037.94 304.687 1036.79 304.443C1035.65 304.2 1034.46 303.786 1033.21 303.201V299.803C1035.53 301.094 1038.04 301.74 1040.74 301.74C1042.1 301.74 1043.08 301.464 1043.68 300.914C1044.28 300.368 1044.58 299.645 1044.58 298.744C1044.58 297.867 1044.34 297.221 1043.87 296.807C1043.39 296.393 1042.61 296.04 1041.54 295.748L1039.17 295.163C1037.46 294.749 1036.12 294.092 1035.15 293.19C1034.18 292.289 1033.69 290.962 1033.69 289.208C1033.69 287.381 1034.28 285.956 1035.48 284.933C1036.67 283.91 1038.43 283.399 1040.74 283.399C1041.93 283.399 1043.04 283.513 1044.06 283.742C1045.09 283.976 1046.11 284.3 1047.13 284.714V287.929C1046.13 287.466 1045.15 287.106 1044.17 286.848C1043.2 286.594 1042.09 286.468 1040.85 286.468C1039.56 286.468 1038.63 286.716 1038.06 287.213C1037.48 287.715 1037.2 288.343 1037.2 289.098C1037.2 289.927 1037.45 290.555 1037.95 290.984C1038.44 291.407 1039.17 291.741 1040.12 291.985L1042.53 292.533C1043.75 292.825 1044.75 293.19 1045.55 293.629C1046.34 294.067 1046.96 294.681 1047.41 295.47C1047.86 296.264 1048.08 297.319 1048.08 298.634C1048.08 300.607 1047.42 302.129 1046.1 303.201C1044.77 304.273 1042.98 304.809 1040.74 304.809ZM1059.52 304.809C1058.03 304.809 1056.72 304.687 1055.57 304.443C1054.43 304.2 1053.23 303.786 1051.99 303.201V299.803C1054.31 301.094 1056.81 301.74 1059.52 301.74C1060.88 301.74 1061.86 301.464 1062.46 300.914C1063.05 300.368 1063.35 299.645 1063.35 298.744C1063.35 297.867 1063.12 297.221 1062.64 296.807C1062.17 296.393 1061.39 296.04 1060.32 295.748L1057.95 295.163C1056.24 294.749 1054.9 294.092 1053.93 293.19C1052.95 292.289 1052.47 290.962 1052.47 289.208C1052.47 287.381 1053.06 285.956 1054.26 284.933C1055.45 283.91 1057.2 283.399 1059.52 283.399C1060.71 283.399 1061.82 283.513 1062.84 283.742C1063.87 283.976 1064.89 284.3 1065.91 284.714V287.929C1064.91 287.466 1063.93 287.106 1062.95 286.848C1061.98 286.594 1060.87 286.468 1059.63 286.468C1058.34 286.468 1057.4 286.716 1056.83 287.213C1056.26 287.715 1055.97 288.343 1055.97 289.098C1055.97 289.927 1056.22 290.555 1056.72 290.984C1057.22 291.407 1057.95 291.741 1058.9 291.985L1061.31 292.533C1062.53 292.825 1063.53 293.19 1064.32 293.629C1065.11 294.067 1065.73 294.681 1066.18 295.47C1066.64 296.264 1066.86 297.319 1066.86 298.634C1066.86 300.607 1066.2 302.129 1064.87 303.201C1063.54 304.273 1061.76 304.809 1059.52 304.809ZM1096.85 304.187L1089.73 292.46H1084.36V304.187H1080.81V276.494H1090.49C1096.53 276.494 1099.55 279.173 1099.55 284.531C1099.55 286.65 1099.05 288.36 1098.04 289.661C1097.03 290.967 1095.51 291.814 1093.49 292.204L1100.91 304.187H1096.85ZM1084.36 279.599V289.354H1090.49C1094.1 289.354 1095.91 287.747 1095.94 284.531C1095.94 282.826 1095.49 281.579 1094.59 280.79C1093.68 279.996 1092.32 279.599 1090.49 279.599H1084.36ZM1108.32 294.359C1108.37 296.6 1108.93 298.391 1110 299.73C1111.07 301.07 1112.78 301.74 1115.12 301.74C1116.9 301.74 1118.84 301.24 1120.96 300.242L1122.02 303.091C1119.81 304.236 1117.41 304.809 1114.83 304.809C1112.68 304.809 1110.86 304.358 1109.35 303.457C1107.84 302.556 1106.69 301.301 1105.91 299.694C1105.13 298.086 1104.74 296.211 1104.74 294.067C1104.74 291.802 1105.15 289.87 1105.97 288.273C1106.78 286.68 1107.88 285.469 1109.27 284.641C1110.66 283.813 1112.22 283.399 1113.95 283.399C1116.6 283.399 1118.69 284.227 1120.2 285.883C1121.71 287.54 1122.46 289.914 1122.46 293.008V294.359H1108.32ZM1113.95 286.468C1110.93 286.468 1109.13 288.136 1108.54 291.473H1118.84C1118.72 289.768 1118.26 288.506 1117.46 287.688C1116.65 286.875 1115.48 286.468 1113.95 286.468ZM1133.5 304.809C1132.01 304.809 1130.69 304.687 1129.55 304.443C1128.4 304.2 1127.21 303.786 1125.97 303.201V299.803C1128.28 301.094 1130.79 301.74 1133.5 301.74C1134.86 301.74 1135.84 301.464 1136.43 300.914C1137.03 300.368 1137.33 299.645 1137.33 298.744C1137.33 297.867 1137.09 297.221 1136.62 296.807C1136.14 296.393 1135.37 296.04 1134.3 295.748L1131.92 295.163C1130.22 294.749 1128.88 294.092 1127.91 293.19C1126.93 292.289 1126.44 290.962 1126.44 289.208C1126.44 287.381 1127.04 285.956 1128.23 284.933C1129.43 283.91 1131.18 283.399 1133.5 283.399C1134.69 283.399 1135.8 283.513 1136.82 283.742C1137.84 283.976 1138.87 284.3 1139.89 284.714V287.929C1138.89 287.466 1137.9 287.106 1136.93 286.848C1135.96 286.594 1134.85 286.468 1133.6 286.468C1132.31 286.468 1131.38 286.716 1130.81 287.213C1130.24 287.715 1129.95 288.343 1129.95 289.098C1129.95 289.927 1130.2 290.555 1130.7 290.984C1131.2 291.407 1131.92 291.741 1132.87 291.985L1135.29 292.533C1136.5 292.825 1137.51 293.19 1138.3 293.629C1139.09 294.067 1139.71 294.681 1140.16 295.47C1140.61 296.264 1140.84 297.319 1140.84 298.634C1140.84 300.607 1140.17 302.129 1138.84 303.201C1137.52 304.273 1135.74 304.809 1133.5 304.809ZM1148.47 294.359C1148.52 296.6 1149.08 298.391 1150.16 299.73C1151.23 301.07 1152.93 301.74 1155.27 301.74C1157.05 301.74 1159 301.24 1161.12 300.242L1162.18 303.091C1159.96 304.236 1157.56 304.809 1154.98 304.809C1152.83 304.809 1151.01 304.358 1149.5 303.457C1147.99 302.556 1146.84 301.301 1146.06 299.694C1145.28 298.086 1144.89 296.211 1144.89 294.067C1144.89 291.802 1145.3 289.87 1146.11 288.273C1146.93 286.68 1148.04 285.469 1149.42 284.641C1150.81 283.813 1152.37 283.399 1154.1 283.399C1156.76 283.399 1158.84 284.227 1160.35 285.883C1161.86 287.54 1162.61 289.914 1162.61 293.008V294.359H1148.47ZM1154.1 286.468C1151.08 286.468 1149.28 288.136 1148.69 291.473H1159C1158.87 289.768 1158.41 288.506 1157.61 287.688C1156.8 286.875 1155.64 286.468 1154.1 286.468ZM1177.04 283.545H1177.88V286.76H1177.04C1174.94 286.76 1172.91 287.6 1170.94 289.281V304.187H1167.5V283.983H1170.94V286.249C1172.93 284.446 1174.97 283.545 1177.04 283.545ZM1195.42 283.983H1199L1191.36 304.516H1187.41L1179.71 283.983H1183.29L1189.39 300.717L1195.42 283.983ZM1209.23 283.983C1211.37 283.983 1213 284.341 1214.12 285.058C1215.24 285.779 1215.98 286.741 1216.35 287.944C1216.72 289.152 1216.9 290.669 1216.9 292.496V304.187H1213.46V302.178C1212.54 303.055 1211.61 303.688 1210.69 304.078C1209.76 304.468 1208.76 304.662 1207.69 304.662C1206.42 304.662 1205.28 304.387 1204.26 303.837C1203.23 303.291 1202.42 302.5 1201.82 301.462C1201.23 300.429 1200.93 299.206 1200.93 297.794C1200.93 295.602 1201.61 293.902 1202.98 292.693C1204.34 291.49 1206.18 290.889 1208.49 290.889C1210.32 290.889 1211.97 291.29 1213.43 292.094C1213.4 290.901 1213.28 289.951 1213.06 289.245C1212.84 288.538 1212.39 287.995 1211.71 287.615C1211.03 287.24 1210.02 287.052 1208.68 287.052H1205.97V283.983H1209.23ZM1208.17 301.703C1208.99 301.703 1209.86 301.508 1210.77 301.118C1211.69 300.729 1212.59 300.144 1213.46 299.365V294.761C1212.1 294.079 1210.61 293.738 1209.01 293.738C1207.72 293.738 1206.63 294.048 1205.75 294.666C1204.88 295.29 1204.44 296.332 1204.44 297.794C1204.44 299.158 1204.81 300.152 1205.55 300.775C1206.3 301.394 1207.17 301.703 1208.17 301.703ZM1231.37 287.418H1226.69V298.963C1226.69 299.937 1226.84 300.602 1227.14 300.958C1227.45 301.308 1228.02 301.484 1228.85 301.484C1229.58 301.484 1230.36 301.386 1231.18 301.192V304.297C1230.09 304.541 1229.11 304.662 1228.26 304.662C1226.41 304.662 1225.11 304.285 1224.37 303.53C1223.63 302.775 1223.26 301.508 1223.26 299.73V287.418H1220.62V284.239H1223.26V277.297H1226.69V284.239H1231.37V287.418ZM1236.18 280.184V274.667H1239.62V280.184H1236.18ZM1236.18 304.187V283.983H1239.62V304.187H1236.18ZM1254.92 304.809C1252.78 304.809 1250.96 304.341 1249.47 303.406C1247.97 302.465 1246.84 301.184 1246.08 299.562C1245.33 297.945 1244.95 296.125 1244.95 294.104C1244.95 292.082 1245.33 290.26 1246.08 288.638C1246.84 287.021 1247.97 285.742 1249.47 284.802C1250.96 283.867 1252.78 283.399 1254.92 283.399C1257.07 283.399 1258.89 283.867 1260.39 284.802C1261.89 285.742 1263.01 287.021 1263.75 288.638C1264.49 290.26 1264.86 292.082 1264.86 294.104C1264.86 296.125 1264.49 297.945 1263.75 299.562C1263.01 301.184 1261.89 302.465 1260.39 303.406C1258.89 304.341 1257.07 304.809 1254.92 304.809ZM1254.92 301.703C1256.95 301.703 1258.51 300.997 1259.62 299.584C1260.73 298.171 1261.28 296.345 1261.28 294.104C1261.28 291.863 1260.73 290.041 1259.62 288.638C1258.51 287.24 1256.95 286.541 1254.92 286.541C1252.9 286.541 1251.33 287.24 1250.21 288.638C1249.09 290.041 1248.53 291.863 1248.53 294.104C1248.53 296.345 1249.09 298.171 1250.21 299.584C1251.33 300.997 1252.9 301.703 1254.92 301.703ZM1279.8 283.545C1282.29 283.545 1284.13 284.203 1285.34 285.518C1286.54 286.833 1287.15 289.001 1287.15 292.021V304.187H1283.71V292.021C1283.71 290.121 1283.39 288.77 1282.74 287.966C1282.1 287.162 1280.96 286.76 1279.33 286.76C1277.43 286.76 1275.53 287.588 1273.63 289.245V304.187H1270.2V283.983H1273.63V286.139C1275.63 284.41 1277.69 283.545 1279.8 283.545ZM1299.68 304.809C1298.19 304.809 1296.88 304.687 1295.73 304.443C1294.59 304.2 1293.4 303.786 1292.15 303.201V299.803C1294.47 301.094 1296.98 301.74 1299.68 301.74C1301.04 301.74 1302.02 301.464 1302.62 300.914C1303.22 300.368 1303.52 299.645 1303.52 298.744C1303.52 297.867 1303.28 297.221 1302.8 296.807C1302.33 296.393 1301.56 296.04 1300.48 295.748L1298.11 295.163C1296.4 294.749 1295.06 294.092 1294.09 293.19C1293.12 292.289 1292.63 290.962 1292.63 289.208C1292.63 287.381 1293.23 285.956 1294.42 284.933C1295.61 283.91 1297.37 283.399 1299.68 283.399C1300.87 283.399 1301.98 283.513 1303 283.742C1304.03 283.976 1305.05 284.3 1306.07 284.714V287.929C1305.07 287.466 1304.09 287.106 1303.11 286.848C1302.14 286.594 1301.03 286.468 1299.79 286.468C1298.5 286.468 1297.57 286.716 1296.99 287.213C1296.42 287.715 1296.14 288.343 1296.14 289.098C1296.14 289.927 1296.38 290.555 1296.88 290.984C1297.38 291.407 1298.11 291.741 1299.06 291.985L1301.47 292.533C1302.69 292.825 1303.69 293.19 1304.48 293.629C1305.27 294.067 1305.9 294.681 1306.34 295.47C1306.8 296.264 1307.02 297.319 1307.02 298.634C1307.02 300.607 1306.36 302.129 1305.03 303.201C1303.7 304.273 1301.92 304.809 1299.68 304.809Z" fill="black"/>
</g>
</g>
</g>
</g>
<g clip-path="url(#clip17_1_128)">
<g clip-path="url(#clip18_1_128)">
<path d="M276.895 3.32896L275.231 0H93.3863L2.25607 160.206L92.9702 320.412H274.814L365.945 160.206L276.895 3.32896ZM114.608 57.4245L17.2364 150.635L94.6346 14.1481L114.608 57.4245ZM270.237 13.7319L296.869 162.287L129.589 59.5051L270.237 13.7319ZM123.763 65.7469L294.372 170.609L123.763 267.565V65.7469ZM296.453 178.931L266.492 307.096L130.837 273.391L296.453 178.931ZM115.441 264.236L17.2364 162.287L115.441 67.8275V264.236ZM114.192 275.055L95.0508 307.096L23.8943 181.428L114.192 275.055ZM121.682 279.216L252.344 312.09H101.709L121.682 279.216ZM306.023 173.938L354.293 163.535L276.063 301.687L306.023 173.938ZM353.461 155.629L306.023 166.032L281.472 28.2961L353.461 155.629ZM121.682 53.2633L100.876 8.32239H259.834L121.682 53.2633Z" fill="white"/>
</g>
</g>
</g>
</g>
</mask>
<g mask="url(#mask0_1_128)">
<path d="M1495.93 0H2.25607V320.412H1495.93V0Z" fill="url(#paint2_linear_1_128)"/>
</g>
</g>
</g>
<defs>
<linearGradient id="paint0_linear_1_128" x1="416.718" y1="115.113" x2="1495.88" y2="115.113" gradientUnits="userSpaceOnUse">
<stop stop-color="#8E8E8E"/>
<stop offset="1" stop-color="#5F5F5F"/>
</linearGradient>
<linearGradient id="paint1_linear_1_128" x1="605.574" y1="293.008" x2="1307.02" y2="293.008" gradientUnits="userSpaceOnUse">
<stop stop-color="#8E8E8E"/>
<stop offset="1" stop-color="#5F5F5F"/>
</linearGradient>
<linearGradient id="paint2_linear_1_128" x1="2.25607" y1="185.198" x2="1487.03" y2="302.865" gradientUnits="userSpaceOnUse">
<stop stop-color="#6EE2F5"/>
<stop offset="1" stop-color="#6454F0"/>
</linearGradient>
<clipPath id="clip0_1_128">
<rect width="1500" height="321" fill="white" transform="translate(-0.909088 -0.293945)"/>
</clipPath>
<clipPath id="clip1_1_128">
<rect width="1493.67" height="320.412" fill="white" transform="translate(2.25607)"/>
</clipPath>
<clipPath id="clip2_1_128">
<rect width="1493.67" height="320.412" fill="white" transform="translate(2.25607)"/>
</clipPath>
<clipPath id="clip3_1_128">
<rect width="1079.25" height="305.061" fill="white" transform="translate(416.672 7.67529)"/>
</clipPath>
<clipPath id="clip4_1_128">
<rect width="1079.25" height="305.061" fill="white" transform="translate(416.672 7.67529)"/>
</clipPath>
<clipPath id="clip5_1_128">
<rect width="1079.25" height="214.876" fill="white" transform="translate(416.672 7.67529)"/>
</clipPath>
<clipPath id="clip6_1_128">
<rect width="1079.25" height="214.876" fill="white" transform="translate(416.672 7.67529)"/>
</clipPath>
<clipPath id="clip7_1_128">
<rect width="701.515" height="39.4582" fill="white" transform="translate(605.541 273.279)"/>
</clipPath>
<clipPath id="clip8_1_128">
<rect width="701.515" height="39.4582" fill="white" transform="translate(605.541 273.279)"/>
</clipPath>
<clipPath id="clip9_1_128">
<rect width="1493.67" height="320.412" fill="white" transform="translate(2.25607)"/>
</clipPath>
<clipPath id="clip10_1_128">
<rect width="1493.67" height="320.412" fill="white" transform="translate(2.25607)"/>
</clipPath>
<clipPath id="clip11_1_128">
<rect width="1079.25" height="305.061" fill="white" transform="translate(416.672 7.67529)"/>
</clipPath>
<clipPath id="clip12_1_128">
<rect width="1079.25" height="305.061" fill="white" transform="translate(416.672 7.67529)"/>
</clipPath>
<clipPath id="clip13_1_128">
<rect width="1079.25" height="214.876" fill="white" transform="translate(416.672 7.67529)"/>
</clipPath>
<clipPath id="clip14_1_128">
<rect width="1079.25" height="214.876" fill="white" transform="translate(416.672 7.67529)"/>
</clipPath>
<clipPath id="clip15_1_128">
<rect width="701.515" height="39.4582" fill="white" transform="translate(605.541 273.279)"/>
</clipPath>
<clipPath id="clip16_1_128">
<rect width="701.515" height="39.4582" fill="white" transform="translate(605.541 273.279)"/>
</clipPath>
<clipPath id="clip17_1_128">
<rect width="363.689" height="320.412" fill="white" transform="translate(2.25607)"/>
</clipPath>
<clipPath id="clip18_1_128">
<rect width="363.689" height="320.412" fill="white" transform="translate(2.25607)"/>
</clipPath>
</defs>
</svg>
