<svg width="483" height="474" viewBox="0 0 483 474" fill="none" xmlns="http://www.w3.org/2000/svg">
<rect x="38.5636" y="41.5876" width="411" height="390" rx="10" fill="#F1F1F1"/>
<path d="M409.101 165.378L409.733 161.71L263.231 53.9857L94.9063 129.069L73.0831 311.877L219.585 419.602L387.909 344.519L409.101 165.378ZM246.31 112.821L112.645 130.233L255.855 66.1235L246.31 112.821ZM397.575 169.815L331.026 305.274L257.146 123.372L397.575 169.815ZM248.755 124.949L324.085 310.5L129.198 287.543L248.755 124.949ZM320.831 318.437L220.768 403.944L131.446 296.427L320.831 318.437ZM124.465 279.931L105.743 139.619L240.818 121.695L124.465 279.931ZM117.05 287.907L82.6477 302.382L99.767 158.985L117.05 287.907ZM120.619 295.697L206.412 399.585L85.0535 310.349L120.619 295.697ZM331.499 320.084L376.551 340.298L231.683 405.255L331.499 320.084ZM380.564 333.436L336.183 313.715L397.999 188.205L380.564 333.436ZM254.474 113.66L264.335 65.1277L392.398 159.295L254.474 113.66Z" fill="url(#paint0_linear_7_5)"/>
<defs>
<linearGradient id="paint0_linear_7_5" x1="170.562" y1="-184.826" x2="141.799" y2="463.675" gradientUnits="userSpaceOnUse">
<stop/>
<stop offset="1" stop-color="#666666"/>
</linearGradient>
</defs>
</svg>
