<svg width="735" height="682" viewBox="0 0 735 682" fill="none" xmlns="http://www.w3.org/2000/svg">
<rect width="735" height="682" rx="50" fill="white"/>
<rect width="735" height="682" rx="50" stroke="black"/>
<path d="M501.417 263.816L501.862 261.02L387.695 177.071L258.74 232.564L243.953 372.006L358.121 455.955L487.076 400.462L501.417 263.816ZM375.304 221.839L272.431 233.651L382.143 186.263L375.304 221.839ZM492.578 267.077L442.776 369.84L383.777 230.022L492.578 267.077ZM377.325 231.133L437.482 373.756L286.951 354.038L377.325 231.133ZM435.061 379.785L358.859 444.004L288.784 360.852L435.061 379.785ZM283.217 348.169L267.213 240.746L371.168 228.558L283.217 348.169ZM277.588 354.181L251.222 364.857L262.822 255.477L277.588 354.181ZM280.427 360.173L347.74 440.513L253.166 370.972L280.427 360.173ZM443.306 381.162L478.27 397.111L367.29 445.128L443.306 381.162ZM481.288 391.912L446.846 376.347L493.11 281.134L481.288 391.912ZM381.609 222.571L388.67 185.597L488.469 258.98L381.609 222.571Z" fill="url(#paint0_linear_10_6)" stroke="url(#paint1_linear_10_6)" stroke-width="10"/>
<defs>
<linearGradient id="paint0_linear_10_6" x1="313.573" y1="-6.44274" x2="284.704" y2="487.95" gradientUnits="userSpaceOnUse">
<stop/>
<stop offset="1" stop-color="#666666"/>
</linearGradient>
<linearGradient id="paint1_linear_10_6" x1="444.648" y1="218.949" x2="301.168" y2="414.076" gradientUnits="userSpaceOnUse">
<stop/>
<stop offset="1" stop-color="#666666"/>
</linearGradient>
</defs>
</svg>
