<svg xmlns="http://www.w3.org/2000/svg" version="1.1" xmlns:xlink="http://www.w3.org/1999/xlink" xmlns:svgjs="http://svgjs.dev/svgjs" width="1500" height="344" viewBox="0 0 1500 344"><g transform="matrix(1,0,0,1,-0.9090909090909918,-1.5269021625643973)"><svg viewBox="0 0 396 91" data-background-color="#ffffff" preserveAspectRatio="xMidYMid meet" height="344" width="1500" xmlns="http://www.w3.org/2000/svg" xmlns:xlink="http://www.w3.org/1999/xlink"><g id="tight-bounds" transform="matrix(1,0,0,1,0.2400000000000091,0.4039188860272134)"><svg viewBox="0 0 395.52 90.19216222794556" height="90.19216222794556" width="395.52"><g><svg viewBox="0 0 559.8136589020223 127.65676663913578" height="90.19216222794556" width="395.52"><g transform="matrix(1,0,0,1,164.29365890202234,6.096488131825595)"><svg viewBox="0 0 395.52 115.46379037548459" height="115.46379037548459" width="395.52"><g id="textblocktransform"><svg viewBox="0 0 395.52 115.46379037548459" height="115.46379037548459" width="395.52" id="textblock"><g><svg viewBox="0 0 395.52 82.15548961424332" height="82.15548961424332" width="395.52"><g transform="matrix(1,0,0,1,0,0)"><svg width="395.52" viewBox="3.3 -41.1 252.72999999999996 52.5" height="82.15548961424332" data-palette-color="#7a7a7a"><g class="wordmark-text-0" data-fill-palette-color="primary" id="text-0"><path d="M24.9-29.7L11-29.7 11-20.45 22.75-20.45 22.75-15.15 11-15.15 11 0 3.3 0 3.3-35 24.9-35 24.9-29.7ZM29.5 0L29.5-39.55 36.9-39.55 36.9 0 29.5 0ZM67.4-15.55Q67.4-14.85 67.15-12.4L67.15-12.4 49.45-12.4Q49.7-8.6 51.27-6.5 52.85-4.4 55.4-4.4L55.4-4.4Q56.55-4.4 57.32-4.7 58.09-5 58.92-5.78 59.75-6.55 61.1-8.3L61.1-8.3Q61.35-8.7 62.15-8.7L62.15-8.7Q63-8.7 64.22-8.13 65.45-7.55 66.84-6.5L66.84-6.5Q63.6 0.5 55.4 0.5L55.4 0.5Q49.1 0.5 45.5-3.33 41.9-7.15 41.9-13.8L41.9-13.8Q41.9-18.15 43.52-21.35 45.15-24.55 48.17-26.28 51.2-28 55.35-28L55.35-28Q61.1-28 64.25-24.75 67.4-21.5 67.4-15.55L67.4-15.55ZM49.55-16.6L59.9-16.6Q59.9-23.3 55.2-23.3L55.2-23.3Q52.8-23.3 51.35-21.6 49.9-19.9 49.55-16.6L49.55-16.6ZM94.09 0L87.19 0Q86.99-2.8 85.62-5.3 84.24-7.8 81.89-10.4L81.89-10.4Q79.54-7.8 78.17-5.3 76.79-2.8 76.59 0L76.59 0 69.69 0Q69.94-4.05 72.12-7.43 74.29-10.8 77.99-14.45L77.99-14.45Q75.44-17 73.84-18.88 72.24-20.75 71.12-22.93 69.99-25.1 69.79-27.5L69.79-27.5 76.69-27.5Q76.74-25.2 78.09-23.03 79.44-20.85 81.89-18.35L81.89-18.35Q84.34-20.85 85.69-23.03 87.04-25.2 87.09-27.5L87.09-27.5 93.99-27.5Q93.79-25.1 92.67-22.93 91.54-20.75 89.94-18.88 88.34-17 85.79-14.45L85.79-14.45Q89.49-10.8 91.67-7.43 93.84-4.05 94.09 0L94.09 0ZM98.39 0L98.39-27.5 105.79-27.5 105.79 0 98.39 0ZM101.74-32.55Q97.84-32.55 97.84-36.45L97.84-36.45 97.84-37.2Q97.84-41.1 101.74-41.1L101.74-41.1 102.44-41.1Q106.34-41.1 106.34-37.2L106.34-37.2 106.34-36.45Q106.34-32.55 102.44-32.55L102.44-32.55 101.74-32.55ZM125.89 0.5Q119.74 0.5 116.24-1.6 112.74-3.7 112.74-7.35L112.74-7.35Q112.74-9.1 114.21-10.1 115.69-11.1 118.39-11.15L118.39-11.15Q118.69-8.2 120.66-6.6 122.64-5 125.99-5L125.99-5Q132.14-5 132.14-9.55L132.14-9.55Q132.14-11.35 130.46-12.5 128.79-13.65 124.64-14.85L124.64-14.85Q118.74-16.5 115.99-19.07 113.24-21.65 113.24-25.7L113.24-25.7Q113.24-30.25 116.76-32.88 120.29-35.5 126.39-35.5L126.39-35.5Q131.29-35.5 134.79-33.18 138.29-30.85 139.59-26.7L139.59-26.7Q138.74-25.85 137.24-25.2 135.74-24.55 134.59-24.55L134.59-24.55Q133.69-24.55 133.19-24.93 132.69-25.3 132.14-26.35L132.14-26.35Q131.14-28.3 129.84-29.15 128.54-30 126.39-30L126.39-30Q121.04-30 121.04-26.45L121.04-26.45Q121.04-25.05 121.59-24.18 122.14-23.3 123.49-22.58 124.84-21.85 127.59-20.95L127.59-20.95Q132.59-19.3 135.24-17.93 137.89-16.55 138.96-14.95 140.04-13.35 140.04-11L140.04-11Q140.04-7.6 138.26-5 136.49-2.4 133.29-0.95 130.09 0.5 125.89 0.5L125.89 0.5ZM159.04-28Q164.39-28 167.14-24.53 169.89-21.05 169.89-14.3L169.89-14.3Q169.89-9.9 168.29-6.55 166.69-3.2 163.79-1.35 160.89 0.5 157.09 0.5L157.09 0.5Q154.99 0.5 151.94-0.35L151.94-0.35 151.94 11.4 144.54 11.4 144.54-17Q144.54-21.05 144.21-22.88 143.89-24.7 142.89-26L142.89-26Q144.29-26.8 145.86-27.25 147.44-27.7 148.84-27.7L148.84-27.7Q149.89-27.7 150.54-27 151.19-26.3 151.54-24.85L151.54-24.85Q154.54-28 159.04-28L159.04-28ZM156.04-4.3Q159.14-4.3 160.76-6.85 162.39-9.4 162.39-14.3L162.39-14.3Q162.39-18.95 161.19-21.13 159.99-23.3 157.39-23.3L157.39-23.3Q155.79-23.3 154.29-22.55 152.79-21.8 151.94-20.7L151.94-20.7 151.94-20.05 151.94-5.2Q153.99-4.3 156.04-4.3L156.04-4.3ZM196.58-10.35Q196.58-6.25 196.91-4.45 197.23-2.65 198.23-1.35L198.23-1.35Q197.18-0.6 195.53-0.13 193.88 0.35 192.53 0.35L192.53 0.35Q191.28 0.35 190.53-0.55 189.78-1.45 189.43-3.4L189.43-3.4Q188.08-1.3 186.23-0.4 184.38 0.5 181.43 0.5L181.43 0.5Q177.78 0.5 175.53-1.48 173.28-3.45 173.28-6.65L173.28-6.65Q173.28-11.15 177.06-13.38 180.83-15.6 189.18-16.05L189.18-16.05 189.18-18.65Q189.18-20.7 188.11-21.7 187.03-22.7 184.83-22.7L184.83-22.7Q183.23-22.7 181.66-22.08 180.08-21.45 177.78-19.9L177.78-19.9Q177.53-19.7 177.08-19.7L177.08-19.7Q176.18-19.7 175.16-20.9 174.13-22.1 173.33-24.05L173.33-24.05Q175.28-25.75 178.81-26.88 182.33-28 185.78-28L185.78-28Q190.98-28 193.78-25.58 196.58-23.15 196.58-18.65L196.58-18.65 196.58-10.35ZM184.03-4.3Q185.53-4.3 186.81-5.35 188.08-6.4 189.18-8.6L189.18-8.6 189.18-12.3Q185.03-12.15 182.91-10.93 180.78-9.7 180.78-7.45L180.78-7.45Q180.78-6 181.68-5.15 182.58-4.3 184.03-4.3L184.03-4.3ZM214.98 0.5Q201.18 0.5 201.18-13.9L201.18-13.9Q201.18-20.5 204.73-24.25 208.28-28 214.53-28L214.53-28Q219.43-28 222.61-25.58 225.78-23.15 226.33-19L226.33-19Q223.43-17.25 221.53-17.25L221.53-17.25Q220.73-17.25 220.21-17.75 219.68-18.25 219.33-19.35L219.33-19.35Q218.58-21.45 217.48-22.33 216.38-23.2 214.53-23.2L214.53-23.2Q211.73-23.2 210.21-20.8 208.68-18.4 208.68-13.9L208.68-13.9Q208.68-9.05 210.21-6.78 211.73-4.5 214.98-4.5L214.98-4.5Q217.23-4.5 218.53-6.03 219.83-7.55 220.48-10.9L220.48-10.9Q223.23-10.9 224.43-9.9 225.63-8.9 225.63-6.65L225.63-6.65Q225.63-4.75 224.16-3.1 222.68-1.45 220.23-0.48 217.78 0.5 214.98 0.5L214.98 0.5ZM256.03-15.55Q256.03-14.85 255.78-12.4L255.78-12.4 238.08-12.4Q238.33-8.6 239.9-6.5 241.48-4.4 244.03-4.4L244.03-4.4Q245.18-4.4 245.95-4.7 246.73-5 247.55-5.78 248.38-6.55 249.73-8.3L249.73-8.3Q249.98-8.7 250.78-8.7L250.78-8.7Q251.63-8.7 252.85-8.13 254.08-7.55 255.48-6.5L255.48-6.5Q252.23 0.5 244.03 0.5L244.03 0.5Q237.73 0.5 234.13-3.33 230.53-7.15 230.53-13.8L230.53-13.8Q230.53-18.15 232.15-21.35 233.78-24.55 236.8-26.28 239.83-28 243.98-28L243.98-28Q249.73-28 252.88-24.75 256.03-21.5 256.03-15.55L256.03-15.55ZM238.18-16.6L248.53-16.6Q248.53-23.3 243.83-23.3L243.83-23.3Q241.43-23.3 239.98-21.6 238.53-19.9 238.18-16.6L238.18-16.6Z" fill="#7a7a7a" data-fill-palette-color="primary"></path></g></svg></g></svg></g><g transform="matrix(1,0,0,1,69.21599999999998,101.55042898041543)"><svg viewBox="0 0 257.088 13.913361395069156" height="13.913361395069156" width="257.088"><g transform="matrix(1,0,0,1,0,0)"><svg width="257.088" viewBox="4.65 -42.3 997.71 54" height="13.913361395069156" data-palette-color="#7a7a7a"><path d="M28.7-31.85L11.6-31.85 11.6-21.25 26.2-21.25 26.2-15.2 11.6-15.2 11.6 0 4.65 0 4.65-37.9 28.7-37.9 28.7-31.85ZM42.75 0.65Q38.65 0.65 36.75-1.07 34.85-2.8 34.85-6.4L34.85-6.4 34.85-42.3 41.55-42.3 41.55-8.6Q41.55-6.8 42.15-6.1 42.75-5.4 44.3-5.4L44.3-5.4Q45.85-5.4 47.05-5.7L47.05-5.7 47.05 0.1Q44.7 0.65 42.75 0.65L42.75 0.65ZM57.59-12.45Q58.4-4.85 66-4.85L66-4.85Q67.95-4.85 69.8-5.35 71.65-5.85 73.95-6.95L73.95-6.95 75.75-1.65Q73.34-0.3 70.84 0.28 68.34 0.85 65.2 0.85L65.2 0.85Q60.55 0.85 57.25-1.03 53.95-2.9 52.27-6.25 50.59-9.6 50.59-14.05L50.59-14.05Q50.59-18.7 52.34-22.03 54.09-25.35 57.09-27.05 60.09-28.75 63.8-28.75L63.8-28.75Q69.65-28.75 72.97-25.28 76.3-21.8 76.34-15.1L76.34-15.1 76.34-12.45 57.59-12.45ZM63.8-23.05Q58.9-23.05 57.84-17.65L57.84-17.65 69.3-17.65Q69.05-20.45 67.7-21.75 66.34-23.05 63.8-23.05L63.8-23.05ZM106.99 0L99.09 0 93.09-9.3 87.39 0 79.49 0 89.04-14.6 79.99-27.95 87.89-27.95 93.29-19.5 98.74-27.95 106.54-27.95 97.24-14.2 106.99 0ZM112.34-32.8L112.34-40.35 119.04-40.35 119.04-32.8 112.34-32.8ZM112.34 0L112.34-27.95 119.04-27.95 119.04 0 112.34 0ZM141.54-28.75Q145.24-28.75 148.11-27.1 150.99-25.45 152.59-22.13 154.19-18.8 154.19-13.95L154.19-13.95Q154.19-9.1 152.59-5.78 150.99-2.45 148.11-0.8 145.24 0.85 141.54 0.85L141.54 0.85Q137.54 0.85 133.74-2.2L133.74-2.2 133.74 0 127.04 0 127.04-42.3 133.74-42.3 133.74-25.75Q137.49-28.75 141.54-28.75L141.54-28.75ZM140.29-5.2Q143.69-5.2 145.44-7.43 147.19-9.65 147.19-13.95L147.19-13.95Q147.19-18.25 145.44-20.5 143.69-22.75 140.29-22.75L140.29-22.75Q137.04-22.75 133.74-20.2L133.74-20.2 133.74-7.75Q136.94-5.2 140.29-5.2L140.29-5.2ZM168.34 0.65Q164.24 0.65 162.34-1.07 160.44-2.8 160.44-6.4L160.44-6.4 160.44-42.3 167.14-42.3 167.14-8.6Q167.14-6.8 167.74-6.1 168.34-5.4 169.89-5.4L169.89-5.4Q171.44-5.4 172.64-5.7L172.64-5.7 172.64 0.1Q170.29 0.65 168.34 0.65L168.34 0.65ZM183.18-12.45Q183.98-4.85 191.58-4.85L191.58-4.85Q193.53-4.85 195.38-5.35 197.23-5.85 199.53-6.95L199.53-6.95 201.33-1.65Q198.93-0.3 196.43 0.28 193.93 0.85 190.78 0.85L190.78 0.85Q186.13 0.85 182.83-1.03 179.53-2.9 177.86-6.25 176.18-9.6 176.18-14.05L176.18-14.05Q176.18-18.7 177.93-22.03 179.68-25.35 182.68-27.05 185.68-28.75 189.38-28.75L189.38-28.75Q195.23-28.75 198.56-25.28 201.88-21.8 201.93-15.1L201.93-15.1 201.93-12.45 183.18-12.45ZM189.38-23.05Q184.48-23.05 183.43-17.65L183.43-17.65 194.88-17.65Q194.63-20.45 193.28-21.75 191.93-23.05 189.38-23.05L189.38-23.05ZM231.13 0.85Q223.58 0.85 217.68-1.95L217.68-1.95 217.68-8.25Q223.73-5.1 231.13-5.1L231.13-5.1Q234.68-5.1 236.33-6.45 237.98-7.8 238.03-10.05L238.03-10.05Q238.03-12.25 236.5-13.35 234.98-14.45 231.68-15.35L231.68-15.35 228.28-16.3Q225.38-17.1 223.23-18.23 221.08-19.35 219.63-21.53 218.18-23.7 218.18-27.15L218.18-27.15Q218.18-32.75 221.53-35.68 224.88-38.6 230.98-38.6L230.98-38.6Q234.63-38.6 237.4-37.93 240.18-37.25 243.08-35.9L243.08-35.9 243.08-29.8Q237.63-32.65 230.98-32.65L230.98-32.65Q225.08-32.65 225.08-27.7L225.08-27.7Q225.13-25.5 226.45-24.45 227.78-23.4 231.03-22.55L231.03-22.55 234.48-21.6Q237.63-20.75 239.83-19.55 242.03-18.35 243.48-16.13 244.93-13.9 244.93-10.35L244.93-10.35Q244.88-5.15 241.2-2.15 237.53 0.85 231.13 0.85L231.13 0.85ZM266.08-28.75Q269.78-28.75 272.65-27.1 275.53-25.45 277.13-22.13 278.73-18.8 278.73-13.95L278.73-13.95Q278.73-9.1 277.13-5.78 275.53-2.45 272.65-0.8 269.78 0.85 266.08 0.85L266.08 0.85Q262.08 0.85 258.28-2.2L258.28-2.2 258.28 11.7 251.58 11.7 251.58-27.95 258.28-27.95 258.28-25.75Q262.03-28.75 266.08-28.75L266.08-28.75ZM264.83-5.2Q268.23-5.2 269.98-7.43 271.73-9.65 271.73-13.95L271.73-13.95Q271.73-18.25 269.98-20.5 268.23-22.75 264.83-22.75L264.83-22.75Q261.58-22.75 258.28-20.2L258.28-20.2 258.28-7.75Q261.48-5.2 264.83-5.2L264.83-5.2ZM294.72-27.95Q299.67-27.95 302.25-26.48 304.82-25 305.67-22.53 306.52-20.05 306.52-16.3L306.52-16.3 306.52 0 299.82 0 299.82-2.55Q297.97-0.85 296.2-0.1 294.42 0.65 292.32 0.65L292.32 0.65Q287.92 0.65 285.25-1.88 282.57-4.4 282.57-8.8L282.57-8.8Q282.57-13.3 285.35-15.78 288.12-18.25 292.97-18.25L292.97-18.25Q296.92-18.25 299.82-16.7L299.82-16.7Q299.77-18.6 299.35-19.75 298.92-20.9 297.67-21.53 296.42-22.15 293.97-22.15L293.97-22.15 289.27-22.15 289.27-27.95 294.72-27.95ZM293.52-4.7Q296.57-4.7 299.82-7.5L299.82-7.5 299.82-11.9Q297.17-13.25 294.37-13.25L294.37-13.25Q292.17-13.25 290.77-12.23 289.37-11.2 289.37-8.9L289.37-8.9Q289.37-6.65 290.55-5.68 291.72-4.7 293.52-4.7L293.52-4.7ZM325.97 0.85Q319.22 0.8 315.65-3.13 312.07-7.05 312.07-14.05L312.07-14.05Q312.07-20.95 315.65-24.83 319.22-28.7 325.97-28.75L325.97-28.75Q328.37-28.75 330.1-28.45 331.82-28.15 333.67-27.4L333.67-27.4 333.67-21.15Q331.82-22.05 330.2-22.4 328.57-22.75 326.62-22.75L326.62-22.75Q319.02-22.7 319.02-14.1L319.02-14.1Q319.02-5.2 326.47-5.2L326.47-5.2Q330.07-5.2 333.82-7.35L333.82-7.35 335.77-1.75Q331.27 0.85 325.97 0.85L325.97 0.85ZM346.37-12.45Q347.17-4.85 354.77-4.85L354.77-4.85Q356.72-4.85 358.57-5.35 360.42-5.85 362.72-6.95L362.72-6.95 364.52-1.65Q362.12-0.3 359.62 0.28 357.12 0.85 353.97 0.85L353.97 0.85Q349.32 0.85 346.02-1.03 342.72-2.9 341.04-6.25 339.37-9.6 339.37-14.05L339.37-14.05Q339.37-18.7 341.12-22.03 342.87-25.35 345.87-27.05 348.87-28.75 352.57-28.75L352.57-28.75Q358.42-28.75 361.74-25.28 365.07-21.8 365.12-15.1L365.12-15.1 365.12-12.45 346.37-12.45ZM352.57-23.05Q347.67-23.05 346.62-17.65L346.62-17.65 358.07-17.65Q357.82-20.45 356.47-21.75 355.12-23.05 352.57-23.05L352.57-23.05ZM380.47 0.85Q377.22 0.85 374.67 0.3 372.12-0.25 369.37-1.55L369.37-1.55 369.37-7.7Q372.02-6.2 374.74-5.53 377.47-4.85 380.47-4.85L380.47-4.85Q384.72-4.85 384.72-7.9L384.72-7.9Q384.72-9.2 383.99-9.83 383.27-10.45 381.72-10.85L381.72-10.85 377.62-11.75Q373.77-12.6 371.79-14.53 369.82-16.45 369.82-20.05L369.82-20.05Q369.82-28.75 380.67-28.75L380.67-28.75Q385.42-28.75 390.22-26.95L390.22-26.95 390.22-21.05Q388.37-21.95 385.97-22.5 383.57-23.05 380.97-23.05L380.97-23.05Q376.62-23.05 376.62-20.45L376.62-20.45Q376.62-19.25 377.34-18.7 378.07-18.15 379.52-17.8L379.52-17.8 383.57-16.9Q387.62-15.95 389.57-14.05 391.52-12.15 391.52-8.2L391.52-8.2Q391.52-3.75 388.52-1.45 385.52 0.85 380.47 0.85L380.47 0.85ZM395.71 7.55L398.71-8.55 405.71-8.55 401.76 7.55 395.71 7.55ZM435.46 0.85Q427.91 0.85 422.01-1.95L422.01-1.95 422.01-8.25Q428.06-5.1 435.46-5.1L435.46-5.1Q439.01-5.1 440.66-6.45 442.31-7.8 442.36-10.05L442.36-10.05Q442.36-12.25 440.83-13.35 439.31-14.45 436.01-15.35L436.01-15.35 432.61-16.3Q429.71-17.1 427.56-18.23 425.41-19.35 423.96-21.53 422.51-23.7 422.51-27.15L422.51-27.15Q422.51-32.75 425.86-35.68 429.21-38.6 435.31-38.6L435.31-38.6Q438.96-38.6 441.73-37.93 444.51-37.25 447.41-35.9L447.41-35.9 447.41-29.8Q441.96-32.65 435.31-32.65L435.31-32.65Q429.41-32.65 429.41-27.7L429.41-27.7Q429.46-25.5 430.78-24.45 432.11-23.4 435.36-22.55L435.36-22.55 438.81-21.6Q441.96-20.75 444.16-19.55 446.36-18.35 447.81-16.13 449.26-13.9 449.26-10.35L449.26-10.35Q449.21-5.15 445.53-2.15 441.86 0.85 435.46 0.85L435.46 0.85ZM461.21-12.45Q462.01-4.85 469.61-4.85L469.61-4.85Q471.56-4.85 473.41-5.35 475.26-5.85 477.56-6.95L477.56-6.95 479.36-1.65Q476.96-0.3 474.46 0.28 471.96 0.85 468.81 0.85L468.81 0.85Q464.16 0.85 460.86-1.03 457.56-2.9 455.88-6.25 454.21-9.6 454.21-14.05L454.21-14.05Q454.21-18.7 455.96-22.03 457.71-25.35 460.71-27.05 463.71-28.75 467.41-28.75L467.41-28.75Q473.26-28.75 476.58-25.28 479.91-21.8 479.96-15.1L479.96-15.1 479.96-12.45 461.21-12.45ZM467.41-23.05Q462.51-23.05 461.46-17.65L461.46-17.65 472.91-17.65Q472.66-20.45 471.31-21.75 469.96-23.05 467.41-23.05L467.41-23.05ZM495.5-27.95Q500.45-27.95 503.03-26.48 505.6-25 506.45-22.53 507.3-20.05 507.3-16.3L507.3-16.3 507.3 0 500.6 0 500.6-2.55Q498.75-0.85 496.98-0.1 495.2 0.65 493.1 0.65L493.1 0.65Q488.7 0.65 486.03-1.88 483.35-4.4 483.35-8.8L483.35-8.8Q483.35-13.3 486.13-15.78 488.9-18.25 493.75-18.25L493.75-18.25Q497.7-18.25 500.6-16.7L500.6-16.7Q500.55-18.6 500.13-19.75 499.7-20.9 498.45-21.53 497.2-22.15 494.75-22.15L494.75-22.15 490.05-22.15 490.05-27.95 495.5-27.95ZM494.3-4.7Q497.35-4.7 500.6-7.5L500.6-7.5 500.6-11.9Q497.95-13.25 495.15-13.25L495.15-13.25Q492.95-13.25 491.55-12.23 490.15-11.2 490.15-8.9L490.15-8.9Q490.15-6.65 491.33-5.68 492.5-4.7 494.3-4.7L494.3-4.7ZM547.25-28.55Q552.45-28.55 555-25.78 557.55-23 557.55-16.85L557.55-16.85 557.55 0 550.85 0 550.85-16.85Q550.85-19.8 549.75-21.18 548.65-22.55 545.95-22.55L545.95-22.55Q542.7-22.55 539.25-19.45L539.25-19.45Q539.4-18.25 539.4-16.85L539.4-16.85 539.4 0 532.7 0 532.7-16.85Q532.7-19.8 531.6-21.18 530.5-22.55 527.8-22.55L527.8-22.55Q524.55-22.55 521.25-19.65L521.25-19.65 521.25 0 514.55 0 514.55-27.95 521.25-27.95 521.25-25.4Q525-28.55 529.1-28.55L529.1-28.55Q532.4-28.55 534.63-27.48 536.85-26.4 538-24.1L538-24.1Q540.25-26.35 542.48-27.45 544.7-28.55 547.25-28.55L547.25-28.55ZM572.8 0.65Q568.7 0.65 566.8-1.07 564.9-2.8 564.9-6.4L564.9-6.4 564.9-42.3 571.6-42.3 571.6-8.6Q571.6-6.8 572.2-6.1 572.8-5.4 574.35-5.4L574.35-5.4Q575.9-5.4 577.1-5.7L577.1-5.7 577.1 0.1Q574.75 0.65 572.8 0.65L572.8 0.65ZM587.64-12.45Q588.45-4.85 596.05-4.85L596.05-4.85Q598-4.85 599.85-5.35 601.7-5.85 604-6.95L604-6.95 605.8-1.65Q603.39-0.3 600.89 0.28 598.39 0.85 595.25 0.85L595.25 0.85Q590.6 0.85 587.3-1.03 584-2.9 582.32-6.25 580.64-9.6 580.64-14.05L580.64-14.05Q580.64-18.7 582.39-22.03 584.14-25.35 587.14-27.05 590.14-28.75 593.85-28.75L593.85-28.75Q599.7-28.75 603.02-25.28 606.35-21.8 606.39-15.1L606.39-15.1 606.39-12.45 587.64-12.45ZM593.85-23.05Q588.95-23.05 587.89-17.65L587.89-17.65 599.35-17.65Q599.1-20.45 597.75-21.75 596.39-23.05 593.85-23.05L593.85-23.05ZM621.74 0.85Q618.49 0.85 615.94 0.3 613.39-0.25 610.64-1.55L610.64-1.55 610.64-7.7Q613.29-6.2 616.02-5.53 618.74-4.85 621.74-4.85L621.74-4.85Q625.99-4.85 625.99-7.9L625.99-7.9Q625.99-9.2 625.27-9.83 624.54-10.45 622.99-10.85L622.99-10.85 618.89-11.75Q615.04-12.6 613.07-14.53 611.09-16.45 611.09-20.05L611.09-20.05Q611.09-28.75 621.94-28.75L621.94-28.75Q626.69-28.75 631.49-26.95L631.49-26.95 631.49-21.05Q629.64-21.95 627.24-22.5 624.84-23.05 622.24-23.05L622.24-23.05Q617.89-23.05 617.89-20.45L617.89-20.45Q617.89-19.25 618.62-18.7 619.34-18.15 620.79-17.8L620.79-17.8 624.84-16.9Q628.89-15.95 630.84-14.05 632.79-12.15 632.79-8.2L632.79-8.2Q632.79-3.75 629.79-1.45 626.79 0.85 621.74 0.85L621.74 0.85ZM648.69 0.85Q645.44 0.85 642.89 0.3 640.34-0.25 637.59-1.55L637.59-1.55 637.59-7.7Q640.24-6.2 642.97-5.53 645.69-4.85 648.69-4.85L648.69-4.85Q652.94-4.85 652.94-7.9L652.94-7.9Q652.94-9.2 652.22-9.83 651.49-10.45 649.94-10.85L649.94-10.85 645.84-11.75Q641.99-12.6 640.01-14.53 638.04-16.45 638.04-20.05L638.04-20.05Q638.04-28.75 648.89-28.75L648.89-28.75Q653.64-28.75 658.44-26.95L658.44-26.95 658.44-21.05Q656.59-21.95 654.19-22.5 651.79-23.05 649.19-23.05L649.19-23.05Q644.84-23.05 644.84-20.45L644.84-20.45Q644.84-19.25 645.56-18.7 646.29-18.15 647.74-17.8L647.74-17.8 651.79-16.9Q655.84-15.95 657.79-14.05 659.74-12.15 659.74-8.2L659.74-8.2Q659.74-3.75 656.74-1.45 653.74 0.85 648.69 0.85L648.69 0.85ZM699.38 0L690.48-14.85 684.68-14.85 684.68 0 677.73 0 677.73-37.9 692.08-37.9Q705.48-37.9 705.48-26.35L705.48-26.35Q705.48-22.05 703.48-19.3 701.48-16.55 697.53-15.5L697.53-15.5 707.13 0 699.38 0ZM684.68-31.95L684.68-20.8 692.08-20.8Q698.43-20.8 698.43-26.5L698.43-26.5Q698.43-29.35 696.86-30.65 695.28-31.95 692.08-31.95L692.08-31.95 684.68-31.95ZM718.58-12.45Q719.38-4.85 726.98-4.85L726.98-4.85Q728.93-4.85 730.78-5.35 732.63-5.85 734.93-6.95L734.93-6.95 736.73-1.65Q734.33-0.3 731.83 0.28 729.33 0.85 726.18 0.85L726.18 0.85Q721.53 0.85 718.23-1.03 714.93-2.9 713.26-6.25 711.58-9.6 711.58-14.05L711.58-14.05Q711.58-18.7 713.33-22.03 715.08-25.35 718.08-27.05 721.08-28.75 724.78-28.75L724.78-28.75Q730.63-28.75 733.96-25.28 737.28-21.8 737.33-15.1L737.33-15.1 737.33-12.45 718.58-12.45ZM724.78-23.05Q719.88-23.05 718.83-17.65L718.83-17.65 730.28-17.65Q730.03-20.45 728.68-21.75 727.33-23.05 724.78-23.05L724.78-23.05ZM752.68 0.85Q749.43 0.85 746.88 0.3 744.33-0.25 741.58-1.55L741.58-1.55 741.58-7.7Q744.23-6.2 746.95-5.53 749.68-4.85 752.68-4.85L752.68-4.85Q756.93-4.85 756.93-7.9L756.93-7.9Q756.93-9.2 756.2-9.83 755.48-10.45 753.93-10.85L753.93-10.85 749.83-11.75Q745.98-12.6 744-14.53 742.03-16.45 742.03-20.05L742.03-20.05Q742.03-28.75 752.88-28.75L752.88-28.75Q757.63-28.75 762.43-26.95L762.43-26.95 762.43-21.05Q760.58-21.95 758.18-22.5 755.78-23.05 753.18-23.05L753.18-23.05Q748.83-23.05 748.83-20.45L748.83-20.45Q748.83-19.25 749.55-18.7 750.28-18.15 751.73-17.8L751.73-17.8 755.78-16.9Q759.83-15.95 761.78-14.05 763.73-12.15 763.73-8.2L763.73-8.2Q763.73-3.75 760.73-1.45 757.73 0.85 752.68 0.85L752.68 0.85ZM775.38-12.45Q776.18-4.85 783.78-4.85L783.78-4.85Q785.73-4.85 787.58-5.35 789.43-5.85 791.73-6.95L791.73-6.95 793.53-1.65Q791.13-0.3 788.63 0.28 786.13 0.85 782.98 0.85L782.98 0.85Q778.33 0.85 775.03-1.03 771.73-2.9 770.05-6.25 768.38-9.6 768.38-14.05L768.38-14.05Q768.38-18.7 770.13-22.03 771.88-25.35 774.88-27.05 777.88-28.75 781.58-28.75L781.58-28.75Q787.43-28.75 790.75-25.28 794.08-21.8 794.13-15.1L794.13-15.1 794.13-12.45 775.38-12.45ZM781.58-23.05Q776.68-23.05 775.63-17.65L775.63-17.65 787.08-17.65Q786.83-20.45 785.48-21.75 784.13-23.05 781.58-23.05L781.58-23.05ZM814.67-28.55L815.82-28.55 815.82-22.55 814.67-22.55Q810.57-22.55 806.62-19.45L806.62-19.45 806.62 0 799.92 0 799.92-27.95 806.62-27.95 806.62-25.15Q810.47-28.55 814.67-28.55L814.67-28.55ZM839.52-27.95L846.42-27.95 836.57 0.45 828.17 0.45 818.32-27.95 825.22-27.95 832.37-5.95 839.52-27.95ZM861.17-27.95Q866.12-27.95 868.69-26.48 871.27-25 872.12-22.53 872.97-20.05 872.97-16.3L872.97-16.3 872.97 0 866.27 0 866.27-2.55Q864.42-0.85 862.64-0.1 860.87 0.65 858.77 0.65L858.77 0.65Q854.37 0.65 851.69-1.88 849.02-4.4 849.02-8.8L849.02-8.8Q849.02-13.3 851.79-15.78 854.57-18.25 859.42-18.25L859.42-18.25Q863.37-18.25 866.27-16.7L866.27-16.7Q866.22-18.6 865.79-19.75 865.37-20.9 864.12-21.53 862.87-22.15 860.42-22.15L860.42-22.15 855.72-22.15 855.72-27.95 861.17-27.95ZM859.97-4.7Q863.02-4.7 866.27-7.5L866.27-7.5 866.27-11.9Q863.62-13.25 860.82-13.25L860.82-13.25Q858.62-13.25 857.22-12.23 855.82-11.2 855.82-8.9L855.82-8.9Q855.82-6.65 856.99-5.68 858.17-4.7 859.97-4.7L859.97-4.7ZM894.72-21.25L888.32-21.25 888.32-8.6Q888.32-6.8 888.92-6.1 889.52-5.4 891.12-5.4L891.12-5.4Q892.72-5.4 894.17-5.8L894.17-5.8 894.17 0.05Q891.32 0.65 889.47 0.65L889.47 0.65Q885.32 0.65 883.47-1.1 881.62-2.85 881.62-6.5L881.62-6.5 881.62-21.25 877.92-21.25 877.92-27.3 881.62-27.3 881.62-36.8 888.32-36.8 888.32-27.3 894.72-27.3 894.72-21.25ZM900.51-32.8L900.51-40.35 907.21-40.35 907.21-32.8 900.51-32.8ZM900.51 0L900.51-27.95 907.21-27.95 907.21 0 900.51 0ZM927.91 0.85Q923.26 0.85 920.01-1.1 916.76-3.05 915.14-6.43 913.51-9.8 913.51-14L913.51-14Q913.51-18.15 915.14-21.5 916.76-24.85 920.01-26.8 923.26-28.75 927.91-28.75L927.91-28.75Q932.51-28.75 935.74-26.8 938.96-24.85 940.59-21.5 942.21-18.15 942.21-14L942.21-14Q942.21-9.8 940.59-6.43 938.96-3.05 935.74-1.1 932.51 0.85 927.91 0.85L927.91 0.85ZM927.91-5Q931.46-5 933.36-7.43 935.26-9.85 935.26-14L935.26-14Q935.26-18.15 933.36-20.55 931.46-22.95 927.91-22.95L927.91-22.95Q924.31-22.95 922.39-20.55 920.46-18.15 920.46-14L920.46-14Q920.46-9.85 922.39-7.43 924.31-5 927.91-5L927.91-5ZM963.36-28.55Q968.76-28.55 971.38-25.8 974.01-23.05 974.01-16.85L974.01-16.85 974.01 0 967.31 0 967.31-16.85Q967.31-19.8 966.13-21.18 964.96-22.55 962.06-22.55L962.06-22.55Q958.66-22.55 955.21-19.6L955.21-19.6 955.21 0 948.51 0 948.51-27.95 955.21-27.95 955.21-25.35Q959.01-28.55 963.36-28.55L963.36-28.55ZM991.31 0.85Q988.06 0.85 985.51 0.3 982.96-0.25 980.21-1.55L980.21-1.55 980.21-7.7Q982.86-6.2 985.58-5.53 988.31-4.85 991.31-4.85L991.31-4.85Q995.56-4.85 995.56-7.9L995.56-7.9Q995.56-9.2 994.83-9.83 994.11-10.45 992.56-10.85L992.56-10.85 988.46-11.75Q984.61-12.6 982.63-14.53 980.66-16.45 980.66-20.05L980.66-20.05Q980.66-28.75 991.51-28.75L991.51-28.75Q996.26-28.75 1001.06-26.95L1001.06-26.95 1001.06-21.05Q999.21-21.95 996.81-22.5 994.41-23.05 991.81-23.05L991.81-23.05Q987.46-23.05 987.46-20.45L987.46-20.45Q987.46-19.25 988.18-18.7 988.91-18.15 990.36-17.8L990.36-17.8 994.41-16.9Q998.46-15.95 1000.41-14.05 1002.36-12.15 1002.36-8.2L1002.36-8.2Q1002.36-3.75 999.36-1.45 996.36 0.85 991.31 0.85L991.31 0.85Z" opacity="1" transform="matrix(1,0,0,1,0,0)" fill="#7a7a7a" class="slogan-text-1" data-fill-palette-color="secondary" id="text-1"></path></svg></g></svg></g></svg></g></svg></g><g><svg viewBox="0 0 144.89871953585023 127.65676663913578" height="127.65676663913578" width="144.89871953585023"><g><svg xmlns="http://www.w3.org/2000/svg" xmlns:xlink="http://www.w3.org/1999/xlink" version="1.1" x="0" y="0" viewBox="6.3 11.5 87.4 77" style="enable-background:new 0 0 100 100;" xml:space="preserve" height="127.65676663913578" width="144.89871953585023" class="icon-icon-0" data-fill-palette-color="accent" id="icon-0"></svg></g></svg></g></svg></g><defs></defs><mask id="4a321aa7-51bf-48db-b077-441fabad16b2"><g id="SvgjsG4771"><svg viewBox="0 0 395.52 90.19216222794556" height="90.19216222794556" width="395.52"><g><svg viewBox="0 0 559.8136589020223 127.65676663913578" height="90.19216222794556" width="395.52"><g transform="matrix(1,0,0,1,164.29365890202234,6.096488131825595)"><svg viewBox="0 0 395.52 115.46379037548459" height="115.46379037548459" width="395.52"><g id="SvgjsG4770"><svg viewBox="0 0 395.52 115.46379037548459" height="115.46379037548459" width="395.52" id="SvgjsSvg4769"><g><svg viewBox="0 0 395.52 82.15548961424332" height="82.15548961424332" width="395.52"><g transform="matrix(1,0,0,1,0,0)"><svg width="395.52" viewBox="3.3 -41.1 252.72999999999996 52.5" height="82.15548961424332" data-palette-color="#7a7a7a"><g class="wordmark-text-0" data-fill-palette-color="primary" id="SvgjsG4768"><path d="M24.9-29.7L11-29.7 11-20.45 22.75-20.45 22.75-15.15 11-15.15 11 0 3.3 0 3.3-35 24.9-35 24.9-29.7ZM29.5 0L29.5-39.55 36.9-39.55 36.9 0 29.5 0ZM67.4-15.55Q67.4-14.85 67.15-12.4L67.15-12.4 49.45-12.4Q49.7-8.6 51.27-6.5 52.85-4.4 55.4-4.4L55.4-4.4Q56.55-4.4 57.32-4.7 58.09-5 58.92-5.78 59.75-6.55 61.1-8.3L61.1-8.3Q61.35-8.7 62.15-8.7L62.15-8.7Q63-8.7 64.22-8.13 65.45-7.55 66.84-6.5L66.84-6.5Q63.6 0.5 55.4 0.5L55.4 0.5Q49.1 0.5 45.5-3.33 41.9-7.15 41.9-13.8L41.9-13.8Q41.9-18.15 43.52-21.35 45.15-24.55 48.17-26.28 51.2-28 55.35-28L55.35-28Q61.1-28 64.25-24.75 67.4-21.5 67.4-15.55L67.4-15.55ZM49.55-16.6L59.9-16.6Q59.9-23.3 55.2-23.3L55.2-23.3Q52.8-23.3 51.35-21.6 49.9-19.9 49.55-16.6L49.55-16.6ZM94.09 0L87.19 0Q86.99-2.8 85.62-5.3 84.24-7.8 81.89-10.4L81.89-10.4Q79.54-7.8 78.17-5.3 76.79-2.8 76.59 0L76.59 0 69.69 0Q69.94-4.05 72.12-7.43 74.29-10.8 77.99-14.45L77.99-14.45Q75.44-17 73.84-18.88 72.24-20.75 71.12-22.93 69.99-25.1 69.79-27.5L69.79-27.5 76.69-27.5Q76.74-25.2 78.09-23.03 79.44-20.85 81.89-18.35L81.89-18.35Q84.34-20.85 85.69-23.03 87.04-25.2 87.09-27.5L87.09-27.5 93.99-27.5Q93.79-25.1 92.67-22.93 91.54-20.75 89.94-18.88 88.34-17 85.79-14.45L85.79-14.45Q89.49-10.8 91.67-7.43 93.84-4.05 94.09 0L94.09 0ZM98.39 0L98.39-27.5 105.79-27.5 105.79 0 98.39 0ZM101.74-32.55Q97.84-32.55 97.84-36.45L97.84-36.45 97.84-37.2Q97.84-41.1 101.74-41.1L101.74-41.1 102.44-41.1Q106.34-41.1 106.34-37.2L106.34-37.2 106.34-36.45Q106.34-32.55 102.44-32.55L102.44-32.55 101.74-32.55ZM125.89 0.5Q119.74 0.5 116.24-1.6 112.74-3.7 112.74-7.35L112.74-7.35Q112.74-9.1 114.21-10.1 115.69-11.1 118.39-11.15L118.39-11.15Q118.69-8.2 120.66-6.6 122.64-5 125.99-5L125.99-5Q132.14-5 132.14-9.55L132.14-9.55Q132.14-11.35 130.46-12.5 128.79-13.65 124.64-14.85L124.64-14.85Q118.74-16.5 115.99-19.07 113.24-21.65 113.24-25.7L113.24-25.7Q113.24-30.25 116.76-32.88 120.29-35.5 126.39-35.5L126.39-35.5Q131.29-35.5 134.79-33.18 138.29-30.85 139.59-26.7L139.59-26.7Q138.74-25.85 137.24-25.2 135.74-24.55 134.59-24.55L134.59-24.55Q133.69-24.55 133.19-24.93 132.69-25.3 132.14-26.35L132.14-26.35Q131.14-28.3 129.84-29.15 128.54-30 126.39-30L126.39-30Q121.04-30 121.04-26.45L121.04-26.45Q121.04-25.05 121.59-24.18 122.14-23.3 123.49-22.58 124.84-21.85 127.59-20.95L127.59-20.95Q132.59-19.3 135.24-17.93 137.89-16.55 138.96-14.95 140.04-13.35 140.04-11L140.04-11Q140.04-7.6 138.26-5 136.49-2.4 133.29-0.95 130.09 0.5 125.89 0.5L125.89 0.5ZM159.04-28Q164.39-28 167.14-24.53 169.89-21.05 169.89-14.3L169.89-14.3Q169.89-9.9 168.29-6.55 166.69-3.2 163.79-1.35 160.89 0.5 157.09 0.5L157.09 0.5Q154.99 0.5 151.94-0.35L151.94-0.35 151.94 11.4 144.54 11.4 144.54-17Q144.54-21.05 144.21-22.88 143.89-24.7 142.89-26L142.89-26Q144.29-26.8 145.86-27.25 147.44-27.7 148.84-27.7L148.84-27.7Q149.89-27.7 150.54-27 151.19-26.3 151.54-24.85L151.54-24.85Q154.54-28 159.04-28L159.04-28ZM156.04-4.3Q159.14-4.3 160.76-6.85 162.39-9.4 162.39-14.3L162.39-14.3Q162.39-18.95 161.19-21.13 159.99-23.3 157.39-23.3L157.39-23.3Q155.79-23.3 154.29-22.55 152.79-21.8 151.94-20.7L151.94-20.7 151.94-20.05 151.94-5.2Q153.99-4.3 156.04-4.3L156.04-4.3ZM196.58-10.35Q196.58-6.25 196.91-4.45 197.23-2.65 198.23-1.35L198.23-1.35Q197.18-0.6 195.53-0.13 193.88 0.35 192.53 0.35L192.53 0.35Q191.28 0.35 190.53-0.55 189.78-1.45 189.43-3.4L189.43-3.4Q188.08-1.3 186.23-0.4 184.38 0.5 181.43 0.5L181.43 0.5Q177.78 0.5 175.53-1.48 173.28-3.45 173.28-6.65L173.28-6.65Q173.28-11.15 177.06-13.38 180.83-15.6 189.18-16.05L189.18-16.05 189.18-18.65Q189.18-20.7 188.11-21.7 187.03-22.7 184.83-22.7L184.83-22.7Q183.23-22.7 181.66-22.08 180.08-21.45 177.78-19.9L177.78-19.9Q177.53-19.7 177.08-19.7L177.08-19.7Q176.18-19.7 175.16-20.9 174.13-22.1 173.33-24.05L173.33-24.05Q175.28-25.75 178.81-26.88 182.33-28 185.78-28L185.78-28Q190.98-28 193.78-25.58 196.58-23.15 196.58-18.65L196.58-18.65 196.58-10.35ZM184.03-4.3Q185.53-4.3 186.81-5.35 188.08-6.4 189.18-8.6L189.18-8.6 189.18-12.3Q185.03-12.15 182.91-10.93 180.78-9.7 180.78-7.45L180.78-7.45Q180.78-6 181.68-5.15 182.58-4.3 184.03-4.3L184.03-4.3ZM214.98 0.5Q201.18 0.5 201.18-13.9L201.18-13.9Q201.18-20.5 204.73-24.25 208.28-28 214.53-28L214.53-28Q219.43-28 222.61-25.58 225.78-23.15 226.33-19L226.33-19Q223.43-17.25 221.53-17.25L221.53-17.25Q220.73-17.25 220.21-17.75 219.68-18.25 219.33-19.35L219.33-19.35Q218.58-21.45 217.48-22.33 216.38-23.2 214.53-23.2L214.53-23.2Q211.73-23.2 210.21-20.8 208.68-18.4 208.68-13.9L208.68-13.9Q208.68-9.05 210.21-6.78 211.73-4.5 214.98-4.5L214.98-4.5Q217.23-4.5 218.53-6.03 219.83-7.55 220.48-10.9L220.48-10.9Q223.23-10.9 224.43-9.9 225.63-8.9 225.63-6.65L225.63-6.65Q225.63-4.75 224.16-3.1 222.68-1.45 220.23-0.48 217.78 0.5 214.98 0.5L214.98 0.5ZM256.03-15.55Q256.03-14.85 255.78-12.4L255.78-12.4 238.08-12.4Q238.33-8.6 239.9-6.5 241.48-4.4 244.03-4.4L244.03-4.4Q245.18-4.4 245.95-4.7 246.73-5 247.55-5.78 248.38-6.55 249.73-8.3L249.73-8.3Q249.98-8.7 250.78-8.7L250.78-8.7Q251.63-8.7 252.85-8.13 254.08-7.55 255.48-6.5L255.48-6.5Q252.23 0.5 244.03 0.5L244.03 0.5Q237.73 0.5 234.13-3.33 230.53-7.15 230.53-13.8L230.53-13.8Q230.53-18.15 232.15-21.35 233.78-24.55 236.8-26.28 239.83-28 243.98-28L243.98-28Q249.73-28 252.88-24.75 256.03-21.5 256.03-15.55L256.03-15.55ZM238.18-16.6L248.53-16.6Q248.53-23.3 243.83-23.3L243.83-23.3Q241.43-23.3 239.98-21.6 238.53-19.9 238.18-16.6L238.18-16.6Z" fill="black"></path></g></svg></g></svg></g><g transform="matrix(1,0,0,1,69.21599999999998,101.55042898041543)"><svg viewBox="0 0 257.088 13.913361395069156" height="13.913361395069156" width="257.088"><g transform="matrix(1,0,0,1,0,0)"><svg width="257.088" viewBox="4.65 -42.3 997.71 54" height="13.913361395069156" data-palette-color="#7a7a7a"><path d="M28.7-31.85L11.6-31.85 11.6-21.25 26.2-21.25 26.2-15.2 11.6-15.2 11.6 0 4.65 0 4.65-37.9 28.7-37.9 28.7-31.85ZM42.75 0.65Q38.65 0.65 36.75-1.07 34.85-2.8 34.85-6.4L34.85-6.4 34.85-42.3 41.55-42.3 41.55-8.6Q41.55-6.8 42.15-6.1 42.75-5.4 44.3-5.4L44.3-5.4Q45.85-5.4 47.05-5.7L47.05-5.7 47.05 0.1Q44.7 0.65 42.75 0.65L42.75 0.65ZM57.59-12.45Q58.4-4.85 66-4.85L66-4.85Q67.95-4.85 69.8-5.35 71.65-5.85 73.95-6.95L73.95-6.95 75.75-1.65Q73.34-0.3 70.84 0.28 68.34 0.85 65.2 0.85L65.2 0.85Q60.55 0.85 57.25-1.03 53.95-2.9 52.27-6.25 50.59-9.6 50.59-14.05L50.59-14.05Q50.59-18.7 52.34-22.03 54.09-25.35 57.09-27.05 60.09-28.75 63.8-28.75L63.8-28.75Q69.65-28.75 72.97-25.28 76.3-21.8 76.34-15.1L76.34-15.1 76.34-12.45 57.59-12.45ZM63.8-23.05Q58.9-23.05 57.84-17.65L57.84-17.65 69.3-17.65Q69.05-20.45 67.7-21.75 66.34-23.05 63.8-23.05L63.8-23.05ZM106.99 0L99.09 0 93.09-9.3 87.39 0 79.49 0 89.04-14.6 79.99-27.95 87.89-27.95 93.29-19.5 98.74-27.95 106.54-27.95 97.24-14.2 106.99 0ZM112.34-32.8L112.34-40.35 119.04-40.35 119.04-32.8 112.34-32.8ZM112.34 0L112.34-27.95 119.04-27.95 119.04 0 112.34 0ZM141.54-28.75Q145.24-28.75 148.11-27.1 150.99-25.45 152.59-22.13 154.19-18.8 154.19-13.95L154.19-13.95Q154.19-9.1 152.59-5.78 150.99-2.45 148.11-0.8 145.24 0.85 141.54 0.85L141.54 0.85Q137.54 0.85 133.74-2.2L133.74-2.2 133.74 0 127.04 0 127.04-42.3 133.74-42.3 133.74-25.75Q137.49-28.75 141.54-28.75L141.54-28.75ZM140.29-5.2Q143.69-5.2 145.44-7.43 147.19-9.65 147.19-13.95L147.19-13.95Q147.19-18.25 145.44-20.5 143.69-22.75 140.29-22.75L140.29-22.75Q137.04-22.75 133.74-20.2L133.74-20.2 133.74-7.75Q136.94-5.2 140.29-5.2L140.29-5.2ZM168.34 0.65Q164.24 0.65 162.34-1.07 160.44-2.8 160.44-6.4L160.44-6.4 160.44-42.3 167.14-42.3 167.14-8.6Q167.14-6.8 167.74-6.1 168.34-5.4 169.89-5.4L169.89-5.4Q171.44-5.4 172.64-5.7L172.64-5.7 172.64 0.1Q170.29 0.65 168.34 0.65L168.34 0.65ZM183.18-12.45Q183.98-4.85 191.58-4.85L191.58-4.85Q193.53-4.85 195.38-5.35 197.23-5.85 199.53-6.95L199.53-6.95 201.33-1.65Q198.93-0.3 196.43 0.28 193.93 0.85 190.78 0.85L190.78 0.85Q186.13 0.85 182.83-1.03 179.53-2.9 177.86-6.25 176.18-9.6 176.18-14.05L176.18-14.05Q176.18-18.7 177.93-22.03 179.68-25.35 182.68-27.05 185.68-28.75 189.38-28.75L189.38-28.75Q195.23-28.75 198.56-25.28 201.88-21.8 201.93-15.1L201.93-15.1 201.93-12.45 183.18-12.45ZM189.38-23.05Q184.48-23.05 183.43-17.65L183.43-17.65 194.88-17.65Q194.63-20.45 193.28-21.75 191.93-23.05 189.38-23.05L189.38-23.05ZM231.13 0.85Q223.58 0.85 217.68-1.95L217.68-1.95 217.68-8.25Q223.73-5.1 231.13-5.1L231.13-5.1Q234.68-5.1 236.33-6.45 237.98-7.8 238.03-10.05L238.03-10.05Q238.03-12.25 236.5-13.35 234.98-14.45 231.68-15.35L231.68-15.35 228.28-16.3Q225.38-17.1 223.23-18.23 221.08-19.35 219.63-21.53 218.18-23.7 218.18-27.15L218.18-27.15Q218.18-32.75 221.53-35.68 224.88-38.6 230.98-38.6L230.98-38.6Q234.63-38.6 237.4-37.93 240.18-37.25 243.08-35.9L243.08-35.9 243.08-29.8Q237.63-32.65 230.98-32.65L230.98-32.65Q225.08-32.65 225.08-27.7L225.08-27.7Q225.13-25.5 226.45-24.45 227.78-23.4 231.03-22.55L231.03-22.55 234.48-21.6Q237.63-20.75 239.83-19.55 242.03-18.35 243.48-16.13 244.93-13.9 244.93-10.35L244.93-10.35Q244.88-5.15 241.2-2.15 237.53 0.85 231.13 0.85L231.13 0.85ZM266.08-28.75Q269.78-28.75 272.65-27.1 275.53-25.45 277.13-22.13 278.73-18.8 278.73-13.95L278.73-13.95Q278.73-9.1 277.13-5.78 275.53-2.45 272.65-0.8 269.78 0.85 266.08 0.85L266.08 0.85Q262.08 0.85 258.28-2.2L258.28-2.2 258.28 11.7 251.58 11.7 251.58-27.95 258.28-27.95 258.28-25.75Q262.03-28.75 266.08-28.75L266.08-28.75ZM264.83-5.2Q268.23-5.2 269.98-7.43 271.73-9.65 271.73-13.95L271.73-13.95Q271.73-18.25 269.98-20.5 268.23-22.75 264.83-22.75L264.83-22.75Q261.58-22.75 258.28-20.2L258.28-20.2 258.28-7.75Q261.48-5.2 264.83-5.2L264.83-5.2ZM294.72-27.95Q299.67-27.95 302.25-26.48 304.82-25 305.67-22.53 306.52-20.05 306.52-16.3L306.52-16.3 306.52 0 299.82 0 299.82-2.55Q297.97-0.85 296.2-0.1 294.42 0.65 292.32 0.65L292.32 0.65Q287.92 0.65 285.25-1.88 282.57-4.4 282.57-8.8L282.57-8.8Q282.57-13.3 285.35-15.78 288.12-18.25 292.97-18.25L292.97-18.25Q296.92-18.25 299.82-16.7L299.82-16.7Q299.77-18.6 299.35-19.75 298.92-20.9 297.67-21.53 296.42-22.15 293.97-22.15L293.97-22.15 289.27-22.15 289.27-27.95 294.72-27.95ZM293.52-4.7Q296.57-4.7 299.82-7.5L299.82-7.5 299.82-11.9Q297.17-13.25 294.37-13.25L294.37-13.25Q292.17-13.25 290.77-12.23 289.37-11.2 289.37-8.9L289.37-8.9Q289.37-6.65 290.55-5.68 291.72-4.7 293.52-4.7L293.52-4.7ZM325.97 0.85Q319.22 0.8 315.65-3.13 312.07-7.05 312.07-14.05L312.07-14.05Q312.07-20.95 315.65-24.83 319.22-28.7 325.97-28.75L325.97-28.75Q328.37-28.75 330.1-28.45 331.82-28.15 333.67-27.4L333.67-27.4 333.67-21.15Q331.82-22.05 330.2-22.4 328.57-22.75 326.62-22.75L326.62-22.75Q319.02-22.7 319.02-14.1L319.02-14.1Q319.02-5.2 326.47-5.2L326.47-5.2Q330.07-5.2 333.82-7.35L333.82-7.35 335.77-1.75Q331.27 0.85 325.97 0.85L325.97 0.85ZM346.37-12.45Q347.17-4.85 354.77-4.85L354.77-4.85Q356.72-4.85 358.57-5.35 360.42-5.85 362.72-6.95L362.72-6.95 364.52-1.65Q362.12-0.3 359.62 0.28 357.12 0.85 353.97 0.85L353.97 0.85Q349.32 0.85 346.02-1.03 342.72-2.9 341.04-6.25 339.37-9.6 339.37-14.05L339.37-14.05Q339.37-18.7 341.12-22.03 342.87-25.35 345.87-27.05 348.87-28.75 352.57-28.75L352.57-28.75Q358.42-28.75 361.74-25.28 365.07-21.8 365.12-15.1L365.12-15.1 365.12-12.45 346.37-12.45ZM352.57-23.05Q347.67-23.05 346.62-17.65L346.62-17.65 358.07-17.65Q357.82-20.45 356.47-21.75 355.12-23.05 352.57-23.05L352.57-23.05ZM380.47 0.85Q377.22 0.85 374.67 0.3 372.12-0.25 369.37-1.55L369.37-1.55 369.37-7.7Q372.02-6.2 374.74-5.53 377.47-4.85 380.47-4.85L380.47-4.85Q384.72-4.85 384.72-7.9L384.72-7.9Q384.72-9.2 383.99-9.83 383.27-10.45 381.72-10.85L381.72-10.85 377.62-11.75Q373.77-12.6 371.79-14.53 369.82-16.45 369.82-20.05L369.82-20.05Q369.82-28.75 380.67-28.75L380.67-28.75Q385.42-28.75 390.22-26.95L390.22-26.95 390.22-21.05Q388.37-21.95 385.97-22.5 383.57-23.05 380.97-23.05L380.97-23.05Q376.62-23.05 376.62-20.45L376.62-20.45Q376.62-19.25 377.34-18.7 378.07-18.15 379.52-17.8L379.52-17.8 383.57-16.9Q387.62-15.95 389.57-14.05 391.52-12.15 391.52-8.2L391.52-8.2Q391.52-3.75 388.52-1.45 385.52 0.85 380.47 0.85L380.47 0.85ZM395.71 7.55L398.71-8.55 405.71-8.55 401.76 7.55 395.71 7.55ZM435.46 0.85Q427.91 0.85 422.01-1.95L422.01-1.95 422.01-8.25Q428.06-5.1 435.46-5.1L435.46-5.1Q439.01-5.1 440.66-6.45 442.31-7.8 442.36-10.05L442.36-10.05Q442.36-12.25 440.83-13.35 439.31-14.45 436.01-15.35L436.01-15.35 432.61-16.3Q429.71-17.1 427.56-18.23 425.41-19.35 423.96-21.53 422.51-23.7 422.51-27.15L422.51-27.15Q422.51-32.75 425.86-35.68 429.21-38.6 435.31-38.6L435.31-38.6Q438.96-38.6 441.73-37.93 444.51-37.25 447.41-35.9L447.41-35.9 447.41-29.8Q441.96-32.65 435.31-32.65L435.31-32.65Q429.41-32.65 429.41-27.7L429.41-27.7Q429.46-25.5 430.78-24.45 432.11-23.4 435.36-22.55L435.36-22.55 438.81-21.6Q441.96-20.75 444.16-19.55 446.36-18.35 447.81-16.13 449.26-13.9 449.26-10.35L449.26-10.35Q449.21-5.15 445.53-2.15 441.86 0.85 435.46 0.85L435.46 0.85ZM461.21-12.45Q462.01-4.85 469.61-4.85L469.61-4.85Q471.56-4.85 473.41-5.35 475.26-5.85 477.56-6.95L477.56-6.95 479.36-1.65Q476.96-0.3 474.46 0.28 471.96 0.85 468.81 0.85L468.81 0.85Q464.16 0.85 460.86-1.03 457.56-2.9 455.88-6.25 454.21-9.6 454.21-14.05L454.21-14.05Q454.21-18.7 455.96-22.03 457.71-25.35 460.71-27.05 463.71-28.75 467.41-28.75L467.41-28.75Q473.26-28.75 476.58-25.28 479.91-21.8 479.96-15.1L479.96-15.1 479.96-12.45 461.21-12.45ZM467.41-23.05Q462.51-23.05 461.46-17.65L461.46-17.65 472.91-17.65Q472.66-20.45 471.31-21.75 469.96-23.05 467.41-23.05L467.41-23.05ZM495.5-27.95Q500.45-27.95 503.03-26.48 505.6-25 506.45-22.53 507.3-20.05 507.3-16.3L507.3-16.3 507.3 0 500.6 0 500.6-2.55Q498.75-0.85 496.98-0.1 495.2 0.65 493.1 0.65L493.1 0.65Q488.7 0.65 486.03-1.88 483.35-4.4 483.35-8.8L483.35-8.8Q483.35-13.3 486.13-15.78 488.9-18.25 493.75-18.25L493.75-18.25Q497.7-18.25 500.6-16.7L500.6-16.7Q500.55-18.6 500.13-19.75 499.7-20.9 498.45-21.53 497.2-22.15 494.75-22.15L494.75-22.15 490.05-22.15 490.05-27.95 495.5-27.95ZM494.3-4.7Q497.35-4.7 500.6-7.5L500.6-7.5 500.6-11.9Q497.95-13.25 495.15-13.25L495.15-13.25Q492.95-13.25 491.55-12.23 490.15-11.2 490.15-8.9L490.15-8.9Q490.15-6.65 491.33-5.68 492.5-4.7 494.3-4.7L494.3-4.7ZM547.25-28.55Q552.45-28.55 555-25.78 557.55-23 557.55-16.85L557.55-16.85 557.55 0 550.85 0 550.85-16.85Q550.85-19.8 549.75-21.18 548.65-22.55 545.95-22.55L545.95-22.55Q542.7-22.55 539.25-19.45L539.25-19.45Q539.4-18.25 539.4-16.85L539.4-16.85 539.4 0 532.7 0 532.7-16.85Q532.7-19.8 531.6-21.18 530.5-22.55 527.8-22.55L527.8-22.55Q524.55-22.55 521.25-19.65L521.25-19.65 521.25 0 514.55 0 514.55-27.95 521.25-27.95 521.25-25.4Q525-28.55 529.1-28.55L529.1-28.55Q532.4-28.55 534.63-27.48 536.85-26.4 538-24.1L538-24.1Q540.25-26.35 542.48-27.45 544.7-28.55 547.25-28.55L547.25-28.55ZM572.8 0.65Q568.7 0.65 566.8-1.07 564.9-2.8 564.9-6.4L564.9-6.4 564.9-42.3 571.6-42.3 571.6-8.6Q571.6-6.8 572.2-6.1 572.8-5.4 574.35-5.4L574.35-5.4Q575.9-5.4 577.1-5.7L577.1-5.7 577.1 0.1Q574.75 0.65 572.8 0.65L572.8 0.65ZM587.64-12.45Q588.45-4.85 596.05-4.85L596.05-4.85Q598-4.85 599.85-5.35 601.7-5.85 604-6.95L604-6.95 605.8-1.65Q603.39-0.3 600.89 0.28 598.39 0.85 595.25 0.85L595.25 0.85Q590.6 0.85 587.3-1.03 584-2.9 582.32-6.25 580.64-9.6 580.64-14.05L580.64-14.05Q580.64-18.7 582.39-22.03 584.14-25.35 587.14-27.05 590.14-28.75 593.85-28.75L593.85-28.75Q599.7-28.75 603.02-25.28 606.35-21.8 606.39-15.1L606.39-15.1 606.39-12.45 587.64-12.45ZM593.85-23.05Q588.95-23.05 587.89-17.65L587.89-17.65 599.35-17.65Q599.1-20.45 597.75-21.75 596.39-23.05 593.85-23.05L593.85-23.05ZM621.74 0.85Q618.49 0.85 615.94 0.3 613.39-0.25 610.64-1.55L610.64-1.55 610.64-7.7Q613.29-6.2 616.02-5.53 618.74-4.85 621.74-4.85L621.74-4.85Q625.99-4.85 625.99-7.9L625.99-7.9Q625.99-9.2 625.27-9.83 624.54-10.45 622.99-10.85L622.99-10.85 618.89-11.75Q615.04-12.6 613.07-14.53 611.09-16.45 611.09-20.05L611.09-20.05Q611.09-28.75 621.94-28.75L621.94-28.75Q626.69-28.75 631.49-26.95L631.49-26.95 631.49-21.05Q629.64-21.95 627.24-22.5 624.84-23.05 622.24-23.05L622.24-23.05Q617.89-23.05 617.89-20.45L617.89-20.45Q617.89-19.25 618.62-18.7 619.34-18.15 620.79-17.8L620.79-17.8 624.84-16.9Q628.89-15.95 630.84-14.05 632.79-12.15 632.79-8.2L632.79-8.2Q632.79-3.75 629.79-1.45 626.79 0.85 621.74 0.85L621.74 0.85ZM648.69 0.85Q645.44 0.85 642.89 0.3 640.34-0.25 637.59-1.55L637.59-1.55 637.59-7.7Q640.24-6.2 642.97-5.53 645.69-4.85 648.69-4.85L648.69-4.85Q652.94-4.85 652.94-7.9L652.94-7.9Q652.94-9.2 652.22-9.83 651.49-10.45 649.94-10.85L649.94-10.85 645.84-11.75Q641.99-12.6 640.01-14.53 638.04-16.45 638.04-20.05L638.04-20.05Q638.04-28.75 648.89-28.75L648.89-28.75Q653.64-28.75 658.44-26.95L658.44-26.95 658.44-21.05Q656.59-21.95 654.19-22.5 651.79-23.05 649.19-23.05L649.19-23.05Q644.84-23.05 644.84-20.45L644.84-20.45Q644.84-19.25 645.56-18.7 646.29-18.15 647.74-17.8L647.74-17.8 651.79-16.9Q655.84-15.95 657.79-14.05 659.74-12.15 659.74-8.2L659.74-8.2Q659.74-3.75 656.74-1.45 653.74 0.85 648.69 0.85L648.69 0.85ZM699.38 0L690.48-14.85 684.68-14.85 684.68 0 677.73 0 677.73-37.9 692.08-37.9Q705.48-37.9 705.48-26.35L705.48-26.35Q705.48-22.05 703.48-19.3 701.48-16.55 697.53-15.5L697.53-15.5 707.13 0 699.38 0ZM684.68-31.95L684.68-20.8 692.08-20.8Q698.43-20.8 698.43-26.5L698.43-26.5Q698.43-29.35 696.86-30.65 695.28-31.95 692.08-31.95L692.08-31.95 684.68-31.95ZM718.58-12.45Q719.38-4.85 726.98-4.85L726.98-4.85Q728.93-4.85 730.78-5.35 732.63-5.85 734.93-6.95L734.93-6.95 736.73-1.65Q734.33-0.3 731.83 0.28 729.33 0.85 726.18 0.85L726.18 0.85Q721.53 0.85 718.23-1.03 714.93-2.9 713.26-6.25 711.58-9.6 711.58-14.05L711.58-14.05Q711.58-18.7 713.33-22.03 715.08-25.35 718.08-27.05 721.08-28.75 724.78-28.75L724.78-28.75Q730.63-28.75 733.96-25.28 737.28-21.8 737.33-15.1L737.33-15.1 737.33-12.45 718.58-12.45ZM724.78-23.05Q719.88-23.05 718.83-17.65L718.83-17.65 730.28-17.65Q730.03-20.45 728.68-21.75 727.33-23.05 724.78-23.05L724.78-23.05ZM752.68 0.85Q749.43 0.85 746.88 0.3 744.33-0.25 741.58-1.55L741.58-1.55 741.58-7.7Q744.23-6.2 746.95-5.53 749.68-4.85 752.68-4.85L752.68-4.85Q756.93-4.85 756.93-7.9L756.93-7.9Q756.93-9.2 756.2-9.83 755.48-10.45 753.93-10.85L753.93-10.85 749.83-11.75Q745.98-12.6 744-14.53 742.03-16.45 742.03-20.05L742.03-20.05Q742.03-28.75 752.88-28.75L752.88-28.75Q757.63-28.75 762.43-26.95L762.43-26.95 762.43-21.05Q760.58-21.95 758.18-22.5 755.78-23.05 753.18-23.05L753.18-23.05Q748.83-23.05 748.83-20.45L748.83-20.45Q748.83-19.25 749.55-18.7 750.28-18.15 751.73-17.8L751.73-17.8 755.78-16.9Q759.83-15.95 761.78-14.05 763.73-12.15 763.73-8.2L763.73-8.2Q763.73-3.75 760.73-1.45 757.73 0.85 752.68 0.85L752.68 0.85ZM775.38-12.45Q776.18-4.85 783.78-4.85L783.78-4.85Q785.73-4.85 787.58-5.35 789.43-5.85 791.73-6.95L791.73-6.95 793.53-1.65Q791.13-0.3 788.63 0.28 786.13 0.85 782.98 0.85L782.98 0.85Q778.33 0.85 775.03-1.03 771.73-2.9 770.05-6.25 768.38-9.6 768.38-14.05L768.38-14.05Q768.38-18.7 770.13-22.03 771.88-25.35 774.88-27.05 777.88-28.75 781.58-28.75L781.58-28.75Q787.43-28.75 790.75-25.28 794.08-21.8 794.13-15.1L794.13-15.1 794.13-12.45 775.38-12.45ZM781.58-23.05Q776.68-23.05 775.63-17.65L775.63-17.65 787.08-17.65Q786.83-20.45 785.48-21.75 784.13-23.05 781.58-23.05L781.58-23.05ZM814.67-28.55L815.82-28.55 815.82-22.55 814.67-22.55Q810.57-22.55 806.62-19.45L806.62-19.45 806.62 0 799.92 0 799.92-27.95 806.62-27.95 806.62-25.15Q810.47-28.55 814.67-28.55L814.67-28.55ZM839.52-27.95L846.42-27.95 836.57 0.45 828.17 0.45 818.32-27.95 825.22-27.95 832.37-5.95 839.52-27.95ZM861.17-27.95Q866.12-27.95 868.69-26.48 871.27-25 872.12-22.53 872.97-20.05 872.97-16.3L872.97-16.3 872.97 0 866.27 0 866.27-2.55Q864.42-0.85 862.64-0.1 860.87 0.65 858.77 0.65L858.77 0.65Q854.37 0.65 851.69-1.88 849.02-4.4 849.02-8.8L849.02-8.8Q849.02-13.3 851.79-15.78 854.57-18.25 859.42-18.25L859.42-18.25Q863.37-18.25 866.27-16.7L866.27-16.7Q866.22-18.6 865.79-19.75 865.37-20.9 864.12-21.53 862.87-22.15 860.42-22.15L860.42-22.15 855.72-22.15 855.72-27.95 861.17-27.95ZM859.97-4.7Q863.02-4.7 866.27-7.5L866.27-7.5 866.27-11.9Q863.62-13.25 860.82-13.25L860.82-13.25Q858.62-13.25 857.22-12.23 855.82-11.2 855.82-8.9L855.82-8.9Q855.82-6.65 856.99-5.68 858.17-4.7 859.97-4.7L859.97-4.7ZM894.72-21.25L888.32-21.25 888.32-8.6Q888.32-6.8 888.92-6.1 889.52-5.4 891.12-5.4L891.12-5.4Q892.72-5.4 894.17-5.8L894.17-5.8 894.17 0.05Q891.32 0.65 889.47 0.65L889.47 0.65Q885.32 0.65 883.47-1.1 881.62-2.85 881.62-6.5L881.62-6.5 881.62-21.25 877.92-21.25 877.92-27.3 881.62-27.3 881.62-36.8 888.32-36.8 888.32-27.3 894.72-27.3 894.72-21.25ZM900.51-32.8L900.51-40.35 907.21-40.35 907.21-32.8 900.51-32.8ZM900.51 0L900.51-27.95 907.21-27.95 907.21 0 900.51 0ZM927.91 0.85Q923.26 0.85 920.01-1.1 916.76-3.05 915.14-6.43 913.51-9.8 913.51-14L913.51-14Q913.51-18.15 915.14-21.5 916.76-24.85 920.01-26.8 923.26-28.75 927.91-28.75L927.91-28.75Q932.51-28.75 935.74-26.8 938.96-24.85 940.59-21.5 942.21-18.15 942.21-14L942.21-14Q942.21-9.8 940.59-6.43 938.96-3.05 935.74-1.1 932.51 0.85 927.91 0.85L927.91 0.85ZM927.91-5Q931.46-5 933.36-7.43 935.26-9.85 935.26-14L935.26-14Q935.26-18.15 933.36-20.55 931.46-22.95 927.91-22.95L927.91-22.95Q924.31-22.95 922.39-20.55 920.46-18.15 920.46-14L920.46-14Q920.46-9.85 922.39-7.43 924.31-5 927.91-5L927.91-5ZM963.36-28.55Q968.76-28.55 971.38-25.8 974.01-23.05 974.01-16.85L974.01-16.85 974.01 0 967.31 0 967.31-16.85Q967.31-19.8 966.13-21.18 964.96-22.55 962.06-22.55L962.06-22.55Q958.66-22.55 955.21-19.6L955.21-19.6 955.21 0 948.51 0 948.51-27.95 955.21-27.95 955.21-25.35Q959.01-28.55 963.36-28.55L963.36-28.55ZM991.31 0.85Q988.06 0.85 985.51 0.3 982.96-0.25 980.21-1.55L980.21-1.55 980.21-7.7Q982.86-6.2 985.58-5.53 988.31-4.85 991.31-4.85L991.31-4.85Q995.56-4.85 995.56-7.9L995.56-7.9Q995.56-9.2 994.83-9.83 994.11-10.45 992.56-10.85L992.56-10.85 988.46-11.75Q984.61-12.6 982.63-14.53 980.66-16.45 980.66-20.05L980.66-20.05Q980.66-28.75 991.51-28.75L991.51-28.75Q996.26-28.75 1001.06-26.95L1001.06-26.95 1001.06-21.05Q999.21-21.95 996.81-22.5 994.41-23.05 991.81-23.05L991.81-23.05Q987.46-23.05 987.46-20.45L987.46-20.45Q987.46-19.25 988.18-18.7 988.91-18.15 990.36-17.8L990.36-17.8 994.41-16.9Q998.46-15.95 1000.41-14.05 1002.36-12.15 1002.36-8.2L1002.36-8.2Q1002.36-3.75 999.36-1.45 996.36 0.85 991.31 0.85L991.31 0.85Z" opacity="1" transform="matrix(1,0,0,1,0,0)" fill="black" class="slogan-text-1" id="SvgjsPath4767"></path></svg></g></svg></g></svg></g></svg></g><g><svg viewBox="0 0 144.89871953585023 127.65676663913578" height="127.65676663913578" width="144.89871953585023"><g><svg xmlns="http://www.w3.org/2000/svg" xmlns:xlink="http://www.w3.org/1999/xlink" version="1.1" x="0" y="0" viewBox="6.3 11.5 87.4 77" style="enable-background:new 0 0 100 100;" xml:space="preserve" height="127.65676663913578" width="144.89871953585023" class="icon-icon-0" data-fill-palette-color="accent" id="SvgjsSvg4766"><path d="M72.3 12.3L71.9 11.5H28.2L6.3 50 28.1 88.5H71.8L93.7 50zM33.3 25.3L9.9 47.7 28.5 14.9zM70.7 14.8L77.1 50.5 36.9 25.8zM35.5 27.3L76.5 52.5 35.5 75.8zM77 54.5L69.8 85.3 37.2 77.2zM33.5 75L9.9 50.5 33.5 27.8zM33.2 77.6L28.6 85.3 11.5 55.1zM35 78.6L66.4 86.5H30.2zM79.3 53.3L90.9 50.8 72.1 84zM90.7 48.9L79.3 51.4 73.4 18.3zM35 24.3L30 13.5H68.2z" fill="white"></path></svg></g></svg></g></svg></g><defs><mask></mask></defs></svg><rect width="395.52" height="90.19216222794556" fill="black" stroke="none" visibility="hidden"></rect></g></mask><linearGradient x1="0" x2="1" y1="0.578" y2="0.595" id="10745e6a-09a5-456e-b49c-8e17eb078b32"><stop stop-color="#6ee2f5" offset="0"></stop><stop stop-color="#6454f0" offset="1"></stop></linearGradient><rect width="395.52" height="90.19216222794556" fill="url(#10745e6a-09a5-456e-b49c-8e17eb078b32)" mask="url(#4a321aa7-51bf-48db-b077-441fabad16b2)" data-fill-palette-color="accent"></rect></svg><rect width="395.52" height="90.19216222794556" fill="none" stroke="none" visibility="hidden"></rect></g></svg></g></svg>