<svg width="364" height="321" viewBox="0 0 364 321" fill="none" xmlns="http://www.w3.org/2000/svg">
<g clip-path="url(#clip0_1_125)">
<path d="M274.639 3.32896L272.974 0H91.1302L0 160.206L90.7141 320.412H272.558L363.689 160.206L274.639 3.32896ZM112.352 57.4245L14.9803 150.635L92.3786 14.1481L112.352 57.4245ZM267.981 13.7319L294.613 162.287L127.333 59.5051L267.981 13.7319ZM121.507 65.7469L292.116 170.609L121.507 267.565V65.7469ZM294.197 178.931L264.236 307.096L128.581 273.391L294.197 178.931ZM113.185 264.236L14.9803 162.287L113.185 67.8275V264.236ZM111.936 275.055L92.7947 307.096L21.6382 181.428L111.936 275.055ZM119.426 279.216L250.088 312.09H99.4526L119.426 279.216ZM303.767 173.938L352.037 163.535L273.807 301.687L303.767 173.938ZM351.205 155.629L303.767 166.032L279.216 28.2961L351.205 155.629ZM119.426 53.2633L98.6204 8.32239H257.578L119.426 53.2633Z" fill="url(#paint0_linear_1_125)"/>
</g>
<defs>
<linearGradient id="paint0_linear_1_125" x1="-181.5" y1="-4.53226e-07" x2="167.127" y2="760.343" gradientUnits="userSpaceOnUse">
<stop stop-color="#6EE2F5"/>
<stop offset="1" stop-color="#6454F0"/>
</linearGradient>
<clipPath id="clip0_1_125">
<rect width="363.689" height="320.412" fill="white"/>
</clipPath>
</defs>
</svg>
